<svg xmlns="http://www.w3.org/2000/svg" width="222" height="36" viewBox="0 0 222 36">
    <g fill="#224298" fill-rule="evenodd">
        <path d="M7.03 3.054C8.575 1.602 10.655.866 13.213.866c.128 0 .257.002.388.005 4.276.12 6.307 2.434 7.258 4.353.89 1.794.975 3.515.982 3.924.07.894.413 8.493-7.67 13.495-2.76 1.708-4.94 3.075-6.634 4.192V35.5H4.412v-6.471c-.89.694-1.45 1.242-1.754 1.71L0 29.173c.701-1.079 1.922-2.17 4.412-3.88V9.38c-.003-.13-.04-3.826 2.618-6.326zm.506 6.3v13.884c1.385-.884 3.013-1.9 4.93-3.087 6.783-4.198 6.282-10.53 6.257-10.797l-.007-.142c-.003-.529-.18-5.227-5.207-5.368a10.185 10.185 0 0 0-.287-.004c-1.713 0-3.056.446-3.995 1.33-1.69 1.589-1.691 4.158-1.69 4.184zM55.193 0c-4.816 0-8.734 3.793-8.734 8.457v18.586c0 4.664 3.918 8.457 8.734 8.457 3.186 0 6.123-1.69 7.663-4.41l-2.729-1.449c-.993 1.756-2.884 2.846-4.934 2.846-3.1 0-5.622-2.442-5.622-5.444V8.457c0-3.002 2.521-5.444 5.622-5.444 1.922 0 3.693.945 4.739 2.528l2.621-1.624C60.933 1.464 58.181 0 55.193 0zM74.243 0c-4.772 0-8.654 3.793-8.654 8.457v18.586c0 4.664 3.882 8.457 8.654 8.457s8.654-3.793 8.654-8.457V8.457C82.897 3.793 79.015 0 74.243 0zm-5.57 27.043V8.457c0-3.002 2.498-5.444 5.57-5.444s5.57 2.442 5.57 5.444v18.586c0 3.002-2.498 5.444-5.57 5.444s-5.57-2.442-5.57-5.444zM38.82 1.732v15.872c0 2.982-2.498 5.407-5.57 5.407s-5.571-2.425-5.571-5.407V1.732h-3.083v15.872c0 4.632 3.882 8.4 8.654 8.4 2.12 0 4.064-.743 5.57-1.976v3.071c0 2.982-2.498 5.408-5.57 5.408V35.5c4.772 0 8.654-3.768 8.654-8.4V1.731h-3.083zM94.29 0c-4.775 0-8.66 3.819-8.66 8.513v26.388h3.085V8.513c0-3.021 2.501-5.48 5.575-5.48 3.074 0 5.575 2.459 5.575 5.48v21.501c-.004.236.012 2.35 1.59 3.923 1.041 1.037 2.459 1.563 4.216 1.563v-3.033c-.633 0-2.704-.175-2.72-2.431V8.513C102.95 3.82 99.065 0 94.29 0zM153.268 3.612a5.837 5.837 0 0 0-.733 2.652v22.693c0 3.547-1.507 3.547-2.073 3.547-.567 0-2.074 0-2.074-3.547V18.39h-3.173v10.567c0 3.547-1.506 3.547-2.073 3.547s-2.073 0-2.073-3.547V7.85c0-2.717-1.414-4.869-3.98-6.057a10.632 10.632 0 0 0-3.725-.927L119.586.866c-.146 0-1.466.02-2.81.692-1.874.94-2.906 2.697-2.906 4.946h3.172c0-.608.185-2.594 2.544-2.642h6.297v31.23h3.173V3.862h4.201c.6.033 4.638.393 4.638 3.99v21.105c0 5.906 3.67 6.543 5.247 6.543.897 0 2.47-.206 3.66-1.469 1.19 1.263 2.764 1.469 3.66 1.469 1.577 0 5.246-.637 5.246-6.543V6.264c0-.006.022-.64.363-1.248.279-.495.834-1.154 2.436-1.154V.866c-2.383 0-4.243.975-5.239 2.746M185.714 5.722a13.285 13.285 0 0 1-4.13 2.78 15.827 15.827 0 0 1-4.858 1.23V8.227c1.943-.274 3.709-.912 5.296-1.914a12.068 12.068 0 0 0 3.887-3.964h1.652v31.44h-1.847V5.722zm14.667 20.525c.393 2.028 1.335 3.68 2.825 4.954 1.49 1.275 3.382 1.912 5.676 1.912 1.54 0 2.874-.268 4.004-.806a9.018 9.018 0 0 0 2.875-2.12 11.029 11.029 0 0 0 1.916-3.018 19.084 19.084 0 0 0 1.13-3.502c.262-1.198.443-2.381.54-3.549a38.2 38.2 0 0 0 .148-3.18l-.098-.091c-.36.89-.827 1.72-1.4 2.488a9.808 9.808 0 0 1-2.089 2.05c-.819.6-1.76 1.068-2.825 1.406-1.065.338-2.252.507-3.563.507-1.703 0-3.26-.269-4.668-.806-1.408-.538-2.612-1.29-3.611-2.258-1-.968-1.778-2.113-2.334-3.434-.557-1.32-.836-2.78-.836-4.377 0-1.567.287-3.003.86-4.309a10.225 10.225 0 0 1 2.383-3.387c1.016-.952 2.22-1.69 3.612-2.212 1.392-.522 2.924-.783 4.594-.783.852 0 1.745.077 2.678.23.934.154 1.835.423 2.703.807.868.384 1.695.929 2.481 1.635.787.707 1.475 1.606 2.064 2.696.59 1.09 1.057 2.42 1.4 3.986.345 1.567.517 3.41.517 5.53 0 1.29-.066 2.634-.197 4.032a26.26 26.26 0 0 1-.712 4.102 19.709 19.709 0 0 1-1.4 3.801 11.338 11.338 0 0 1-2.286 3.157c-.933.906-2.047 1.62-3.341 2.143-1.294.522-2.81.783-4.545.783-2.883 0-5.25-.722-7.1-2.166-1.852-1.444-2.941-3.517-3.269-6.22h1.868zm9.14-4.47c1.408 0 2.694-.245 3.857-.737a9.484 9.484 0 0 0 3.022-2.005 9.06 9.06 0 0 0 1.99-2.972 9.346 9.346 0 0 0 .712-3.64 8.8 8.8 0 0 0-.737-3.572 9.186 9.186 0 0 0-2.014-2.926 9.367 9.367 0 0 0-3.022-1.958c-1.163-.477-2.433-.715-3.809-.715-1.376 0-2.645.246-3.808.738a9.687 9.687 0 0 0-3.022 1.981 9.186 9.186 0 0 0-2.015 2.926 8.69 8.69 0 0 0-.737 3.526c0 1.26.246 2.457.737 3.594a9.388 9.388 0 0 0 2.015 2.972 9.806 9.806 0 0 0 3.022 2.028c1.163.507 2.432.76 3.808.76z"/>
    </g>
</svg>
