<svg xmlns="http://www.w3.org/2000/svg" width="55" height="25" viewBox="0 0 55 25">
    <defs>
        <linearGradient id="a" x1="16.403%" y1="0%" y2="98.021%">
            <stop offset="0%" stop-color="#3B097B"/>
            <stop offset="100%" stop-color="#192660"/>
        </linearGradient>
    </defs>
    <g fill="none" fill-rule="evenodd">
        <g fill="url(#a)" fill-rule="nonzero" transform="translate(3 3)">
            <path d="M29.91 14.791c0 .79.64 1.431 1.43 1.431h6.683v1.022a1.909 1.909 0 1 0 .954 0v-1.022h6.682c.79 0 1.432-.64 1.432-1.43V2.861H29.909v11.93zm9.545 4.294a.954.954 0 1 1-1.91 0 .954.954 0 0 1 1.91 0zM48.045 0a.954.954 0 1 1 0 1.909h-19.09a.954.954 0 1 1 0-1.909h19.09zM35.358 7.688v1.478h1.588c.235 0 .428.19.428.422a.427.427 0 0 1-.428.42h-1.588v1.52h2.226a.43.43 0 1 1 0 .86h-2.713a.483.483 0 0 1-.487-.48v-4.6c0-.264.218-.479.487-.479h2.621a.43.43 0 1 1 0 .86h-2.134zm7.208-.925a.48.48 0 0 1 .478.471v4.748a.48.48 0 0 1-.873.265l-2.478-3.518v3.253a.48.48 0 0 1-.958 0V7.234a.48.48 0 0 1 .479-.47.45.45 0 0 1 .386.198l2.487 3.542v-3.27a.48.48 0 0 1 .479-.47zM10.037 0C15.531 0 20 4.486 20 10s-4.47 10-9.963 10a9.857 9.857 0 0 1-5.696-1.798L.39 19.976a.275.275 0 0 1-.304-.052.28.28 0 0 1-.069-.302l1.614-4.256A9.982 9.982 0 0 1 .075 10c0-5.514 4.469-10 9.962-10zM6.274 8.877h2.134a.435.435 0 0 0 .437-.439A.435.435 0 0 0 8.408 8h-2.62a.488.488 0 0 0-.488.489v4.696c0 .27.218.49.487.49H8.5a.435.435 0 0 0 .437-.44.435.435 0 0 0-.437-.438H6.274v-1.55h1.588a.431.431 0 0 0 0-.86H6.274v-1.51zM14.13 8c-.26 0-.478.22-.478.48v3.34l-2.487-3.618A.448.448 0 0 0 10.78 8c-.26 0-.479.22-.479.48v4.849c0 .261.218.48.479.48.26 0 .479-.219.479-.48v-3.322l2.478 3.591c.084.127.235.211.394.211.26 0 .48-.219.48-.48V8.48A.485.485 0 0 0 14.13 8z"/>
        </g>
    </g>
</svg>
