<svg xmlns="http://www.w3.org/2000/svg" width="24" height="24" viewBox="0 0 24 24">
    <path fill="#224398" fill-rule="evenodd" d="M16.76 7.386c.275.272.448.654.448 1.072v.96L21.09 8.12c.52-.135.909.473.909.946v5.806c0 .54-.39 1.08-.909.945l-3.883-1.071v1.003c0 .81-.65 1.486-1.428 1.486H7.1l9.66-9.849zM4.134 17.446h-.189c-.793 0-1.454-.687-1.454-1.512V8.512C2.49 7.687 3.151 7 3.944 7h10.113c.1 0 .198.01.292.032L4.133 17.446zm14.92-14.34a.348.348 0 0 1 .5 0 .365.365 0 0 1 0 .509l-16.95 17.28a.348.348 0 0 1-.5 0 .365.365 0 0 1 0-.51l16.95-17.28zM15.242 15c.276 0 .49.219.49.5s-.214.5-.49.5a.489.489 0 0 1-.49-.5c0-.281.214-.5.49-.5zm-1.972 0c.24 0 .481.25.481.5 0 .3-.24.5-.48.5-.241 0-.481-.2-.481-.5 0-.25.24-.5.48-.5z"/>
</svg>
