<svg xmlns="http://www.w3.org/2000/svg" width="24" height="24" viewBox="0 0 24 24">
    <path fill="#224398" fill-rule="nonzero" d="M16 9.951c0-1.166-.39-2.162-1.172-2.987-.781-.826-1.724-1.238-2.828-1.238-1.104 0-2.047.412-2.828 1.238C8.39 7.789 8 8.784 8 9.95s.39 2.163 1.172 2.988c.781.825 1.724 1.238 2.828 1.238 1.104 0 2.047-.413 2.828-1.238C15.61 12.114 16 11.118 16 9.951zm4 0c0 1.2-.172 2.185-.516 2.955l-5.687 8.422c-.167.363-.414.65-.742.858a1.928 1.928 0 0 1-2.11 0 1.87 1.87 0 0 1-.726-.858l-5.703-8.422C4.172 12.136 4 11.151 4 9.951c0-2.333.781-4.324 2.344-5.975C7.906 2.326 9.792 1.5 12 1.5c2.208 0 4.094.825 5.656 2.476C19.22 5.626 20 7.618 20 9.951z"/>
</svg>
