<svg xmlns="http://www.w3.org/2000/svg" width="24" height="24" viewBox="0 0 24 24">
    <g fill="none" fill-rule="evenodd">
        <rect width="24" height="24" fill="#E6851A" rx="4"/>
        <path fill="#FFF" fill-rule="nonzero" d="M6.872 8.788v3.808h1.722c1.61 0 2.492-.644 2.492-1.974 0-1.358-.882-1.834-2.492-1.834H6.872zM12.682 18h-1.47L8.72 13.646H6.872V18H5.57V7.738h3.22c2.086 0 3.584.742 3.584 2.884 0 1.596-.924 2.548-2.324 2.884L12.682 18zm4.074.182c-1.61 0-2.618-.672-3.29-1.4l.644-.84c.602.63 1.386 1.176 2.548 1.176 1.218 0 2.086-.728 2.086-1.904 0-1.232-.826-2.058-3.192-2.058v-.98c2.114 0 2.842-.854 2.842-1.96 0-.994-.672-1.624-1.736-1.652-.826.028-1.554.448-2.128 1.022l-.686-.812c.77-.714 1.68-1.232 2.87-1.232 1.722 0 2.982.924 2.982 2.576 0 1.246-.742 2.072-1.834 2.478v.056c1.218.28 2.184 1.204 2.184 2.604 0 1.834-1.47 2.926-3.29 2.926z"/>
    </g>
</svg>
