<svg xmlns="http://www.w3.org/2000/svg" width="25" height="25" viewBox="0 0 25 25">
    <defs>
        <linearGradient id="a" x1="16.403%" y1="0%" y2="98.021%">
            <stop offset="0%" stop-color="#3B097B"/>
            <stop offset="100%" stop-color="#192660"/>
        </linearGradient>
    </defs>
    <g fill="none" fill-rule="evenodd">
        <path fill="url(#a)" d="M145.76 35.386c.275.272.448.654.448 1.072v.96l3.883-1.298c.52-.135.909.473.909.946v5.806c0 .54-.39 1.08-.909.945l-3.883-1.071v1.003c0 .81-.65 1.486-1.428 1.486h-8.68l9.66-9.849zm-12.627 10.06h-.189c-.793 0-1.454-.687-1.454-1.512v-7.422c0-.825.661-1.512 1.454-1.512h10.113c.1 0 .198.01.292.032l-10.216 10.414zm14.92-14.34a.348.348 0 0 1 .5 0 .365.365 0 0 1 0 .509l-16.95 17.28a.348.348 0 0 1-.5 0 .365.365 0 0 1 0-.51l16.95-17.28zM144.242 43c.276 0 .49.219.49.5s-.214.5-.49.5a.489.489 0 0 1-.49-.5c0-.281.214-.5.49-.5zm-1.972 0c.24 0 .481.25.481.5 0 .3-.24.5-.48.5-.241 0-.481-.2-.481-.5 0-.25.24-.5.48-.5z" transform="translate(-128 -27)"/>
    </g>
</svg>
