<svg xmlns="http://www.w3.org/2000/svg" width="24" height="24" viewBox="0 0 24 24">
    <path fill="#224398" fill-rule="nonzero" d="M13.667 7.417v5.833c0 .122-.04.221-.118.3a.406.406 0 0 1-.299.117H9.083a.406.406 0 0 1-.3-.118.406.406 0 0 1-.116-.299v-.833c0-.122.039-.222.117-.3a.406.406 0 0 1 .3-.117H12V7.417c0-.122.04-.222.117-.3a.406.406 0 0 1 .3-.117h.833c.122 0 .221.04.3.117a.406.406 0 0 1 .117.3zM19.083 12c0-1.285-.317-2.47-.95-3.555a7.061 7.061 0 0 0-2.578-2.578A6.924 6.924 0 0 0 12 4.917c-1.285 0-2.47.317-3.555.95a7.061 7.061 0 0 0-2.578 2.578A6.924 6.924 0 0 0 4.917 12c0 1.285.317 2.47.95 3.555a7.061 7.061 0 0 0 2.578 2.578c1.085.633 2.27.95 3.555.95 1.285 0 2.47-.317 3.555-.95a7.061 7.061 0 0 0 2.578-2.578c.633-1.085.95-2.27.95-3.555zM22 12c0 1.814-.447 3.487-1.341 5.02a9.955 9.955 0 0 1-3.64 3.639C15.488 21.553 13.815 22 12 22s-3.487-.447-5.02-1.341a9.955 9.955 0 0 1-3.639-3.64C2.447 15.488 2 13.815 2 12s.447-3.487 1.341-5.02a9.955 9.955 0 0 1 3.64-3.639C8.512 2.447 10.185 2 12 2s3.487.447 5.02 1.341a9.955 9.955 0 0 1 3.639 3.64C21.553 8.512 22 10.185 22 12z"/>
</svg>
