<?xml version="1.0" encoding="UTF-8"?>
<svg width="1482px" height="727px" viewBox="0 0 1482 727" version="1.1" xmlns="http://www.w3.org/2000/svg" xmlns:xlink="http://www.w3.org/1999/xlink">
    <!-- Generator: Sketch 49.3 (51167) - http://www.bohemiancoding.com/sketch -->
    <title>PyCon＿removingBg</title>
    <desc>Created with Sketch.</desc>
    <defs></defs>
    <g id="PyCon＿removingBg" stroke="none" stroke-width="1" fill="none" fill-rule="evenodd">
        <g id="Group-6" transform="translate(2.000000, -85.000000)">
            <g id="Group-4" transform="translate(828.000000, 297.500000) rotate(135.000000) translate(-828.000000, -297.500000) translate(617.000000, 88.000000)">
                <g id="Group-2" transform="translate(210.000000, 207.000000)">
                    <g id="Group" transform="translate(105.500000, 105.500000) scale(-1, -1) translate(-105.500000, -105.500000) translate(-0.000000, 0.000000)" fill="#50E3C2">
                        <path d="M0.302309256,210.292893 C0.296036564,209.62697 0.292893219,208.960299 0.292893219,208.292893 C0.292893219,93.4176653 93.4176653,0.292893219 208.292893,0.292893219 C209.127383,0.292893219 209.960726,0.297807443 210.792893,0.307608531 L210.792893,61.7928932 C167.126227,64.1262266 131.792893,78.9595599 104.792893,106.292893 C77.7928932,133.626227 63.7928932,168.292893 62.7928932,210.292893 L0.302309256,210.292893 Z" id="Combined-Shape"></path>
                    </g>
                    <path d="M45.2071068,42.2071068 C73.8737734,15.8737734 108.207107,2.04044011 148.207107,0.707106781 L148.207107,62.2071068 C124.207107,63.5404401 104.207107,72.2071068 88.2071068,88.2071068 C72.2071068,104.207107 63.7071068,124.54044 62.7071068,149.207107 L0.207106781,149.207107 C1.54044011,104.207107 16.5404401,68.5404401 45.2071068,42.2071068 Z" id="Combined-Shape" fill="#4A90E2" transform="translate(74.207107, 74.957107) scale(-1, -1) translate(-74.207107, -74.957107) "></path>
                </g>
                <g id="Group-2" transform="translate(106.373566, 312.605515) scale(-1, 1) translate(-106.373566, -312.605515) translate(0.373566, 207.105515)">
                    <g id="Group" transform="translate(106.000000, 105.500000) scale(-1, -1) translate(-106.000000, -105.500000) translate(-0.000000, 0.000000)" fill="#50E3C2">
                        <path d="M0.716522818,210.292893 C0.710250126,209.62697 0.707106781,208.960299 0.707106781,208.292893 C0.707106781,93.4176653 93.8318788,0.292893219 208.707107,0.292893219 C209.541597,0.292893219 210.374939,0.297807443 211.207107,0.307608531 L211.207107,61.7928932 C167.54044,64.1262266 132.207107,78.9595599 105.207107,106.292893 C78.2071068,133.626227 64.2071068,168.292893 63.2071068,210.292893 L0.716522818,210.292893 Z" id="Combined-Shape"></path>
                    </g>
                    <path d="M45.7928932,42.2071068 C74.4595599,15.8737734 108.792893,2.04044011 148.792893,0.707106781 L148.792893,62.2071068 C124.792893,63.5404401 104.792893,72.2071068 88.7928932,88.2071068 C72.7928932,104.207107 64.2928932,124.54044 63.2928932,149.207107 L0.792893219,149.207107 C2.12622655,104.207107 17.1262266,68.5404401 45.7928932,42.2071068 Z" id="Combined-Shape" fill="#4A90E2" transform="translate(74.792893, 74.957107) scale(-1, -1) translate(-74.792893, -74.957107) "></path>
                </g>
                <g id="Group-2" transform="translate(315.472526, 106.054677) scale(1, -1) translate(-315.472526, -106.054677) translate(209.972526, 0.554677)">
                    <g id="Group" transform="translate(105.500000, 105.500000) scale(-1, -1) translate(-105.500000, -105.500000) translate(-0.000000, 0.000000)" fill="#50E3C2">
                        <path d="M0.302309256,210.707107 C0.296036564,210.041184 0.292893219,209.374512 0.292893219,208.707107 C0.292893219,93.8318788 93.4176653,0.707106781 208.292893,0.707106781 C209.127383,0.707106781 209.960726,0.712021005 210.792893,0.721822093 L210.792893,62.2071068 C167.126227,64.5404401 131.792893,79.3737734 104.792893,106.707107 C77.7928932,134.04044 63.7928932,168.707107 62.7928932,210.707107 L0.302309256,210.707107 Z" id="Combined-Shape"></path>
                    </g>
                    <path d="M45.2071068,41.7928932 C73.8737734,15.4595599 108.207107,1.62622655 148.207107,0.292893219 L148.207107,61.7928932 C124.207107,63.1262266 104.207107,71.7928932 88.2071068,87.7928932 C72.2071068,103.792893 63.7071068,124.126227 62.7071068,148.792893 L0.207106781,148.792893 C1.54044011,103.792893 16.5404401,68.1262266 45.2071068,41.7928932 Z" id="Combined-Shape" fill="#4A90E2" transform="translate(74.207107, 74.542893) scale(-1, -1) translate(-74.207107, -74.542893) "></path>
                </g>
            </g>
            <g id="Group-7" transform="translate(0.000000, 383.000000)">
                <g id="Group-2-Copy-3" transform="translate(105.500000, 105.000000) scale(-1, -1) translate(-105.500000, -105.000000) ">
                    <g id="Group" transform="translate(105.500000, 105.000000) scale(-1, -1) translate(-105.500000, -105.000000) " fill="#50E3C2">
                        <path d="M0.00941603728,210 C0.00314334473,209.334077 0,208.667405 0,208 C0,93.124772 93.124772,0 208,0 C208.83449,0 209.667833,0.00491422419 210.5,0.0147153119 L210.5,61.5 C166.833333,63.8333333 131.5,78.6666667 104.5,106 C77.5,133.333333 63.5,168 62.5,210 L0.00941603728,210 Z" id="Combined-Shape"></path>
                    </g>
                    <path d="M45.5,41.5 C74.1666667,15.1666667 108.5,1.33333333 148.5,0 L148.5,61.5 C124.5,62.8333333 104.5,71.5 88.5,87.5 C72.5,103.5 64,123.833333 63,148.5 L0.5,148.5 C1.83333333,103.5 16.8333333,67.8333333 45.5,41.5 Z" id="Combined-Shape" fill="#4A90E2" transform="translate(74.500000, 74.250000) scale(-1, -1) translate(-74.500000, -74.250000) "></path>
                </g>
                <g id="Group-2-Copy-7" transform="translate(105.500000, 314.000000) scale(-1, 1) translate(-105.500000, -314.000000) translate(0.000000, 209.000000)">
                    <g id="Group" transform="translate(105.500000, 105.000000) scale(-1, -1) translate(-105.500000, -105.000000) " fill="#50E3C2">
                        <path d="M0.00941603728,210 C0.00314334473,209.334077 0,208.667405 0,208 C0,93.124772 93.124772,0 208,0 C208.83449,0 209.667833,0.00491422419 210.5,0.0147153119 L210.5,61.5 C166.833333,63.8333333 131.5,78.6666667 104.5,106 C77.5,133.333333 63.5,168 62.5,210 L0.00941603728,210 Z" id="Combined-Shape"></path>
                    </g>
                    <path d="M45.5,41.5 C74.1666667,15.1666667 108.5,1.33333333 148.5,0 L148.5,61.5 C124.5,62.8333333 104.5,71.5 88.5,87.5 C72.5,103.5 64,123.833333 63,148.5 L0.5,148.5 C1.83333333,103.5 16.8333333,67.8333333 45.5,41.5 Z" id="Combined-Shape" fill="#4A90E2" transform="translate(74.500000, 74.250000) scale(-1, -1) translate(-74.500000, -74.250000) "></path>
                </g>
            </g>
            <g id="Group-2" transform="translate(610.500000, 192.000000) scale(1, -1) translate(-610.500000, -192.000000) translate(505.000000, 87.000000)">
                <g id="Group" transform="translate(105.500000, 105.000000) scale(-1, -1) translate(-105.500000, -105.000000) " fill="#4A90E2">
                    <path d="M0.00941603728,210 C0.00314334473,209.334077 0,208.667405 0,208 C0,93.124772 93.124772,0 208,0 C208.83449,0 209.667833,0.00491422419 210.5,0.0147153119 L210.5,61.5 C166.833333,63.8333333 131.5,78.6666667 104.5,106 C77.5,133.333333 63.5,168 62.5,210 L0.00941603728,210 Z" id="Combined-Shape"></path>
                </g>
                <path d="M45.5,41.5 C74.1666667,15.1666667 108.5,1.33333333 148.5,0 L148.5,61.5 C124.5,62.8333333 104.5,71.5 88.5,87.5 C72.5,103.5 64,123.833333 63,148.5 L0.5,148.5 C1.83333333,103.5 16.8333333,67.8333333 45.5,41.5 Z" id="Combined-Shape" fill="#50E3C2" transform="translate(74.500000, 74.250000) scale(-1, -1) translate(-74.500000, -74.250000) "></path>
            </g>
            <g id="Group-2" transform="translate(359.000000, 496.000000)">
                <g id="Group" transform="translate(105.500000, 105.000000) scale(-1, -1) translate(-105.500000, -105.000000) " fill="#4A90E2">
                    <path d="M0.00941603728,210 C0.00314334473,209.334077 0,208.667405 0,208 C0,93.124772 93.124772,0 208,0 C208.83449,0 209.667833,0.00491422419 210.5,0.0147153119 L210.5,61.5 C166.833333,63.8333333 131.5,78.6666667 104.5,106 C77.5,133.333333 63.5,168 62.5,210 L0.00941603728,210 Z" id="Combined-Shape"></path>
                </g>
                <path d="M45.5,41.5 C74.1666667,15.1666667 108.5,1.33333333 148.5,0 L148.5,61.5 C124.5,62.8333333 104.5,71.5 88.5,87.5 C72.5,103.5 64,123.833333 63,148.5 L0.5,148.5 C1.83333333,103.5 16.8333333,67.8333333 45.5,41.5 Z" id="Combined-Shape" fill="#50E3C2" transform="translate(74.500000, 74.250000) scale(-1, -1) translate(-74.500000, -74.250000) "></path>
            </g>
            <g id="Group-2-Copy-6" transform="translate(400.000000, 401.000000) scale(-1, -1) rotate(-90.000000) translate(-400.000000, -401.000000) translate(295.000000, 296.000000)">
                <g id="Group" transform="translate(105.000000, 105.000000) scale(-1, -1) translate(-105.000000, -105.000000) " fill="#4A90E2">
                    <path d="M0.00937141151,210 C0.00312844736,209.334077 0,208.667405 0,208 C0,93.124772 92.6834224,0 207.014218,0 C207.844753,0 208.674146,0.00491422419 209.50237,0.0147153119 L209.50237,61.5 C166.042654,63.8333333 130.876777,78.6666667 104.004739,106 C77.1327014,133.333333 63.1990521,168 62.2037915,210 L0.00937141151,210 Z" id="Combined-Shape"></path>
                </g>
                <path d="M45.2843602,41.5 C73.8151659,15.1666667 107.985782,1.33333333 147.796209,0 L147.796209,61.5 C123.909953,62.8333333 104.004739,71.5 88.0805687,87.5 C72.1563981,103.5 63.6966825,123.833333 62.7014218,148.5 L0.497630332,148.5 C1.82464455,103.5 16.7535545,67.8333333 45.2843602,41.5 Z" id="Combined-Shape" fill="#50E3C2" transform="translate(74.146919, 74.250000) scale(-1, -1) translate(-74.146919, -74.250000) "></path>
            </g>
            <g id="Group-2-Copy-6" transform="translate(609.000000, 401.000000) scale(1, -1) rotate(-90.000000) translate(-609.000000, -401.000000) translate(504.000000, 296.000000)">
                <g id="Group" transform="translate(105.000000, 105.000000) scale(-1, -1) translate(-105.000000, -105.000000) " fill="#4A90E2">
                    <path d="M0.00937141151,210 C0.00312844736,209.334077 0,208.667405 0,208 C0,93.124772 92.6834224,0 207.014218,0 C207.844753,0 208.674146,0.00491422419 209.50237,0.0147153119 L209.50237,61.5 C166.042654,63.8333333 130.876777,78.6666667 104.004739,106 C77.1327014,133.333333 63.1990521,168 62.2037915,210 L0.00937141151,210 Z" id="Combined-Shape"></path>
                </g>
                <path d="M45.2843602,41.5 C73.8151659,15.1666667 107.985782,1.33333333 147.796209,0 L147.796209,61.5 C123.909953,62.8333333 104.004739,71.5 88.0805687,87.5 C72.1563981,103.5 63.6966825,123.833333 62.7014218,148.5 L0.497630332,148.5 C1.82464455,103.5 16.7535545,67.8333333 45.2843602,41.5 Z" id="Combined-Shape" fill="#50E3C2" transform="translate(74.146919, 74.250000) scale(-1, -1) translate(-74.146919, -74.250000) "></path>
            </g>
            <g id="Group-2-Copy-7" transform="translate(314.500000, 192.000000) scale(1, -1) translate(-314.500000, -192.000000) translate(209.000000, 87.000000)">
                <g id="Group" transform="translate(105.500000, 105.000000) scale(-1, -1) translate(-105.500000, -105.000000) " fill="#50E3C2">
                    <path d="M0.00941603728,210 C0.00314334473,209.334077 0,208.667405 0,208 C0,93.124772 93.124772,0 208,0 C208.83449,0 209.667833,0.00491422419 210.5,0.0147153119 L210.5,61.5 C166.833333,63.8333333 131.5,78.6666667 104.5,106 C77.5,133.333333 63.5,168 62.5,210 L0.00941603728,210 Z" id="Combined-Shape"></path>
                </g>
                <path d="M45.5,41.5 C74.1666667,15.1666667 108.5,1.33333333 148.5,0 L148.5,61.5 C124.5,62.8333333 104.5,71.5 88.5,87.5 C72.5,103.5 64,123.833333 63,148.5 L0.5,148.5 C1.83333333,103.5 16.8333333,67.8333333 45.5,41.5 Z" id="Combined-Shape" fill="#4A90E2" transform="translate(74.500000, 74.250000) scale(-1, -1) translate(-74.500000, -74.250000) "></path>
            </g>
            <g id="Group-2-Copy-7" transform="translate(105.500000, 192.000000) scale(-1, -1) translate(-105.500000, -192.000000) translate(0.000000, 87.000000)">
                <g id="Group" transform="translate(105.500000, 105.000000) scale(-1, -1) translate(-105.500000, -105.000000) " fill="#50E3C2">
                    <path d="M0.00941603728,210 C0.00314334473,209.334077 0,208.667405 0,208 C0,93.124772 93.124772,0 208,0 C208.83449,0 209.667833,0.00491422419 210.5,0.0147153119 L210.5,61.5 C166.833333,63.8333333 131.5,78.6666667 104.5,106 C77.5,133.333333 63.5,168 62.5,210 L0.00941603728,210 Z" id="Combined-Shape"></path>
                </g>
                <path d="M45.5,41.5 C74.1666667,15.1666667 108.5,1.33333333 148.5,0 L148.5,61.5 C124.5,62.8333333 104.5,71.5 88.5,87.5 C72.5,103.5 64,123.833333 63,148.5 L0.5,148.5 C1.83333333,103.5 16.8333333,67.8333333 45.5,41.5 Z" id="Combined-Shape" fill="#4A90E2" transform="translate(74.500000, 74.250000) scale(-1, -1) translate(-74.500000, -74.250000) "></path>
            </g>
            <g id="Group-2-Copy-7" transform="translate(105.500000, 401.000000) scale(-1, 1) translate(-105.500000, -401.000000) translate(0.000000, 296.000000)">
                <g id="Group" transform="translate(105.500000, 105.000000) scale(-1, -1) translate(-105.500000, -105.000000) " fill="#50E3C2">
                    <path d="M0.00941603728,210 C0.00314334473,209.334077 0,208.667405 0,208 C0,93.124772 93.124772,0 208,0 C208.83449,0 209.667833,0.00491422419 210.5,0.0147153119 L210.5,61.5 C166.833333,63.8333333 131.5,78.6666667 104.5,106 C77.5,133.333333 63.5,168 62.5,210 L0.00941603728,210 Z" id="Combined-Shape"></path>
                </g>
                <path d="M45.5,41.5 C74.1666667,15.1666667 108.5,1.33333333 148.5,0 L148.5,61.5 C124.5,62.8333333 104.5,71.5 88.5,87.5 C72.5,103.5 64,123.833333 63,148.5 L0.5,148.5 C1.83333333,103.5 16.8333333,67.8333333 45.5,41.5 Z" id="Combined-Shape" fill="#4A90E2" transform="translate(74.500000, 74.250000) scale(-1, -1) translate(-74.500000, -74.250000) "></path>
            </g>
            <g id="Group-2-Copy-7" transform="translate(209.000000, 296.000000)">
                <g id="Group" transform="translate(105.500000, 105.000000) scale(-1, -1) translate(-105.500000, -105.000000) " fill="#50E3C2">
                    <path d="M0.00941603728,210 C0.00314334473,209.334077 0,208.667405 0,208 C0,93.124772 93.124772,0 208,0 C208.83449,0 209.667833,0.00491422419 210.5,0.0147153119 L210.5,61.5 C166.833333,63.8333333 131.5,78.6666667 104.5,106 C77.5,133.333333 63.5,168 62.5,210 L0.00941603728,210 Z" id="Combined-Shape"></path>
                </g>
                <path d="M45.5,41.5 C74.1666667,15.1666667 108.5,1.33333333 148.5,0 L148.5,61.5 C124.5,62.8333333 104.5,71.5 88.5,87.5 C72.5,103.5 64,123.833333 63,148.5 L0.5,148.5 C1.83333333,103.5 16.8333333,67.8333333 45.5,41.5 Z" id="Combined-Shape" fill="#4A90E2" transform="translate(74.500000, 74.250000) scale(-1, -1) translate(-74.500000, -74.250000) "></path>
            </g>
            <g id="Group-3" transform="translate(976.000000, 87.000000)">
                <g id="Group-5" transform="translate(293.168192, 254.033527) rotate(-90.000000) translate(-293.168192, -254.033527) translate(82.168192, 44.033527)">
                    <g id="Group-2" transform="translate(315.500000, 105.000000) scale(1, -1) translate(-315.500000, -105.000000) translate(210.000000, 0.000000)">
                        <g id="Group" transform="translate(105.500000, 105.000000) scale(-1, -1) translate(-105.500000, -105.000000) " fill="#50E3C2">
                            <path d="M0.00941603728,210 C0.00314334473,209.334077 0,208.667405 0,208 C0,93.124772 93.124772,0 208,0 C208.83449,0 209.667833,0.00491422419 210.5,0.0147153119 L210.5,61.5 C166.833333,63.8333333 131.5,78.6666667 104.5,106 C77.5,133.333333 63.5,168 62.5,210 L0.00941603728,210 Z" id="Combined-Shape"></path>
                        </g>
                        <path d="M45.5,41.5 C74.1666667,15.1666667 108.5,1.33333333 148.5,0 L148.5,61.5 C124.5,62.8333333 104.5,71.5 88.5,87.5 C72.5,103.5 64,123.833333 63,148.5 L0.5,148.5 C1.83333333,103.5 16.8333333,67.8333333 45.5,41.5 Z" id="Combined-Shape" fill="#4A90E2" transform="translate(74.500000, 74.250000) scale(-1, -1) translate(-74.500000, -74.250000) "></path>
                    </g>
                    <g id="Group-2-Copy-5" transform="translate(210.129355, 209.338638)">
                        <g id="Group" transform="translate(105.500000, 105.000000) scale(-1, -1) translate(-105.500000, -105.000000) " fill="#50E3C2">
                            <path d="M0.00941603728,210 C0.00314334473,209.334077 0,208.667405 0,208 C0,93.124772 93.124772,0 208,0 C208.83449,0 209.667833,0.00491422419 210.5,0.0147153119 L210.5,61.5 C166.833333,63.8333333 131.5,78.6666667 104.5,106 C77.5,133.333333 63.5,168 62.5,210 L0.00941603728,210 Z" id="Combined-Shape"></path>
                        </g>
                        <g id="Group" transform="translate(105.500000, 105.000000) scale(-1, -1) translate(-105.500000, -105.000000) " fill="#50E3C2">
                            <path d="M0.00941603728,210 C0.00314334473,209.334077 0,208.667405 0,208 C0,93.124772 93.124772,0 208,0 C208.83449,0 209.667833,0.00491422419 210.5,0.0147153119 L210.5,61.5 C166.833333,63.8333333 131.5,78.6666667 104.5,106 C77.5,133.333333 63.5,168 62.5,210 L0.00941603728,210 Z" id="Combined-Shape"></path>
                        </g>
                        <path d="M45.5,41.5 C74.1666667,15.1666667 108.5,1.33333333 148.5,0 L148.5,61.5 C124.5,62.8333333 104.5,71.5 88.5,87.5 C72.5,103.5 64,123.833333 63,148.5 L0.5,148.5 C1.83333333,103.5 16.8333333,67.8333333 45.5,41.5 Z" id="Combined-Shape" fill="#4A90E2" transform="translate(74.500000, 74.250000) scale(-1, -1) translate(-74.500000, -74.250000) "></path>
                        <path d="M45.5,41.5 C74.1666667,15.1666667 108.5,1.33333333 148.5,0 L148.5,61.5 C124.5,62.8333333 104.5,71.5 88.5,87.5 C72.5,103.5 64,123.833333 63,148.5 L0.5,148.5 C1.83333333,103.5 16.8333333,67.8333333 45.5,41.5 Z" id="Combined-Shape" fill="#4A90E2" transform="translate(74.500000, 74.250000) scale(-1, -1) translate(-74.500000, -74.250000) "></path>
                    </g>
                    <g id="Group-2-Copy-5" transform="translate(106.421547, 314.168918) scale(-1, 1) translate(-106.421547, -314.168918) translate(0.921547, 209.168918)">
                        <g id="Group" transform="translate(105.500000, 105.000000) scale(-1, -1) translate(-105.500000, -105.000000) " fill="#50E3C2">
                            <path d="M0.00941603728,210 C0.00314334473,209.334077 0,208.667405 0,208 C0,93.124772 93.124772,0 208,0 C208.83449,0 209.667833,0.00491422419 210.5,0.0147153119 L210.5,61.5 C166.833333,63.8333333 131.5,78.6666667 104.5,106 C77.5,133.333333 63.5,168 62.5,210 L0.00941603728,210 Z" id="Combined-Shape"></path>
                        </g>
                        <g id="Group" transform="translate(105.500000, 105.000000) scale(-1, -1) translate(-105.500000, -105.000000) " fill="#50E3C2">
                            <path d="M0.00941603728,210 C0.00314334473,209.334077 0,208.667405 0,208 C0,93.124772 93.124772,0 208,0 C208.83449,0 209.667833,0.00491422419 210.5,0.0147153119 L210.5,61.5 C166.833333,63.8333333 131.5,78.6666667 104.5,106 C77.5,133.333333 63.5,168 62.5,210 L0.00941603728,210 Z" id="Combined-Shape"></path>
                        </g>
                        <path d="M45.5,41.5 C74.1666667,15.1666667 108.5,1.33333333 148.5,0 L148.5,61.5 C124.5,62.8333333 104.5,71.5 88.5,87.5 C72.5,103.5 64,123.833333 63,148.5 L0.5,148.5 C1.83333333,103.5 16.8333333,67.8333333 45.5,41.5 Z" id="Combined-Shape" fill="#4A90E2" transform="translate(74.500000, 74.250000) scale(-1, -1) translate(-74.500000, -74.250000) "></path>
                        <path d="M45.5,41.5 C74.1666667,15.1666667 108.5,1.33333333 148.5,0 L148.5,61.5 C124.5,62.8333333 104.5,71.5 88.5,87.5 C72.5,103.5 64,123.833333 63,148.5 L0.5,148.5 C1.83333333,103.5 16.8333333,67.8333333 45.5,41.5 Z" id="Combined-Shape" fill="#4A90E2" transform="translate(74.500000, 74.250000) scale(-1, -1) translate(-74.500000, -74.250000) "></path>
                    </g>
                </g>
                <g id="Group-2" transform="translate(105.000000, 105.500000) rotate(-90.000000) translate(-105.000000, -105.500000) translate(-0.500000, 0.500000)">
                    <g id="Group" transform="translate(105.500000, 105.000000) scale(-1, -1) translate(-105.500000, -105.000000) " fill="#50E3C2">
                        <path d="M0.00941603728,210 C0.00314334473,209.334077 0,208.667405 0,208 C0,93.124772 93.124772,0 208,0 C208.83449,0 209.667833,0.00491422419 210.5,0.0147153119 L210.5,61.5 C166.833333,63.8333333 131.5,78.6666667 104.5,106 C77.5,133.333333 63.5,168 62.5,210 L0.00941603728,210 Z" id="Combined-Shape"></path>
                    </g>
                    <path d="M45.5,41.5 C74.1666667,15.1666667 108.5,1.33333333 148.5,0 L148.5,61.5 C124.5,62.8333333 104.5,71.5 88.5,87.5 C72.5,103.5 64,123.833333 63,148.5 L0.5,148.5 C1.83333333,103.5 16.8333333,67.8333333 45.5,41.5 Z" id="Combined-Shape" fill="#4A90E2" transform="translate(74.500000, 74.250000) scale(-1, -1) translate(-74.500000, -74.250000) "></path>
                </g>
                <g id="Group-2" transform="translate(105.000000, 314.500000) scale(1, -1) rotate(-90.000000) translate(-105.000000, -314.500000) translate(-0.500000, 209.500000)">
                    <g id="Group" transform="translate(105.500000, 105.000000) scale(-1, -1) translate(-105.500000, -105.000000) " fill="#50E3C2">
                        <path d="M0.00941603728,210 C0.00314334473,209.334077 0,208.667405 0,208 C0,93.124772 93.124772,2.84217094e-14 208,2.84217094e-14 C208.83449,2.84217094e-14 209.667833,0.00491422419 210.5,0.0147153119 L210.5,61.5 C166.833333,63.8333333 131.5,78.6666667 104.5,106 C77.5,133.333333 63.5,168 62.5,210 L0.00941603728,210 Z" id="Combined-Shape"></path>
                    </g>
                    <path d="M45.5,41.5 C74.1666667,15.1666667 108.5,1.33333333 148.5,-1.11022302e-16 L148.5,61.5 C124.5,62.8333333 104.5,71.5 88.5,87.5 C72.5,103.5 64,123.833333 63,148.5 L0.5,148.5 C1.83333333,103.5 16.8333333,67.8333333 45.5,41.5 Z" id="Combined-Shape" fill="#4A90E2" transform="translate(74.500000, 74.250000) scale(-1, -1) translate(-74.500000, -74.250000) "></path>
                </g>
            </g>
            <circle id="Oval-2" fill="#F8E71C" cx="977" cy="297" r="86"></circle>
            <circle id="Oval-2" fill="#F8E71C" cx="209.5" cy="297.5" r="87.5"></circle>
        </g>
    </g>
</svg>