<?xml version="1.0" encoding="UTF-8"?>
<svg width="592px" height="408px" viewBox="0 0 592 408" version="1.1" xmlns="http://www.w3.org/2000/svg" xmlns:xlink="http://www.w3.org/1999/xlink">
    <!-- Generator: Sketch 45.2 (43514) - http://www.bohemiancoding.com/sketch -->
    <title>Fill 1 Copy</title>
    <desc>Created with Sketch.</desc>
    <defs>
        <linearGradient x1="45.3368388%" y1="87.8179744%" x2="26.7168308%" y2="9.38009562%" id="linearGradient-1">
            <stop stop-color="#3B097B" offset="0%"></stop>
            <stop stop-color="#192660" offset="100%"></stop>
        </linearGradient>
    </defs>
    <g id="web-UI" stroke="none" stroke-width="1" fill="none" fill-rule="evenodd" stroke-opacity="0.21">
        <path d="M155.419722,203.012963 C153.85641,210.29124 152.430532,217.1973 151.09055,223.754049 L79.0579405,151.893232 L78.679997,151.515288 C78.5597422,151.343496 66.3052081,138.43615 66.3911044,124.601125 C66.4254629,121.680652 66.4941799,112.821883 79.6935729,100.355472 C87.4185105,93.0829212 93.9466268,90.9183352 99.5756955,90.9183352 C102.576338,90.9183352 105.342198,91.5310619 107.919086,92.3213076 C118.129289,95.6254506 125.76833,102.800652 125.76833,102.800652 L128.224964,104.99387 C128.293681,105.062587 137.788081,113.405978 146.062755,128.855853 C158.008063,151.034269 161.151866,176.058715 155.419722,203.012963 M259.188138,331.622581 L206.590991,279.128509 C210.387606,258.977244 215.123354,236.798828 219.418167,216.613206 C239.529346,121.680652 181.835687,65.2353514 171.281899,55.826847 C143.382792,28.5690983 84.8645282,5.6347951 34.8729009,52.7746663 C7.09977461,78.9673013 1.14430011,106.093342 1.00113967,124.217455 C0.794988628,165.046813 28.6196527,193.982403 32.983183,198.277216 L136.465279,301.553161 C132.725928,327.201786 132.794645,342.273718 135.864005,355.381488 L180.003233,344.982313 L212.998853,377.909216 C231.77005,396.686139 256.857486,407.022324 283.54832,407.022324 C310.2277,407.022324 335.286504,396.657507 354.080608,377.909216 L419.252969,312.713949 C419.281601,312.713949 419.281601,312.639506 419.321686,312.605147 L590.810719,141.110387 L544.564169,94.8981956 L373.040777,266.43304 C366.621463,272.852355 357.963119,276.419913 348.80085,276.419913 C339.546959,276.419913 330.900068,272.852355 324.457848,266.392956 C318.004176,259.973641 314.465249,251.32675 314.465249,242.049954 C314.465249,232.8476 318.004176,224.200709 324.457848,217.810027 L495.952608,46.2522765 L449.706058,0 L278.205572,171.500486 C259.411469,190.27741 249.063832,215.410658 249.063832,242.049954 C249.063832,268.798051 259.411469,293.828223 278.205572,312.605147 C286.640585,321.017255 296.306779,327.814513 306.826208,332.659062 C300.49279,338.459923 292.263928,341.649538 283.54832,341.649538 C274.277249,341.649538 265.624632,338.116338 259.188138,331.622581" id="Fill-1-Copy" stroke="#E6E6E6" fill="url(#linearGradient-1)"></path>
    </g>
</svg>
