<?xml version="1.0" encoding="UTF-8"?>
<svg width="62" height="42" viewBox="0 0 62 42" version="1.1" xmlns="http://www.w3.org/2000/svg" xmlns:xlink="http://www.w3.org/1999/xlink">
	<defs></defs>
	<g id="Symbols" stroke="none" stroke-width="1" fill="none" fill-rule="evenodd" stroke-opacity="0.21">
		<g id="footer" transform="translate(-689.000000, -90.000000)" stroke="#E6E6E6" fill="#FFFFFF">
			<g id="Fill-1">
				<path d="M705.635853,110.556188 C705.477559,111.293154 705.333181,111.992431 705.1975,112.656338 L697.903799,105.380032 L697.86553,105.341763 C697.853354,105.324368 696.612514,104.017428 696.621212,102.616555 C696.624691,102.320841 696.631649,101.423841 697.968161,100.161548 C698.750353,99.4251619 699.411361,99.2059856 699.981336,99.2059856 C700.285167,99.2059856 700.565226,99.2680275 700.82615,99.3480443 C701.85999,99.6826071 702.633485,100.409136 702.633485,100.409136 L702.882233,100.631212 C702.889191,100.638169 703.850552,101.482984 704.688408,103.04737 C705.897937,105.293057 706.216264,107.826921 705.635853,110.556188 M716.142981,123.578625 L710.817228,118.263309 C711.201656,116.222882 711.681177,113.977194 712.11605,111.933288 C714.152419,102.320841 708.310616,96.605441 707.241986,95.6527778 C704.417047,92.8927796 698.491748,90.5705542 693.429819,95.3437276 C690.617636,97.9958771 690.014611,100.742539 690.000115,102.577706 C689.979241,106.711905 692.796643,109.641794 693.238475,110.076668 L703.716611,120.53393 C703.337981,123.130995 703.344939,124.657112 703.655728,125.984346 L708.12507,124.931372 L711.466059,128.265403 C713.366747,130.166671 715.906989,131.213267 718.609584,131.213267 C721.311019,131.213267 723.848362,130.163772 725.751369,128.265403 L732.350432,121.664021 C732.353331,121.664021 732.353331,121.656483 732.35739,121.653004 L749.721606,104.288209 L745.038886,99.6089685 L727.671192,116.977823 C727.0212,117.627814 726.144495,117.989049 725.216765,117.989049 C724.279757,117.989049 723.404211,117.627814 722.751901,116.973764 C722.09843,116.323773 721.740095,115.448227 721.740095,114.5089 C721.740095,113.577111 722.09843,112.701565 722.751901,112.054473 L740.116696,94.6832995 L735.433976,90 L718.068601,107.365375 C716.165594,109.266643 715.117838,111.811524 715.117838,114.5089 C715.117838,117.217293 716.165594,119.751737 718.068601,121.653004 C718.922693,122.504777 719.901449,123.193037 720.966599,123.683575 C720.325306,124.270944 719.492088,124.59391 718.609584,124.59391 C717.670837,124.59391 716.794711,124.236154 716.142981,123.578625"></path>
			</g>
		</g>
	</g>
</svg>
