<svg xmlns="http://www.w3.org/2000/svg" width="38" height="42" viewBox="0 0 38 42">
    <g fill="none" fill-rule="evenodd">
        <path fill="#F4D45F" d="M15.809.287c-2.025.417-5.182 5.578-5.67 8.769-.49 3.19.267 4.544 3.066 6.263 1.276.784 2.622 1.113 3.6 1.256 1.088.16 2.249.425 4.798.425 2.17 0 4.068-.22 5.599-.425 1.88-.253 3.104-.565 3.997-1.256 1.62-1.252 3.645-2.923 2.43-6.263-1.215-3.341-3.788-7.8-5.67-8.77-1.882-.97-3.059.836-6.075.836-3.017 0-4.05-1.253-6.075-.835z"/>
        <path fill="#F4D45F" d="M16.614 17c.293-.042.15 1.946-.43 5.963-.87 6.026-2.424 7.919-2.153 11.925.271 4.005.861 5.167 3.444 6.36 2.582 1.192 7.747.794 9.038 0 1.292-.796 3.07-.826 3.444-6.36.374-5.534-1.803-9.02-2.152-11.925a25.513 25.513 0 0 1 0-5.962c-1.92.268-3.855.403-5.805.403-1.95 0-3.746-.135-5.386-.403z"/>
        <path fill="#F4D45F" d="M29 39.533c2.178.846 4.32.542 6.429-.913C37.143 37.437 38 35.86 38 33.888c0-3.715-1.361-5.57-3.857-6.705-1.211-.55-2.789-.945-4.734-1.183.87 2.684 1.305 4.788 1.305 6.31 0 3.944-.571 6.352-1.714 7.223zM13.18 32.108c-2.538.211-4.934-.794-7.189-3.014C2.531 25.684 7.41 18.458 7 18.056c-.41-.401-5.699 1.205-6.928 9.636-.422 2.897 1.015 6.957 4.097 8.833 3.154 1.92 6.431 2.723 9.831 2.409-.475-.948-.748-2.018-.82-3.212a30.393 30.393 0 0 1 0-3.614z"/>
        <ellipse cx="16" cy="6.5" fill="#224398" rx="1" ry="1.5"/>
        <ellipse cx="27" cy="6.5" fill="#224398" rx="1" ry="1.5"/>
    </g>
</svg>
