<svg xmlns="http://www.w3.org/2000/svg" width="46" height="50" viewBox="0 0 46 50">
    <path fill="#F4D45F" fill-rule="evenodd" d="M6.555 26.458c-.744-2.706.69-2.706-1.484-7.355-1.45-3.1-3.08-5.765-4.892-7.994 3.259 1.252 5.862 3.24 7.81 5.963 2.923 4.085 1.7 5.41 1.7 8.723 0 2.208.709 4.895 2.126 8.06-3.01-3.128-4.764-5.594-5.26-7.397zm31.347-.387c-.676 3.129-4.289 6.11-10.839 8.944 4.157-4.144 6.406-7.273 6.748-9.386.4-2.478-.22-3.715 3.077-8.125 2.198-2.94 5.122-5.072 8.773-6.395-2.566 1.356-4.763 4.724-6.59 10.104-.319.938-.155.165-1.17 4.858zM20.89 20.112c.227-1.966.921-4.472.236-10.958C20.67 4.829 20 1.775 19.118-.008c3.309 2.334 5.372 5.304 6.19 8.909 1.227 5.407.719 11.133.263 13.613-.456 2.48-2.04 10.622-6.306 16.302-5.726 7.623-.437 13.196-2.52 10.087s-5.894-6.274-.955-14.224c3.352-5.395 4.953-13.294 5.1-14.567z"/>
</svg>
