<svg xmlns="http://www.w3.org/2000/svg" width="183" height="31" viewBox="0 0 183 31">
    <g fill="#280454" fill-rule="evenodd">
        <path d="M5.886 2.326C7.179 1.048 8.92.4 11.06.4c.108 0 .216.002.326.005 3.58.106 5.28 2.141 6.076 3.83a8.927 8.927 0 0 1 .822 3.452c.059.787.346 7.473-6.422 11.874-2.31 1.503-4.135 2.706-5.554 3.688v7.624H3.693v-5.694c-.744.61-1.214 1.093-1.468 1.504L0 25.307c.587-.95 1.61-1.91 3.693-3.413V7.89c-.002-.114-.033-3.366 2.193-5.565zm.423 5.542v12.216a344.638 344.638 0 0 1 4.128-2.716c5.678-3.693 5.258-9.264 5.238-9.5l-.006-.124c-.003-.465-.15-4.6-4.36-4.724a8.114 8.114 0 0 0-.24-.003c-1.434 0-2.558.393-3.344 1.17-1.416 1.398-1.416 3.659-1.416 3.681zM45.432.15c-4.05 0-7.343 3.293-7.343 7.343V23.63c0 4.05 3.294 7.343 7.343 7.343a7.352 7.352 0 0 0 6.443-3.83l-2.294-1.257a4.738 4.738 0 0 1-4.15 2.471 4.732 4.732 0 0 1-4.726-4.727V7.493a4.732 4.732 0 0 1 4.727-4.727c1.616 0 3.105.82 3.984 2.195l2.204-1.41A7.322 7.322 0 0 0 45.432.15zM61.314.15c-4.049 0-7.343 3.293-7.343 7.343V23.63c0 4.05 3.294 7.343 7.343 7.343 4.049 0 7.343-3.294 7.343-7.343V7.493c0-4.05-3.294-7.343-7.343-7.343zM56.588 23.63V7.493a4.732 4.732 0 0 1 4.726-4.727 4.732 4.732 0 0 1 4.726 4.727V23.63a4.732 4.732 0 0 1-4.726 4.727 4.732 4.732 0 0 1-4.726-4.727zM32.19 1.458V15.33a4.732 4.732 0 0 1-4.727 4.727 4.732 4.732 0 0 1-4.727-4.727V1.458H20.12V15.33c0 4.05 3.294 7.343 7.343 7.343a7.31 7.31 0 0 0 4.726-1.728v2.685a4.732 4.732 0 0 1-4.726 4.727v2.616c4.049 0 7.342-3.294 7.342-7.343V1.458H32.19zM78.412.15c-4.049 0-7.342 3.293-7.342 7.342v22.759h2.616V7.492a4.732 4.732 0 0 1 4.726-4.727 4.732 4.732 0 0 1 4.727 4.727v18.544c-.003.203.01 2.026 1.349 3.384.882.894 2.084 1.348 3.574 1.348V28.15c-.537 0-2.293-.15-2.307-2.096V7.492c0-4.049-3.294-7.342-7.343-7.342zM126.948 3.132a5.339 5.339 0 0 0-.605 2.316V25.26c0 3.097-1.242 3.097-1.71 3.097-.467 0-1.709 0-1.709-3.097v-9.225h-2.616v9.225c0 3.097-1.241 3.097-1.709 3.097-.467 0-1.709 0-1.709-3.097V6.834c0-2.373-1.165-4.252-3.281-5.29a8.359 8.359 0 0 0-3.072-.809H99.178c-.12 0-1.208.017-2.316.604-1.545.82-2.396 2.354-2.396 4.319h2.615c0-.531.152-2.266 2.097-2.307h5.192v27.267h2.616V3.35h3.464c.495.029 3.824.343 3.824 3.483V25.26c0 5.157 3.025 5.713 4.325 5.713.74 0 2.036-.18 3.017-1.282.982 1.102 2.279 1.282 3.018 1.282 1.3 0 4.325-.556 4.325-5.713V5.448c0-.006.018-.559.3-1.09.23-.432.687-1.007 2.007-1.007V.735c-1.964 0-3.498.85-4.318 2.397M153.72 4.676a10.973 10.973 0 0 1-3.414 2.45c-1.286.59-2.625.951-4.018 1.085V6.886a10.533 10.533 0 0 0 4.38-1.688c1.312-.884 2.383-2.049 3.213-3.495h1.366v27.72h-1.527V4.676zm9.957 16.793c0-2.009.542-3.65 1.627-4.922 1.085-1.272 2.591-2.015 4.52-2.23v-.08c-1.688-.321-2.96-1.024-3.817-2.109-.857-1.084-1.286-2.403-1.286-3.957 0-1.312.241-2.41.724-3.294a5.916 5.916 0 0 1 1.928-2.13 8.344 8.344 0 0 1 2.732-1.164 13.726 13.726 0 0 1 3.173-.362c1.072 0 2.123.12 3.154.362 1.031.24 1.949.629 2.752 1.165a5.916 5.916 0 0 1 1.928 2.129c.482.884.723 1.982.723 3.294 0 1.554-.428 2.873-1.285 3.957-.857 1.085-2.13 1.788-3.817 2.11v.08c1.929.214 3.435.957 4.52 2.23 1.085 1.272 1.627 2.912 1.627 4.92 0 1.447-.254 2.699-.763 3.757-.51 1.058-1.192 1.935-2.05 2.631-.856.697-1.874 1.212-3.052 1.547a13.61 13.61 0 0 1-3.737.502c-1.339 0-2.59-.167-3.756-.502-1.165-.335-2.176-.85-3.033-1.547-.857-.696-1.54-1.573-2.049-2.631-.509-1.058-.763-2.31-.763-3.756zm9.601-7.794c.884 0 1.748-.1 2.592-.301a6.812 6.812 0 0 0 2.25-.965 5.104 5.104 0 0 0 1.586-1.707c.402-.696.603-1.54.603-2.53 0-1.045-.194-1.93-.583-2.652a4.815 4.815 0 0 0-1.566-1.748 6.514 6.514 0 0 0-2.25-.944 12.096 12.096 0 0 0-2.632-.281c-.91 0-1.787.094-2.631.281a6.514 6.514 0 0 0-2.25.944 4.815 4.815 0 0 0-1.566 1.748c-.389.723-.583 1.607-.583 2.651 0 .991.2 1.835.603 2.531.401.696.93 1.266 1.586 1.707a6.812 6.812 0 0 0 2.25.965c.844.2 1.708.301 2.591.301zm-8.075 7.794c0 1.232.221 2.296.663 3.194.442.897 1.031 1.633 1.768 2.21.737.575 1.594 1.003 2.571 1.285.978.28 2.002.421 3.073.421 1.072 0 2.09-.14 3.054-.421a7.731 7.731 0 0 0 2.57-1.286 6.18 6.18 0 0 0 1.789-2.21c.441-.897.662-1.961.662-3.193 0-1.152-.214-2.136-.642-2.953a5.557 5.557 0 0 0-1.768-2.009c-.75-.522-1.614-.904-2.591-1.145a12.794 12.794 0 0 0-3.074-.361c-1.098 0-2.129.12-3.093.361a7.736 7.736 0 0 0-2.571 1.145 5.557 5.557 0 0 0-1.768 2.009c-.428.817-.643 1.801-.643 2.953z"/>
    </g>
</svg>
