<svg xmlns="http://www.w3.org/2000/svg" width="532" height="90" viewBox="0 0 532 90">
    <g fill="none" fill-rule="evenodd">
        <path fill="#E6E6E6" d="M17.094 6.754c3.756-3.71 8.813-5.591 15.032-5.591.312 0 .627.004.945.014C43.467 1.484 48.406 7.395 50.72 12.3c2.16 4.583 2.369 8.982 2.386 10.027.171 2.285 1.005 21.703-18.65 34.485-6.711 4.364-12.01 7.858-16.13 10.71v22.143h-7.599V73.129c-2.16 1.773-3.526 3.175-4.263 4.368L0 73.5c1.705-2.757 4.674-5.545 10.726-9.914V22.92c-.006-.332-.097-9.776 6.368-16.165zm1.23 16.099v35.479c3.366-2.26 7.324-4.857 11.988-7.89 16.491-10.726 15.272-26.907 15.213-27.59l-.017-.362C45.5 21.14 45.07 9.133 32.847 8.772c-.235-.007-.469-.01-.698-.01-4.166 0-7.431 1.141-9.714 3.398-4.11 4.062-4.112 10.626-4.11 10.693zM131.949.435c-11.76 0-21.326 9.566-21.326 21.326v46.872c0 11.76 9.567 21.326 21.326 21.326 7.781 0 14.95-4.261 18.712-11.123L144 75.183c-2.426 4.427-7.045 7.178-12.05 7.178-7.57 0-13.727-6.158-13.727-13.728V21.76c0-7.57 6.157-13.728 13.727-13.728 4.693 0 9.019 2.383 11.571 6.374l6.402-4.095C145.964 4.127 139.245.435 131.949.435zM178.075.435C166.317.435 156.75 10 156.75 21.76v46.872c0 11.76 9.567 21.326 21.325 21.326 11.76 0 21.327-9.566 21.327-21.326V21.76c0-11.76-9.567-21.326-21.327-21.326zM164.35 68.633V21.76c0-7.57 6.158-13.728 13.726-13.728 7.57 0 13.728 6.158 13.728 13.728v46.872c0 7.57-6.158 13.728-13.728 13.728-7.568 0-13.726-6.158-13.726-13.728zM93.488 4.234v40.293c0 7.57-6.158 13.727-13.727 13.727-7.57 0-13.728-6.158-13.728-13.727V4.234h-7.598v40.293c0 11.76 9.566 21.325 21.326 21.325a21.232 21.232 0 0 0 13.727-5.017v7.798c0 7.57-6.158 13.728-13.727 13.728v7.598c11.759 0 21.325-9.566 21.325-21.326v-64.4h-7.598zM227.735.435C215.975.435 206.41 10 206.41 21.76v66.098h7.597V21.76c0-7.569 6.158-13.728 13.728-13.728 7.568 0 13.727 6.16 13.727 13.728v53.858c-.009.59.03 5.884 3.918 9.826 2.562 2.598 6.053 3.916 10.38 3.916V81.76c-1.56 0-6.658-.437-6.699-6.089V21.76c0-11.759-9.568-21.325-21.326-21.325zM368.698 9.097c-1.707 3.213-1.756 6.375-1.756 6.725v57.545c0 8.994-3.608 8.994-4.965 8.994-1.357 0-4.965 0-4.965-8.994V46.572h-7.597v26.795c0 8.994-3.607 8.994-4.964 8.994-1.358 0-4.964 0-4.964-8.994v-53.52c0-6.891-3.385-12.347-9.53-15.36-4.296-2.106-8.46-2.332-8.92-2.351l-32.991-.002c-.35 0-3.51.05-6.726 1.756-4.489 2.383-6.961 6.837-6.961 12.541h7.597c0-1.541.442-6.58 6.09-6.7h15.078v79.192h7.598V9.732l10.06-.001c1.438.085 11.106.996 11.106 10.116v53.52c0 14.975 8.786 16.592 12.563 16.592 2.147 0 5.912-.523 8.763-3.725 2.85 3.202 6.618 3.725 8.764 3.725 3.776 0 12.561-1.617 12.561-16.592l.002-57.545c0-.016.05-1.623.869-3.164.667-1.256 1.996-2.927 5.83-2.927V2.134c-5.704 0-10.159 2.471-12.542 6.963"/>
        <path fill="#FFF" d="M446.454 13.58c-2.878 3.034-6.183 5.407-9.917 7.118a36.113 36.113 0 0 1-11.668 3.15v-3.85c4.667-.7 8.906-2.334 12.718-4.9 3.811-2.567 6.923-5.951 9.334-10.152h3.967v80.508h-4.434V13.581zm28.917 48.772c0-5.834 1.575-10.598 4.726-14.293 3.15-3.695 7.525-5.853 13.126-6.476v-.233c-4.9-.933-8.595-2.975-11.085-6.126-2.489-3.15-3.733-6.98-3.733-11.492 0-3.812.7-7.001 2.1-9.568 1.4-2.567 3.267-4.628 5.6-6.184 2.334-1.556 4.979-2.683 7.935-3.384 2.955-.7 6.028-1.05 9.217-1.05 3.112 0 6.165.35 9.16 1.05 2.994.7 5.658 1.828 7.992 3.384 2.333 1.556 4.2 3.617 5.6 6.184 1.4 2.567 2.1 5.756 2.1 9.568 0 4.511-1.244 8.342-3.733 11.492-2.49 3.15-6.184 5.193-11.084 6.126v.233c5.6.623 9.975 2.781 13.126 6.476 3.15 3.695 4.725 8.46 4.725 14.293 0 4.2-.739 7.837-2.217 10.91-1.478 3.072-3.461 5.62-5.95 7.642-2.49 2.022-5.445 3.52-8.868 4.492-3.422.972-7.04 1.459-10.85 1.459-3.89 0-7.527-.487-10.91-1.459-3.384-.972-6.32-2.47-8.81-4.492-2.489-2.023-4.472-4.57-5.95-7.642-1.478-3.073-2.217-6.71-2.217-10.91zm27.886-22.635c2.567 0 5.076-.292 7.526-.876 2.45-.583 4.628-1.516 6.534-2.8a14.824 14.824 0 0 0 4.609-4.959c1.166-2.022 1.75-4.472 1.75-7.35 0-3.034-.564-5.6-1.692-7.701-1.128-2.1-2.645-3.792-4.55-5.076-1.906-1.283-4.084-2.197-6.534-2.742a35.132 35.132 0 0 0-7.643-.816c-2.645 0-5.192.272-7.642.816-2.45.545-4.628 1.459-6.534 2.742-1.906 1.284-3.423 2.976-4.55 5.076-1.129 2.1-1.692 4.667-1.692 7.7 0 2.879.583 5.329 1.75 7.351a14.824 14.824 0 0 0 4.608 4.96c1.906 1.283 4.084 2.216 6.534 2.8 2.45.583 4.96.875 7.526.875zm-23.452 22.635c0 3.578.642 6.67 1.925 9.276 1.284 2.606 2.995 4.745 5.134 6.417 2.139 1.673 4.628 2.917 7.467 3.734 2.84.817 5.815 1.225 8.926 1.225 3.112 0 6.067-.408 8.868-1.225 2.8-.817 5.29-2.061 7.467-3.734 2.178-1.672 3.909-3.811 5.192-6.417 1.284-2.606 1.926-5.698 1.926-9.276 0-3.345-.623-6.203-1.867-8.576a16.138 16.138 0 0 0-5.134-5.834c-2.178-1.516-4.687-2.625-7.526-3.325-2.84-.7-5.814-1.05-8.926-1.05-3.189 0-6.184.35-8.984 1.05-2.8.7-5.29 1.809-7.467 3.325a16.138 16.138 0 0 0-5.134 5.834c-1.245 2.373-1.867 5.231-1.867 8.576z"/>
    </g>
</svg>
