<svg width="30" height="20" viewBox="0 0 30 20" fill="none" xmlns="http://www.w3.org/2000/svg">
<path d="M13.1336 16.2936L10.4577 13.7157C10.6493 12.7259 10.892 11.6374 11.1091 10.6445C12.1309 5.98212 9.19642 3.20999 8.65996 2.74746C7.24219 1.40919 4.26295 0.280605 1.72117 2.59636C0.309787 3.88221 0.00643479 5.21431 4.84274e-05 6.10546C-0.00953112 8.10977 1.40505 9.5313 1.62538 9.74406L6.88774 14.8165C6.69615 16.0777 6.69935 16.8178 6.85581 17.4622L9.10062 16.9504L10.7802 18.5692C11.735 19.4912 13.0123 20 14.3694 20C15.7265 20 17.0006 19.4912 17.9585 18.5692L21.273 15.3654C21.2762 15.3654 21.2762 15.3623 21.2762 15.3592L30 6.93494L27.6498 4.66543L18.926 13.0897C18.6003 13.4043 18.1597 13.58 17.6935 13.58C17.2241 13.58 16.7834 13.4043 16.4545 13.0866C16.1256 12.7721 15.9468 12.3466 15.9468 11.8902C15.9468 11.4369 16.1256 11.0145 16.4545 10.7L25.1783 2.27259L22.8249 0L14.1011 8.42738C13.1464 9.34937 12.6195 10.5828 12.6195 11.8933C12.6195 13.2069 13.1464 14.4373 14.1011 15.3592C14.529 15.7724 15.0208 16.1055 15.5572 16.3429C15.2347 16.6266 14.8164 16.7838 14.3726 16.7838C13.9 16.7838 13.4593 16.6112 13.1336 16.2936ZM7.85528 9.97533C7.77545 10.333 7.70201 10.6722 7.63495 10.9929L3.96917 7.46223L3.95002 7.44372C3.94363 7.43447 3.32096 6.80234 3.32415 6.12088C3.32734 5.97903 3.33054 5.54116 4.00111 4.93062C4.39387 4.57292 4.72596 4.46808 5.01335 4.46808C5.16662 4.46808 5.30712 4.49892 5.43804 4.53592C5.95853 4.69935 6.3449 5.05088 6.3449 5.05088L6.46944 5.1588C6.47263 5.16189 6.9548 5.572 7.3763 6.33056C7.9862 7.42214 8.14586 8.65248 7.85528 9.97533Z" fill="#C386AE"/>
<path d="M13.1336 16.2936L10.4577 13.7157C10.6493 12.7259 10.892 11.6374 11.1091 10.6445C12.1309 5.98212 9.19642 3.20999 8.65996 2.74746C7.24219 1.40919 4.26295 0.280605 1.72117 2.59636C0.309787 3.88221 0.00643479 5.21431 4.84274e-05 6.10546C-0.00953112 8.10977 1.40505 9.5313 1.62538 9.74406L6.88774 14.8165C6.69615 16.0777 6.69935 16.8178 6.85581 17.4622L9.10062 16.9504L10.7802 18.5692C11.735 19.4912 13.0123 20 14.3694 20C15.7265 20 17.0006 19.4912 17.9585 18.5692L21.273 15.3654C21.2762 15.3654 21.2762 15.3623 21.2762 15.3592L30 6.93494L27.6498 4.66543L18.926 13.0897C18.6003 13.4043 18.1597 13.58 17.6935 13.58C17.2241 13.58 16.7834 13.4043 16.4545 13.0866C16.1256 12.7721 15.9468 12.3466 15.9468 11.8902C15.9468 11.4369 16.1256 11.0145 16.4545 10.7L25.1783 2.27259L22.8249 0L14.1011 8.42738C13.1464 9.34937 12.6195 10.5828 12.6195 11.8933C12.6195 13.2069 13.1464 14.4373 14.1011 15.3592C14.529 15.7724 15.0208 16.1055 15.5572 16.3429C15.2347 16.6266 14.8164 16.7838 14.3726 16.7838C13.9 16.7838 13.4593 16.6112 13.1336 16.2936ZM7.85528 9.97533C7.77545 10.333 7.70201 10.6722 7.63495 10.9929L3.96917 7.46223L3.95002 7.44372C3.94363 7.43447 3.32096 6.80234 3.32415 6.12088C3.32734 5.97903 3.33054 5.54116 4.00111 4.93062C4.39387 4.57292 4.72596 4.46808 5.01335 4.46808C5.16662 4.46808 5.30712 4.49892 5.43804 4.53592C5.95853 4.69935 6.3449 5.05088 6.3449 5.05088L6.46944 5.1588C6.47263 5.16189 6.9548 5.572 7.3763 6.33056C7.9862 7.42214 8.14586 8.65248 7.85528 9.97533Z" fill="#C386AE"/>
</svg>
