<svg xmlns="http://www.w3.org/2000/svg" width="24" height="24" viewBox="0 0 24 24">
    <path fill="#E23728" fill-rule="nonzero" d="M8.323 6.802c0-.42-.149-.778-.446-1.075a1.465 1.465 0 0 0-1.075-.446c-.42 0-.778.149-1.075.446a1.465 1.465 0 0 0-.446 1.075c0 .42.149.778.446 1.075.297.297.655.446 1.075.446.42 0 .778-.149 1.075-.446.297-.297.446-.655.446-1.075zM21 13.646c0 .42-.147.776-.44 1.069l-5.833 5.845c-.31.293-.67.44-1.081.44-.42 0-.777-.147-1.07-.44l-8.495-8.507c-.3-.293-.556-.693-.766-1.2-.21-.506-.315-.97-.315-1.39V4.521c0-.412.15-.769.451-1.07A1.462 1.462 0 0 1 4.521 3h4.942c.42 0 .884.105 1.39.315.507.21.911.465 1.212.766l8.495 8.483c.293.31.44.67.44 1.082z"/>
</svg>
