<svg xmlns="http://www.w3.org/2000/svg" xmlns:xlink="http://www.w3.org/1999/xlink" width="50" height="50" viewBox="0 0 50 50"><defs><style>.a{clip-path:url(#b);}.b{fill:#502526;}</style><clipPath id="b"><rect width="50" height="50"/></clipPath></defs><g id="a" class="a"><g transform="translate(-489 -2)"><path class="b" d="M519.3,42.508a2.35,2.35,0,0,0-2.576-1.857c-4.47.11-8.944.04-13.416.039h-1.4v-20.5c1.433,0,2.786,0,4.14,0,1.743-.006,1.789-.049,1.8-1.747.007-1.726,0-3.453,0-5.284h15.665v1.507c0,5.522.071,11.045-.041,16.565a6.14,6.14,0,0,0,1.871,4.53c.032-.489.073-.822.073-1.154q.008-10.815,0-21.631c0-1.769-.1-1.873-1.856-1.875-5.248-.007-10.5-.033-15.743.041a3.006,3.006,0,0,0-1.945.9c-1.888,2.04-3.684,4.167-5.458,6.309a2.489,2.489,0,0,0-.5,1.471c-.031,7.073-.015,14.146-.024,21.219,0,.927.156,1.613,1.321,1.608,5.887-.023,11.773-.017,17.66-.026A1.955,1.955,0,0,0,519.3,42.508Z"/><path class="b" d="M522.011,44.291c1.783-1.225,3.393-2.329,5-3.44.067-.046.093-.152.174-.293l-9.14-13.35-5.253,3.58C515.866,35.29,518.9,39.733,522.011,44.291Z"/><path class="b" d="M527.819,41.653l-5.094,3.473c1.272,2.467,1.852,2.628,3.957,1.178.224-.155.443-.318.669-.471C529.537,44.354,529.606,43.882,527.819,41.653Z"/><path class="b" d="M517.273,26.411c-1.008-.7-1.839-1.321-2.719-1.861a1.157,1.157,0,0,0-.945-.062c-2.026.975-2.2,1.366-1.709,3.517.121.527.253,1.051.423,1.753Z"/><path class="b" d="M511.138,24.8l1.937-1.271L510.8,21.96l-.277.186Z"/></g></g></svg>