<svg xmlns="http://www.w3.org/2000/svg" width="25" height="25" viewBox="0 0 25 25">
    <defs>
        <linearGradient id="a" x1="16.403%" y1="0%" y2="98.021%">
            <stop offset="0%" stop-color="#3B097B"/>
            <stop offset="100%" stop-color="#192660"/>
        </linearGradient>
    </defs>
    <g fill="none" fill-rule="evenodd">
        <path fill="url(#a)" fill-rule="nonzero" d="M252.91 44.791c0 .79.64 1.431 1.43 1.431h6.683v1.022a1.909 1.909 0 1 0 .954 0v-1.022h6.682c.79 0 1.432-.64 1.432-1.43v-11.93h-17.182v11.93zm9.545 4.294a.954.954 0 1 1-1.91 0 .954.954 0 0 1 1.91 0zM271.045 30a.954.954 0 1 1 0 1.909h-19.09a.954.954 0 1 1 0-1.909h19.09zm-12.687 7.688v1.478h1.588c.235 0 .428.19.428.422a.427.427 0 0 1-.428.42h-1.588v1.52h2.226a.43.43 0 1 1 0 .86h-2.713a.483.483 0 0 1-.487-.48v-4.6c0-.264.218-.479.487-.479h2.621a.43.43 0 1 1 0 .86h-2.134zm7.208-.925a.48.48 0 0 1 .478.471v4.748a.48.48 0 0 1-.873.265l-2.478-3.518v3.253a.48.48 0 0 1-.958 0v-4.748a.48.48 0 0 1 .479-.47.45.45 0 0 1 .386.198l2.487 3.542v-3.27a.48.48 0 0 1 .479-.47z" transform="translate(-249 -27)"/>
    </g>
</svg>
