<svg xmlns="http://www.w3.org/2000/svg" width="25" height="25" viewBox="0 0 25 25">
    <defs>
        <linearGradient id="a" x1="16.403%" y1="0%" y2="98.021%">
            <stop offset="0%" stop-color="#3B097B"/>
            <stop offset="100%" stop-color="#192660"/>
        </linearGradient>
    </defs>
    <g fill="none" fill-rule="evenodd">
        <path fill="url(#a)" fill-rule="nonzero" d="M349.037 29c5.494 0 9.963 4.486 9.963 10s-4.47 10-9.963 10a9.857 9.857 0 0 1-5.696-1.798l-3.95 1.774a.275.275 0 0 1-.304-.052.28.28 0 0 1-.069-.302l1.614-4.256A9.982 9.982 0 0 1 339.075 39c0-5.514 4.469-10 9.962-10zm-3.763 8.877h2.134a.435.435 0 0 0 .437-.439.435.435 0 0 0-.437-.438h-2.62a.488.488 0 0 0-.488.489v4.696c0 .27.218.49.487.49h2.713a.435.435 0 0 0 .437-.44.435.435 0 0 0-.437-.438h-2.226v-1.55h1.588a.431.431 0 0 0 0-.86h-1.588v-1.51zM353.13 37c-.26 0-.478.22-.478.48v3.34l-2.487-3.618a.448.448 0 0 0-.386-.202c-.26 0-.479.22-.479.48v4.849c0 .261.218.48.479.48.26 0 .479-.219.479-.48v-3.322l2.478 3.591c.084.127.235.211.394.211.26 0 .48-.219.48-.48V37.48a.485.485 0 0 0-.48-.481z" transform="translate(-336 -27)"/>
    </g>
</svg>
