<svg xmlns="http://www.w3.org/2000/svg" width="25" height="25" viewBox="0 0 25 25">
    <defs>
        <linearGradient id="a" x1="16.403%" y1="0%" y2="98.021%">
            <stop offset="0%" stop-color="#3B097B"/>
            <stop offset="100%" stop-color="#192660"/>
        </linearGradient>
    </defs>
    <g fill="none" fill-rule="evenodd">
        <path fill="url(#a)" fill-rule="nonzero" d="M108.523 44.482c.781.44 1.68.69 2.637.69 3.004 0 5.44-2.47 5.44-5.517v-.69c0-.38.304-.69.68-.69.376 0 .68.31.68.69v.69c0 3.576-2.684 6.517-6.12 6.863v2.103h1.362c.374 0 .678.306.678.69 0 .38-.308.689-.678.689h-4.084a.682.682 0 0 1-.678-.69c0-.38.308-.69.678-.69h1.362v-2.102a6.697 6.697 0 0 1-2.95-1.03l.993-1.006zm-1.572-1.331a5.542 5.542 0 0 1-1.231-3.496v-.69c0-.38-.304-.69-.68-.69a.685.685 0 0 0-.68.69v.69c0 1.708.612 3.27 1.625 4.475l.966-.98zm.969-.983a4.156 4.156 0 0 1-.84-2.513V34.138l.056-.69c.04-.237.098-.468.175-.69l.313-.689A4.066 4.066 0 0 1 111.16 30c1.507 0 2.827.832 3.533 2.069l.314.69c.078.221.137.452.176.69l.057.689v.606l-.082.084-.68.69-6.558 6.65zm1.618 1.284c.498.22 1.046.341 1.622.341 2.253 0 4.08-1.846 4.08-4.138V37.67l-5.702 5.782zm9.882-11.972L103.1 48.032a.348.348 0 0 0 0 .488.337.337 0 0 0 .48 0l16.32-16.552a.348.348 0 0 0 0-.488.337.337 0 0 0-.48 0z" transform="translate(-99 -27)"/>
    </g>
</svg>
