<svg xmlns="http://www.w3.org/2000/svg" width="25" height="25" viewBox="0 0 25 25">
    <defs>
        <linearGradient id="a" x1="16.403%" y1="0%" y2="98.021%">
            <stop offset="0%" stop-color="#3B097B"/>
            <stop offset="100%" stop-color="#192660"/>
        </linearGradient>
    </defs>
    <g fill="none" fill-rule="evenodd">
        <path fill="url(#a)" fill-rule="nonzero" d="M281.91 44.791c0 .79.64 1.431 1.43 1.431h6.683v1.022a1.909 1.909 0 1 0 .954 0v-1.022h6.682c.79 0 1.432-.64 1.432-1.43v-11.93h-17.182v11.93zm9.545 4.294a.954.954 0 1 1-1.91 0 .954.954 0 0 1 1.91 0zM300.045 30a.954.954 0 1 1 0 1.909h-19.09a.954.954 0 1 1 0-1.909h19.09zm-10.167 12.387h-3.435a.43.43 0 0 1-.353-.685l2.822-4.03h-2.31a.427.427 0 0 1-.428-.421c0-.232.193-.422.428-.422h3.176c.235 0 .428.19.428.422a.4.4 0 0 1-.076.24l-2.814 4.037h2.562a.43.43 0 1 1 0 .86zm5.402-5.145v4.732a.483.483 0 0 1-.488.48.483.483 0 0 1-.487-.48v-1.99h-2.402v1.99a.483.483 0 0 1-.487.48.483.483 0 0 1-.488-.48v-4.732c0-.264.219-.479.488-.479.268 0 .487.215.487.48v1.866h2.402v-1.867c0-.264.219-.479.487-.479.27 0 .488.215.488.48z" transform="translate(-278 -27)"/>
    </g>
</svg>
