<svg xmlns="http://www.w3.org/2000/svg" width="25" height="25" viewBox="0 0 25 25">
    <defs>
        <linearGradient id="a" x1="16.403%" y1="0%" y2="98.021%">
            <stop offset="0%" stop-color="#3B097B"/>
            <stop offset="100%" stop-color="#192660"/>
        </linearGradient>
    </defs>
    <g fill="none" fill-rule="evenodd">
        <path fill="url(#a)" fill-rule="nonzero" d="M320.037 29c5.494 0 9.963 4.486 9.963 10s-4.47 10-9.963 10a9.857 9.857 0 0 1-5.696-1.798l-3.95 1.774a.275.275 0 0 1-.304-.052.28.28 0 0 1-.069-.302l1.614-4.256A9.982 9.982 0 0 1 310.075 39c0-5.514 4.469-10 9.962-10zm-.746 13.694a.435.435 0 0 0 .436-.438.435.435 0 0 0-.436-.439h-2.562l2.814-4.123a.431.431 0 0 0-.353-.675h-3.175a.431.431 0 0 0 0 .86h2.31l-2.823 4.115a.461.461 0 0 0-.084.262c0 .244.193.438.437.438h3.436zm5.4-5.253a.488.488 0 0 0-.486-.489.488.488 0 0 0-.488.49v1.905h-2.402V37.44a.488.488 0 0 0-.487-.489.488.488 0 0 0-.487.49v4.83c0 .27.218.49.487.49s.487-.22.487-.49v-2.031h2.402v2.032a.488.488 0 0 0 .974 0V37.44z" transform="translate(-307 -27)"/>
    </g>
</svg>
