<svg width="26" height="26" viewBox="0 0 26 26" xmlns="http://www.w3.org/2000/svg"><title>volume</title><path d="M.917 19.974H6.96a.908.908 0 0 0 .917-.918v-.314l10.65 7.101a.87.87 0 0 0 .515.157.935.935 0 0 0 .917-.918V.912a.892.892 0 0 0-.492-.807.942.942 0 0 0-.94.045L7.877 7.273V6.96a.908.908 0 0 0-.917-.918H.917A.908.908 0 0 0 0 6.959v12.097c0 .493.425.918.917.918zm6.96-10.506l10.247-6.832v20.766L7.876 16.547V9.468zm-6.042-1.59H6.04v10.259H1.835V7.877zM25.083 6.04c.492 0 .917.426.917.918v12.097a.908.908 0 0 1-.917.918.908.908 0 0 1-.918-.918V6.959c0-.515.403-.918.918-.918z" fill="#FFF" fill-rule="evenodd"/></svg>