<svg width="24" height="24" viewBox="133 551 24 24" xmlns="http://www.w3.org/2000/svg"><path d="M145.01 551c-6.615 0-12.01 5.38-12.01 12s5.375 12 12.01 12c6.615 0 11.99-5.38 11.99-12s-5.375-12-11.99-12zm0 22.324c-5.684 0-10.315-4.634-10.315-10.324 0-5.69 4.63-10.324 10.315-10.324s10.316 4.634 10.316 10.324c0 5.69-4.63 10.324-10.316 10.324zm5.52-11.276h-4.672v-4.696a.839.839 0 0 0-.848-.849.839.839 0 0 0-.847.849v4.676h-4.672a.839.839 0 0 0-.848.848c0 .476.373.848.848.848h4.672v4.676c0 .476.372.848.847.848a.839.839 0 0 0 .848-.848v-4.676h4.672a.839.839 0 0 0 .847-.848c0-.476-.372-.828-.847-.828z" fill="#647D92" fill-rule="evenodd"/></svg>