<svg width="601" height="112" viewBox="0 0 601 112" xmlns="http://www.w3.org/2000/svg" xmlns:xlink="http://www.w3.org/1999/xlink"><title>logo</title><defs><linearGradient x1="50.604%" y1="2.563%" x2="73.561%" y2="100%" id="c"><stop stop-color="#00FF96" offset="0%"/><stop stop-color="#1697E5" offset="100%"/></linearGradient><path d="M36.96 9.164c-4.79 0-8.544 1.308-11.169 3.894-4.725 4.655-4.726 12.18-4.725 12.254v40.663c3.87-2.59 8.42-5.567 13.781-9.043 18.96-12.292 17.558-30.837 17.488-31.62l-.018-.415c-.01-1.548-.504-15.308-14.556-15.721-.27-.008-.538-.012-.802-.012zm-15.893 92.72h-8.735v-18.95c-2.484 2.031-4.054 3.637-4.902 5.005L0 83.36c1.96-3.16 5.374-6.356 12.332-11.361v-46.61c-.008-.38-.113-11.203 7.32-18.525C24.186 2.396 30.37.243 38.019.471c11.952.352 17.63 7.127 20.288 12.747 2.485 5.253 2.724 10.294 2.743 11.492.198 2.62 1.155 24.873-21.441 39.522-7.714 5.002-13.806 9.007-18.542 12.275v25.378z" id="b"/><filter x="-50%" y="-50%" width="200%" height="200%" filterUnits="objectBoundingBox" id="a"><feOffset dy="4" in="SourceAlpha" result="shadowOffsetOuter1"/><feGaussianBlur stdDeviation="2" in="shadowOffsetOuter1" result="shadowBlurOuter1"/><feColorMatrix values="0 0 0 0 0 0 0 0 0 0 0 0 0 0 0 0 0 0 0.284080616 0" in="shadowBlurOuter1"/></filter><path d="M151.69 103.072c-13.518 0-24.516-10.964-24.516-24.441V24.91c0-13.478 10.998-24.442 24.516-24.442 8.388 0 16.113 4.232 20.662 11.32l-7.357 4.694c-2.937-4.574-7.91-7.306-13.305-7.306-8.702 0-15.782 7.058-15.782 15.733v53.72c0 8.676 7.08 15.734 15.782 15.734 5.754 0 11.063-3.153 13.853-8.227l7.66 4.186c-4.325 7.864-12.568 12.749-21.513 12.749" id="e"/><filter x="-50%" y="-50%" width="200%" height="200%" filterUnits="objectBoundingBox" id="d"><feOffset dy="4" in="SourceAlpha" result="shadowOffsetOuter1"/><feGaussianBlur stdDeviation="2" in="shadowOffsetOuter1" result="shadowBlurOuter1"/><feColorMatrix values="0 0 0 0 0 0 0 0 0 0 0 0 0 0 0 0 0 0 0.284080616 0" in="shadowBlurOuter1"/></filter><path d="M204.718 9.178c-8.701 0-15.78 7.057-15.78 15.732v53.721c0 8.675 7.079 15.732 15.78 15.732 8.702 0 15.782-7.057 15.782-15.732v-53.72c0-8.676-7.08-15.733-15.782-15.733m0 93.894c-13.518 0-24.516-10.964-24.516-24.44V24.91c0-13.476 10.998-24.44 24.516-24.44 13.519 0 24.517 10.964 24.517 24.44v53.721c0 13.477-10.998 24.44-24.517 24.44" id="g"/><filter x="-50%" y="-50%" width="200%" height="200%" filterUnits="objectBoundingBox" id="f"><feOffset dy="4" in="SourceAlpha" result="shadowOffsetOuter1"/><feGaussianBlur stdDeviation="2" in="shadowOffsetOuter1" result="shadowBlurOuter1"/><feColorMatrix values="0 0 0 0 0 0 0 0 0 0 0 0 0 0 0 0 0 0 0.284080616 0" in="shadowBlurOuter1"/></filter><path d="M91.694 103.072v-8.708c8.702 0 15.782-7.058 15.782-15.733v-8.938a24.452 24.452 0 0 1-15.782 5.751c-13.518 0-24.516-10.964-24.516-24.44V4.823h8.735v46.18c0 8.674 7.08 15.732 15.781 15.732 8.702 0 15.782-7.058 15.782-15.733V4.823h8.734v73.808c0 13.477-10.997 24.44-24.516 24.44" id="i"/><filter x="-50%" y="-50%" width="200%" height="200%" filterUnits="objectBoundingBox" id="h"><feOffset dy="4" in="SourceAlpha" result="shadowOffsetOuter1"/><feGaussianBlur stdDeviation="2" in="shadowOffsetOuter1" result="shadowBlurOuter1"/><feColorMatrix values="0 0 0 0 0 0 0 0 0 0 0 0 0 0 0 0 0 0 0.284080616 0" in="shadowBlurOuter1"/></filter><path d="M294.025 102.385c-4.974 0-8.988-1.51-11.932-4.486-4.47-4.52-4.515-10.587-4.505-11.263V24.91c0-8.675-7.08-15.732-15.781-15.732-8.702 0-15.782 7.057-15.782 15.732v75.755h-8.735V24.91c0-13.477 10.998-24.44 24.517-24.44 13.518 0 24.516 10.963 24.516 24.44v61.787c.049 6.477 5.908 6.98 7.702 6.98v8.708z" id="k"/><filter x="-50%" y="-50%" width="200%" height="200%" filterUnits="objectBoundingBox" id="j"><feOffset dy="4" in="SourceAlpha" result="shadowOffsetOuter1"/><feGaussianBlur stdDeviation="2" in="shadowOffsetOuter1" result="shadowBlurOuter1"/><feColorMatrix values="0 0 0 0 0 0 0 0 0 0 0 0 0 0 0 0 0 0 0.284080616 0" in="shadowBlurOuter1"/></filter><path d="M423.86 10.396c-1.962 3.684-2.019 7.307-2.019 7.708v65.952c0 10.308-4.146 10.308-5.707 10.308-1.56 0-5.707 0-5.707-10.308v-30.71h-8.735v30.71c0 10.308-4.146 10.308-5.707 10.308-1.56 0-5.707 0-5.707-10.308V22.718c0-7.899-3.89-14.151-10.955-17.604-4.939-2.414-9.725-2.673-10.255-2.694l-37.926-.003c-.404 0-4.037.056-7.732 2.012-5.162 2.73-8.004 7.836-8.004 14.375h8.735c0-1.768.508-7.542 7.001-7.68h17.333v90.761h8.735v-90.76h11.564c1.653.097 12.77 1.14 12.77 11.593v61.338c0 17.163 10.099 19.015 14.441 19.015 2.469 0 6.798-.598 10.075-4.268 3.277 3.67 7.605 4.268 10.074 4.268 4.342 0 14.442-1.852 14.442-19.015V18.104c0-.017.059-1.86 1-3.625.766-1.44 2.295-3.355 6.703-3.355V2.416c-6.559 0-11.68 2.834-14.42 7.98" id="m"/><filter x="-50%" y="-50%" width="200%" height="200%" filterUnits="objectBoundingBox" id="l"><feOffset dy="4" in="SourceAlpha" result="shadowOffsetOuter1"/><feGaussianBlur stdDeviation="2" in="shadowOffsetOuter1" result="shadowBlurOuter1"/><feColorMatrix values="0 0 0 0 0 0 0 0 0 0 0 0 0 0 0 0 0 0 0.284080616 0" in="shadowBlurOuter1"/></filter><path d="M512.828 101.411h-3.688V6.902l-28.55 10.69v-4.017L512.077 2h.75v99.411zM592.8 4.781l-43.78 96.824h-3.756l43.302-95.461h-59.284V2.467H592.8v2.315z" id="o"/><filter x="-50%" y="-50%" width="200%" height="200%" filterUnits="objectBoundingBox" id="n"><feOffset dy="4" in="SourceAlpha" result="shadowOffsetOuter1"/><feGaussianBlur stdDeviation="2" in="shadowOffsetOuter1" result="shadowBlurOuter1"/><feColorMatrix values="0 0 0 0 0 0 0 0 0 0 0 0 0 0 0 0 0 0 0.284080616 0" in="shadowBlurOuter1"/></filter></defs><g fill="none" fill-rule="evenodd"><g transform="translate(4 .382)"><use fill="#000" filter="url(#a)" xlink:href="#b"/><use fill="url(#c)" xlink:href="#b"/></g><g transform="translate(4 .382)"><use fill="#000" filter="url(#d)" xlink:href="#e"/><use fill="url(#c)" xlink:href="#e"/></g><g transform="translate(4 .382)"><use fill="#000" filter="url(#f)" xlink:href="#g"/><use fill="url(#c)" xlink:href="#g"/></g><g transform="translate(4 .382)"><use fill="#000" filter="url(#h)" xlink:href="#i"/><use fill="url(#c)" xlink:href="#i"/></g><g transform="translate(4 .382)"><use fill="#000" filter="url(#j)" xlink:href="#k"/><use fill="url(#c)" xlink:href="#k"/></g><g transform="translate(4 .382)"><use fill="#000" filter="url(#l)" xlink:href="#m"/><use fill="url(#c)" xlink:href="#m"/></g><g transform="translate(4 .382)"><use fill="#000" filter="url(#n)" xlink:href="#o"/><use fill="url(#c)" xlink:href="#o"/></g></g></svg>