<svg width="32" height="23" viewBox="0 0 32 23" xmlns="http://www.w3.org/2000/svg"><title>logo</title><path d="M8.378 11.014l-.237 1.123L4.235 8.24l-.021-.02c-.007-.007-.67-.708-.666-1.46 0-.158.004-.638.722-1.315.419-.395.773-.514 1.078-.514.164 0 .314.035.452.079.552.176.97.568.97.568l.131.119c.005.004.52.456.968 1.291.648 1.207.82 2.562.509 4.027m5.629 6.976l-2.853-2.847c.207-1.092.462-2.298.694-3.394C12.94 6.6 9.81 3.537 9.238 3.027c-1.513-1.48-4.69-2.721-7.401-.165C.329 4.282.006 5.754 0 6.738c-.013 2.214 1.498 3.786 1.735 4.019l5.613 5.601c-.2 1.392-.199 2.21-.03 2.923l2.394-.565 1.789 1.786a5.376 5.376 0 0 0 3.827 1.58 5.376 5.376 0 0 0 3.828-1.581l3.536-3.537.003-.003L32 7.656l-2.509-2.509-9.307 9.307a1.85 1.85 0 0 1-1.317.54 1.85 1.85 0 0 1-1.861-1.861c0-.501.193-.97.542-1.32l9.305-9.304L24.344 0l-9.305 9.305a5.377 5.377 0 0 0-1.58 3.828c0 1.448.56 2.808 1.58 3.828.457.456.982.821 1.552 1.085a1.852 1.852 0 0 1-1.263.488 1.85 1.85 0 0 1-1.32-.542" fill="#7FB9CC" fill-rule="evenodd"/></svg>