<svg width="229" height="427" viewBox="0 0 229 427" xmlns="http://www.w3.org/2000/svg"><title>taiwan</title><defs><linearGradient x1="50.604%" y1="2.563%" x2="73.561%" y2="100%" id="a"><stop stop-color="#00FF96" offset="0%"/><stop stop-color="#1697E5" offset="100%"/></linearGradient></defs><g transform="translate(-352 -1279)" stroke="url(#a)" fill="none" fill-rule="evenodd" opacity=".24"><path d="M471.202 1659.235l-.014-.069c-1.213-3.64-.606-6.066-.302-8.493.302-2.425.302-4.852.91-6.67.606-1.822 1.818-3.035 2.83-4.855 1.011-1.819 1.82-4.246 2.021-6.065.202-1.82-.202-3.034.202-5.055.405-2.023 1.62-4.854 2.225-7.077.607-2.224.607-3.842 1.617-6.067 1.011-2.223 3.033-5.054 7.077-9.907 4.044-4.852 10.11-11.727 13.345-15.569 3.235-3.842 3.64-4.65 3.64-5.459 0-.809-.405-1.617-.607-2.629-.202-1.01-.202-2.224.607-2.83.808-.607 2.427-.607 3.64-.607 1.212 0 2.022 0 2.628-.404.607-.405 1.011-1.214 2.83-4.448 1.821-3.235 5.055-8.898 7.886-13.345 2.831-4.449 5.257-7.683 6.066-9.908.81-2.225 0-3.438-.405-4.65-.404-1.213-.404-2.427-.606-3.842-.202-1.415-.607-3.033-.404-4.246.202-1.213 1.01-2.023 2.426-5.662 1.415-3.639 3.438-10.11 4.45-13.95 1.01-3.842 1.01-5.056.807-6.269-.202-1.213-.606-2.427-.606-3.235 0-.809.404-1.213.808-1.82.405-.606.81-1.415 1.012-2.224.201-.809.201-1.618-.405-2.932-.607-1.315-1.82-3.134-1.82-4.347 0-2.427 1.213-3.033 1.82-3.943.606-.91.606-2.123 1.214-5.965.605-3.842 1.82-10.312 2.628-15.77.81-5.46 1.213-9.909 1.618-13.144.404-3.235.808-5.257 1.213-7.48.404-2.225.808-4.65 1.617-6.876.808-2.224 2.021-4.246 2.63-5.459.605-1.213.605-1.618.403-2.426-.202-.809-.606-2.022-.809-3.236a10.948 10.948 0 0 1 0-3.639c.203-1.213.607-2.426 1.213-4.044.607-1.617 1.415-3.639 1.82-4.853.404-1.213.404-1.617 0-2.628-.405-1.01-1.213-2.629-1.415-3.437-.203-.809.202-.809 2.223-2.224 2.023-1.416 5.662-4.246 7.482-5.864 1.82-1.618 1.82-2.022 1.618-3.033-.202-1.01-.607-2.629-.607-3.842s.405-2.022 1.011-3.437c.607-1.416 1.415-3.438 2.628-5.46 1.214-2.02 2.831-4.043 3.64-5.863.808-1.82.808-3.437 1.213-4.65.405-1.214 1.213-2.023 1.618-3.438.404-1.415.404-3.437 1.01-5.257.608-1.82 1.821-3.437 2.427-4.448.607-1.01.607-1.416.405-1.618-.203-.202-.607-.202-1.82-1.415-1.214-1.213-3.235-3.64-4.449-5.055-1.213-1.415-1.617-1.82-1.819-2.224-.203-.405-.203-.809-.405-2.022-.202-1.213-.606-3.235-.808-5.257-.202-2.022-.202-4.044-.406-5.257-.2-1.213-.606-1.618-.404-2.629.203-1.01 1.012-2.628 1.618-4.044.607-1.415 1.011-2.628 1.618-4.246.606-1.618 1.415-3.639 2.831-5.864 1.416-2.224 3.437-4.65 4.852-6.267 1.405-1.605 2.211-2.414 3.014-2.82-2.255-.397-3.414-.354-4.328-.214-1.314.203-2.122.607-3.74 1.416-1.619.81-4.045 2.022-5.46 3.033-1.416 1.01-1.82 1.82-2.224 2.628-.404.81-.809 1.618-1.617 2.224-.81.607-2.023 1.012-2.83.81-.81-.203-1.214-1.012-1.62-.81-.404.202-.808 1.416-1.415 2.427-.606 1.011-1.415 1.82-4.852 4.044-3.438 2.224-9.503 5.863-12.738 7.885-3.235 2.022-3.64 2.427-3.64 3.64s.405 3.235.202 4.448c-.202 1.214-1.01 1.618-2.224 2.224-1.213.607-2.83 1.416-4.852 2.224-2.023.81-4.449 1.618-5.864 2.224-.955.41-1.45.728-1.919.642-1.098 1.85-2.378 3.615-3.238 5.02-1.11 1.82-1.515 3.033-1.717 4.55-.15 1.124-.19 2.415-.694 3.501.49.755.463 1.521.086 2.463-.403 1.011-1.213 2.224-2.223 3.438-1.01 1.213-2.224 2.426-3.64 4.246-1.415 1.82-3.032 4.246-4.246 5.661a10.6 10.6 0 0 1-.983 1.017c.991 1.83 1.933 3.257 2.601 4.341.81 1.314 1.213 2.124 1.82 2.528.606.404 1.414.404 2.426.404 1.011 0 2.224 0 3.234-.202 1.011-.202 1.821-.606 2.832-.606 1.01 0 2.224.404 3.437 1.01l.23.117c-3.435 4.285-5.38 6.668-6.903 8.274-1.819 1.921-3.032 2.73-3.638 3.337-.608.606-.608 1.011-.608 2.022s0 2.628.202 4.044c.202 1.415.607 2.628 1.416 4.246.81 1.618 2.022 3.64 2.426 4.65.404 1.011 0 1.011-.809 1.011-.808 0-2.02 0-2.83.405-.809.404-1.214 1.213-1.416 2.021a4.936 4.936 0 0 0 0 2.427c.202.81.607 1.617.405 2.426-.203.81-1.01 1.618-2.427 3.437-1.415 1.82-3.437 4.651-4.447 6.471-1.012 1.82-1.012 2.628-.81 3.235.202.606.606 1.011 1.011 1.415.404.405.81.81 1.214 1.415.404.607.808 1.416.808 2.831s-.404 3.438-.808 5.055c-.405 1.618-.81 2.831-1.214 3.842-.405 1.011-.809 1.82-1.213 2.628-.404.81-.809 1.618-1.617 2.831-.809 1.213-2.023 2.831-2.629 3.842-.607 1.011-.607 1.415-.202 1.82.404.404 1.214.81 2.022 1.415.81.606 1.617 1.415 2.224 2.022.606.606 1.01 1.011 1.01 1.618 0 .606-.404 1.415-1.01 4.246-.607 2.83-1.415 7.683-2.023 10.11-.605 2.426-1.009 2.426-2.02 2.83-1.012.405-2.63 1.213-3.439 2.022-.808.81-.808 1.618-.808 2.63 0 1.01 0 2.223-.202 2.83-.203.606-.607.606-1.82.808-1.213.202-3.235.607-4.449.81-1.213.201-1.617.201-2.02.807-.406.608-.81 1.821-1.619 3.236-.809 1.415-2.022 3.033-2.83 4.044-.809 1.011-1.214 1.415-1.214 1.82 0 .403.405.808.81 1.213.403.404.808.81 1.01 1.213.202.404.202.808-.202 1.011-.405.202-1.213.202-2.023.404-.808.202-1.617.607-2.426.808-.808.204-1.617.204-2.022.405-.404.203-.404.607-.404 1.214 0 .606 0 1.415.203 2.021.201.606.606 1.011 1.617 1.214 1.011.202 2.628.202 3.842.404 1.213.202 2.021.607 2.223 1.213.202.607-.202 1.415-.403 2.426-.193.967-.203 2.118.15 3.101-1.184.404-2.038.54-2.982.944-1.415.606-3.032 1.82-4.246 2.628-1.213.808-2.022 1.214-2.83 2.022-.809.81-1.617 2.022-2.426 3.032-.81 1.011-1.618 1.821-2.225 2.63-.606.808-1.01 1.617-1.416 2.628-.404 1.011-.808 2.224-1.01 3.235-.203 1.01-.203 1.82-.405 4.45-.202 2.627-.606 7.075-.808 10.108-.202 3.033-.202 4.651-.405 5.661-.202 1.012-.606 1.415-1.01 1.821l-1.213 1.213c-.405.404-.81.808-1.214 1.415-.404.607-.809 1.416-1.01 2.224a4.932 4.932 0 0 0 0 2.426c.201.81.606 1.618 1.01 2.225.404.606.81 1.01 1.214 2.426.404 1.415.81 3.841 1.213 5.257.404 1.415.808 1.82 2.021 2.83 1.213 1.011 3.236 2.63 4.246 3.842 1.012 1.214 1.012 2.023 1.012 3.235 0 1.213 0 2.832-.203 4.044-.202 1.213-.607 2.023-1.213 2.628-.606.608-1.415 1.012-3.438 1.821-2.02.808-5.256 2.021-6.875 3.033-1.617 1.011-1.617 1.82-2.02 3.638-.405 1.821-1.214 4.652-2.022 7.078-.809 2.426-1.619 4.45-2.023 6.066-.404 1.617-.404 2.83-.202 3.842.202 1.011.606 1.82 1.416 4.043.81 2.224 2.022 5.864 2.628 8.493.606 2.628.606 4.246.606 5.661 0 1.415 0 2.628.202 3.438.203.808.607 1.213 1.415 1.415.81.202 2.023.202 2.63.606.607.404.607 1.214.607 2.225 0 1.01 0 2.223.201 3.032.203.81.608 1.214 1.214 1.82.606.607 1.415 1.415 2.223 1.82.81.405 1.618.405 2.63.81 1.01.403 2.224 1.212 3.437 1.616 1.213.405 2.426.405 4.55.405.477 0 1.004 0 1.53.07"/><path d="M471.202 1659.235c1.195 6.034.593 10.86.492 13.882-.1 3.033.303 4.246.91 5.054.606.81 1.415 1.214 1.82 1.62.404.403.404.807-.506 1.92-.91 1.112-2.73 2.931-2.73 4.144 0 2.427-.606 5.46-.707 7.583-.1 2.123.303 3.336.303 4.953 0 1.618-.404 3.64-.606 4.854-.203 1.213-.203 1.617-.506 1.82-.303.201-.91.201-1.315-.203-.404-.404-.606-1.213-.707-2.225-.1-1.01-.1-2.223-3.74-3.437-2.427-2.426-3.033-3.032-3.539-3.336-.506-.303-.91-.303-1.213.304-.304.606-.506 1.82-.606 2.931-.102 1.113-.102 2.123-.506 2.63-.405.504-1.213.504-1.819-.405-.608-.91-1.012-2.73-2.124-4.65-1.112-1.92-2.93-3.944-4.247-5.562-1.313-1.617-2.122-2.83-2.526-3.639-.404-.808-.404-1.214-.203-2.224.203-1.01.607-2.628 1.012-4.044.404-1.415.808-2.628 1.01-3.538.203-.91.203-1.517-1.01-3.943-4.854-7.279-6.673-10.312-7.583-12.03-.91-1.72-.91-2.124-1.314-2.528-.405-.405-1.214-.809-4.044-3.134-2.83-2.325-7.684-6.57-13.749-12.638-1.214-1.213-2.427-1.819-3.438-2.325-1.01-.505-1.82-.909-2.426-1.314a4.721 4.721 0 0 1-1.416-1.416c-.404-.606-.808-1.415-1.213-2.02-.404-.608-.809-1.012-1.213-.81-.404.202-.809 1.011-1.213 1.618-.405.606-.809 1.01-1.415 1.01-.607 0-1.416-.404-2.629-1.01-1.213-.607-2.83-1.416-4.246-2.225a48.756 48.756 0 0 1-3.437-2.174c-.809-.555-1.214-.858-1.82-1.01-.607-.152-1.416-.152-2.426-.506-1.01-.354-2.225-1.06-2.832-1.567-.606-.505-.606-.809-.606-1.06 0-.254 0-.457.506-.204.505.253 1.516.96 2.123 1.315.606.353.81.353.96.202.152-.152.253-.455.051-.859-.202-.405-.708-.91-1.365-1.568l-2.275-2.274c-.809-.809-1.617-1.617-3.033-3.236-1.415-1.617-3.437-4.043-4.65-5.863-1.213-1.82-1.618-3.033-1.314-3.842.303-.808 1.313-1.212 1.92-1.416.607-.202.81-.202.91-.504.102-.304.102-.91-.303-1.92-.404-1.012-1.214-2.428-2.022-3.539-.809-1.113-1.617-1.92-3.538-5.359-1.92-3.437-4.954-9.503-8.594-16.782-4.852-6.066-9.099-10.312-11.626-12.84-2.527-2.527-3.336-3.336-3.74-5.357-.405-2.023-.405-5.258-.607-7.077-.202-1.82-.607-2.225-1.01-2.629-.406-.405-.81-.809-.81-1.415 0-.607.404-1.415 1.011-3.64.607-2.225 1.415-5.863 2.022-9.3.507-2.875.873-5.606 1.216-7.96 3.05-.527 4.05-.04 5.052.377 1.213.505 2.427.91 3.437 1.314 1.011.404 1.82.808 2.427.808.606 0 1.011-.404 1.415-1.01.404-.607.81-1.416 1.213-2.022.405-.607.81-1.01 1.213-1.214.405-.2.81-.2 1.214 0 .404.203.808.607 1.213.81.404.202.808.202 1.011 0 .202-.203.202-.607 0-1.214-.203-.607-.607-1.415-.405-2.022.202-.606 1.011-1.01 2.023-2.02 1.01-1.013 2.223-2.63 3.437-3.64 1.213-1.01 2.426-1.417 3.437-2.023 1.011-.607 1.82-1.415 2.628-1.82.81-.404 1.618-.404 2.427-.404.81 0 1.617 0 2.628.202 1.011.202 2.225.607 2.831.607.607 0 .607-.405 1.011-.607.404-.202 1.213-.202 2.022-.404.81-.203 1.618-.608 2.224-.809.607-.203 1.011-.203 1.214 0 .202.201.202.606 1.01 1.415.81.81 2.426 2.022 3.438 3.033 1.01 1.011 1.415 1.82 2.022 2.426.606.607 1.415 1.011 2.022 1.415.606.405 1.01.81 1.213 1.214a1.29 1.29 0 0 1 0 1.213c-.203.405-.607.81-1.01 1.213-.406.404-.81.81-.81 1.214 0 .404.404.808 1.011 1.82.606 1.01 1.415 2.627 2.022 3.841l1.415 2.83c.405.81.81 1.618 1.011 2.225.202.606.202 1.01.607 1.213.404.202 1.213.202 1.617 0 .405-.203.405-.607.607-.607.202 0 .607.404.81.404.201 0 .201-.404.201-.808s0-.809.404-1.415c.405-.607 1.214-1.416 1.618-1.618.404-.202.404.202.404.606v1.214c0 .404 0 .81.91 1.011.795.176 2.286.2 5.08.202.088-.277.181-.549.278-.809.607-1.618 1.416-2.83 2.022-4.246.607-1.416 1.011-3.033 2.224-4.246 1.214-1.213 3.235-2.02 5.258-3.033 2.021-1.01 4.044-2.224 5.257-3.438 1.213-1.213 1.617-2.425 2.425-3.638.81-1.214 2.023-2.427 3.641-3.64 1.617-1.214 3.64-2.427 5.256-3.437 1.618-1.01 2.832-1.82 3.741-2.528.837-.65 1.417-1.216 3.39-4.13.245.07.493.135.756.187 1.01.202 2.223.202 4.346.202h9.2c0 .404.405.81.81 1.214.403.404.808.81 1.01 1.213.202.404.202.808-.202 1.011-.405.202-1.213.202-2.023.404-.808.202-1.617.607-2.426.808-.808.204-1.617.204-2.022.405-.404.203-.404.607-.404 1.214 0 .606 0 1.415.203 2.021.201.606.606 1.011 1.617 1.214 1.011.202 2.628.202 3.842.404 1.213.202 2.021.607 2.223 1.213.202.607-.202 1.415-.403 2.426-.193.967-.203 2.118.15 3.101-1.184.404-2.038.54-2.982.944-1.415.606-3.032 1.82-4.246 2.628-1.213.808-2.022 1.214-2.83 2.022-.809.81-1.617 2.022-2.426 3.032-.81 1.011-1.618 1.821-2.225 2.63-.606.808-1.01 1.617-1.416 2.628-.404 1.011-.808 2.224-1.01 3.235-.203 1.01-.203 1.82-.405 4.45-.202 2.627-.606 7.075-.808 10.108-.202 3.033-.202 4.651-.405 5.661-.202 1.012-.606 1.415-1.01 1.821l-1.213 1.213c-.405.404-.81.808-1.214 1.415-.404.607-.809 1.416-1.01 2.224a4.932 4.932 0 0 0 0 2.426c.201.81.606 1.618 1.01 2.225.404.606.81 1.01 1.214 2.426.404 1.415.81 3.841 1.213 5.257.404 1.415.808 1.82 2.021 2.83 1.213 1.011 3.236 2.63 4.246 3.842 1.012 1.214 1.012 2.023 1.012 3.235 0 1.213 0 2.832-.203 4.044-.202 1.213-.607 2.023-1.213 2.628-.606.608-1.415 1.012-3.438 1.821-2.02.808-5.256 2.021-6.875 3.033-1.617 1.011-1.617 1.82-2.02 3.638-.405 1.821-1.214 4.652-2.022 7.078-.809 2.426-1.619 4.45-2.023 6.066-.404 1.617-.404 2.83-.202 3.842.202 1.011.606 1.82 1.416 4.043.81 2.224 2.022 5.864 2.628 8.493.606 2.628.606 4.246.606 5.661 0 1.415 0 2.628.202 3.438.203.808.607 1.213 1.415 1.415.81.202 2.023.202 2.63.606.607.404.607 1.214.607 2.225 0 1.01 0 2.223.201 3.032.203.81.608 1.214 1.214 1.82.606.607 1.415 1.415 2.223 1.82.81.405 1.618.405 2.63.81 1.01.403 2.224 1.212 3.437 1.616 1.213.405 2.426.405 4.55.405.477 0 1.004 0 1.53.07"/><path d="M371.387 1467.889c-4.612 5.798-6.39 8.77-8.07 12.03-1.718 3.337-3.335 6.976-4.346 10.211-1.012 3.235-1.416 6.066-1.618 8.694-.202 2.63-.202 5.055 0 7.078.202 2.021.606 3.638.808 5.256.203 1.619.203 3.237.203 5.46 0 2.225 0 5.056-.203 7.482-.202 2.426-.606 4.448-1.01 7.077-.067.43-.133.878-.2 1.34 3.049-.527 4.05-.04 5.052.378 1.214.505 2.427.91 3.438 1.313 1.01.405 1.82.81 2.426.81.607 0 1.01-.405 1.416-1.012.404-.606.808-1.415 1.212-2.02.405-.608.81-1.012 1.214-1.215a1.295 1.295 0 0 1 1.213 0c.404.203.809.607 1.213.81.404.202.809.202 1.01 0 .203-.203.203-.607 0-1.214-.201-.607-.606-1.416-.403-2.022.202-.606 1.01-1.01 2.022-2.02 1.01-1.013 2.224-2.63 3.437-3.64 1.213-1.012 2.426-1.417 3.438-2.024 1.01-.606 1.819-1.415 2.628-1.819.809-.404 1.618-.404 2.426-.404.809 0 1.618 0 2.629.202 1.01.202 2.224.606 2.83.606.607 0 .607-.404 1.01-.606.406-.202 1.215-.202 2.023-.404.809-.203 1.618-.608 2.224-.809.607-.203 1.012-.203 1.214 0 .202.201.202.606 1.01 1.415.81.81 2.427 2.022 3.438 3.032 1.01 1.012 1.416 1.821 2.022 2.427.607.607 1.415 1.011 2.022 1.415.607.404 1.01.81 1.213 1.214.203.404.203.81 0 1.213-.202.404-.606.808-1.011 1.213-.404.404-.81.81-.81 1.214 0 .404.406.808 1.012 1.82.607 1.01 1.416 2.627 2.022 3.841.607 1.213 1.01 2.022 1.416 2.83.404.81.808 1.618 1.01 2.224.203.607.203 1.011.607 1.213.405.203 1.213.203 1.618 0 .404-.202.404-.606.606-.606.202 0 .607.404.809.404.202 0 .202-.404.202-.808 0-.405 0-.809.405-1.415.404-.607 1.213-1.416 1.617-1.619.405-.2.405.203.405.607v1.214c0 .404 0 .808.91 1.01.795.177 2.286.2 5.08.203.088-.278.18-.549.278-.809.606-1.618 1.415-2.83 2.022-4.246.606-1.416 1.01-3.033 2.224-4.246 1.213-1.213 3.235-2.022 5.257-3.033 2.022-1.01 4.044-2.224 5.257-3.438 1.214-1.213 1.617-2.426 2.426-3.639.809-1.213 2.022-2.426 3.64-3.639 1.618-1.214 3.639-2.427 5.256-3.438 1.618-1.01 2.832-1.819 3.74-2.527.838-.65 1.418-1.216 3.39-4.13-.701-.198-1.378-.42-2.276-.42-1.213 0-2.831.404-4.044.202-1.214-.202-2.023-1.01-3.033-2.223-1.011-1.213-2.224-2.83-3.236-3.842-1.011-1.01-1.82-1.415-2.021-1.82-.202-.405.202-.809.404-1.416.202-.606.202-1.415 0-2.224-.202-.808-.606-1.617-1.213-2.224-.607-.606-1.416-1.01-2.63-1.415-1.212-.404-2.83-.809-3.841-1.213-1.01-.405-1.415-.809-1.617-1.214-.202-.404-.202-.808-.404-1.01-.203-.202-.607-.202-1.213-.405-.607-.202-1.416-.607-2.427-.404-1.011.202-2.224 1.011-3.437 1.415-1.213.404-2.426.404-3.64.202-1.213-.202-2.426-.606-3.235-.606-.81 0-1.213.404-1.415.404-.202 0-.202-.404-.202-1.213v-3.235c0-1.213 0-2.426.202-3.235.202-.809.606-1.213.808-2.022.203-.809.203-2.022.203-3.033 0-1.01 0-1.82.202-2.426.202-.607.607-1.012.607-1.416 0-.404-.405-.808-.81-1.213-.404-.405-.808-.809-1.415-1.01-.606-.203-1.415-.203-3.235-.203-1.82 0-4.65 0-6.874-.202-2.224-.203-3.842-.607-5.864-.809-2.022-.203-4.448-.203-6.268-.607-1.82-.404-3.033-1.213-4.448-1.617-1.415-.405-3.033-.405-4.651-.405-1.617 0-3.235 0-4.246.202-1.011.203-1.415.607-2.426 1.012-1.011.404-2.63.808-3.64 1.01-1.011.202-1.415.202-1.82.202-.404 0-.808 0-1.415-.202s-1.415-.606-2.426-1.112a21.3 21.3 0 0 1-1.333-.708"/><path d="M499.727 1386.208c-.725.646-1.337.952-2.05 1.309-1.012.505-2.224 1.112-7.077 2.325-1.214 1.213-1.214 2.427-1.618 3.437-.404 1.01-1.213 1.82-1.617 2.022-.405.203-.405-.202-.81-.404-.404-.202-1.213-.202-2.426.202-1.213.405-2.831 1.213-3.841 2.022-1.011.809-1.415 1.617-1.82 2.022-.404.404-.81.404-1.214.404-.404 0-.808 0-1.415.607-.606.607-1.415 1.82-2.021 2.426-.608.607-1.011.607-1.415.607h-1.416c-.607 0-1.415 0-2.225.606-.808.607-1.617 1.82-2.223 2.225-.607.404-1.011 0-1.62-.203-.604-.202-1.414-.202-2.02-.404-.607-.202-1.011-.606-1.213-1.011-.202-.404-.202-.81-.404-1.011-.202-.202-.608-.202-1.213 0-.608.202-1.416.607-2.023.809-.606.202-1.01.202-1.618 0-.605-.202-1.415-.607-2.223-.81-.81-.201-1.62-.201-2.427-.201h-2.224c-.606 0-1.011 0-1.415-.202-.404-.203-.808-.607-1.416-1.213-.606-.607-1.415-1.416-2.021-1.82-.608-.405-1.012-.405-1.821-.405-.808 0-2.021 0-2.83.203-.81.202-1.213.606-2.022 1.01-.81.405-2.022.809-3.235 1.416-1.213.606-2.426 1.415-3.438 1.617-1.01.203-1.82-.202-2.628-.404-.81-.202-1.618-.202-2.831-.81-1.213-.605-2.831-1.818-4.246-2.627-1.415-.81-2.628-1.214-3.64-1.82-1.011-.607-1.82-1.415-2.527-2.123l-3.013-3.013c-2.26 3.85-4.461 7.549-5.782 10.19-1.416 2.832-1.82 4.449-2.63 6.673-.808 2.224-2.02 5.055-3.436 7.279s-3.033 3.842-4.651 6.673c-1.617 2.83-3.235 6.875-4.448 9.503-1.213 2.628-2.022 3.842-3.033 5.257a266.291 266.291 0 0 1-3.437 4.65c-1.213 1.618-2.427 3.236-3.842 5.46-1.415 2.224-3.033 5.055-4.145 8.29-1.112 3.235-1.718 6.875-5.358 10.514-.11.136-.216.27-.322.404a21.3 21.3 0 0 0 1.333.708c1.01.506 1.82.91 2.426 1.112.607.202 1.01.202 1.415.202s.81 0 1.82-.202c1.012-.202 2.629-.606 3.64-1.011 1.01-.404 1.415-.808 2.426-1.011 1.01-.202 2.629-.202 4.246-.202 1.618 0 3.236 0 4.65.405 1.416.404 2.629 1.213 4.449 1.617 1.82.404 4.247.404 6.268.606 2.022.202 3.64.607 5.864.809 2.224.202 5.055.202 6.874.202 1.82 0 2.629 0 3.236.203.606.202 1.01.606 1.415 1.01.404.405.809.809.809 1.214 0 .404-.405.808-.607 1.415-.202.607-.202 1.416-.202 2.427 0 1.01 0 2.224-.202 3.032-.203.809-.607 1.214-.81 2.022-.201.809-.201 2.022-.201 3.236v3.235c0 .809 0 1.213.202 1.213s.606-.404 1.415-.404 2.022.404 3.235.606c1.214.202 2.427.202 3.64-.202s2.426-1.213 3.437-1.416c1.01-.202 1.82.203 2.427.405.606.202 1.01.202 1.213.404.202.203.202.607.404 1.01.203.405.607.81 1.618 1.215 1.01.404 2.629.808 3.84 1.212 1.214.405 2.023.809 2.63 1.416.607.606 1.01 1.415 1.213 2.224.202.809.202 1.618 0 2.224-.202.607-.606 1.01-.404 1.416.202.404 1.01.809 2.02 1.82 1.013 1.01 2.226 2.628 3.237 3.84 1.01 1.214 1.819 2.023 3.033 2.225 1.213.202 2.83-.202 4.044-.202.898 0 1.575.22 2.277.42.245.068.493.134.756.186 1.01.202 2.224.202 4.347.202h9.2c0-.404.404-.808 1.213-1.82.808-1.01 2.02-2.628 2.83-4.043s1.214-2.628 1.618-3.235c.404-.607.809-.607 2.022-.81 1.213-.201 3.236-.605 4.448-.807 1.214-.203 1.618-.203 1.82-.81.202-.606.202-1.82.202-2.83 0-1.011 0-1.82.809-2.628.808-.81 2.427-1.618 3.437-2.022 1.012-.405 1.416-.405 2.022-2.832.607-2.426 1.416-7.278 2.022-10.11.607-2.83 1.01-3.64 1.01-4.245 0-.607-.403-1.011-1.01-1.618-.606-.607-1.415-1.415-2.223-2.022-.81-.606-1.618-1.01-2.023-1.415-.404-.404-.404-.81.202-1.82.607-1.011 1.82-2.628 2.629-3.842.809-1.213 1.213-2.021 1.617-2.83.405-.81.809-1.618 1.213-2.63.405-1.01.81-2.223 1.214-3.841.405-1.617.809-3.64.809-5.054 0-1.416-.404-2.224-.81-2.831-.403-.607-.808-1.011-1.213-1.415-.404-.405-.808-.81-1.01-1.416-.203-.606-.203-1.415.809-3.235 1.01-1.82 3.032-4.651 4.447-6.47 1.416-1.82 2.225-2.63 2.427-3.437.202-.81-.202-1.618-.404-2.427a4.932 4.932 0 0 1 0-2.426c.202-.81.606-1.618 1.415-2.022.81-.405 2.022-.405 2.83-.405.81 0 1.214 0 .81-1.01-.405-1.012-1.618-3.033-2.426-4.651-.81-1.618-1.214-2.831-1.416-4.246-.202-1.415-.202-3.033-.202-4.044 0-1.011 0-1.415.607-2.022.607-.606 1.819-1.415 3.639-3.336 1.522-1.606 3.468-3.99 6.9-8.275-.075-.04-.151-.078-.227-.116-1.213-.607-2.427-1.011-3.438-1.011-1.011 0-1.82.404-2.831.606-1.011.202-2.224.202-3.234.202-1.012 0-1.821 0-2.427-.404-.607-.404-1.011-1.213-1.82-2.527-.667-1.085-1.61-2.513-2.6-4.342"/><path d="M412.47 1392.996l.487-.83c2.426-4.144 4.852-8.39 8.492-15.67 1.213-2.425 3.639-4.852 5.257-6.671 1.617-1.82 2.426-3.033 3.437-3.64 1.01-.606 2.224-.606 3.437-.81 1.214-.201 2.427-.606 3.64-2.021s2.426-3.841 3.437-5.257c1.01-1.415 1.82-1.82 2.224-2.628.404-.81.404-2.022.608-3.438.2-1.415.605-3.032.808-5.257.202-2.224.202-5.054 1.213-7.28 1.01-2.223 3.033-3.84 4.853-5.862 1.819-2.022 3.437-4.45 5.055-6.673 1.617-2.224 3.235-4.246 4.852-5.863a29.47 29.47 0 0 1 4.449-3.64c1.213-.81 2.022-1.213 4.246-2.628 2.224-1.416 5.863-3.842 7.885-5.46 2.022-1.617 2.427-2.426 4.65-3.235 2.225-.81 6.269-1.617 9.1-2.224.36-.077.7-.151 1.024-.223 1.82.534 2.64.773 3.323.93 1.314.304 2.123.304 2.93.708.81.404 1.619 1.214 2.63 2.022 1.01.809 2.225 1.618 2.83 2.426.608.81.608 1.618.608 2.427 0 .809 0 1.617-.203 2.629-.202 1.01-.606 2.224-1.01 3.032-.405.809-.81 1.214-1.214 1.618-.404.404-.81.809-1.415 1.213-.607.405-1.415.809-2.225 1.01-.808.203-1.617.203-2.021.405-.405.202-.405.607-.607 1.416-.202.809-.606 2.022-.405 3.033.203 1.01 1.012 1.819 1.82 2.83.809 1.01 1.617 2.225 2.023 3.438.404 1.213.404 2.426.606 3.235.202.809.607 1.213 1.82 1.618 1.213.404 3.235.808 4.65.606 1.416-.202 2.225-1.011 2.83-1.213.607-.202 1.012.202 1.214 1.415.202 1.214.202 3.236.405 4.853.202 1.617.606 2.83 1.01 4.044.405 1.213.809 2.427 1.618 4.044.809 1.617 2.023 3.639 2.83 4.448.264.263.484.397.71.439-1.097 1.849-2.378 3.616-3.237 5.02-1.112 1.82-1.516 3.033-1.718 4.55-.15 1.124-.19 2.415-.693 3.502.488.754.463 1.52.086 2.463-.404 1.01-1.213 2.224-2.224 3.437-1.011 1.213-2.224 2.426-3.64 4.246-1.415 1.82-3.032 4.246-4.246 5.66-1.213 1.417-2.021 1.82-3.032 2.327-1.012.505-2.225 1.112-7.077 2.325-1.214 1.213-1.214 2.426-1.618 3.437-.405 1.01-1.213 1.82-1.617 2.022-.405.202-.405-.202-.81-.404-.404-.202-1.213-.202-2.426.202s-2.831 1.213-3.842 2.022c-1.01.809-1.415 1.617-1.82 2.022-.403.404-.808.404-1.213.404-.404 0-.808 0-1.415.607-.606.607-1.415 1.82-2.021 2.426-.608.607-1.011.607-1.415.607h-1.416c-.607 0-1.415 0-2.225.606-.81.607-1.617 1.82-2.224 2.225-.606.404-1.01 0-1.618-.203-.605-.202-1.415-.202-2.021-.404-.607-.202-1.011-.606-1.213-1.011-.202-.404-.202-.81-.404-1.011-.203-.202-.608-.202-1.213 0-.608.202-1.416.607-2.023.809-.606.202-1.011.202-1.618 0-.605-.202-1.415-.607-2.224-.81-.808-.201-1.618-.201-2.426-.201h-2.224c-.606 0-1.011 0-1.415-.202-.404-.203-.81-.607-1.416-1.214-.607-.606-1.415-1.415-2.022-1.82-.607-.404-1.011-.404-1.82-.404-.808 0-2.021 0-2.83.202-.81.203-1.213.607-2.022 1.012-.81.404-2.022.808-3.235 1.415-1.214.606-2.427 1.415-3.438 1.617-1.011.203-1.82-.202-2.628-.404-.81-.202-1.618-.202-2.831-.81-1.213-.605-2.831-1.818-4.246-2.627-1.415-.81-2.628-1.214-3.64-1.82-1.011-.607-1.82-1.415-2.527-2.123l-3.013-3.013"/><path d="M491.624 1303.686c1.82.534 2.64.773 3.322.93 1.315.304 2.123.304 2.932.708.81.404 1.618 1.214 2.63 2.022 1.01.809 2.223 1.618 2.83 2.426.606.81.606 1.618.606 2.427 0 .809 0 1.617-.202 2.629-.202 1.01-.606 2.224-1.01 3.032-.405.809-.809 1.214-1.214 1.618-.405.404-.809.809-1.416 1.213-.606.405-1.415.809-2.224 1.01-.809.203-1.617.203-2.022.405-.404.202-.404.607-.606 1.416-.202.809-.606 2.022-.405 3.033.203 1.01 1.011 1.819 1.82 2.83.81 1.01 1.617 2.225 2.022 3.438.405 1.213.405 2.426.607 3.235.202.809.606 1.213 1.82 1.618 1.213.404 3.235.808 4.651.606 1.415-.202 2.223-1.011 2.83-1.213.606-.202 1.01.202 1.213 1.415.202 1.214.202 3.236.405 4.853.202 1.617.605 2.83 1.01 4.044.405 1.213.81 2.427 1.618 4.044.808 1.617 2.022 3.639 2.831 4.448.263.263.482.397.71.439.468.086.963-.231 1.918-.641 1.415-.607 3.842-1.415 5.864-2.224 2.021-.81 3.64-1.618 4.853-2.224 1.212-.607 2.021-1.011 2.223-2.224.203-1.214-.202-3.235-.202-4.45 0-1.212.405-1.616 3.64-3.638 3.235-2.022 9.3-5.662 12.738-7.886 3.437-2.224 4.246-3.033 4.853-4.044.606-1.011 1.01-2.224 1.415-2.426.405-.202.81.607 1.618.809.808.202 2.021-.202 2.831-.81.808-.606 1.213-1.414 1.617-2.223.404-.81.81-1.618 2.224-2.63 1.416-1.01 3.841-2.223 5.46-3.032 1.618-.81 2.426-1.213 3.74-1.415.914-.141 2.073-.184 4.328.212l.02-.01c.808-.404 1.617-.404 2.426-.606.808-.203 1.617-.607 2.022-1.012.404-.404.404-.808.202-1.415s-.607-1.415-1.416-2.022c-.808-.606-2.022-1.011-3.032-1.213-1.01-.202-1.82-.202-2.427-1.011-.607-.81-1.01-2.426-1.819-3.842-.809-1.415-2.022-2.628-3.438-3.235-1.415-.606-3.033-.606-4.448-.81-1.415-.201-2.629-.605-3.842-1.01-1.213-.404-2.427-.808-3.438-1.213-1.01-.404-1.819-.808-3.033-1.011-1.213-.202-2.83-.202-4.246-.404-1.415-.202-2.628-.607-3.436-1.213-.81-.607-1.214-1.416-2.326-2.426-1.112-1.012-2.93-2.225-4.145-4.651-6.066-1.213-6.066-1.82-6.47-3.134-.404-1.314-1.213-3.336-2.224-4.752-1.01-1.415-2.225-2.224-3.842-2.426-1.617-.202-3.639.202-5.863 1.415-2.225 1.214-4.65 3.235-6.875 4.853-2.224 1.618-4.247 2.83-5.459 4.246-1.213 1.415-1.618 3.033-2.022 4.246-.405 1.213-.81 2.022-1.214 2.629-.404.606-.808 1.01-2.223 1.82-1.416.808-3.842 2.02-5.865 2.83-1.763.706-3.22 1.104-5.445 1.597"/></g></svg>