<?xml version="1.0" encoding="UTF-8" standalone="no"?>
<svg width="983px" height="829px" viewBox="0 0 983 829" version="1.1" xmlns="http://www.w3.org/2000/svg" xmlns:xlink="http://www.w3.org/1999/xlink" xmlns:sketch="http://www.bohemiancoding.com/sketch/ns">
    <!-- Generator: Sketch 3.4 (15575) - http://www.bohemiancoding.com/sketch -->
    <title>bgImg_logoIcon_yellow</title>
    <desc>Created with Sketch.</desc>
    <defs></defs>
    <g id="Page-1" stroke="none" stroke-width="1" fill="none" fill-rule="evenodd" sketch:type="MSPage">
        <g id="PyConTW2016_landing_v3" sketch:type="MSArtboardGroup" transform="translate(0.000000, -584.000000)" fill="#FFCC3E" opacity="0.100000001">
            <path d="M313.508443,1258.82708 L207.373382,1152.11855 C215.078566,1111.17114 224.587247,1065.9613 233.216173,1024.90308 C273.794854,831.91911 157.395989,717.106795 136.098597,698.00342 C79.8382899,642.517943 -38.3127531,596.000561 -139.176618,691.805535 C-195.246311,745.052683 -207.276956,800.190961 -207.496894,837.075395 C-207.980759,920.05614 -151.779103,978.969292 -142.959563,987.700997 L65.8281979,1197.64605 C58.3649463,1249.79989 58.4382592,1280.48643 64.6845169,1307.20604 L153.745008,1286.04163 L220.291112,1352.95515 L220.298443,1352.95515 C258.215867,1391.13974 308.7651,1412.17118 362.628075,1412.17118 C416.520376,1412.17118 467.098934,1391.11758 505.016357,1352.90344 L636.547002,1220.36916 C636.598321,1220.32484 636.642308,1220.27313 636.693627,1220.22881 L982.789087,871.492496 L889.469118,777.467844 L543.285683,1126.2928 C530.301971,1139.33865 512.897492,1146.52642 494.305345,1146.52642 C475.654548,1146.52642 458.228075,1139.3091 445.22237,1126.20416 C432.223995,1113.1066 425.061327,1095.54715 425.061327,1076.76143 C425.061327,1057.97571 432.223995,1040.41626 445.22237,1027.31132 L791.325161,678.567621 L698.012523,584.542969 L351.909732,933.286667 C313.984977,971.508191 293.098137,1022.45791 293.098137,1076.76143 C293.098137,1131.05756 313.984977,1182.01467 351.909732,1220.22142 C368.888995,1237.34502 388.404885,1251.01139 409.621633,1260.88812 C396.872523,1272.72246 380.29648,1279.20106 362.628075,1279.20106 C343.984609,1279.20106 326.558137,1271.98373 313.552431,1258.88618 M104.119517,997.348718 C101.011051,1012.12318 98.0858666,1026.12936 95.3293021,1039.45592 L-49.9914954,893.336532 L-50.768612,892.560873 C-51.0178758,892.324482 -75.6949923,866.033334 -75.533704,837.873216 C-75.4970475,831.948658 -75.3870782,813.945981 -48.6718635,788.570849 C-33.0855445,773.766842 -19.9185506,769.31973 -8.57704755,769.31973 C-2.47008436,769.31973 3.11635736,770.612495 8.25559049,772.267235 C28.7831979,778.856643 44.3035353,793.557229 44.3035353,793.557229 L49.1935046,798.019115 C49.3767868,798.174247 68.526112,815.135325 85.1974617,846.42024 C109.302738,891.659631 115.666296,942.439444 104.119517,997.348718" id="bgImg_logoIcon_yellow" sketch:type="MSShapeGroup"></path>
        </g>
    </g>
</svg>