<?xml version="1.0" encoding="UTF-8" standalone="no"?>
<svg width="909px" height="828px" viewBox="0 0 909 828" version="1.1" xmlns="http://www.w3.org/2000/svg" xmlns:xlink="http://www.w3.org/1999/xlink" xmlns:sketch="http://www.bohemiancoding.com/sketch/ns">
    <!-- Generator: Sketch 3.4 (15575) - http://www.bohemiancoding.com/sketch -->
    <title>bgImg_logoIcon_purple</title>
    <desc>Created with Sketch.</desc>
    <defs></defs>
    <g id="Page-1" stroke="none" stroke-width="1" fill="none" fill-rule="evenodd" sketch:type="MSPage">
        <g id="PyConTW2016_landing_v3" sketch:type="MSArtboardGroup" transform="translate(-1011.000000, -2528.000000)" fill="#5194FB" opacity="0.100000001">
            <path d="M1532.00844,3202.5888 L1425.87338,3095.88027 C1433.57857,3054.93286 1443.08725,3009.72302 1451.71617,2968.6648 C1492.29485,2775.68083 1375.89599,2660.86851 1354.5986,2641.76514 C1298.33829,2586.27966 1180.18725,2539.76228 1079.32338,2635.56725 C1023.25369,2688.8144 1011.22304,2743.95268 1011.00311,2780.83711 C1010.51924,2863.81786 1066.7209,2922.73101 1075.54044,2931.46272 L1284.3282,3141.40777 C1276.86495,3193.5616 1276.93826,3224.24815 1283.18452,3250.96776 L1372.24501,3229.80335 L1438.79111,3296.71687 L1438.79844,3296.71687 C1476.71587,3334.90146 1527.2651,3355.9329 1581.12808,3355.9329 C1635.02038,3355.9329 1685.59893,3334.8793 1723.51636,3296.66516 L1855.047,3164.13088 C1855.09832,3164.08656 1855.14231,3164.03485 1855.19363,3163.99053 L2201.28909,2815.25421 L2107.96912,2721.22956 L1761.78568,3070.05452 C1748.80197,3083.10037 1731.39749,3090.28814 1712.80535,3090.28814 C1694.15455,3090.28814 1676.72808,3083.07082 1663.72237,3069.96587 C1650.724,3056.86832 1643.56133,3039.30887 1643.56133,3020.52315 C1643.56133,3001.73743 1650.724,2984.17798 1663.72237,2971.07304 L2009.82516,2622.32934 L1916.51252,2528.30469 L1570.40973,2877.04839 C1532.48498,2915.26991 1511.59814,2966.21963 1511.59814,3020.52315 C1511.59814,3074.81928 1532.48498,3125.77639 1570.40973,3163.98314 C1587.389,3181.10674 1606.90488,3194.77311 1628.12163,3204.64983 C1615.37252,3216.48418 1598.79648,3222.96278 1581.12808,3222.96278 C1562.48461,3222.96278 1545.05814,3215.74545 1532.05243,3202.6479 M1322.61952,2941.11044 C1319.51105,2955.88489 1316.58587,2969.89108 1313.8293,2983.21764 L1168.5085,2837.09825 L1167.73139,2836.32259 C1167.48212,2836.0862 1142.80501,2809.79505 1142.9663,2781.63493 C1143.00295,2775.71038 1143.11292,2757.7077 1169.82814,2732.33257 C1185.41446,2717.52856 1198.58145,2713.08145 1209.92295,2713.08145 C1216.02992,2713.08145 1221.61636,2714.37421 1226.75559,2716.02895 C1247.2832,2722.61836 1262.80354,2737.31895 1262.80354,2737.31895 L1267.6935,2741.78083 C1267.87679,2741.93597 1287.02611,2758.89704 1303.69746,2790.18196 C1327.80274,2835.42135 1334.1663,2886.20116 1322.61952,2941.11044" id="bgImg_logoIcon_purple" sketch:type="MSShapeGroup"></path>
        </g>
    </g>
</svg>