<?xml version="1.0" encoding="UTF-8"?>
<svg width="32px" height="23px" viewBox="0 0 32 23" version="1.1" xmlns="http://www.w3.org/2000/svg" xmlns:xlink="http://www.w3.org/1999/xlink">
    <!-- Generator: Sketch 42 (36781) - http://www.bohemiancoding.com/sketch -->
    <title>logo</title>
    <desc>Created with Sketch.</desc>
    <defs></defs>
    <g id="Symbols" stroke="none" stroke-width="1" fill="none" fill-rule="evenodd">
        <g id="nav" transform="translate(-37.000000, -29.000000)" fill="#7FB9CC">
            <path d="M45.3776679,40.0139455 C45.2941376,40.4081723 45.2153764,40.7819199 45.1413142,41.1374324 L41.2346037,37.2387875 L41.2136335,37.218238 C41.2069006,37.2118558 40.5434268,36.5105093 40.5478452,35.7590165 C40.5488271,35.6010031 40.5517027,35.1207912 41.2700217,34.4436411 C41.6890061,34.0487129 42.0429757,33.9301152 42.3479212,33.9301152 C42.5120363,33.9301152 42.6621945,33.9645513 42.8004299,34.008666 C43.3524598,34.1845637 43.7695505,34.5766866 43.7695505,34.5766866 L43.9009829,34.6957752 C43.9059624,34.699843 44.4206806,35.1523518 44.8689813,35.9871645 C45.5170255,37.1941819 45.688154,38.5489729 45.3776679,40.0139455 M51.0068152,46.9904495 L48.1535974,44.1433334 C48.360705,43.050846 48.6162757,41.8446001 48.8484214,40.7492371 C49.9393659,35.6002317 46.8098876,32.5369605 46.2374486,32.027292 C44.7249949,30.54696 41.5485264,29.3056468 38.8367001,31.8619847 C37.3294363,33.2826321 37.0060454,34.7537064 37.000084,35.737906 C36.9870389,37.9517763 38.4979497,39.5237043 38.7350749,39.7566214 L44.3483017,45.3580655 C44.1475763,46.7496773 44.1494699,47.5682889 44.3175126,48.2812076 L46.7116991,47.7164834 L48.500834,49.5019012 L48.5009743,49.5017609 C49.5203815,50.520607 50.8793104,51.0817543 52.3276611,51.0817543 C53.7764326,51.0817543 55.1360629,50.5201161 56.1556103,49.5005687 L59.691589,45.9643796 C59.6929215,45.9631873 59.6941138,45.9618547 59.6954464,45.9607326 L69,36.656179 L66.4912134,34.1474625 L57.1844155,43.4542605 C56.8352151,43.802479 56.3675572,43.994157 55.8674972,43.994157 C55.3661045,43.994157 54.8976051,43.8017075 54.548054,43.451946 C54.1985029,43.1024651 54.005843,42.6339656 54.005843,42.1327132 C54.005843,41.631531 54.1985029,41.1630316 54.548054,40.8134805 L63.8527479,31.5087866 L61.3440315,29 L52.0392674,38.304764 C51.01972,39.3245219 50.4580817,40.6839418 50.4580817,42.1327132 C50.4580817,43.5814847 51.01972,44.9409748 52.0392674,45.9605222 C52.495844,46.417239 53.0205213,46.7820093 53.5908563,47.0455052 C53.2480381,47.3611813 52.8024727,47.5339931 52.3276611,47.5339931 C51.8261983,47.5339931 51.357769,47.3415436 51.0082179,46.9919925" id="logo"></path>
        </g>
    </g>
</svg>