<svg xmlns="http://www.w3.org/2000/svg" xmlns:xlink="http://www.w3.org/1999/xlink" width="824" height="283" viewBox="0 0 824 283">
    <defs>
        <linearGradient id="b" x1="50%" x2="50%" y1="0%" y2="100%">
            <stop offset="0%" stop-color="#FFF"/>
            <stop offset="100%" stop-color="#FFF" stop-opacity="0"/>
        </linearGradient>
        <path id="a" d="M0 0h1280v680H0z"/>
    </defs>
    <g fill="none" fill-rule="evenodd" opacity=".15" transform="translate(-127 -245)">
        <mask id="c" fill="#fff">
            <use xlink:href="#a"/>
        </mask>
        <use fill="url(#b)" xlink:href="#a"/>
        <g mask="url(#c)">
            <g fill="#169B64">
                <path d="M945.398 459.243c-2.732-1.553-1.595-2.69-7.001-4.649-3.605-1.306-7.007-2.123-10.209-2.452 3.575-1.593 7.212-2.082 10.914-1.47 5.552.92 5.632 2.938 8.256 5.561 1.749 1.749 4.438 3.315 8.068 4.699-4.864-.091-8.207-.654-10.028-1.69zM969.941 434.087c-2.913-4.52-2.43-3.778-2.921-4.774-2.812-5.71-3.738-10.118-2.777-13.226-1.846 3.942-2.477 7.948-1.89 12.019.879 6.106 2.35 6.593 3.995 8.874 1.403 1.945 2.097 6.205 2.084 12.782 2.948-7.436 3.451-12.661 1.51-15.675zM951.737 442.853c-1.377-1.737-2.812-4.272-8.492-8.866-3.787-3.062-6.736-4.95-8.848-5.664 4.472-.774 8.46-.057 11.963 2.15 5.254 3.31 9.386 8.247 10.989 10.572 1.603 2.326 6.795 10.029 7.911 17.91 1.499 10.576 10.104 10.797 5.991 9.986-4.113-.811-9.641-.297-12.021-10.508-1.615-6.93-6.602-14.455-7.493-15.58z"/>
            </g>
            <g fill="#224398">
                <path d="M904.385 500.255c-2.732-1.553-1.594-2.69-7-4.649-3.605-1.305-7.008-2.123-10.209-2.452 3.574-1.592 7.212-2.082 10.914-1.47 5.552.92 5.632 2.938 8.256 5.561 1.749 1.75 4.438 3.315 8.068 4.7-4.864-.092-8.207-.655-10.029-1.69zM928.929 475.1c-2.913-4.521-2.43-3.779-2.921-4.775-2.812-5.709-3.738-10.118-2.777-13.226-1.847 3.942-2.477 7.948-1.89 12.02.879 6.105 2.35 6.593 3.995 8.874 1.402 1.944 2.097 6.205 2.084 12.782 2.948-7.437 3.45-12.662 1.509-15.676zM910.724 483.865c-1.376-1.737-2.811-4.272-8.491-8.866-3.787-3.062-6.736-4.95-8.848-5.663 4.472-.774 8.46-.058 11.962 2.148 5.255 3.31 9.387 8.248 10.99 10.574 1.603 2.325 6.795 10.028 7.911 17.909 1.499 10.577 10.104 10.797 5.991 9.986-4.113-.81-9.641-.297-12.021-10.508-1.616-6.93-6.602-14.455-7.494-15.58z"/>
                <g>
                    <path d="M942.57 541.267c-2.733-1.553-1.596-2.69-7.002-4.648-3.604-1.306-7.007-2.124-10.208-2.453 3.574-1.592 7.212-2.082 10.913-1.47 5.552.92 5.633 2.938 8.256 5.561 1.75 1.75 4.439 3.316 8.069 4.7-4.864-.092-8.207-.655-10.029-1.69zM967.113 516.111c-2.913-4.52-2.43-3.778-2.921-4.774-2.812-5.709-3.738-10.117-2.777-13.226-1.847 3.942-2.477 7.949-1.89 12.02.878 6.105 2.35 6.593 3.995 8.874 1.402 1.944 2.097 6.205 2.084 12.782 2.948-7.437 3.45-12.662 1.509-15.676zM948.908 524.878c-1.376-1.738-2.811-4.273-8.491-8.866-3.787-3.063-6.737-4.95-8.849-5.664 4.472-.774 8.46-.058 11.963 2.149 5.255 3.31 9.386 8.247 10.99 10.573 1.603 2.325 6.794 10.028 7.91 17.909 1.5 10.577 10.105 10.797 5.992 9.986-4.113-.81-9.642-.297-12.022-10.507-1.615-6.93-6.602-14.455-7.493-15.58z"/>
                </g>
                <g>
                    <path d="M864.08 540.56c-2.732-1.553-1.595-2.69-7-4.649-3.605-1.305-7.008-2.123-10.209-2.452 3.574-1.592 7.212-2.082 10.914-1.47 5.552.92 5.632 2.938 8.256 5.561 1.749 1.75 4.438 3.316 8.068 4.7-4.864-.092-8.207-.655-10.029-1.69zM888.624 515.404c-2.913-4.52-2.43-3.778-2.921-4.774-2.812-5.709-3.738-10.117-2.777-13.226-1.847 3.942-2.477 7.949-1.89 12.02.879 6.105 2.35 6.593 3.995 8.874 1.402 1.944 2.097 6.205 2.084 12.782 2.948-7.437 3.45-12.662 1.509-15.676zM870.42 524.17c-1.377-1.737-2.812-4.272-8.492-8.866-3.787-3.062-6.736-4.95-8.848-5.663 4.471-.774 8.459-.058 11.962 2.149 5.255 3.31 9.387 8.247 10.99 10.573 1.603 2.325 6.795 10.028 7.911 17.909 1.498 10.577 10.104 10.797 5.991 9.986-4.113-.81-9.641-.297-12.021-10.508-1.616-6.93-6.602-14.455-7.494-15.58z"/>
                </g>
            </g>
        </g>
        <g mask="url(#c)">
            <g fill="#169B64">
                <path d="M829.703 418.938c-2.732-1.553-1.595-2.69-7.001-4.649-3.604-1.306-7.007-2.123-10.209-2.452 3.575-1.593 7.213-2.082 10.914-1.47 5.552.92 5.633 2.938 8.256 5.56 1.749 1.75 4.438 3.316 8.068 4.7-4.864-.091-8.207-.654-10.028-1.69zM854.246 393.782c-2.913-4.52-2.43-3.778-2.92-4.774-2.813-5.71-3.738-10.118-2.778-13.226-1.846 3.942-2.477 7.948-1.89 12.019.879 6.106 2.35 6.593 3.995 8.874 1.403 1.945 2.097 6.205 2.084 12.782 2.948-7.436 3.451-12.662 1.51-15.675zM836.042 402.548c-1.377-1.737-2.812-4.272-8.492-8.866-3.787-3.062-6.736-4.95-8.848-5.664 4.472-.774 8.46-.057 11.963 2.15 5.254 3.309 9.386 8.247 10.99 10.572 1.602 2.326 6.794 10.029 7.91 17.91 1.499 10.576 10.105 10.797 5.991 9.986-4.113-.811-9.641-.297-12.021-10.508-1.615-6.93-6.602-14.455-7.493-15.58zM867.886 459.95c-2.732-1.553-1.594-2.69-7-4.649-3.605-1.305-7.007-2.123-10.209-2.452 3.574-1.592 7.212-2.082 10.914-1.47 5.552.92 5.632 2.938 8.256 5.561 1.749 1.75 4.438 3.315 8.068 4.7-4.864-.092-8.207-.655-10.029-1.69zM892.43 434.794c-2.913-4.52-2.43-3.778-2.921-4.774-2.812-5.709-3.738-10.118-2.777-13.226-1.847 3.942-2.477 7.948-1.89 12.019.879 6.106 2.35 6.594 3.995 8.874 1.402 1.945 2.097 6.205 2.084 12.782 2.948-7.436 3.45-12.661 1.509-15.675z"/>
                <path d="M874.225 443.56c-1.376-1.737-2.81-4.272-8.491-8.866-3.787-3.062-6.736-4.95-8.848-5.664 4.472-.773 8.46-.057 11.962 2.15 5.255 3.31 9.387 8.247 10.99 10.572 1.603 2.326 6.795 10.029 7.911 17.91 1.499 10.576 10.104 10.797 5.991 9.986-4.113-.811-9.641-.297-12.021-10.508-1.616-6.93-6.602-14.455-7.494-15.58z"/>
                <g>
                    <path d="M789.398 459.243c-2.732-1.553-1.595-2.69-7.001-4.649-3.605-1.306-7.007-2.123-10.209-2.452 3.575-1.593 7.212-2.082 10.914-1.47 5.552.92 5.632 2.938 8.256 5.561 1.749 1.749 4.438 3.315 8.068 4.699-4.864-.091-8.207-.654-10.028-1.69zM813.941 434.087c-2.913-4.52-2.43-3.778-2.921-4.774-2.812-5.71-3.738-10.118-2.777-13.226-1.846 3.942-2.477 7.948-1.89 12.019.879 6.106 2.35 6.593 3.995 8.874 1.403 1.945 2.097 6.205 2.084 12.782 2.948-7.436 3.451-12.661 1.51-15.675zM795.737 442.853c-1.377-1.737-2.812-4.272-8.492-8.866-3.787-3.062-6.736-4.95-8.848-5.664 4.472-.774 8.46-.057 11.963 2.15 5.254 3.31 9.386 8.247 10.989 10.572 1.603 2.326 6.795 10.029 7.911 17.91 1.499 10.576 10.104 10.797 5.991 9.986-4.113-.811-9.641-.297-12.021-10.508-1.615-6.93-6.602-14.455-7.493-15.58z"/>
                </g>
                <g>
                    <path d="M827.581 500.255c-2.732-1.553-1.595-2.69-7-4.649-3.605-1.305-7.008-2.123-10.209-2.452 3.574-1.592 7.212-2.082 10.914-1.47 5.552.92 5.632 2.938 8.256 5.561 1.749 1.75 4.438 3.315 8.068 4.7-4.864-.092-8.207-.655-10.029-1.69zM852.125 475.1c-2.913-4.521-2.43-3.779-2.921-4.775-2.812-5.709-3.738-10.118-2.777-13.226-1.847 3.942-2.477 7.948-1.89 12.02.879 6.105 2.35 6.593 3.995 8.874 1.402 1.944 2.097 6.205 2.084 12.782 2.948-7.437 3.45-12.662 1.509-15.676zM833.92 483.865c-1.376-1.737-2.811-4.272-8.491-8.866-3.787-3.062-6.736-4.95-8.848-5.663 4.471-.774 8.459-.058 11.962 2.148 5.255 3.31 9.387 8.248 10.99 10.574 1.603 2.325 6.795 10.028 7.911 17.909 1.498 10.577 10.104 10.797 5.991 9.986-4.113-.81-9.641-.297-12.021-10.508-1.616-6.93-6.602-14.455-7.494-15.58z"/>
                </g>
            </g>
            <g fill="#169B64">
                <path d="M952.032 296.608c-2.732-1.553-1.595-2.69-7-4.648-3.605-1.306-7.008-2.124-10.21-2.453 3.575-1.592 7.213-2.082 10.914-1.47 5.552.92 5.633 2.938 8.256 5.561 1.75 1.75 4.439 3.316 8.069 4.7-4.864-.092-8.207-.655-10.029-1.69zM958.371 280.219c-1.376-1.738-2.811-4.273-8.491-8.866-3.787-3.063-6.737-4.95-8.849-5.664 4.472-.774 8.46-.058 11.963 2.149 5.255 3.31 9.386 8.247 10.99 10.573 1.603 2.326 6.794 10.028 7.91 17.909 1.5 10.577 10.105 10.797 5.992 9.986-4.113-.81-9.642-.296-12.022-10.507-1.615-6.93-6.602-14.455-7.493-15.58z"/>
            </g>
            <g fill="#224398">
                <path d="M748.385 500.255c-2.732-1.553-1.594-2.69-7-4.649-3.605-1.305-7.008-2.123-10.209-2.452 3.574-1.592 7.212-2.082 10.914-1.47 5.552.92 5.632 2.938 8.256 5.561 1.749 1.75 4.438 3.315 8.068 4.7-4.864-.092-8.207-.655-10.029-1.69zM772.929 475.1c-2.913-4.521-2.43-3.779-2.921-4.775-2.812-5.709-3.738-10.118-2.777-13.226-1.847 3.942-2.477 7.948-1.89 12.02.879 6.105 2.35 6.593 3.995 8.874 1.402 1.944 2.097 6.205 2.084 12.782 2.948-7.437 3.45-12.662 1.509-15.676zM754.724 483.865c-1.376-1.737-2.811-4.272-8.491-8.866-3.787-3.062-6.736-4.95-8.848-5.663 4.472-.774 8.46-.058 11.962 2.148 5.255 3.31 9.387 8.248 10.99 10.574 1.603 2.325 6.795 10.028 7.911 17.909 1.499 10.577 10.104 10.797 5.991 9.986-4.113-.81-9.641-.297-12.021-10.508-1.616-6.93-6.602-14.455-7.494-15.58z"/>
                <g>
                    <path d="M786.57 541.267c-2.733-1.553-1.596-2.69-7.002-4.648-3.604-1.306-7.007-2.124-10.208-2.453 3.574-1.592 7.212-2.082 10.913-1.47 5.552.92 5.633 2.938 8.256 5.561 1.75 1.75 4.439 3.316 8.069 4.7-4.864-.092-8.207-.655-10.029-1.69zM811.113 516.111c-2.913-4.52-2.43-3.778-2.921-4.774-2.812-5.709-3.738-10.117-2.777-13.226-1.847 3.942-2.477 7.949-1.89 12.02.878 6.105 2.35 6.593 3.995 8.874 1.402 1.944 2.097 6.205 2.084 12.782 2.948-7.437 3.45-12.662 1.509-15.676zM792.908 524.878c-1.376-1.738-2.811-4.273-8.491-8.866-3.787-3.063-6.737-4.95-8.849-5.664 4.472-.774 8.46-.058 11.963 2.149 5.255 3.31 9.386 8.247 10.99 10.573 1.603 2.325 6.794 10.028 7.91 17.909 1.5 10.577 10.105 10.797 5.992 9.986-4.113-.81-9.642-.297-12.022-10.507-1.615-6.93-6.602-14.455-7.493-15.58z"/>
                </g>
                <g>
                    <path d="M708.08 540.56c-2.732-1.553-1.595-2.69-7-4.649-3.605-1.305-7.008-2.123-10.209-2.452 3.574-1.592 7.212-2.082 10.914-1.47 5.552.92 5.632 2.938 8.256 5.561 1.749 1.75 4.438 3.316 8.068 4.7-4.864-.092-8.207-.655-10.029-1.69zM732.624 515.404c-2.913-4.52-2.43-3.778-2.921-4.774-2.812-5.709-3.738-10.117-2.777-13.226-1.847 3.942-2.477 7.949-1.89 12.02.879 6.105 2.35 6.593 3.995 8.874 1.402 1.944 2.097 6.205 2.084 12.782 2.948-7.437 3.45-12.662 1.509-15.676zM714.42 524.17c-1.377-1.737-2.812-4.272-8.492-8.866-3.787-3.062-6.736-4.95-8.848-5.663 4.471-.774 8.459-.058 11.962 2.149 5.255 3.31 9.387 8.247 10.99 10.573 1.603 2.325 6.795 10.028 7.911 17.909 1.498 10.577 10.104 10.797 5.991 9.986-4.113-.81-9.641-.297-12.021-10.508-1.616-6.93-6.602-14.455-7.494-15.58z"/>
                </g>
            </g>
            <g fill="#224398">
                <path d="M911.02 337.62c-2.732-1.553-1.595-2.69-7.001-4.648-3.604-1.306-7.007-2.123-10.208-2.453 3.574-1.592 7.212-2.082 10.913-1.469 5.552.92 5.633 2.937 8.256 5.56 1.75 1.75 4.439 3.316 8.069 4.7-4.865-.091-8.208-.654-10.029-1.69zM935.563 312.465c-2.912-4.52-2.43-3.779-2.92-4.775-2.813-5.708-3.738-10.117-2.778-13.226-1.846 3.943-2.476 7.949-1.89 12.02.88 6.106 2.35 6.593 3.996 8.874 1.402 1.944 2.097 6.205 2.084 12.782 2.947-7.437 3.45-12.662 1.508-15.675zM917.359 321.23c-1.377-1.737-2.811-4.272-8.492-8.865-3.786-3.063-6.736-4.95-8.848-5.664 4.472-.774 8.46-.058 11.963 2.149 5.255 3.31 9.386 8.247 10.99 10.573 1.602 2.326 6.794 10.028 7.91 17.91 1.5 10.576 10.105 10.796 5.992 9.985-4.114-.81-9.642-.296-12.022-10.507-1.615-6.93-6.602-14.455-7.493-15.58zM949.204 378.633c-2.732-1.553-1.595-2.69-7.001-4.649-3.604-1.306-7.007-2.123-10.209-2.453 3.575-1.592 7.213-2.081 10.914-1.469 5.552.92 5.633 2.937 8.256 5.56 1.749 1.75 4.438 3.316 8.068 4.7-4.864-.091-8.207-.654-10.028-1.69z"/>
                <path d="M955.543 362.243c-1.377-1.737-2.812-4.272-8.492-8.866-3.787-3.062-6.736-4.95-8.848-5.664 4.472-.774 8.46-.057 11.963 2.15 5.255 3.309 9.386 8.247 10.99 10.572 1.602 2.326 6.794 10.029 7.91 17.91 1.499 10.576 10.105 10.797 5.991 9.986-4.113-.811-9.641-.297-12.021-10.508-1.615-6.93-6.602-14.455-7.493-15.58z"/>
                <g>
                    <path d="M870.715 377.925c-2.732-1.552-1.595-2.69-7.001-4.648-3.604-1.306-7.007-2.123-10.208-2.453 3.574-1.592 7.212-2.082 10.913-1.469 5.552.92 5.633 2.937 8.256 5.56 1.75 1.75 4.439 3.316 8.069 4.7-4.865-.091-8.208-.654-10.03-1.69zM895.258 352.77c-2.912-4.52-2.43-3.778-2.92-4.775-2.813-5.708-3.738-10.117-2.778-13.226-1.846 3.943-2.476 7.949-1.89 12.02.88 6.106 2.35 6.593 3.996 8.874 1.402 1.944 2.097 6.205 2.084 12.782 2.947-7.437 3.45-12.662 1.508-15.675zM877.054 361.536c-1.377-1.738-2.812-4.272-8.492-8.866-3.787-3.063-6.736-4.95-8.848-5.664 4.472-.774 8.46-.058 11.963 2.149 5.255 3.31 9.386 8.247 10.99 10.573 1.602 2.326 6.794 10.029 7.91 17.91 1.499 10.576 10.105 10.796 5.992 9.986-4.114-.811-9.642-.297-12.022-10.508-1.615-6.93-6.602-14.455-7.493-15.58z"/>
                </g>
                <g>
                    <path d="M908.899 418.938c-2.732-1.553-1.595-2.69-7.001-4.649-3.605-1.306-7.007-2.123-10.209-2.452 3.575-1.593 7.212-2.082 10.914-1.47 5.552.92 5.633 2.938 8.256 5.56 1.749 1.75 4.438 3.316 8.068 4.7-4.864-.091-8.207-.654-10.028-1.69zM933.442 393.782c-2.913-4.52-2.43-3.778-2.92-4.774-2.813-5.71-3.739-10.118-2.778-13.226-1.846 3.942-2.477 7.948-1.89 12.019.879 6.106 2.35 6.593 3.995 8.874 1.403 1.945 2.097 6.205 2.084 12.782 2.948-7.436 3.451-12.662 1.51-15.675zM915.238 402.548c-1.377-1.737-2.812-4.272-8.492-8.866-3.787-3.062-6.736-4.95-8.848-5.664 4.472-.774 8.46-.057 11.963 2.15 5.254 3.309 9.386 8.247 10.989 10.572 1.603 2.326 6.795 10.029 7.911 17.91 1.499 10.576 10.105 10.797 5.991 9.986-4.113-.811-9.641-.297-12.021-10.508-1.615-6.93-6.602-14.455-7.493-15.58z"/>
                </g>
            </g>
        </g>
        <g mask="url(#c)">
            <g fill="#169B64">
                <path d="M673.703 418.938c-2.732-1.553-1.595-2.69-7.001-4.649-3.604-1.306-7.007-2.123-10.209-2.452 3.575-1.593 7.213-2.082 10.914-1.47 5.552.92 5.633 2.938 8.256 5.56 1.749 1.75 4.438 3.316 8.068 4.7-4.864-.091-8.207-.654-10.028-1.69zM698.246 393.782c-2.913-4.52-2.43-3.778-2.92-4.774-2.813-5.71-3.738-10.118-2.778-13.226-1.846 3.942-2.477 7.948-1.89 12.019.879 6.106 2.35 6.593 3.995 8.874 1.403 1.945 2.097 6.205 2.084 12.782 2.948-7.436 3.451-12.662 1.51-15.675zM680.042 402.548c-1.377-1.737-2.812-4.272-8.492-8.866-3.787-3.062-6.736-4.95-8.848-5.664 4.472-.774 8.46-.057 11.963 2.15 5.254 3.309 9.386 8.247 10.99 10.572 1.602 2.326 6.794 10.029 7.91 17.91 1.499 10.576 10.105 10.797 5.991 9.986-4.113-.811-9.641-.297-12.021-10.508-1.615-6.93-6.602-14.455-7.493-15.58zM711.886 459.95c-2.732-1.553-1.594-2.69-7-4.649-3.605-1.305-7.007-2.123-10.209-2.452 3.574-1.592 7.212-2.082 10.914-1.47 5.552.92 5.632 2.938 8.256 5.561 1.749 1.75 4.438 3.315 8.068 4.7-4.864-.092-8.207-.655-10.029-1.69zM736.43 434.794c-2.913-4.52-2.43-3.778-2.921-4.774-2.812-5.709-3.738-10.118-2.777-13.226-1.847 3.942-2.477 7.948-1.89 12.019.879 6.106 2.35 6.594 3.995 8.874 1.402 1.945 2.097 6.205 2.084 12.782 2.948-7.436 3.45-12.661 1.509-15.675z"/>
                <path d="M718.225 443.56c-1.376-1.737-2.81-4.272-8.491-8.866-3.787-3.062-6.736-4.95-8.848-5.664 4.472-.773 8.46-.057 11.962 2.15 5.255 3.31 9.387 8.247 10.99 10.572 1.603 2.326 6.795 10.029 7.911 17.91 1.499 10.576 10.104 10.797 5.991 9.986-4.113-.811-9.641-.297-12.021-10.508-1.616-6.93-6.602-14.455-7.494-15.58z"/>
                <g>
                    <path d="M633.398 459.243c-2.732-1.553-1.595-2.69-7.001-4.649-3.605-1.306-7.007-2.123-10.209-2.452 3.575-1.593 7.212-2.082 10.914-1.47 5.552.92 5.632 2.938 8.256 5.561 1.749 1.749 4.438 3.315 8.068 4.699-4.864-.091-8.207-.654-10.028-1.69zM657.941 434.087c-2.913-4.52-2.43-3.778-2.921-4.774-2.812-5.71-3.738-10.118-2.777-13.226-1.846 3.942-2.477 7.948-1.89 12.019.879 6.106 2.35 6.593 3.995 8.874 1.403 1.945 2.097 6.205 2.084 12.782 2.948-7.436 3.451-12.661 1.51-15.675zM639.737 442.853c-1.377-1.737-2.812-4.272-8.492-8.866-3.787-3.062-6.736-4.95-8.848-5.664 4.472-.774 8.46-.057 11.963 2.15 5.254 3.31 9.386 8.247 10.989 10.572 1.603 2.326 6.795 10.029 7.911 17.91 1.499 10.576 10.104 10.797 5.991 9.986-4.113-.811-9.641-.297-12.021-10.508-1.615-6.93-6.602-14.455-7.493-15.58z"/>
                </g>
                <g>
                    <path d="M671.581 500.255c-2.732-1.553-1.595-2.69-7-4.649-3.605-1.305-7.008-2.123-10.209-2.452 3.574-1.592 7.212-2.082 10.914-1.47 5.552.92 5.632 2.938 8.256 5.561 1.749 1.75 4.438 3.315 8.068 4.7-4.864-.092-8.207-.655-10.029-1.69zM696.125 475.1c-2.913-4.521-2.43-3.779-2.921-4.775-2.812-5.709-3.738-10.118-2.777-13.226-1.847 3.942-2.477 7.948-1.89 12.02.879 6.105 2.35 6.593 3.995 8.874 1.402 1.944 2.097 6.205 2.084 12.782 2.948-7.437 3.45-12.662 1.509-15.676zM677.92 483.865c-1.376-1.737-2.811-4.272-8.491-8.866-3.787-3.062-6.736-4.95-8.848-5.663 4.471-.774 8.459-.058 11.962 2.148 5.255 3.31 9.387 8.248 10.99 10.574 1.603 2.325 6.795 10.028 7.911 17.909 1.498 10.577 10.104 10.797 5.991 9.986-4.113-.81-9.641-.297-12.021-10.508-1.616-6.93-6.602-14.455-7.494-15.58z"/>
                </g>
            </g>
            <g fill="#169B64">
                <path d="M836.337 256.303c-2.732-1.553-1.595-2.69-7-4.649-3.605-1.305-7.008-2.123-10.21-2.452 3.575-1.592 7.213-2.082 10.914-1.47 5.552.92 5.633 2.938 8.257 5.561 1.749 1.75 4.438 3.316 8.068 4.7-4.864-.092-8.207-.655-10.029-1.69zM860.88 231.147c-2.912-4.52-2.43-3.778-2.92-4.774-2.812-5.709-3.738-10.117-2.777-13.226-1.847 3.942-2.477 7.949-1.89 12.02.879 6.105 2.35 6.593 3.995 8.874 1.402 1.944 2.097 6.205 2.084 12.782 2.948-7.437 3.45-12.662 1.509-15.676zM842.676 239.914c-1.376-1.738-2.811-4.273-8.491-8.866-3.787-3.063-6.737-4.95-8.848-5.664 4.471-.774 8.459-.058 11.962 2.149 5.255 3.31 9.387 8.247 10.99 10.573 1.603 2.325 6.795 10.028 7.911 17.909 1.498 10.577 10.104 10.797 5.99 9.986-4.112-.81-9.64-.297-12.02-10.507-1.616-6.93-6.602-14.456-7.494-15.58zM874.521 297.315c-2.732-1.553-1.595-2.69-7.001-4.648-3.604-1.306-7.007-2.124-10.208-2.453 3.574-1.592 7.212-2.082 10.913-1.469 5.552.92 5.633 2.937 8.256 5.56 1.75 1.75 4.439 3.316 8.069 4.7-4.865-.091-8.208-.655-10.029-1.69zM899.065 272.16c-2.913-4.52-2.431-3.779-2.922-4.775-2.812-5.709-3.737-10.117-2.776-13.226-1.847 3.942-2.477 7.949-1.891 12.02.88 6.105 2.35 6.593 3.996 8.874 1.402 1.944 2.097 6.205 2.084 12.782 2.947-7.437 3.45-12.662 1.509-15.675z"/>
                <path d="M880.86 280.926c-1.377-1.738-2.811-4.273-8.492-8.866-3.786-3.063-6.736-4.95-8.848-5.664 4.472-.774 8.46-.058 11.963 2.149 5.255 3.31 9.386 8.247 10.99 10.573 1.602 2.326 6.794 10.028 7.91 17.909 1.5 10.577 10.105 10.797 5.992 9.986-4.114-.81-9.642-.296-12.022-10.507-1.615-6.93-6.602-14.455-7.493-15.58z"/>
                <g>
                    <path d="M796.032 296.608c-2.732-1.553-1.595-2.69-7-4.648-3.605-1.306-7.008-2.124-10.21-2.453 3.575-1.592 7.213-2.082 10.914-1.47 5.552.92 5.633 2.938 8.256 5.561 1.75 1.75 4.439 3.316 8.069 4.7-4.864-.092-8.207-.655-10.029-1.69zM820.576 271.453c-2.913-4.52-2.43-3.779-2.921-4.775-2.812-5.709-3.738-10.117-2.777-13.226-1.847 3.942-2.477 7.949-1.89 12.02.878 6.105 2.35 6.593 3.995 8.874 1.402 1.944 2.097 6.205 2.084 12.782 2.948-7.437 3.45-12.662 1.509-15.675zM802.371 280.219c-1.376-1.738-2.811-4.273-8.491-8.866-3.787-3.063-6.737-4.95-8.849-5.664 4.472-.774 8.46-.058 11.963 2.149 5.255 3.31 9.386 8.247 10.99 10.573 1.603 2.326 6.794 10.028 7.91 17.909 1.5 10.577 10.105 10.797 5.992 9.986-4.113-.81-9.642-.296-12.022-10.507-1.615-6.93-6.602-14.455-7.493-15.58z"/>
                </g>
                <g>
                    <path d="M834.216 337.62c-2.732-1.553-1.595-2.69-7.001-4.648-3.604-1.306-7.007-2.123-10.208-2.453 3.574-1.592 7.212-2.082 10.913-1.469 5.552.92 5.633 2.937 8.256 5.56 1.75 1.75 4.439 3.316 8.069 4.7-4.865-.091-8.208-.654-10.029-1.69zM858.76 312.465c-2.913-4.52-2.431-3.779-2.922-4.775-2.812-5.708-3.737-10.117-2.777-13.226-1.846 3.943-2.476 7.949-1.89 12.02.88 6.106 2.35 6.593 3.996 8.874 1.402 1.944 2.097 6.205 2.084 12.782 2.947-7.437 3.45-12.662 1.508-15.675zM840.555 321.23c-1.377-1.737-2.811-4.272-8.492-8.865-3.786-3.063-6.736-4.95-8.848-5.664 4.472-.774 8.46-.058 11.963 2.149 5.255 3.31 9.386 8.247 10.99 10.573 1.602 2.326 6.794 10.028 7.91 17.91 1.499 10.576 10.105 10.796 5.992 9.985-4.114-.81-9.642-.296-12.022-10.507-1.615-6.93-6.602-14.455-7.493-15.58z"/>
                </g>
            </g>
            <g fill="#224398">
                <path d="M592.385 500.255c-2.732-1.553-1.594-2.69-7-4.649-3.605-1.305-7.008-2.123-10.209-2.452 3.574-1.592 7.212-2.082 10.914-1.47 5.552.92 5.632 2.938 8.256 5.561 1.749 1.75 4.438 3.315 8.068 4.7-4.864-.092-8.207-.655-10.029-1.69zM616.929 475.1c-2.913-4.521-2.43-3.779-2.921-4.775-2.812-5.709-3.738-10.118-2.777-13.226-1.847 3.942-2.477 7.948-1.89 12.02.879 6.105 2.35 6.593 3.995 8.874 1.402 1.944 2.097 6.205 2.084 12.782 2.948-7.437 3.45-12.662 1.509-15.676zM598.724 483.865c-1.376-1.737-2.811-4.272-8.491-8.866-3.787-3.062-6.736-4.95-8.848-5.663 4.472-.774 8.46-.058 11.962 2.148 5.255 3.31 9.387 8.248 10.99 10.574 1.603 2.325 6.795 10.028 7.911 17.909 1.499 10.577 10.104 10.797 5.991 9.986-4.113-.81-9.641-.297-12.021-10.508-1.616-6.93-6.602-14.455-7.494-15.58z"/>
                <g>
                    <path d="M630.57 541.267c-2.733-1.553-1.596-2.69-7.002-4.648-3.604-1.306-7.007-2.124-10.208-2.453 3.574-1.592 7.212-2.082 10.913-1.47 5.552.92 5.633 2.938 8.256 5.561 1.75 1.75 4.439 3.316 8.069 4.7-4.864-.092-8.207-.655-10.029-1.69zM655.113 516.111c-2.913-4.52-2.43-3.778-2.921-4.774-2.812-5.709-3.738-10.117-2.777-13.226-1.847 3.942-2.477 7.949-1.89 12.02.878 6.105 2.35 6.593 3.995 8.874 1.402 1.944 2.097 6.205 2.084 12.782 2.948-7.437 3.45-12.662 1.509-15.676zM636.908 524.878c-1.376-1.738-2.811-4.273-8.491-8.866-3.787-3.063-6.737-4.95-8.849-5.664 4.472-.774 8.46-.058 11.963 2.149 5.255 3.31 9.386 8.247 10.99 10.573 1.603 2.325 6.794 10.028 7.91 17.909 1.5 10.577 10.105 10.797 5.992 9.986-4.113-.81-9.642-.297-12.022-10.507-1.615-6.93-6.602-14.455-7.493-15.58z"/>
                </g>
                <g>
                    <path d="M552.08 540.56c-2.732-1.553-1.595-2.69-7-4.649-3.605-1.305-7.008-2.123-10.209-2.452 3.574-1.592 7.212-2.082 10.914-1.47 5.552.92 5.632 2.938 8.256 5.561 1.749 1.75 4.438 3.316 8.068 4.7-4.864-.092-8.207-.655-10.029-1.69zM576.624 515.404c-2.913-4.52-2.43-3.778-2.921-4.774-2.812-5.709-3.738-10.117-2.777-13.226-1.847 3.942-2.477 7.949-1.89 12.02.879 6.105 2.35 6.593 3.995 8.874 1.402 1.944 2.097 6.205 2.084 12.782 2.948-7.437 3.45-12.662 1.509-15.676zM558.42 524.17c-1.377-1.737-2.812-4.272-8.492-8.866-3.787-3.062-6.736-4.95-8.848-5.663 4.471-.774 8.459-.058 11.962 2.149 5.255 3.31 9.387 8.247 10.99 10.573 1.603 2.325 6.795 10.028 7.911 17.909 1.498 10.577 10.104 10.797 5.991 9.986-4.113-.81-9.641-.297-12.021-10.508-1.616-6.93-6.602-14.455-7.494-15.58z"/>
                </g>
            </g>
            <g fill="#224398">
                <path d="M755.02 337.62c-2.732-1.553-1.595-2.69-7.001-4.648-3.604-1.306-7.007-2.123-10.208-2.453 3.574-1.592 7.212-2.082 10.913-1.469 5.552.92 5.633 2.937 8.256 5.56 1.75 1.75 4.439 3.316 8.069 4.7-4.865-.091-8.208-.654-10.029-1.69zM779.563 312.465c-2.912-4.52-2.43-3.779-2.92-4.775-2.813-5.708-3.738-10.117-2.778-13.226-1.846 3.943-2.476 7.949-1.89 12.02.88 6.106 2.35 6.593 3.996 8.874 1.402 1.944 2.097 6.205 2.084 12.782 2.947-7.437 3.45-12.662 1.508-15.675zM761.359 321.23c-1.377-1.737-2.811-4.272-8.492-8.865-3.786-3.063-6.736-4.95-8.848-5.664 4.472-.774 8.46-.058 11.963 2.149 5.255 3.31 9.386 8.247 10.99 10.573 1.602 2.326 6.794 10.028 7.91 17.91 1.5 10.576 10.105 10.796 5.992 9.985-4.114-.81-9.642-.296-12.022-10.507-1.615-6.93-6.602-14.455-7.493-15.58zM793.204 378.633c-2.732-1.553-1.595-2.69-7.001-4.649-3.604-1.306-7.007-2.123-10.209-2.453 3.575-1.592 7.213-2.081 10.914-1.469 5.552.92 5.633 2.937 8.256 5.56 1.749 1.75 4.438 3.316 8.068 4.7-4.864-.091-8.207-.654-10.028-1.69zM817.747 353.477c-2.913-4.52-2.43-3.778-2.92-4.774-2.813-5.71-3.738-10.118-2.778-13.226-1.846 3.942-2.476 7.948-1.89 12.019.879 6.106 2.35 6.593 3.995 8.874 1.403 1.945 2.097 6.205 2.084 12.782 2.948-7.437 3.451-12.662 1.51-15.675z"/>
                <path d="M799.543 362.243c-1.377-1.737-2.812-4.272-8.492-8.866-3.787-3.062-6.736-4.95-8.848-5.664 4.472-.774 8.46-.057 11.963 2.15 5.255 3.309 9.386 8.247 10.99 10.572 1.602 2.326 6.794 10.029 7.91 17.91 1.499 10.576 10.105 10.797 5.991 9.986-4.113-.811-9.641-.297-12.021-10.508-1.615-6.93-6.602-14.455-7.493-15.58z"/>
                <g>
                    <path d="M714.715 377.925c-2.732-1.552-1.595-2.69-7.001-4.648-3.604-1.306-7.007-2.123-10.208-2.453 3.574-1.592 7.212-2.082 10.913-1.469 5.552.92 5.633 2.937 8.256 5.56 1.75 1.75 4.439 3.316 8.069 4.7-4.865-.091-8.208-.654-10.03-1.69zM739.258 352.77c-2.912-4.52-2.43-3.778-2.92-4.775-2.813-5.708-3.738-10.117-2.778-13.226-1.846 3.943-2.476 7.949-1.89 12.02.88 6.106 2.35 6.593 3.996 8.874 1.402 1.944 2.097 6.205 2.084 12.782 2.947-7.437 3.45-12.662 1.508-15.675zM721.054 361.536c-1.377-1.738-2.812-4.272-8.492-8.866-3.787-3.063-6.736-4.95-8.848-5.664 4.472-.774 8.46-.058 11.963 2.149 5.255 3.31 9.386 8.247 10.99 10.573 1.602 2.326 6.794 10.029 7.91 17.91 1.499 10.576 10.105 10.796 5.992 9.986-4.114-.811-9.642-.297-12.022-10.508-1.615-6.93-6.602-14.455-7.493-15.58z"/>
                </g>
                <g>
                    <path d="M752.899 418.938c-2.732-1.553-1.595-2.69-7.001-4.649-3.605-1.306-7.007-2.123-10.209-2.452 3.575-1.593 7.212-2.082 10.914-1.47 5.552.92 5.633 2.938 8.256 5.56 1.749 1.75 4.438 3.316 8.068 4.7-4.864-.091-8.207-.654-10.028-1.69zM777.442 393.782c-2.913-4.52-2.43-3.778-2.92-4.774-2.813-5.71-3.739-10.118-2.778-13.226-1.846 3.942-2.477 7.948-1.89 12.019.879 6.106 2.35 6.593 3.995 8.874 1.403 1.945 2.097 6.205 2.084 12.782 2.948-7.436 3.451-12.662 1.51-15.675zM759.238 402.548c-1.377-1.737-2.812-4.272-8.492-8.866-3.787-3.062-6.736-4.95-8.848-5.664 4.472-.774 8.46-.057 11.963 2.15 5.254 3.309 9.386 8.247 10.989 10.572 1.603 2.326 6.795 10.029 7.911 17.91 1.499 10.576 10.105 10.797 5.991 9.986-4.113-.811-9.641-.297-12.021-10.508-1.615-6.93-6.602-14.455-7.493-15.58z"/>
                </g>
            </g>
            <g fill="#224398">
                <path d="M915.533 256.303c-2.732-1.553-1.595-2.69-7-4.649-3.605-1.305-7.008-2.123-10.21-2.452 3.575-1.592 7.213-2.082 10.914-1.47 5.552.92 5.633 2.938 8.257 5.561 1.748 1.75 4.438 3.316 8.068 4.7-4.864-.092-8.207-.655-10.029-1.69zM940.077 231.147c-2.913-4.52-2.43-3.778-2.921-4.774-2.812-5.709-3.738-10.117-2.777-13.226-1.847 3.942-2.477 7.949-1.89 12.02.878 6.105 2.35 6.593 3.995 8.874 1.402 1.944 2.097 6.205 2.084 12.782 2.948-7.437 3.45-12.662 1.509-15.676zM921.872 239.914c-1.376-1.738-2.811-4.273-8.491-8.866-3.787-3.063-6.737-4.95-8.848-5.664 4.471-.774 8.459-.058 11.962 2.149 5.255 3.31 9.387 8.247 10.99 10.573 1.603 2.325 6.795 10.028 7.91 17.909 1.5 10.577 10.105 10.797 5.992 9.986-4.113-.81-9.642-.297-12.022-10.507-1.615-6.93-6.601-14.456-7.493-15.58z"/>
            </g>
        </g>
        <g mask="url(#c)">
            <g fill="#169B64">
                <path d="M517.703 418.938c-2.732-1.553-1.595-2.69-7.001-4.649-3.604-1.306-7.007-2.123-10.209-2.452 3.575-1.593 7.213-2.082 10.914-1.47 5.552.92 5.633 2.938 8.256 5.56 1.749 1.75 4.438 3.316 8.068 4.7-4.864-.091-8.207-.654-10.028-1.69zM542.246 393.782c-2.913-4.52-2.43-3.778-2.92-4.774-2.813-5.71-3.738-10.118-2.778-13.226-1.846 3.942-2.477 7.948-1.89 12.019.879 6.106 2.35 6.593 3.995 8.874 1.403 1.945 2.097 6.205 2.084 12.782 2.948-7.436 3.451-12.662 1.51-15.675zM524.042 402.548c-1.377-1.737-2.812-4.272-8.492-8.866-3.787-3.062-6.736-4.95-8.848-5.664 4.472-.774 8.46-.057 11.963 2.15 5.254 3.309 9.386 8.247 10.99 10.572 1.602 2.326 6.794 10.029 7.91 17.91 1.499 10.576 10.105 10.797 5.991 9.986-4.113-.811-9.641-.297-12.021-10.508-1.615-6.93-6.602-14.455-7.493-15.58zM555.886 459.95c-2.732-1.553-1.594-2.69-7-4.649-3.605-1.305-7.007-2.123-10.209-2.452 3.574-1.592 7.212-2.082 10.914-1.47 5.552.92 5.632 2.938 8.256 5.561 1.749 1.75 4.438 3.315 8.068 4.7-4.864-.092-8.207-.655-10.029-1.69zM580.43 434.794c-2.913-4.52-2.43-3.778-2.921-4.774-2.812-5.709-3.738-10.118-2.777-13.226-1.847 3.942-2.477 7.948-1.89 12.019.879 6.106 2.35 6.594 3.995 8.874 1.402 1.945 2.097 6.205 2.084 12.782 2.948-7.436 3.45-12.661 1.509-15.675z"/>
                <path d="M562.225 443.56c-1.376-1.737-2.81-4.272-8.491-8.866-3.787-3.062-6.736-4.95-8.848-5.664 4.472-.773 8.46-.057 11.962 2.15 5.255 3.31 9.387 8.247 10.99 10.572 1.603 2.326 6.795 10.029 7.911 17.91 1.499 10.576 10.104 10.797 5.991 9.986-4.113-.811-9.641-.297-12.021-10.508-1.616-6.93-6.602-14.455-7.494-15.58z"/>
                <g>
                    <path d="M477.398 459.243c-2.732-1.553-1.595-2.69-7.001-4.649-3.605-1.306-7.007-2.123-10.209-2.452 3.575-1.593 7.212-2.082 10.914-1.47 5.552.92 5.632 2.938 8.256 5.561 1.749 1.749 4.438 3.315 8.068 4.699-4.864-.091-8.207-.654-10.028-1.69zM501.941 434.087c-2.913-4.52-2.43-3.778-2.921-4.774-2.812-5.71-3.738-10.118-2.777-13.226-1.846 3.942-2.477 7.948-1.89 12.019.879 6.106 2.35 6.593 3.995 8.874 1.403 1.945 2.097 6.205 2.084 12.782 2.948-7.436 3.451-12.661 1.51-15.675zM483.737 442.853c-1.377-1.737-2.812-4.272-8.492-8.866-3.787-3.062-6.736-4.95-8.848-5.664 4.472-.774 8.46-.057 11.963 2.15 5.254 3.31 9.386 8.247 10.989 10.572 1.603 2.326 6.795 10.029 7.911 17.91 1.499 10.576 10.104 10.797 5.991 9.986-4.113-.811-9.641-.297-12.021-10.508-1.615-6.93-6.602-14.455-7.493-15.58z"/>
                </g>
                <g>
                    <path d="M515.581 500.255c-2.732-1.553-1.595-2.69-7-4.649-3.605-1.305-7.008-2.123-10.209-2.452 3.574-1.592 7.212-2.082 10.914-1.47 5.552.92 5.632 2.938 8.256 5.561 1.749 1.75 4.438 3.315 8.068 4.7-4.864-.092-8.207-.655-10.029-1.69zM540.125 475.1c-2.913-4.521-2.43-3.779-2.921-4.775-2.812-5.709-3.738-10.118-2.777-13.226-1.847 3.942-2.477 7.948-1.89 12.02.879 6.105 2.35 6.593 3.995 8.874 1.402 1.944 2.097 6.205 2.084 12.782 2.948-7.437 3.45-12.662 1.509-15.676zM521.92 483.865c-1.376-1.737-2.811-4.272-8.491-8.866-3.787-3.062-6.736-4.95-8.848-5.663 4.471-.774 8.459-.058 11.962 2.148 5.255 3.31 9.387 8.248 10.99 10.574 1.603 2.325 6.795 10.028 7.911 17.909 1.498 10.577 10.104 10.797 5.991 9.986-4.113-.81-9.641-.297-12.021-10.508-1.616-6.93-6.602-14.455-7.494-15.58z"/>
                </g>
            </g>
            <g fill="#169B64">
                <path d="M680.337 256.303c-2.732-1.553-1.595-2.69-7-4.649-3.605-1.305-7.008-2.123-10.21-2.452 3.575-1.592 7.213-2.082 10.914-1.47 5.552.92 5.633 2.938 8.257 5.561 1.749 1.75 4.438 3.316 8.068 4.7-4.864-.092-8.207-.655-10.029-1.69zM704.88 231.147c-2.912-4.52-2.43-3.778-2.92-4.774-2.812-5.709-3.738-10.117-2.777-13.226-1.847 3.942-2.477 7.949-1.89 12.02.879 6.105 2.35 6.593 3.995 8.874 1.402 1.944 2.097 6.205 2.084 12.782 2.948-7.437 3.45-12.662 1.509-15.676zM686.676 239.914c-1.376-1.738-2.811-4.273-8.491-8.866-3.787-3.063-6.737-4.95-8.848-5.664 4.471-.774 8.459-.058 11.962 2.149 5.255 3.31 9.387 8.247 10.99 10.573 1.603 2.325 6.795 10.028 7.911 17.909 1.498 10.577 10.104 10.797 5.99 9.986-4.112-.81-9.64-.297-12.02-10.507-1.616-6.93-6.602-14.456-7.494-15.58zM718.521 297.315c-2.732-1.553-1.595-2.69-7.001-4.648-3.604-1.306-7.007-2.124-10.208-2.453 3.574-1.592 7.212-2.082 10.913-1.469 5.552.92 5.633 2.937 8.256 5.56 1.75 1.75 4.439 3.316 8.069 4.7-4.865-.091-8.208-.655-10.029-1.69zM743.065 272.16c-2.913-4.52-2.431-3.779-2.922-4.775-2.812-5.709-3.737-10.117-2.776-13.226-1.847 3.942-2.477 7.949-1.891 12.02.88 6.105 2.35 6.593 3.996 8.874 1.402 1.944 2.097 6.205 2.084 12.782 2.947-7.437 3.45-12.662 1.509-15.675z"/>
                <path d="M724.86 280.926c-1.377-1.738-2.811-4.273-8.492-8.866-3.786-3.063-6.736-4.95-8.848-5.664 4.472-.774 8.46-.058 11.963 2.149 5.255 3.31 9.386 8.247 10.99 10.573 1.602 2.326 6.794 10.028 7.91 17.909 1.5 10.577 10.105 10.797 5.992 9.986-4.114-.81-9.642-.296-12.022-10.507-1.615-6.93-6.602-14.455-7.493-15.58z"/>
                <g>
                    <path d="M640.032 296.608c-2.732-1.553-1.595-2.69-7-4.648-3.605-1.306-7.008-2.124-10.21-2.453 3.575-1.592 7.213-2.082 10.914-1.47 5.552.92 5.633 2.938 8.256 5.561 1.75 1.75 4.439 3.316 8.069 4.7-4.864-.092-8.207-.655-10.029-1.69zM664.576 271.453c-2.913-4.52-2.43-3.779-2.921-4.775-2.812-5.709-3.738-10.117-2.777-13.226-1.847 3.942-2.477 7.949-1.89 12.02.878 6.105 2.35 6.593 3.995 8.874 1.402 1.944 2.097 6.205 2.084 12.782 2.948-7.437 3.45-12.662 1.509-15.675zM646.371 280.219c-1.376-1.738-2.811-4.273-8.491-8.866-3.787-3.063-6.737-4.95-8.849-5.664 4.472-.774 8.46-.058 11.963 2.149 5.255 3.31 9.386 8.247 10.99 10.573 1.603 2.326 6.794 10.028 7.91 17.909 1.5 10.577 10.105 10.797 5.992 9.986-4.113-.81-9.642-.296-12.022-10.507-1.615-6.93-6.602-14.455-7.493-15.58z"/>
                </g>
                <g>
                    <path d="M678.216 337.62c-2.732-1.553-1.595-2.69-7.001-4.648-3.604-1.306-7.007-2.123-10.208-2.453 3.574-1.592 7.212-2.082 10.913-1.469 5.552.92 5.633 2.937 8.256 5.56 1.75 1.75 4.439 3.316 8.069 4.7-4.865-.091-8.208-.654-10.029-1.69zM702.76 312.465c-2.913-4.52-2.431-3.779-2.922-4.775-2.812-5.708-3.737-10.117-2.777-13.226-1.846 3.943-2.476 7.949-1.89 12.02.88 6.106 2.35 6.593 3.996 8.874 1.402 1.944 2.097 6.205 2.084 12.782 2.947-7.437 3.45-12.662 1.508-15.675zM684.555 321.23c-1.377-1.737-2.811-4.272-8.492-8.865-3.786-3.063-6.736-4.95-8.848-5.664 4.472-.774 8.46-.058 11.963 2.149 5.255 3.31 9.386 8.247 10.99 10.573 1.602 2.326 6.794 10.028 7.91 17.91 1.499 10.576 10.105 10.796 5.992 9.985-4.114-.81-9.642-.296-12.022-10.507-1.615-6.93-6.602-14.455-7.493-15.58z"/>
                </g>
            </g>
            <g fill="#224398">
                <path d="M436.385 500.255c-2.732-1.553-1.594-2.69-7-4.649-3.605-1.305-7.008-2.123-10.209-2.452 3.574-1.592 7.212-2.082 10.914-1.47 5.552.92 5.632 2.938 8.256 5.561 1.749 1.75 4.438 3.315 8.068 4.7-4.864-.092-8.207-.655-10.029-1.69zM460.929 475.1c-2.913-4.521-2.43-3.779-2.921-4.775-2.812-5.709-3.738-10.118-2.777-13.226-1.847 3.942-2.477 7.948-1.89 12.02.879 6.105 2.35 6.593 3.995 8.874 1.402 1.944 2.097 6.205 2.084 12.782 2.948-7.437 3.45-12.662 1.509-15.676zM442.724 483.865c-1.376-1.737-2.811-4.272-8.491-8.866-3.787-3.062-6.736-4.95-8.848-5.663 4.472-.774 8.46-.058 11.962 2.148 5.255 3.31 9.387 8.248 10.99 10.574 1.603 2.325 6.795 10.028 7.911 17.909 1.499 10.577 10.104 10.797 5.991 9.986-4.113-.81-9.641-.297-12.021-10.508-1.616-6.93-6.602-14.455-7.494-15.58z"/>
                <g>
                    <path d="M474.57 541.267c-2.733-1.553-1.596-2.69-7.002-4.648-3.604-1.306-7.007-2.124-10.208-2.453 3.574-1.592 7.212-2.082 10.913-1.47 5.552.92 5.633 2.938 8.256 5.561 1.75 1.75 4.439 3.316 8.069 4.7-4.864-.092-8.207-.655-10.029-1.69zM499.113 516.111c-2.913-4.52-2.43-3.778-2.921-4.774-2.812-5.709-3.738-10.117-2.777-13.226-1.847 3.942-2.477 7.949-1.89 12.02.878 6.105 2.35 6.593 3.995 8.874 1.402 1.944 2.097 6.205 2.084 12.782 2.948-7.437 3.45-12.662 1.509-15.676zM480.908 524.878c-1.376-1.738-2.811-4.273-8.491-8.866-3.787-3.063-6.737-4.95-8.849-5.664 4.472-.774 8.46-.058 11.963 2.149 5.255 3.31 9.386 8.247 10.99 10.573 1.603 2.325 6.794 10.028 7.91 17.909 1.5 10.577 10.105 10.797 5.992 9.986-4.113-.81-9.642-.297-12.022-10.507-1.615-6.93-6.602-14.455-7.493-15.58z"/>
                </g>
                <g>
                    <path d="M396.08 540.56c-2.732-1.553-1.595-2.69-7-4.649-3.605-1.305-7.008-2.123-10.209-2.452 3.574-1.592 7.212-2.082 10.914-1.47 5.552.92 5.632 2.938 8.256 5.561 1.749 1.75 4.438 3.316 8.068 4.7-4.864-.092-8.207-.655-10.029-1.69zM420.624 515.404c-2.913-4.52-2.43-3.778-2.921-4.774-2.812-5.709-3.738-10.117-2.777-13.226-1.847 3.942-2.477 7.949-1.89 12.02.879 6.105 2.35 6.593 3.995 8.874 1.402 1.944 2.097 6.205 2.084 12.782 2.948-7.437 3.45-12.662 1.509-15.676zM402.42 524.17c-1.377-1.737-2.812-4.272-8.492-8.866-3.787-3.062-6.736-4.95-8.848-5.663 4.471-.774 8.459-.058 11.962 2.149 5.255 3.31 9.387 8.247 10.99 10.573 1.603 2.325 6.795 10.028 7.911 17.909 1.498 10.577 10.104 10.797 5.991 9.986-4.113-.81-9.641-.297-12.021-10.508-1.616-6.93-6.602-14.455-7.494-15.58z"/>
                </g>
            </g>
            <g fill="#224398">
                <path d="M599.02 337.62c-2.732-1.553-1.595-2.69-7.001-4.648-3.604-1.306-7.007-2.123-10.208-2.453 3.574-1.592 7.212-2.082 10.913-1.469 5.552.92 5.633 2.937 8.256 5.56 1.75 1.75 4.439 3.316 8.069 4.7-4.865-.091-8.208-.654-10.029-1.69zM623.563 312.465c-2.912-4.52-2.43-3.779-2.92-4.775-2.813-5.708-3.738-10.117-2.778-13.226-1.846 3.943-2.476 7.949-1.89 12.02.88 6.106 2.35 6.593 3.996 8.874 1.402 1.944 2.097 6.205 2.084 12.782 2.947-7.437 3.45-12.662 1.508-15.675zM605.359 321.23c-1.377-1.737-2.811-4.272-8.492-8.865-3.786-3.063-6.736-4.95-8.848-5.664 4.472-.774 8.46-.058 11.963 2.149 5.255 3.31 9.386 8.247 10.99 10.573 1.602 2.326 6.794 10.028 7.91 17.91 1.5 10.576 10.105 10.796 5.992 9.985-4.114-.81-9.642-.296-12.022-10.507-1.615-6.93-6.602-14.455-7.493-15.58zM637.204 378.633c-2.732-1.553-1.595-2.69-7.001-4.649-3.604-1.306-7.007-2.123-10.209-2.453 3.575-1.592 7.213-2.081 10.914-1.469 5.552.92 5.633 2.937 8.256 5.56 1.749 1.75 4.438 3.316 8.068 4.7-4.864-.091-8.207-.654-10.028-1.69zM661.747 353.477c-2.913-4.52-2.43-3.778-2.92-4.774-2.813-5.71-3.738-10.118-2.778-13.226-1.846 3.942-2.476 7.948-1.89 12.019.879 6.106 2.35 6.593 3.995 8.874 1.403 1.945 2.097 6.205 2.084 12.782 2.948-7.437 3.451-12.662 1.51-15.675z"/>
                <path d="M643.543 362.243c-1.377-1.737-2.812-4.272-8.492-8.866-3.787-3.062-6.736-4.95-8.848-5.664 4.472-.774 8.46-.057 11.963 2.15 5.255 3.309 9.386 8.247 10.99 10.572 1.602 2.326 6.794 10.029 7.91 17.91 1.499 10.576 10.105 10.797 5.991 9.986-4.113-.811-9.641-.297-12.021-10.508-1.615-6.93-6.602-14.455-7.493-15.58z"/>
                <g>
                    <path d="M558.715 377.925c-2.732-1.552-1.595-2.69-7.001-4.648-3.604-1.306-7.007-2.123-10.208-2.453 3.574-1.592 7.212-2.082 10.913-1.469 5.552.92 5.633 2.937 8.256 5.56 1.75 1.75 4.439 3.316 8.069 4.7-4.865-.091-8.208-.654-10.03-1.69zM583.258 352.77c-2.912-4.52-2.43-3.778-2.92-4.775-2.813-5.708-3.738-10.117-2.778-13.226-1.846 3.943-2.476 7.949-1.89 12.02.88 6.106 2.35 6.593 3.996 8.874 1.402 1.944 2.097 6.205 2.084 12.782 2.947-7.437 3.45-12.662 1.508-15.675zM565.054 361.536c-1.377-1.738-2.812-4.272-8.492-8.866-3.787-3.063-6.736-4.95-8.848-5.664 4.472-.774 8.46-.058 11.963 2.149 5.255 3.31 9.386 8.247 10.99 10.573 1.602 2.326 6.794 10.029 7.91 17.91 1.499 10.576 10.105 10.796 5.992 9.986-4.114-.811-9.642-.297-12.022-10.508-1.615-6.93-6.602-14.455-7.493-15.58z"/>
                </g>
                <g>
                    <path d="M596.899 418.938c-2.732-1.553-1.595-2.69-7.001-4.649-3.605-1.306-7.007-2.123-10.209-2.452 3.575-1.593 7.212-2.082 10.914-1.47 5.552.92 5.633 2.938 8.256 5.56 1.749 1.75 4.438 3.316 8.068 4.7-4.864-.091-8.207-.654-10.028-1.69zM621.442 393.782c-2.913-4.52-2.43-3.778-2.92-4.774-2.813-5.71-3.739-10.118-2.778-13.226-1.846 3.942-2.477 7.948-1.89 12.019.879 6.106 2.35 6.593 3.995 8.874 1.403 1.945 2.097 6.205 2.084 12.782 2.948-7.436 3.451-12.662 1.51-15.675zM603.238 402.548c-1.377-1.737-2.812-4.272-8.492-8.866-3.787-3.062-6.736-4.95-8.848-5.664 4.472-.774 8.46-.057 11.963 2.15 5.254 3.309 9.386 8.247 10.989 10.572 1.603 2.326 6.795 10.029 7.911 17.91 1.499 10.576 10.105 10.797 5.991 9.986-4.113-.811-9.641-.297-12.021-10.508-1.615-6.93-6.602-14.455-7.493-15.58z"/>
                </g>
            </g>
            <g fill="#224398">
                <path d="M759.533 256.303c-2.732-1.553-1.595-2.69-7-4.649-3.605-1.305-7.008-2.123-10.21-2.452 3.575-1.592 7.213-2.082 10.914-1.47 5.552.92 5.633 2.938 8.257 5.561 1.748 1.75 4.438 3.316 8.068 4.7-4.864-.092-8.207-.655-10.029-1.69zM784.077 231.147c-2.913-4.52-2.43-3.778-2.921-4.774-2.812-5.709-3.738-10.117-2.777-13.226-1.847 3.942-2.477 7.949-1.89 12.02.878 6.105 2.35 6.593 3.995 8.874 1.402 1.944 2.097 6.205 2.084 12.782 2.948-7.437 3.45-12.662 1.509-15.676zM765.872 239.914c-1.376-1.738-2.811-4.273-8.491-8.866-3.787-3.063-6.737-4.95-8.848-5.664 4.471-.774 8.459-.058 11.962 2.149 5.255 3.31 9.387 8.247 10.99 10.573 1.603 2.325 6.795 10.028 7.91 17.909 1.5 10.577 10.105 10.797 5.992 9.986-4.113-.81-9.642-.297-12.022-10.507-1.615-6.93-6.601-14.456-7.493-15.58z"/>
            </g>
        </g>
        <g mask="url(#c)">
            <g fill="#169B64">
                <path d="M361.703 418.938c-2.732-1.553-1.595-2.69-7.001-4.649-3.604-1.306-7.007-2.123-10.209-2.452 3.575-1.593 7.213-2.082 10.914-1.47 5.552.92 5.633 2.938 8.256 5.56 1.749 1.75 4.438 3.316 8.068 4.7-4.864-.091-8.207-.654-10.028-1.69zM386.246 393.782c-2.913-4.52-2.43-3.778-2.92-4.774-2.813-5.71-3.738-10.118-2.778-13.226-1.846 3.942-2.477 7.948-1.89 12.019.879 6.106 2.35 6.593 3.995 8.874 1.403 1.945 2.097 6.205 2.084 12.782 2.948-7.436 3.451-12.662 1.51-15.675zM368.042 402.548c-1.377-1.737-2.812-4.272-8.492-8.866-3.787-3.062-6.736-4.95-8.848-5.664 4.472-.774 8.46-.057 11.963 2.15 5.254 3.309 9.386 8.247 10.99 10.572 1.602 2.326 6.794 10.029 7.91 17.91 1.499 10.576 10.105 10.797 5.991 9.986-4.113-.811-9.641-.297-12.021-10.508-1.615-6.93-6.602-14.455-7.493-15.58zM399.886 459.95c-2.732-1.553-1.594-2.69-7-4.649-3.605-1.305-7.007-2.123-10.209-2.452 3.574-1.592 7.212-2.082 10.914-1.47 5.552.92 5.632 2.938 8.256 5.561 1.749 1.75 4.438 3.315 8.068 4.7-4.864-.092-8.207-.655-10.029-1.69zM424.43 434.794c-2.913-4.52-2.43-3.778-2.921-4.774-2.812-5.709-3.738-10.118-2.777-13.226-1.847 3.942-2.477 7.948-1.89 12.019.879 6.106 2.35 6.594 3.995 8.874 1.402 1.945 2.097 6.205 2.084 12.782 2.948-7.436 3.45-12.661 1.509-15.675z"/>
                <path d="M406.225 443.56c-1.376-1.737-2.81-4.272-8.491-8.866-3.787-3.062-6.736-4.95-8.848-5.664 4.472-.773 8.46-.057 11.962 2.15 5.255 3.31 9.387 8.247 10.99 10.572 1.603 2.326 6.795 10.029 7.911 17.91 1.499 10.576 10.104 10.797 5.991 9.986-4.113-.811-9.641-.297-12.021-10.508-1.616-6.93-6.602-14.455-7.494-15.58z"/>
                <g>
                    <path d="M321.398 459.243c-2.732-1.553-1.595-2.69-7.001-4.649-3.605-1.306-7.007-2.123-10.209-2.452 3.575-1.593 7.212-2.082 10.914-1.47 5.552.92 5.632 2.938 8.256 5.561 1.749 1.749 4.438 3.315 8.068 4.699-4.864-.091-8.207-.654-10.028-1.69zM345.941 434.087c-2.913-4.52-2.43-3.778-2.921-4.774-2.812-5.71-3.738-10.118-2.777-13.226-1.846 3.942-2.477 7.948-1.89 12.019.879 6.106 2.35 6.593 3.995 8.874 1.403 1.945 2.097 6.205 2.084 12.782 2.948-7.436 3.451-12.661 1.51-15.675zM327.737 442.853c-1.377-1.737-2.812-4.272-8.492-8.866-3.787-3.062-6.736-4.95-8.848-5.664 4.472-.774 8.46-.057 11.963 2.15 5.254 3.31 9.386 8.247 10.989 10.572 1.603 2.326 6.795 10.029 7.911 17.91 1.499 10.576 10.104 10.797 5.991 9.986-4.113-.811-9.641-.297-12.021-10.508-1.615-6.93-6.602-14.455-7.493-15.58z"/>
                </g>
                <g>
                    <path d="M359.581 500.255c-2.732-1.553-1.595-2.69-7-4.649-3.605-1.305-7.008-2.123-10.209-2.452 3.574-1.592 7.212-2.082 10.914-1.47 5.552.92 5.632 2.938 8.256 5.561 1.749 1.75 4.438 3.315 8.068 4.7-4.864-.092-8.207-.655-10.029-1.69zM384.125 475.1c-2.913-4.521-2.43-3.779-2.921-4.775-2.812-5.709-3.738-10.118-2.777-13.226-1.847 3.942-2.477 7.948-1.89 12.02.879 6.105 2.35 6.593 3.995 8.874 1.402 1.944 2.097 6.205 2.084 12.782 2.948-7.437 3.45-12.662 1.509-15.676zM365.92 483.865c-1.376-1.737-2.811-4.272-8.491-8.866-3.787-3.062-6.736-4.95-8.848-5.663 4.471-.774 8.459-.058 11.962 2.148 5.255 3.31 9.387 8.248 10.99 10.574 1.603 2.325 6.795 10.028 7.911 17.909 1.498 10.577 10.104 10.797 5.991 9.986-4.113-.81-9.641-.297-12.021-10.508-1.616-6.93-6.602-14.455-7.494-15.58z"/>
                </g>
            </g>
            <g fill="#169B64">
                <path d="M524.337 256.303c-2.732-1.553-1.595-2.69-7-4.649-3.605-1.305-7.008-2.123-10.21-2.452 3.575-1.592 7.213-2.082 10.914-1.47 5.552.92 5.633 2.938 8.257 5.561 1.749 1.75 4.438 3.316 8.068 4.7-4.864-.092-8.207-.655-10.029-1.69zM548.88 231.147c-2.912-4.52-2.43-3.778-2.92-4.774-2.812-5.709-3.738-10.117-2.777-13.226-1.847 3.942-2.477 7.949-1.89 12.02.879 6.105 2.35 6.593 3.995 8.874 1.402 1.944 2.097 6.205 2.084 12.782 2.948-7.437 3.45-12.662 1.509-15.676zM530.676 239.914c-1.376-1.738-2.811-4.273-8.491-8.866-3.787-3.063-6.737-4.95-8.848-5.664 4.471-.774 8.459-.058 11.962 2.149 5.255 3.31 9.387 8.247 10.99 10.573 1.603 2.325 6.795 10.028 7.911 17.909 1.498 10.577 10.104 10.797 5.99 9.986-4.112-.81-9.64-.297-12.02-10.507-1.616-6.93-6.602-14.456-7.494-15.58zM562.521 297.315c-2.732-1.553-1.595-2.69-7.001-4.648-3.604-1.306-7.007-2.124-10.208-2.453 3.574-1.592 7.212-2.082 10.913-1.469 5.552.92 5.633 2.937 8.256 5.56 1.75 1.75 4.439 3.316 8.069 4.7-4.865-.091-8.208-.655-10.029-1.69zM587.065 272.16c-2.913-4.52-2.431-3.779-2.922-4.775-2.812-5.709-3.737-10.117-2.776-13.226-1.847 3.942-2.477 7.949-1.891 12.02.88 6.105 2.35 6.593 3.996 8.874 1.402 1.944 2.097 6.205 2.084 12.782 2.947-7.437 3.45-12.662 1.509-15.675z"/>
                <path d="M568.86 280.926c-1.377-1.738-2.811-4.273-8.492-8.866-3.786-3.063-6.736-4.95-8.848-5.664 4.472-.774 8.46-.058 11.963 2.149 5.255 3.31 9.386 8.247 10.99 10.573 1.602 2.326 6.794 10.028 7.91 17.909 1.5 10.577 10.105 10.797 5.992 9.986-4.114-.81-9.642-.296-12.022-10.507-1.615-6.93-6.602-14.455-7.493-15.58z"/>
                <g>
                    <path d="M484.032 296.608c-2.732-1.553-1.595-2.69-7-4.648-3.605-1.306-7.008-2.124-10.21-2.453 3.575-1.592 7.213-2.082 10.914-1.47 5.552.92 5.633 2.938 8.256 5.561 1.75 1.75 4.439 3.316 8.069 4.7-4.864-.092-8.207-.655-10.029-1.69zM508.576 271.453c-2.913-4.52-2.43-3.779-2.921-4.775-2.812-5.709-3.738-10.117-2.777-13.226-1.847 3.942-2.477 7.949-1.89 12.02.878 6.105 2.35 6.593 3.995 8.874 1.402 1.944 2.097 6.205 2.084 12.782 2.948-7.437 3.45-12.662 1.509-15.675zM490.371 280.219c-1.376-1.738-2.811-4.273-8.491-8.866-3.787-3.063-6.737-4.95-8.849-5.664 4.472-.774 8.46-.058 11.963 2.149 5.255 3.31 9.386 8.247 10.99 10.573 1.603 2.326 6.794 10.028 7.91 17.909 1.5 10.577 10.105 10.797 5.992 9.986-4.113-.81-9.642-.296-12.022-10.507-1.615-6.93-6.602-14.455-7.493-15.58z"/>
                </g>
                <g>
                    <path d="M522.216 337.62c-2.732-1.553-1.595-2.69-7.001-4.648-3.604-1.306-7.007-2.123-10.208-2.453 3.574-1.592 7.212-2.082 10.913-1.469 5.552.92 5.633 2.937 8.256 5.56 1.75 1.75 4.439 3.316 8.069 4.7-4.865-.091-8.208-.654-10.029-1.69zM546.76 312.465c-2.913-4.52-2.431-3.779-2.922-4.775-2.812-5.708-3.737-10.117-2.777-13.226-1.846 3.943-2.476 7.949-1.89 12.02.88 6.106 2.35 6.593 3.996 8.874 1.402 1.944 2.097 6.205 2.084 12.782 2.947-7.437 3.45-12.662 1.508-15.675zM528.555 321.23c-1.377-1.737-2.811-4.272-8.492-8.865-3.786-3.063-6.736-4.95-8.848-5.664 4.472-.774 8.46-.058 11.963 2.149 5.255 3.31 9.386 8.247 10.99 10.573 1.602 2.326 6.794 10.028 7.91 17.91 1.499 10.576 10.105 10.796 5.992 9.985-4.114-.81-9.642-.296-12.022-10.507-1.615-6.93-6.602-14.455-7.493-15.58z"/>
                </g>
            </g>
            <g fill="#224398">
                <path d="M280.385 500.255c-2.732-1.553-1.594-2.69-7-4.649-3.605-1.305-7.008-2.123-10.209-2.452 3.574-1.592 7.212-2.082 10.914-1.47 5.552.92 5.632 2.938 8.256 5.561 1.749 1.75 4.438 3.315 8.068 4.7-4.864-.092-8.207-.655-10.029-1.69zM304.929 475.1c-2.913-4.521-2.43-3.779-2.921-4.775-2.812-5.709-3.738-10.118-2.777-13.226-1.847 3.942-2.477 7.948-1.89 12.02.879 6.105 2.35 6.593 3.995 8.874 1.402 1.944 2.097 6.205 2.084 12.782 2.948-7.437 3.45-12.662 1.509-15.676zM286.724 483.865c-1.376-1.737-2.811-4.272-8.491-8.866-3.787-3.062-6.736-4.95-8.848-5.663 4.472-.774 8.46-.058 11.962 2.148 5.255 3.31 9.387 8.248 10.99 10.574 1.603 2.325 6.795 10.028 7.911 17.909 1.499 10.577 10.104 10.797 5.991 9.986-4.113-.81-9.641-.297-12.021-10.508-1.616-6.93-6.602-14.455-7.494-15.58z"/>
                <g>
                    <path d="M318.57 541.267c-2.733-1.553-1.596-2.69-7.002-4.648-3.604-1.306-7.007-2.124-10.208-2.453 3.574-1.592 7.212-2.082 10.913-1.47 5.552.92 5.633 2.938 8.256 5.561 1.75 1.75 4.439 3.316 8.069 4.7-4.864-.092-8.207-.655-10.029-1.69zM343.113 516.111c-2.913-4.52-2.43-3.778-2.921-4.774-2.812-5.709-3.738-10.117-2.777-13.226-1.847 3.942-2.477 7.949-1.89 12.02.878 6.105 2.35 6.593 3.995 8.874 1.402 1.944 2.097 6.205 2.084 12.782 2.948-7.437 3.45-12.662 1.509-15.676zM324.908 524.878c-1.376-1.738-2.811-4.273-8.491-8.866-3.787-3.063-6.737-4.95-8.849-5.664 4.472-.774 8.46-.058 11.963 2.149 5.255 3.31 9.386 8.247 10.99 10.573 1.603 2.325 6.794 10.028 7.91 17.909 1.5 10.577 10.105 10.797 5.992 9.986-4.113-.81-9.642-.297-12.022-10.507-1.615-6.93-6.602-14.455-7.493-15.58z"/>
                </g>
                <g>
                    <path d="M240.08 540.56c-2.732-1.553-1.595-2.69-7-4.649-3.605-1.305-7.008-2.123-10.209-2.452 3.574-1.592 7.212-2.082 10.914-1.47 5.552.92 5.632 2.938 8.256 5.561 1.749 1.75 4.438 3.316 8.068 4.7-4.864-.092-8.207-.655-10.029-1.69zM264.624 515.404c-2.913-4.52-2.43-3.778-2.921-4.774-2.812-5.709-3.738-10.117-2.777-13.226-1.847 3.942-2.477 7.949-1.89 12.02.879 6.105 2.35 6.593 3.995 8.874 1.402 1.944 2.097 6.205 2.084 12.782 2.948-7.437 3.45-12.662 1.509-15.676zM246.42 524.17c-1.377-1.737-2.812-4.272-8.492-8.866-3.787-3.062-6.736-4.95-8.848-5.663 4.471-.774 8.459-.058 11.962 2.149 5.255 3.31 9.387 8.247 10.99 10.573 1.603 2.325 6.795 10.028 7.911 17.909 1.498 10.577 10.104 10.797 5.991 9.986-4.113-.81-9.641-.297-12.021-10.508-1.616-6.93-6.602-14.455-7.494-15.58z"/>
                </g>
            </g>
            <g fill="#224398">
                <path d="M443.02 337.62c-2.732-1.553-1.595-2.69-7.001-4.648-3.604-1.306-7.007-2.123-10.208-2.453 3.574-1.592 7.212-2.082 10.913-1.469 5.552.92 5.633 2.937 8.256 5.56 1.75 1.75 4.439 3.316 8.069 4.7-4.865-.091-8.208-.654-10.029-1.69zM467.563 312.465c-2.912-4.52-2.43-3.779-2.92-4.775-2.813-5.708-3.738-10.117-2.778-13.226-1.846 3.943-2.476 7.949-1.89 12.02.88 6.106 2.35 6.593 3.996 8.874 1.402 1.944 2.097 6.205 2.084 12.782 2.947-7.437 3.45-12.662 1.508-15.675zM449.359 321.23c-1.377-1.737-2.811-4.272-8.492-8.865-3.786-3.063-6.736-4.95-8.848-5.664 4.472-.774 8.46-.058 11.963 2.149 5.255 3.31 9.386 8.247 10.99 10.573 1.602 2.326 6.794 10.028 7.91 17.91 1.5 10.576 10.105 10.796 5.992 9.985-4.114-.81-9.642-.296-12.022-10.507-1.615-6.93-6.602-14.455-7.493-15.58zM481.204 378.633c-2.732-1.553-1.595-2.69-7.001-4.649-3.604-1.306-7.007-2.123-10.209-2.453 3.575-1.592 7.213-2.081 10.914-1.469 5.552.92 5.633 2.937 8.256 5.56 1.749 1.75 4.438 3.316 8.068 4.7-4.864-.091-8.207-.654-10.028-1.69zM505.747 353.477c-2.913-4.52-2.43-3.778-2.92-4.774-2.813-5.71-3.738-10.118-2.778-13.226-1.846 3.942-2.476 7.948-1.89 12.019.879 6.106 2.35 6.593 3.995 8.874 1.403 1.945 2.097 6.205 2.084 12.782 2.948-7.437 3.451-12.662 1.51-15.675z"/>
                <path d="M487.543 362.243c-1.377-1.737-2.812-4.272-8.492-8.866-3.787-3.062-6.736-4.95-8.848-5.664 4.472-.774 8.46-.057 11.963 2.15 5.255 3.309 9.386 8.247 10.99 10.572 1.602 2.326 6.794 10.029 7.91 17.91 1.499 10.576 10.105 10.797 5.991 9.986-4.113-.811-9.641-.297-12.021-10.508-1.615-6.93-6.602-14.455-7.493-15.58z"/>
                <g>
                    <path d="M402.715 377.925c-2.732-1.552-1.595-2.69-7.001-4.648-3.604-1.306-7.007-2.123-10.208-2.453 3.574-1.592 7.212-2.082 10.913-1.469 5.552.92 5.633 2.937 8.256 5.56 1.75 1.75 4.439 3.316 8.069 4.7-4.865-.091-8.208-.654-10.03-1.69zM427.258 352.77c-2.912-4.52-2.43-3.778-2.92-4.775-2.813-5.708-3.738-10.117-2.778-13.226-1.846 3.943-2.476 7.949-1.89 12.02.88 6.106 2.35 6.593 3.996 8.874 1.402 1.944 2.097 6.205 2.084 12.782 2.947-7.437 3.45-12.662 1.508-15.675zM409.054 361.536c-1.377-1.738-2.812-4.272-8.492-8.866-3.787-3.063-6.736-4.95-8.848-5.664 4.472-.774 8.46-.058 11.963 2.149 5.255 3.31 9.386 8.247 10.99 10.573 1.602 2.326 6.794 10.029 7.91 17.91 1.499 10.576 10.105 10.796 5.992 9.986-4.114-.811-9.642-.297-12.022-10.508-1.615-6.93-6.602-14.455-7.493-15.58z"/>
                </g>
                <g>
                    <path d="M440.899 418.938c-2.732-1.553-1.595-2.69-7.001-4.649-3.605-1.306-7.007-2.123-10.209-2.452 3.575-1.593 7.212-2.082 10.914-1.47 5.552.92 5.633 2.938 8.256 5.56 1.749 1.75 4.438 3.316 8.068 4.7-4.864-.091-8.207-.654-10.028-1.69zM465.442 393.782c-2.913-4.52-2.43-3.778-2.92-4.774-2.813-5.71-3.739-10.118-2.778-13.226-1.846 3.942-2.477 7.948-1.89 12.019.879 6.106 2.35 6.593 3.995 8.874 1.403 1.945 2.097 6.205 2.084 12.782 2.948-7.436 3.451-12.662 1.51-15.675zM447.238 402.548c-1.377-1.737-2.812-4.272-8.492-8.866-3.787-3.062-6.736-4.95-8.848-5.664 4.472-.774 8.46-.057 11.963 2.15 5.254 3.309 9.386 8.247 10.989 10.572 1.603 2.326 6.795 10.029 7.911 17.91 1.499 10.576 10.105 10.797 5.991 9.986-4.113-.811-9.641-.297-12.021-10.508-1.615-6.93-6.602-14.455-7.493-15.58z"/>
                </g>
            </g>
            <g fill="#224398">
                <path d="M603.533 256.303c-2.732-1.553-1.595-2.69-7-4.649-3.605-1.305-7.008-2.123-10.21-2.452 3.575-1.592 7.213-2.082 10.914-1.47 5.552.92 5.633 2.938 8.257 5.561 1.748 1.75 4.438 3.316 8.068 4.7-4.864-.092-8.207-.655-10.029-1.69zM628.077 231.147c-2.913-4.52-2.43-3.778-2.921-4.774-2.812-5.709-3.738-10.117-2.777-13.226-1.847 3.942-2.477 7.949-1.89 12.02.878 6.105 2.35 6.593 3.995 8.874 1.402 1.944 2.097 6.205 2.084 12.782 2.948-7.437 3.45-12.662 1.509-15.676zM609.872 239.914c-1.376-1.738-2.811-4.273-8.491-8.866-3.787-3.063-6.737-4.95-8.848-5.664 4.471-.774 8.459-.058 11.962 2.149 5.255 3.31 9.387 8.247 10.99 10.573 1.603 2.325 6.795 10.028 7.91 17.909 1.5 10.577 10.105 10.797 5.992 9.986-4.113-.81-9.642-.297-12.022-10.507-1.615-6.93-6.601-14.456-7.493-15.58z"/>
            </g>
        </g>
        <g mask="url(#c)">
            <g fill="#169B64">
                <path d="M205.703 418.938c-2.732-1.553-1.595-2.69-7.001-4.649-3.604-1.306-7.007-2.123-10.209-2.452 3.575-1.593 7.213-2.082 10.914-1.47 5.552.92 5.633 2.938 8.256 5.56 1.749 1.75 4.438 3.316 8.068 4.7-4.864-.091-8.207-.654-10.028-1.69zM230.246 393.782c-2.913-4.52-2.43-3.778-2.92-4.774-2.813-5.71-3.738-10.118-2.778-13.226-1.846 3.942-2.477 7.948-1.89 12.019.879 6.106 2.35 6.593 3.995 8.874 1.403 1.945 2.097 6.205 2.084 12.782 2.948-7.436 3.451-12.662 1.51-15.675zM212.042 402.548c-1.377-1.737-2.812-4.272-8.492-8.866-3.787-3.062-6.736-4.95-8.848-5.664 4.472-.774 8.46-.057 11.963 2.15 5.254 3.309 9.386 8.247 10.99 10.572 1.602 2.326 6.794 10.029 7.91 17.91 1.499 10.576 10.105 10.797 5.991 9.986-4.113-.811-9.641-.297-12.021-10.508-1.615-6.93-6.602-14.455-7.493-15.58zM243.886 459.95c-2.732-1.553-1.594-2.69-7-4.649-3.605-1.305-7.007-2.123-10.209-2.452 3.574-1.592 7.212-2.082 10.914-1.47 5.552.92 5.632 2.938 8.256 5.561 1.749 1.75 4.438 3.315 8.068 4.7-4.864-.092-8.207-.655-10.029-1.69zM268.43 434.794c-2.913-4.52-2.43-3.778-2.921-4.774-2.812-5.709-3.738-10.118-2.777-13.226-1.847 3.942-2.477 7.948-1.89 12.019.879 6.106 2.35 6.594 3.995 8.874 1.402 1.945 2.097 6.205 2.084 12.782 2.948-7.436 3.45-12.661 1.509-15.675z"/>
                <path d="M250.225 443.56c-1.376-1.737-2.81-4.272-8.491-8.866-3.787-3.062-6.736-4.95-8.848-5.664 4.472-.773 8.46-.057 11.962 2.15 5.255 3.31 9.387 8.247 10.99 10.572 1.603 2.326 6.795 10.029 7.911 17.91 1.499 10.576 10.104 10.797 5.991 9.986-4.113-.811-9.641-.297-12.021-10.508-1.616-6.93-6.602-14.455-7.494-15.58z"/>
                <g>
                    <path d="M165.398 459.243c-2.732-1.553-1.595-2.69-7.001-4.649-3.605-1.306-7.007-2.123-10.209-2.452 3.575-1.593 7.212-2.082 10.914-1.47 5.552.92 5.632 2.938 8.256 5.561 1.749 1.749 4.438 3.315 8.068 4.699-4.864-.091-8.207-.654-10.028-1.69zM189.941 434.087c-2.913-4.52-2.43-3.778-2.921-4.774-2.812-5.71-3.738-10.118-2.777-13.226-1.846 3.942-2.477 7.948-1.89 12.019.879 6.106 2.35 6.593 3.995 8.874 1.403 1.945 2.097 6.205 2.084 12.782 2.948-7.436 3.451-12.661 1.51-15.675zM171.737 442.853c-1.377-1.737-2.812-4.272-8.492-8.866-3.787-3.062-6.736-4.95-8.848-5.664 4.472-.774 8.46-.057 11.963 2.15 5.254 3.31 9.386 8.247 10.989 10.572 1.603 2.326 6.795 10.029 7.911 17.91 1.499 10.576 10.104 10.797 5.991 9.986-4.113-.811-9.641-.297-12.021-10.508-1.615-6.93-6.602-14.455-7.493-15.58z"/>
                </g>
                <g>
                    <path d="M203.581 500.255c-2.732-1.553-1.595-2.69-7-4.649-3.605-1.305-7.008-2.123-10.209-2.452 3.574-1.592 7.212-2.082 10.914-1.47 5.552.92 5.632 2.938 8.256 5.561 1.749 1.75 4.438 3.315 8.068 4.7-4.864-.092-8.207-.655-10.029-1.69zM228.125 475.1c-2.913-4.521-2.43-3.779-2.921-4.775-2.812-5.709-3.738-10.118-2.777-13.226-1.847 3.942-2.477 7.948-1.89 12.02.879 6.105 2.35 6.593 3.995 8.874 1.402 1.944 2.097 6.205 2.084 12.782 2.948-7.437 3.45-12.662 1.509-15.676zM209.92 483.865c-1.376-1.737-2.811-4.272-8.491-8.866-3.787-3.062-6.736-4.95-8.848-5.663 4.471-.774 8.459-.058 11.962 2.148 5.255 3.31 9.387 8.248 10.99 10.574 1.603 2.325 6.795 10.028 7.911 17.909 1.498 10.577 10.104 10.797 5.991 9.986-4.113-.81-9.641-.297-12.021-10.508-1.616-6.93-6.602-14.455-7.494-15.58z"/>
                </g>
            </g>
            <g fill="#169B64">
                <path d="M368.337 256.303c-2.732-1.553-1.595-2.69-7-4.649-3.605-1.305-7.008-2.123-10.21-2.452 3.575-1.592 7.213-2.082 10.914-1.47 5.552.92 5.633 2.938 8.257 5.561 1.749 1.75 4.438 3.316 8.068 4.7-4.864-.092-8.207-.655-10.029-1.69zM392.88 231.147c-2.912-4.52-2.43-3.778-2.92-4.774-2.812-5.709-3.738-10.117-2.777-13.226-1.847 3.942-2.477 7.949-1.89 12.02.879 6.105 2.35 6.593 3.995 8.874 1.402 1.944 2.097 6.205 2.084 12.782 2.948-7.437 3.45-12.662 1.509-15.676zM374.676 239.914c-1.376-1.738-2.811-4.273-8.491-8.866-3.787-3.063-6.737-4.95-8.848-5.664 4.471-.774 8.459-.058 11.962 2.149 5.255 3.31 9.387 8.247 10.99 10.573 1.603 2.325 6.795 10.028 7.911 17.909 1.498 10.577 10.104 10.797 5.99 9.986-4.112-.81-9.64-.297-12.02-10.507-1.616-6.93-6.602-14.456-7.494-15.58zM406.521 297.315c-2.732-1.553-1.595-2.69-7.001-4.648-3.604-1.306-7.007-2.124-10.208-2.453 3.574-1.592 7.212-2.082 10.913-1.469 5.552.92 5.633 2.937 8.256 5.56 1.75 1.75 4.439 3.316 8.069 4.7-4.865-.091-8.208-.655-10.029-1.69zM431.065 272.16c-2.913-4.52-2.431-3.779-2.922-4.775-2.812-5.709-3.737-10.117-2.776-13.226-1.847 3.942-2.477 7.949-1.891 12.02.88 6.105 2.35 6.593 3.996 8.874 1.402 1.944 2.097 6.205 2.084 12.782 2.947-7.437 3.45-12.662 1.509-15.675z"/>
                <path d="M412.86 280.926c-1.377-1.738-2.811-4.273-8.492-8.866-3.786-3.063-6.736-4.95-8.848-5.664 4.472-.774 8.46-.058 11.963 2.149 5.255 3.31 9.386 8.247 10.99 10.573 1.602 2.326 6.794 10.028 7.91 17.909 1.5 10.577 10.105 10.797 5.992 9.986-4.114-.81-9.642-.296-12.022-10.507-1.615-6.93-6.602-14.455-7.493-15.58z"/>
                <g>
                    <path d="M328.032 296.608c-2.732-1.553-1.595-2.69-7-4.648-3.605-1.306-7.008-2.124-10.21-2.453 3.575-1.592 7.213-2.082 10.914-1.47 5.552.92 5.633 2.938 8.256 5.561 1.75 1.75 4.439 3.316 8.069 4.7-4.864-.092-8.207-.655-10.029-1.69zM352.576 271.453c-2.913-4.52-2.43-3.779-2.921-4.775-2.812-5.709-3.738-10.117-2.777-13.226-1.847 3.942-2.477 7.949-1.89 12.02.878 6.105 2.35 6.593 3.995 8.874 1.402 1.944 2.097 6.205 2.084 12.782 2.948-7.437 3.45-12.662 1.509-15.675zM334.371 280.219c-1.376-1.738-2.811-4.273-8.491-8.866-3.787-3.063-6.737-4.95-8.849-5.664 4.472-.774 8.46-.058 11.963 2.149 5.255 3.31 9.386 8.247 10.99 10.573 1.603 2.326 6.794 10.028 7.91 17.909 1.5 10.577 10.105 10.797 5.992 9.986-4.113-.81-9.642-.296-12.022-10.507-1.615-6.93-6.602-14.455-7.493-15.58z"/>
                </g>
                <g>
                    <path d="M366.216 337.62c-2.732-1.553-1.595-2.69-7.001-4.648-3.604-1.306-7.007-2.123-10.208-2.453 3.574-1.592 7.212-2.082 10.913-1.469 5.552.92 5.633 2.937 8.256 5.56 1.75 1.75 4.439 3.316 8.069 4.7-4.865-.091-8.208-.654-10.029-1.69zM390.76 312.465c-2.913-4.52-2.431-3.779-2.922-4.775-2.812-5.708-3.737-10.117-2.777-13.226-1.846 3.943-2.476 7.949-1.89 12.02.88 6.106 2.35 6.593 3.996 8.874 1.402 1.944 2.097 6.205 2.084 12.782 2.947-7.437 3.45-12.662 1.508-15.675zM372.555 321.23c-1.377-1.737-2.811-4.272-8.492-8.865-3.786-3.063-6.736-4.95-8.848-5.664 4.472-.774 8.46-.058 11.963 2.149 5.255 3.31 9.386 8.247 10.99 10.573 1.602 2.326 6.794 10.028 7.91 17.91 1.499 10.576 10.105 10.796 5.992 9.985-4.114-.81-9.642-.296-12.022-10.507-1.615-6.93-6.602-14.455-7.493-15.58z"/>
                </g>
            </g>
            <g fill="#224398">
                <path d="M124.385 500.255c-2.732-1.553-1.594-2.69-7-4.649-3.605-1.305-7.008-2.123-10.209-2.452 3.574-1.592 7.212-2.082 10.914-1.47 5.552.92 5.632 2.938 8.256 5.561 1.749 1.75 4.438 3.315 8.068 4.7-4.864-.092-8.207-.655-10.029-1.69zM148.929 475.1c-2.913-4.521-2.43-3.779-2.921-4.775-2.812-5.709-3.738-10.118-2.777-13.226-1.847 3.942-2.477 7.948-1.89 12.02.879 6.105 2.35 6.593 3.995 8.874 1.402 1.944 2.097 6.205 2.084 12.782 2.948-7.437 3.45-12.662 1.509-15.676zM130.724 483.865c-1.376-1.737-2.811-4.272-8.491-8.866-3.787-3.062-6.736-4.95-8.848-5.663 4.472-.774 8.46-.058 11.962 2.148 5.255 3.31 9.387 8.248 10.99 10.574 1.603 2.325 6.795 10.028 7.911 17.909 1.499 10.577 10.104 10.797 5.991 9.986-4.113-.81-9.641-.297-12.021-10.508-1.616-6.93-6.602-14.455-7.494-15.58z"/>
            </g>
            <g fill="#224398">
                <path d="M162.57 541.267c-2.733-1.553-1.596-2.69-7.002-4.648-3.604-1.306-7.007-2.124-10.208-2.453 3.574-1.592 7.212-2.082 10.913-1.47 5.552.92 5.633 2.938 8.256 5.561 1.75 1.75 4.439 3.316 8.069 4.7-4.864-.092-8.207-.655-10.029-1.69zM187.113 516.111c-2.913-4.52-2.43-3.778-2.921-4.774-2.812-5.709-3.738-10.117-2.777-13.226-1.847 3.942-2.477 7.949-1.89 12.02.878 6.105 2.35 6.593 3.995 8.874 1.402 1.944 2.097 6.205 2.084 12.782 2.948-7.437 3.45-12.662 1.509-15.676zM168.908 524.878c-1.376-1.738-2.811-4.273-8.491-8.866-3.787-3.063-6.737-4.95-8.849-5.664 4.472-.774 8.46-.058 11.963 2.149 5.255 3.31 9.386 8.247 10.99 10.573 1.603 2.325 6.794 10.028 7.91 17.909 1.5 10.577 10.105 10.797 5.992 9.986-4.113-.81-9.642-.297-12.022-10.507-1.615-6.93-6.602-14.455-7.493-15.58z"/>
            </g>
            <g fill="#224398">
                <path d="M287.02 337.62c-2.732-1.553-1.595-2.69-7.001-4.648-3.604-1.306-7.007-2.123-10.208-2.453 3.574-1.592 7.212-2.082 10.913-1.469 5.552.92 5.633 2.937 8.256 5.56 1.75 1.75 4.439 3.316 8.069 4.7-4.865-.091-8.208-.654-10.029-1.69zM311.563 312.465c-2.912-4.52-2.43-3.779-2.92-4.775-2.813-5.708-3.738-10.117-2.778-13.226-1.846 3.943-2.476 7.949-1.89 12.02.88 6.106 2.35 6.593 3.996 8.874 1.402 1.944 2.097 6.205 2.084 12.782 2.947-7.437 3.45-12.662 1.508-15.675zM293.359 321.23c-1.377-1.737-2.811-4.272-8.492-8.865-3.786-3.063-6.736-4.95-8.848-5.664 4.472-.774 8.46-.058 11.963 2.149 5.255 3.31 9.386 8.247 10.99 10.573 1.602 2.326 6.794 10.028 7.91 17.91 1.5 10.576 10.105 10.796 5.992 9.985-4.114-.81-9.642-.296-12.022-10.507-1.615-6.93-6.602-14.455-7.493-15.58zM325.204 378.633c-2.732-1.553-1.595-2.69-7.001-4.649-3.604-1.306-7.007-2.123-10.209-2.453 3.575-1.592 7.213-2.081 10.914-1.469 5.552.92 5.633 2.937 8.256 5.56 1.749 1.75 4.438 3.316 8.068 4.7-4.864-.091-8.207-.654-10.028-1.69zM349.747 353.477c-2.913-4.52-2.43-3.778-2.92-4.774-2.813-5.71-3.738-10.118-2.778-13.226-1.846 3.942-2.476 7.948-1.89 12.019.879 6.106 2.35 6.593 3.995 8.874 1.403 1.945 2.097 6.205 2.084 12.782 2.948-7.437 3.451-12.662 1.51-15.675z"/>
                <path d="M331.543 362.243c-1.377-1.737-2.812-4.272-8.492-8.866-3.787-3.062-6.736-4.95-8.848-5.664 4.472-.774 8.46-.057 11.963 2.15 5.255 3.309 9.386 8.247 10.99 10.572 1.602 2.326 6.794 10.029 7.91 17.91 1.499 10.576 10.105 10.797 5.991 9.986-4.113-.811-9.641-.297-12.021-10.508-1.615-6.93-6.602-14.455-7.493-15.58z"/>
                <g>
                    <path d="M246.715 377.925c-2.732-1.552-1.595-2.69-7.001-4.648-3.604-1.306-7.007-2.123-10.208-2.453 3.574-1.592 7.212-2.082 10.913-1.469 5.552.92 5.633 2.937 8.256 5.56 1.75 1.75 4.439 3.316 8.069 4.7-4.865-.091-8.208-.654-10.03-1.69zM271.258 352.77c-2.912-4.52-2.43-3.778-2.92-4.775-2.813-5.708-3.738-10.117-2.778-13.226-1.846 3.943-2.476 7.949-1.89 12.02.88 6.106 2.35 6.593 3.996 8.874 1.402 1.944 2.097 6.205 2.084 12.782 2.947-7.437 3.45-12.662 1.508-15.675zM253.054 361.536c-1.377-1.738-2.812-4.272-8.492-8.866-3.787-3.063-6.736-4.95-8.848-5.664 4.472-.774 8.46-.058 11.963 2.149 5.255 3.31 9.386 8.247 10.99 10.573 1.602 2.326 6.794 10.029 7.91 17.91 1.499 10.576 10.105 10.796 5.992 9.986-4.114-.811-9.642-.297-12.022-10.508-1.615-6.93-6.602-14.455-7.493-15.58z"/>
                </g>
                <g>
                    <path d="M284.899 418.938c-2.732-1.553-1.595-2.69-7.001-4.649-3.605-1.306-7.007-2.123-10.209-2.452 3.575-1.593 7.212-2.082 10.914-1.47 5.552.92 5.633 2.938 8.256 5.56 1.749 1.75 4.438 3.316 8.068 4.7-4.864-.091-8.207-.654-10.028-1.69zM309.442 393.782c-2.913-4.52-2.43-3.778-2.92-4.774-2.813-5.71-3.739-10.118-2.778-13.226-1.846 3.942-2.477 7.948-1.89 12.019.879 6.106 2.35 6.593 3.995 8.874 1.403 1.945 2.097 6.205 2.084 12.782 2.948-7.436 3.451-12.662 1.51-15.675zM291.238 402.548c-1.377-1.737-2.812-4.272-8.492-8.866-3.787-3.062-6.736-4.95-8.848-5.664 4.472-.774 8.46-.057 11.963 2.15 5.254 3.309 9.386 8.247 10.989 10.572 1.603 2.326 6.795 10.029 7.911 17.91 1.499 10.576 10.105 10.797 5.991 9.986-4.113-.811-9.641-.297-12.021-10.508-1.615-6.93-6.602-14.455-7.493-15.58z"/>
                </g>
            </g>
            <g>
                <g fill="#224398">
                    <path d="M447.533 256.303c-2.732-1.553-1.595-2.69-7-4.649-3.605-1.305-7.008-2.123-10.21-2.452 3.575-1.592 7.213-2.082 10.914-1.47 5.552.92 5.633 2.938 8.257 5.561 1.748 1.75 4.438 3.316 8.068 4.7-4.864-.092-8.207-.655-10.029-1.69zM472.077 231.147c-2.913-4.52-2.43-3.778-2.921-4.774-2.812-5.709-3.738-10.117-2.777-13.226-1.847 3.942-2.477 7.949-1.89 12.02.878 6.105 2.35 6.593 3.995 8.874 1.402 1.944 2.097 6.205 2.084 12.782 2.948-7.437 3.45-12.662 1.509-15.676zM453.872 239.914c-1.376-1.738-2.811-4.273-8.491-8.866-3.787-3.063-6.737-4.95-8.848-5.664 4.471-.774 8.459-.058 11.962 2.149 5.255 3.31 9.387 8.247 10.99 10.573 1.603 2.325 6.795 10.028 7.91 17.909 1.5 10.577 10.105 10.797 5.992 9.986-4.113-.81-9.642-.297-12.022-10.507-1.615-6.93-6.601-14.456-7.493-15.58z"/>
                </g>
            </g>
        </g>
        <g mask="url(#c)">
            <g fill="#169B64">
                <path d="M212.02 256.303c-2.732-1.553-1.595-2.69-7.001-4.649-3.604-1.305-7.007-2.123-10.208-2.452 3.574-1.592 7.212-2.082 10.913-1.47 5.552.92 5.633 2.938 8.256 5.561 1.75 1.75 4.439 3.316 8.069 4.7-4.865-.092-8.208-.655-10.029-1.69zM236.563 231.147c-2.912-4.52-2.43-3.778-2.92-4.774-2.813-5.709-3.738-10.117-2.778-13.226-1.846 3.942-2.476 7.949-1.89 12.02.88 6.105 2.35 6.593 3.996 8.874 1.402 1.944 2.097 6.205 2.084 12.782 2.947-7.437 3.45-12.662 1.508-15.676zM218.359 239.914c-1.377-1.738-2.811-4.273-8.492-8.866-3.786-3.063-6.736-4.95-8.848-5.664 4.472-.774 8.46-.058 11.963 2.149 5.255 3.31 9.386 8.247 10.99 10.573 1.602 2.325 6.794 10.028 7.91 17.909 1.5 10.577 10.105 10.797 5.992 9.986-4.114-.81-9.642-.297-12.022-10.507-1.615-6.93-6.602-14.456-7.493-15.58zM250.204 297.315c-2.732-1.553-1.595-2.69-7.001-4.648-3.604-1.306-7.007-2.124-10.209-2.453 3.575-1.592 7.213-2.082 10.914-1.469 5.552.92 5.633 2.937 8.256 5.56 1.749 1.75 4.438 3.316 8.068 4.7-4.864-.091-8.207-.655-10.028-1.69zM274.747 272.16c-2.913-4.52-2.43-3.779-2.92-4.775-2.813-5.709-3.738-10.117-2.778-13.226-1.846 3.942-2.476 7.949-1.89 12.02.879 6.105 2.35 6.593 3.995 8.874 1.403 1.944 2.097 6.205 2.084 12.782 2.948-7.437 3.451-12.662 1.51-15.675z"/>
                <path d="M256.543 280.926c-1.377-1.738-2.812-4.273-8.492-8.866-3.787-3.063-6.736-4.95-8.848-5.664 4.472-.774 8.46-.058 11.963 2.149 5.255 3.31 9.386 8.247 10.99 10.573 1.602 2.326 6.794 10.028 7.91 17.909 1.499 10.577 10.105 10.797 5.991 9.986-4.113-.81-9.641-.296-12.021-10.507-1.615-6.93-6.602-14.455-7.493-15.58z"/>
                <g>
                    <path d="M171.715 296.608c-2.732-1.553-1.595-2.69-7.001-4.648-3.604-1.306-7.007-2.124-10.208-2.453 3.574-1.592 7.212-2.082 10.913-1.47 5.552.92 5.633 2.938 8.256 5.561 1.75 1.75 4.439 3.316 8.069 4.7-4.865-.092-8.208-.655-10.03-1.69zM196.258 271.453c-2.912-4.52-2.43-3.779-2.92-4.775-2.813-5.709-3.738-10.117-2.778-13.226-1.846 3.942-2.476 7.949-1.89 12.02.88 6.105 2.35 6.593 3.996 8.874 1.402 1.944 2.097 6.205 2.084 12.782 2.947-7.437 3.45-12.662 1.508-15.675zM178.054 280.219c-1.377-1.738-2.812-4.273-8.492-8.866-3.787-3.063-6.736-4.95-8.848-5.664 4.472-.774 8.46-.058 11.963 2.149 5.255 3.31 9.386 8.247 10.99 10.573 1.602 2.326 6.794 10.028 7.91 17.909 1.499 10.577 10.105 10.797 5.992 9.986-4.114-.81-9.642-.296-12.022-10.507-1.615-6.93-6.602-14.455-7.493-15.58z"/>
                </g>
                <g>
                    <path d="M209.899 337.62c-2.732-1.553-1.595-2.69-7.001-4.648-3.605-1.306-7.007-2.123-10.209-2.453 3.575-1.592 7.212-2.082 10.914-1.469 5.552.92 5.633 2.937 8.256 5.56 1.749 1.75 4.438 3.316 8.068 4.7-4.864-.091-8.207-.654-10.028-1.69zM234.442 312.465c-2.913-4.52-2.43-3.779-2.92-4.775-2.813-5.708-3.739-10.117-2.778-13.226-1.846 3.943-2.477 7.949-1.89 12.02.879 6.106 2.35 6.593 3.995 8.874 1.403 1.944 2.097 6.205 2.084 12.782 2.948-7.437 3.451-12.662 1.51-15.675zM216.238 321.23c-1.377-1.737-2.812-4.272-8.492-8.865-3.787-3.063-6.736-4.95-8.848-5.664 4.472-.774 8.46-.058 11.963 2.149 5.254 3.31 9.386 8.247 10.989 10.573 1.603 2.326 6.795 10.028 7.911 17.91 1.499 10.576 10.105 10.796 5.991 9.985-4.113-.81-9.641-.296-12.021-10.507-1.615-6.93-6.602-14.455-7.493-15.58z"/>
                </g>
            </g>
            <g fill="#224398">
                <path d="M130.703 337.62c-2.732-1.553-1.595-2.69-7.001-4.648-3.604-1.306-7.007-2.123-10.209-2.453 3.575-1.592 7.213-2.082 10.914-1.469 5.552.92 5.633 2.937 8.256 5.56 1.749 1.75 4.438 3.316 8.068 4.7-4.864-.091-8.207-.654-10.028-1.69zM155.246 312.465c-2.913-4.52-2.43-3.779-2.92-4.775-2.813-5.708-3.738-10.117-2.778-13.226-1.846 3.943-2.477 7.949-1.89 12.02.879 6.106 2.35 6.593 3.995 8.874 1.403 1.944 2.097 6.205 2.084 12.782 2.948-7.437 3.451-12.662 1.51-15.675zM137.042 321.23c-1.377-1.737-2.812-4.272-8.492-8.865-3.787-3.063-6.736-4.95-8.848-5.664 4.472-.774 8.46-.058 11.963 2.149 5.254 3.31 9.386 8.247 10.99 10.573 1.602 2.326 6.794 10.028 7.91 17.91 1.499 10.576 10.105 10.796 5.991 9.985-4.113-.81-9.641-.296-12.021-10.507-1.615-6.93-6.602-14.455-7.493-15.58zM168.886 378.632c-2.732-1.552-1.594-2.69-7-4.648-3.605-1.306-7.007-2.123-10.209-2.453 3.574-1.592 7.212-2.081 10.914-1.469 5.552.92 5.632 2.937 8.256 5.56 1.749 1.75 4.438 3.316 8.068 4.7-4.864-.091-8.207-.654-10.029-1.69zM193.43 353.477c-2.913-4.52-2.43-3.778-2.921-4.774-2.812-5.71-3.738-10.118-2.777-13.226-1.847 3.942-2.477 7.948-1.89 12.019.879 6.106 2.35 6.593 3.995 8.874 1.402 1.945 2.097 6.205 2.084 12.782 2.948-7.437 3.45-12.662 1.509-15.675z"/>
                <path d="M175.225 362.243c-1.376-1.737-2.81-4.272-8.491-8.866-3.787-3.062-6.736-4.95-8.848-5.664 4.472-.774 8.46-.057 11.962 2.15 5.255 3.309 9.387 8.247 10.99 10.572 1.603 2.326 6.795 10.029 7.911 17.91 1.499 10.576 10.104 10.797 5.991 9.986-4.113-.811-9.641-.297-12.021-10.508-1.616-6.93-6.602-14.455-7.494-15.58z"/>
                <g>
                    <path d="M114.941 352.77c-2.913-4.52-2.43-3.778-2.921-4.775-2.812-5.708-3.738-10.117-2.777-13.226-1.846 3.943-2.477 7.949-1.89 12.02.879 6.106 2.35 6.593 3.995 8.874 1.403 1.944 2.097 6.205 2.084 12.782 2.948-7.437 3.451-12.662 1.51-15.675z"/>
                </g>
                <g>
                    <path d="M128.581 418.938c-2.732-1.553-1.595-2.69-7-4.649-3.605-1.306-7.008-2.123-10.209-2.452 3.574-1.593 7.212-2.082 10.914-1.47 5.552.92 5.632 2.938 8.256 5.56 1.749 1.75 4.438 3.316 8.068 4.7-4.864-.091-8.207-.654-10.029-1.69zM153.125 393.782c-2.913-4.52-2.43-3.778-2.921-4.774-2.812-5.71-3.738-10.118-2.777-13.226-1.847 3.942-2.477 7.948-1.89 12.019.879 6.106 2.35 6.593 3.995 8.874 1.402 1.945 2.097 6.205 2.084 12.782 2.948-7.436 3.45-12.662 1.509-15.675zM134.92 402.548c-1.376-1.737-2.811-4.272-8.491-8.866-3.787-3.062-6.736-4.95-8.848-5.664 4.471-.774 8.459-.057 11.962 2.15 5.255 3.309 9.387 8.247 10.99 10.572 1.603 2.326 6.795 10.029 7.911 17.91 1.498 10.576 10.104 10.797 5.991 9.986-4.113-.811-9.641-.297-12.021-10.508-1.616-6.93-6.602-14.455-7.494-15.58z"/>
                </g>
            </g>
            <g fill="#224398">
                <path d="M291.216 256.303c-2.732-1.553-1.595-2.69-7.001-4.649-3.604-1.305-7.007-2.123-10.208-2.452 3.574-1.592 7.212-2.082 10.913-1.47 5.552.92 5.633 2.938 8.256 5.561 1.75 1.75 4.439 3.316 8.069 4.7-4.865-.092-8.208-.655-10.029-1.69zM315.76 231.147c-2.913-4.52-2.431-3.778-2.922-4.774-2.812-5.709-3.737-10.117-2.777-13.226-1.846 3.942-2.476 7.949-1.89 12.02.88 6.105 2.35 6.593 3.996 8.874 1.402 1.944 2.097 6.205 2.084 12.782 2.947-7.437 3.45-12.662 1.508-15.676zM297.555 239.914c-1.377-1.738-2.811-4.273-8.492-8.866-3.786-3.063-6.736-4.95-8.848-5.664 4.472-.774 8.46-.058 11.963 2.149 5.255 3.31 9.386 8.247 10.99 10.573 1.602 2.325 6.794 10.028 7.91 17.909 1.499 10.577 10.105 10.797 5.992 9.986-4.114-.81-9.642-.297-12.022-10.507-1.615-6.93-6.602-14.456-7.493-15.58z"/>
            </g>
        </g>
        <g mask="url(#c)">
            <path fill="#169B64" d="M119.113 272.16c-2.913-4.52-2.43-3.779-2.921-4.775-2.812-5.709-3.738-10.117-2.777-13.226-1.847 3.942-2.477 7.949-1.89 12.02.878 6.105 2.35 6.593 3.995 8.874 1.402 1.944 2.097 6.205 2.084 12.782 2.948-7.437 3.45-12.662 1.509-15.675z"/>
            <g fill="#224398">
                <path d="M135.581 256.303c-2.732-1.553-1.595-2.69-7-4.649-3.605-1.305-7.008-2.123-10.209-2.452 3.574-1.592 7.212-2.082 10.914-1.47 5.552.92 5.632 2.938 8.256 5.561 1.749 1.75 4.438 3.316 8.068 4.7-4.864-.092-8.207-.655-10.029-1.69zM160.125 231.147c-2.913-4.52-2.43-3.778-2.921-4.774-2.812-5.709-3.738-10.117-2.777-13.226-1.847 3.942-2.477 7.949-1.89 12.02.879 6.105 2.35 6.593 3.995 8.874 1.402 1.944 2.097 6.205 2.084 12.782 2.948-7.437 3.45-12.662 1.509-15.676zM141.92 239.914c-1.376-1.738-2.811-4.273-8.491-8.866-3.787-3.063-6.736-4.95-8.848-5.664 4.471-.774 8.459-.058 11.962 2.149 5.255 3.31 9.387 8.247 10.99 10.573 1.603 2.325 6.795 10.028 7.911 17.909 1.498 10.577 10.104 10.797 5.991 9.986-4.113-.81-9.641-.297-12.021-10.507-1.616-6.93-6.602-14.456-7.494-15.58z"/>
            </g>
        </g>
    </g>
</svg>
