<svg xmlns="http://www.w3.org/2000/svg" width="171.365" height="171.365" viewBox="0 0 171.365 171.365"><g transform="translate(-581.244 -585.583)" opacity="0.15"><path d="M690.7,676.541c-2.732,0-4.918,1.5-4.918,3.416v9.427h9.837v-9.427C695.62,678.044,693.434,676.541,690.7,676.541Z" fill="#e23728"/><path d="M677.448,676.541c-2.732,0-4.918,1.5-4.918,3.416v9.427h9.837v-9.427C682.367,678.044,680.181,676.541,677.448,676.541Z" fill="#e23728"/><path d="M703.407,676.541c-2.732,0-4.918,1.5-4.918,3.416v9.427h9.837v-9.427C708.326,678.044,706.141,676.541,703.407,676.541Z" fill="#e23728"/><path d="M664.2,676.541c-2.732,0-4.918,1.5-4.918,3.416v9.427h9.974v-9.427C669.251,678.044,666.928,676.541,664.2,676.541Z" fill="#e23728"/><rect width="5.055" height="8.881" transform="translate(629.766 683.236)" fill="#e23728"/><rect width="5.055" height="5.875" transform="translate(629.766 668.344)" fill="#e23728"/><path d="M666.926,585.583a85.682,85.682,0,1,0,85.683,85.683A85.682,85.682,0,0,0,666.926,585.583ZM661.6,655.5h43.447v2.734H661.6Zm-9.7,11.478,7.651-6.012H707.37l8.2,6.012v2.459H651.9Zm-19.539-57.521,16.4,18.581H615.83Zm14.62,21.314-3.962,15.849H621.568l-3.962-15.849h5.6s1.367,6.148,1.913,8.2c.41,2.049,1.64,2.049,3.143,2.049h7.651c1.64,0,2.733,0,3.279-2.049l1.776-8.2Zm29.648,87.988L673.9,693.483H661.6l-3.416,25.276H610.228l4.782-26.643H622.8V649.353h18.991v42.763H651.9v-2.732h2.732V672.169H712.7v17.215h2.733v2.732h4.235l3.963,26.643Z" fill="#e23728"/><rect width="5.055" height="5.875" transform="translate(629.766 654.818)" fill="#e23728"/></g></svg>