<svg xmlns="http://www.w3.org/2000/svg" width="24" height="24" viewBox="0 0 24 24">
    <g fill="none" fill-rule="evenodd">
        <rect width="24" height="24" fill="#FAD443" rx="4"/>
        <path fill="#19409E" fill-rule="nonzero" d="M5.063 8.788v3.808h1.722c1.61 0 2.492-.644 2.492-1.974 0-1.358-.882-1.834-2.492-1.834H5.063zM10.873 18h-1.47l-2.492-4.354H5.063V18H3.761V7.738h3.22c2.086 0 3.584.742 3.584 2.884 0 1.596-.924 2.548-2.324 2.884L10.873 18zm5.572.182c-2.576 0-4.382-2.058-4.382-5.348s1.806-5.292 4.382-5.292c2.576 0 4.382 2.002 4.382 5.292s-1.806 5.348-4.382 5.348zm0-1.134c1.834 0 3.052-1.652 3.052-4.214 0-2.576-1.218-4.158-3.052-4.158-1.848 0-3.052 1.582-3.052 4.158 0 2.562 1.204 4.214 3.052 4.214z"/>
    </g>
</svg>
