<svg xmlns="http://www.w3.org/2000/svg" width="25" height="25" viewBox="0 0 25 25">
    <defs>
        <linearGradient id="a" x1="16.403%" y1="0%" y2="98.021%">
            <stop offset="0%" stop-color="#3B097B"/>
            <stop offset="100%" stop-color="#192660"/>
        </linearGradient>
    </defs>
    <g fill="none" fill-rule="evenodd">
        <path fill="url(#a)" fill-rule="nonzero" d="M87 37.451c0-1.166-.39-2.162-1.172-2.987-.781-.826-1.724-1.238-2.828-1.238-1.104 0-2.047.412-2.828 1.238-.781.825-1.172 1.82-1.172 2.987s.39 2.163 1.172 2.988c.781.825 1.724 1.238 2.828 1.238 1.104 0 2.047-.413 2.828-1.238.781-.825 1.172-1.821 1.172-2.988zm4 0c0 1.2-.172 2.185-.516 2.955l-5.687 8.422c-.167.363-.414.65-.742.858a1.928 1.928 0 0 1-2.11 0 1.87 1.87 0 0 1-.726-.858l-5.703-8.422c-.344-.77-.516-1.755-.516-2.955 0-2.333.781-4.324 2.344-5.975C78.906 29.826 80.792 29 83 29c2.208 0 4.094.825 5.656 2.476C90.22 33.126 91 35.118 91 37.451z" transform="translate(-70 -27)"/>
    </g>
</svg>
