<svg xmlns="http://www.w3.org/2000/svg" width="25" height="25" viewBox="0 0 25 25">
    <defs>
        <linearGradient id="a" x1="16.403%" y1="0%" y2="98.021%">
            <stop offset="0%" stop-color="#3B097B"/>
            <stop offset="100%" stop-color="#192660"/>
        </linearGradient>
    </defs>
    <g fill="none" fill-rule="evenodd">
        <path fill="url(#a)" fill-rule="nonzero" d="M55.667 35.417v5.833c0 .122-.04.221-.118.3a.406.406 0 0 1-.299.117h-4.167a.406.406 0 0 1-.3-.118.406.406 0 0 1-.116-.299v-.833c0-.122.039-.222.117-.3a.406.406 0 0 1 .3-.117H54v-4.583c0-.122.04-.222.117-.3a.406.406 0 0 1 .3-.117h.833c.122 0 .221.04.3.117a.406.406 0 0 1 .117.3zM61.083 40c0-1.285-.317-2.47-.95-3.555a7.061 7.061 0 0 0-2.578-2.578 6.924 6.924 0 0 0-3.555-.95c-1.285 0-2.47.317-3.555.95a7.061 7.061 0 0 0-2.578 2.578 6.924 6.924 0 0 0-.95 3.555c0 1.285.317 2.47.95 3.555a7.061 7.061 0 0 0 2.578 2.578c1.085.633 2.27.95 3.555.95 1.285 0 2.47-.317 3.555-.95a7.061 7.061 0 0 0 2.578-2.578c.633-1.085.95-2.27.95-3.555zM64 40c0 1.814-.447 3.487-1.341 5.02a9.955 9.955 0 0 1-3.64 3.639C57.488 49.553 55.815 50 54 50s-3.487-.447-5.02-1.341a9.955 9.955 0 0 1-3.639-3.64C44.447 43.488 44 41.815 44 40s.447-3.487 1.341-5.02a9.955 9.955 0 0 1 3.64-3.639C50.512 30.447 52.185 30 54 30s3.487.447 5.02 1.341a9.955 9.955 0 0 1 3.639 3.64C63.553 36.512 64 38.185 64 40z" transform="translate(-41 -27)"/>
    </g>
</svg>
