<svg xmlns="http://www.w3.org/2000/svg" width="25" height="25" viewBox="0 0 25 25">
    <defs>
        <linearGradient id="a" x1="16.403%" y1="0%" y2="98.021%">
            <stop offset="0%" stop-color="#3B097B"/>
            <stop offset="100%" stop-color="#192660"/>
        </linearGradient>
    </defs>
    <g fill="none" fill-rule="evenodd">
        <path fill="url(#a)" fill-rule="nonzero" d="M18.323 34.802c0-.42-.149-.778-.446-1.075a1.465 1.465 0 0 0-1.075-.446c-.42 0-.778.149-1.075.446a1.465 1.465 0 0 0-.446 1.075c0 .42.149.778.446 1.075.297.297.655.446 1.075.446.42 0 .778-.149 1.075-.446.297-.297.446-.655.446-1.075zM31 41.646c0 .42-.147.776-.44 1.069l-5.833 5.845c-.31.293-.67.44-1.081.44-.42 0-.777-.147-1.07-.44l-8.495-8.507c-.3-.293-.556-.693-.766-1.2-.21-.506-.315-.97-.315-1.39v-4.942c0-.412.15-.769.451-1.07a1.462 1.462 0 0 1 1.07-.451h4.942c.42 0 .884.105 1.39.315.507.21.911.465 1.212.766l8.495 8.483c.293.31.44.67.44 1.082z" transform="translate(-9 -27)"/>
    </g>
</svg>
