<?xml version="1.0" encoding="UTF-8"?>
<svg width="494" height="357" viewBox="0 0 494 357" version="1.1" xmlns="http://www.w3.org/2000/svg" xmlns:xlink="http://www.w3.org/1999/xlink">
	<defs>
		<linearGradient x1="45.3368388%" y1="87.8179744%" x2="26.7168308%" y2="9.38009562%" id="linearGradient-1">
			<stop stop-color="#3B097B" offset="0%"></stop>
			<stop stop-color="#192660" offset="100%"></stop>
		</linearGradient>
	</defs>
	<g id="web-UI" stroke="none" stroke-width="1" fill="none" fill-rule="evenodd" stroke-opacity="0.21">
		<g id="index_v1" transform="translate(0.000000, -1293.000000)" stroke="#E6E6E6" fill="url(#linearGradient-1)">
			<g id="-g-Group-3" transform="translate(0.000000, 850.000000)">
				<path d="M57.4197218,646.737924 C55.8564097,654.016201 54.4305317,660.922261 53.0905499,667.47901 L-18.9420595,595.618193 L-19.320003,595.240249 C-19.4402578,595.068457 -31.6947919,582.161111 -31.6088956,568.326086 C-31.5745371,565.405612 -31.5058201,556.546844 -18.3064271,544.080433 C-10.5814895,536.807882 -4.05337321,534.643296 1.57569548,534.643296 C4.5763384,534.643296 7.34219819,535.256023 9.9190862,536.046268 C20.1292891,539.350412 27.7683304,546.525613 27.7683304,546.525613 L30.2249637,548.718831 C30.2936807,548.787548 39.7880814,557.130939 48.0627551,572.580814 C60.0080626,594.75923 63.151866,619.783676 57.4197218,646.737924 M161.188138,775.347541 L108.590991,722.85347 C112.387606,702.702205 117.123354,680.523789 121.418167,660.338167 C141.529346,565.405612 83.835687,508.960312 73.281899,499.551808 C45.3827916,472.294059 -13.1354718,449.359756 -63.1270991,496.499627 C-90.9002254,522.692262 -96.8556999,549.818303 -96.9988603,567.942416 C-97.2050114,608.771774 -69.3803473,637.707363 -65.016817,642.002177 L38.4652789,745.278122 C34.7259281,770.926747 34.7946451,785.998679 37.864005,799.106449 L82.0032333,788.707274 L114.998853,821.634176 C133.77005,840.4111 158.857486,850.747284 185.54832,850.747284 C212.2277,850.747284 237.286504,840.382468 256.080608,821.634176 L321.252969,756.43891 C321.281601,756.43891 321.281601,756.364466 321.321686,756.330108 L492.810719,584.835348 L446.564169,538.623156 L275.040777,710.158001 C268.621463,716.577316 259.963119,720.144874 250.80085,720.144874 C241.546959,720.144874 232.900068,716.577316 226.457848,710.117916 C220.004176,703.698602 216.465249,695.051711 216.465249,685.774914 C216.465249,676.572561 220.004176,667.92567 226.457848,661.534988 L397.952608,489.977237 L351.706058,443.724961 L180.205572,615.225447 C161.411469,634.002371 151.063832,659.135619 151.063832,685.774914 C151.063832,712.523012 161.411469,737.553184 180.205572,756.330108 C188.640585,764.742216 198.306779,771.539474 208.826208,776.384023 C202.49279,782.184884 194.263928,785.374499 185.54832,785.374499 C176.277249,785.374499 167.624632,781.841299 161.188138,775.347541" id="Fill-1"></path>
			</g>
		</g>
	</g>
</svg>
