<svg xmlns="http://www.w3.org/2000/svg" width="390.862" height="55.12" viewBox="0 0 390.862 55.12"><defs><style>.a{fill:#fff;}</style></defs><g transform="translate(-225.308 -273.469)"><rect class="a" width="7.323" height="33.846" rx="3.662" transform="translate(275.213 308.733) rotate(-90)"/><rect class="a" width="7.323" height="27.068" rx="3.662" transform="translate(288.475 301.521)"/><rect class="a" width="7.323" height="33.846" rx="3.662" transform="translate(301.736 274.887)"/><rect class="a" width="7.323" height="33.846" rx="3.662" transform="translate(275.213 274.887)"/></g><g transform="translate(-225.308 -273.469)"><rect class="a" width="7.323" height="33.846" rx="3.662" transform="translate(318.037 328.589) rotate(-90)"/><rect class="a" width="7.323" height="33.846" rx="3.662" transform="translate(318.037 282.21) rotate(-90)"/><rect class="a" width="7.323" height="53.702" rx="3.662" transform="translate(318.037 274.887)"/></g><g transform="translate(-225.308 -273.469)"><rect class="a" width="7.323" height="33.846" rx="3.662" transform="translate(360.862 328.589) rotate(-90)"/><rect class="a" width="7.323" height="33.846" rx="3.662" transform="translate(360.862 282.21) rotate(-90)"/><rect class="a" width="7.323" height="53.702" rx="3.662" transform="translate(360.862 274.887)"/><rect class="a" width="7.323" height="53.702" rx="3.662" transform="translate(387.385 274.887)"/></g><g transform="translate(-225.308 -273.469)"><rect class="a" width="7.323" height="33.846" rx="3.662" transform="translate(582.324 328.589) rotate(-90)"/><rect class="a" width="7.323" height="33.846" rx="3.662" transform="translate(582.324 282.21) rotate(-90)"/><rect class="a" width="7.323" height="53.702" rx="3.662" transform="translate(582.324 274.887)"/><rect class="a" width="7.323" height="53.702" rx="3.662" transform="translate(608.847 274.887)"/></g><g transform="translate(-225.308 -273.469)"><rect class="a" width="7.323" height="51.67" rx="3.662" transform="translate(402.268 277.545) rotate(-33.817)"/><rect class="a" width="7.323" height="53.702" rx="3.662" transform="translate(403.686 274.887)"/><rect class="a" width="7.323" height="53.702" rx="3.662" transform="translate(430.209 274.887)"/></g><g transform="translate(-225.308 -273.469)"><rect class="a" width="7.323" height="32.573" rx="3.662" transform="translate(573.761 307.461) rotate(-180)"/><rect class="a" width="7.323" height="28.452" rx="3.662" transform="translate(539.691 300.137)"/><rect class="a" width="7.323" height="33.846" rx="3.662" transform="translate(539.915 328.589) rotate(-90)"/><rect class="a" width="7.323" height="33.846" rx="3.662" transform="translate(539.915 282.21) rotate(-90)"/><rect class="a" width="7.323" height="33.846" rx="3.662" transform="translate(539.915 307.461) rotate(-90)"/></g><g transform="translate(-225.308 -273.469)"><rect class="a" width="7.323" height="53.702" rx="3.662" transform="translate(497.282 274.887)"/><rect class="a" width="7.323" height="53.702" rx="3.662" transform="translate(523.805 274.887)"/><rect class="a" width="7.323" height="28.452" rx="3.662" transform="translate(510.543 293.23)"/><rect class="a" width="7.323" height="33.846" rx="3.662" transform="translate(497.282 321.682) rotate(-90)"/></g><g transform="translate(-225.308 -273.469)"><rect class="a" width="7.323" height="33.846" rx="3.662" transform="translate(454.76 282.21) rotate(-90)"/><rect class="a" width="7.323" height="53.702" rx="3.662" transform="translate(468.022 274.887)"/></g><path class="a" d="M225.308,281.088l3.893-2.661-3.893-2.654v-.7l4.361,2.979h3.323v1.292h-3.2l-4.484,3.069Z" transform="translate(-225.308 -273.469)"/><g transform="translate(-225.308 -273.469)"><rect class="a" width="7.323" height="33.846" rx="3.662" transform="translate(258.912 274.887)"/><rect class="a" width="7.323" height="37.78" rx="3.662" transform="translate(232.389 290.809)"/><rect class="a" width="7.323" height="33.846" rx="3.662" transform="translate(232.389 308.733) rotate(-90)"/><path class="a" d="M262.573,274.887H236.05a3.661,3.661,0,0,0,0,7.323h26.523a3.661,3.661,0,1,0,0-7.323Zm-23.746,6.094h-2.963v-1.695h2.963Zm0-2.93h-2.963v-1.7h2.963Z"/></g></svg>