<svg xmlns="http://www.w3.org/2000/svg" width="76.295" height="172.044" viewBox="0 0 76.295 172.044"><defs><style>.a{fill:#262727;}</style></defs><g transform="translate(-1280.676 -337.271)"><path class="a" d="M1343.591,337.271h-62.915V509.315h76.295V337.271ZM1354.6,506.943h-71.55v-167.3h71.55Z"/><path class="a" d="M1284.947,341.217V505.369H1352.7V341.217h-67.753Zm28.022,4.744h11.487v7.589h-1.326a17.661,17.661,0,0,0-8.612,0h-1.549Zm5.855,9.428a16,16,0,0,1,1.6.081,12.641,12.641,0,0,1,8.955,5.124l-10.809,9.788-10.828-9.814a12.26,12.26,0,0,1,4.529-3.752A15.8,15.8,0,0,1,1318.824,355.389Zm12.785,7.257c.042.041.084.085.125.127a8.111,8.111,0,0,1,.634.728,10.058,10.058,0,0,1,1.04,1.708c.029.06.057.122.085.183.113.241.217.491.316.745.031.079.063.157.092.237.116.319.225.644.32.978l.009.032c.084.3.147.606.214.913A15.784,15.784,0,0,1,1331,381.529l-3.08-2.761-3.968-3.557-3.816-3.421,10.745-9.769A6.483,6.483,0,0,1,1331.609,362.646Zm-41.315,84.515,6.192-5.056,3.458-2.823,5.367-4.382c3.667,2.3,5.946,4.918,5.118,9.412a21.523,21.523,0,0,0,.049,5.872c.428,4.432-.409,8.238-4.988,10.664Zm35.272-67.763,3.936,3.522c-.073.133-.169.246-.247.374-.305.265-.624.514-.949.757-.107.079-.216.157-.325.235-.227.16-.459.313-.694.462-.193.121-.387.239-.584.352-.224.129-.449.253-.679.371s-.469.229-.707.336c-.086.039-.172.076-.259.113a15.915,15.915,0,0,1-2.654.871h0c-.447.1-.9.186-1.362.254-.161.022-.32.049-.483.067s-.342.033-.514.048c-.4.031-.807.056-1.218.056a15.841,15.841,0,0,1-10.983-4.426c3.642-3.287,7.094-6.4,10.714-9.667C1320.932,375.25,1323.257,377.332,1325.566,379.4Zm-.932,73.617c-.07.963-1.232,2.559-2.011,2.635-.952.092-1.912.132-2.879.154-.307-.016-.61-.047-.92-.047-.438,0-.867.035-1.3.066-1.521-.011-3.074-.047-4.691-.047v-15.6c3.345,0,6.515-.17,9.643.116a3.362,3.362,0,0,1,2.156,2.412A71.059,71.059,0,0,1,1324.634,453.015Zm3.969,8.5c.39.349.771.715,1.135,1.11l-11.158,10.088-10.985-9.934a15.855,15.855,0,0,1,21.008-1.264Zm-9.779-23.813a15.861,15.861,0,0,1-11.211-4.632l10.8-8.871,11.16,8.959a10.508,10.508,0,0,1-.954,1.145A15.82,15.82,0,0,1,1318.824,437.7Zm-.478-16.158-8.056-6.441-3.945-3.153c.4-.5.811-.972,1.237-1.415a15.955,15.955,0,0,1,1.291-1.147c.121-.1.249-.185.373-.279.348-.262.7-.515,1.073-.749.132-.083.266-.163.4-.243q.6-.355,1.231-.66c.1-.05.207-.1.313-.151a16.093,16.093,0,0,1,1.638-.643c.26-.085.526-.154.792-.226.195-.053.39-.106.588-.151.235-.055.472-.1.711-.145q.4-.072.811-.124c.189-.025.377-.052.569-.069.479-.044.962-.074,1.452-.074a15.8,15.8,0,0,1,6.675,1.487,17.355,17.355,0,0,1,5.11,4.174c-2.03,1.725-4.038,3.485-6.1,5.174C1322.532,418.32,1320.5,419.857,1318.346,421.543Zm6.157-31.15v13.068H1312.85V390.393H1324.5Zm-8.491-17.685c-3.188,2.884-6.388,5.752-9.552,8.6a15.845,15.845,0,0,1-.955-18.684c.21-.226.416-.456.645-.658,1.75,1.541,3.56,3.112,5.343,4.714s3.557,3.249,5.347,4.887A8.4,8.4,0,0,1,1316.012,372.708Zm-9.611,11.975c1.531,2.484,3.625,4.639,3.862,6.979.966,9.533.924,12.136-2.3,15.448a18.3,18.3,0,0,0-2.662,2.412c-.318.267-.647.542-1,.834l-14.273-11.42,16.027-14.564C1306.169,384.479,1306.288,384.578,1306.4,384.683Zm-1.4,29.25a5.031,5.031,0,0,1,1.574.882q1.434,1.116,2.871,2.26c2.331,1.851,4.7,3.768,7.31,5.847l-10.523,8.561a15.109,15.109,0,0,1-.9-1.31c-.032-.052-.062-.105-.094-.158-.267-.443-.518-.9-.744-1.365h0a16.009,16.009,0,0,1-1.147-3.214c-.017-.074-.031-.148-.047-.222-.1-.45-.18-.908-.242-1.372-.017-.132-.037-.263-.05-.4a15.388,15.388,0,0,1-.1-1.658A15.8,15.8,0,0,1,1305,413.933Zm1.2,50.453c1.652,1.452,3.349,2.926,5.025,4.43,1.819,1.634,3.612,3.3,5.787,5.287-3.661,3.332-7.2,6.551-10.7,9.74a15.811,15.811,0,0,1-.107-19.457Zm12.387,11.133,10.663,9.631a10.047,10.047,0,0,1-2.147,2.456,15.832,15.832,0,0,1-18.393-1.282,11.418,11.418,0,0,1-.9-1.088C1311.455,481.953,1314.911,478.838,1318.591,475.519Zm1.549-1.42,10.9-9.9a6.679,6.679,0,0,1,.721.617,15.791,15.791,0,0,1,.562,17.612,7.859,7.859,0,0,1-1.288,1.348c-.449-.335-.96-.654-1.4-1.051C1326.558,479.943,1323.493,477.147,1320.14,474.1Zm10.345-14.129c-.191-.158-.4-.3-.592-.448-2.814-2.269-3.674-5.148-3.26-8.789.344-3.024-.053-6.126.148-9.176A7.348,7.348,0,0,1,1328.17,438a9.763,9.763,0,0,1,.85-1.043,18.263,18.263,0,0,0,1.471-1.105c1.368-.608,2.864-.144,4.679,1.593,3.582,3.427,7.682,6.312,11.823,9.645l-15.223,13.7A14.487,14.487,0,0,1,1330.485,459.97Zm.912-28.463c-.079.071-.15.158-.232.224-1.718-1.367-3.508-2.795-5.3-4.217-1.818-1.44-3.641-2.874-5.834-4.6l11.987-9.79a4.542,4.542,0,0,1,.349.346,15.79,15.79,0,0,1-.967,18.04Zm1.322-21.577a18.466,18.466,0,0,0-2.813-2.655,16.351,16.351,0,0,1,1.658-22.4l15.167,13.637Zm-22.585-63.969c.963,5.432.811,7.619-1.592,10.232a18.375,18.375,0,0,0-2.857,2.422l-14.13-12.654Zm-20.443,1.027,14.454,13.09c-1.709,3.894-4.827,3.842-8.12,3.8-3.547-.05-5.377-.066-6.334-.888Zm0,19.159h10.6v11.541h-10.6Zm0,14.258a2.23,2.23,0,0,1,.9-.321,48.868,48.868,0,0,1,9.148.013c1.576.221,2.968,1.753,4.793,2.916l-14.842,13.5Zm0,20.907,12.932,10.309a10.312,10.312,0,0,0-.584,1.032c-.061.124-.112.259-.17.387-.113.248-.225.5-.325.759-.062.164-.115.338-.172.508-.082.242-.164.482-.236.734-.055.192-.1.392-.15.589-.06.242-.12.482-.171.73-.045.217-.083.439-.121.661-.041.237-.081.473-.114.715s-.061.485-.087.73c-.024.228-.046.456-.064.686-.021.265-.037.529-.049.8q-.014.32-.02.641c-.006.288-.008.575-.005.864,0,.19.009.379.015.569.011.315.024.628.046.943.01.155.026.31.039.465.03.346.063.689.106,1.032.013.107.031.212.046.318.054.387.111.771.182,1.15l.015.068a17.254,17.254,0,0,0,2.512,6.52,9.11,9.11,0,0,0,.578.779l-10.931,9.034-3.272,2.7Zm0,48.082,4.271,3.871.995.9,4.366,3.957,4.871,4.416c-4.351,5.465-9.627,2.23-14.5,3.329V449.394Zm10.642,18.415v11.753h-10.642V468.409a2.28,2.28,0,0,1,1.088-.515C1293.8,467.688,1296.841,467.809,1300.333,467.809Zm-10.642,14.369c2.839-1.638,11.988.347,14.645,3.358l-14.645,13.33Zm19.771,17.207a3.107,3.107,0,0,1-1.877,1.239h-3.047a5.949,5.949,0,0,0-1.388-.149c-.868.039-1.734.1-2.6.149h-9.509l-.054-.171,14.565-13.2C1310.882,490.474,1312.021,493.832,1309.462,499.385Zm14.925,1.239h-9.495a3,3,0,0,1-1.481-1.468,45.462,45.462,0,0,1-.955-6.939h4.384a17.477,17.477,0,0,0,3.968,0h3.579Zm2.556,0c-.093-3.16-1.121-7.789,1.65-11.149a18.425,18.425,0,0,0,2.845-2.225c.062-.032.112-.069.176-.1,3.673,4.5,10.09,7.562,12.789,13.474Zm21.013-1.513-15.041-13.427a18.367,18.367,0,0,0,1.276-1.765c4.094-3.547,9.082-1.25,13.765-2.04Zm0-19.514h-11.348c0-.443-.006-.887-.01-1.33a17.857,17.857,0,0,0,.1-8.059c.009-.127.01-.255.02-.382.058-.737,1.449-1.882,2.3-1.954,2.813-.236,5.666-.105,8.937-.1Zm0-14c-4.873-.478-10.037,2.051-14.579-2.581-.118-.155-.228-.317-.351-.468l14.93-13.691Zm0-20.5-14.493-11.53a22.308,22.308,0,0,0,3.647-11.781,18.189,18.189,0,0,0-.949-5.774c-.366-1.685-.829-3.4-1.348-5.155l13.143-10.744Zm0-48.23-14.939-13.486c4.206-5.942,9.867-2.35,14.939-3.628Zm0-19.182h-11.2v-2.828a18.076,18.076,0,0,0,0-7.11v-1.6h11.2Zm0-14.166c-7.97,1.016-10.706.9-13.4-1.484a18.406,18.406,0,0,0-1.418-2.073c.4-.358.8-.719,1.2-1.077q3.008-2.7,6.024-5.409c2.371-2.132,4.75-4.274,7.589-6.828Zm-2.414-17.559-9.263,8.4-.47.426-4.016,3.642a18.366,18.366,0,0,0-3.889-2.975c-1.694-2.748-1.186-6.092-.909-9.492h18.547Z"/></g></svg>