<svg xmlns="http://www.w3.org/2000/svg" width="76.295" height="172.044" viewBox="0 0 76.295 172.044"><defs><style>.a{fill:#e23728;}</style></defs><g transform="translate(-1431.909 -188.38)"><path class="a" d="M1431.909,188.38h0V360.424H1508.2V188.38h-76.295Zm73.922,169.672h-71.55v-167.3h71.55v167.3Z"/><path class="a" d="M1436.179,192.326V356.478h67.754V192.326h-67.754Zm9.627,80.149c.013,1.33.014,2.661.012,4.034s-.007,2.791-.007,4.294h-4.887V268.45C1445.74,267.72,1445.763,267.8,1445.806,272.475Zm-3.546-6.816q-.642-.078-1.336-.234V244.536a13.85,13.85,0,0,1,1.817-2.215c1.407-1.518,3.024-2.841,4.528-4.225a11.653,11.653,0,0,1,7.6,10.592,14.038,14.038,0,0,1,.005,1.437,13.446,13.446,0,0,1-2.741,7.659,32.106,32.106,0,0,0-3.19,4.488A6.045,6.045,0,0,1,1442.26,265.659Zm3.677-63.921c-.106,2.368-1.484,2.621-5.013,2.111V197.07h4.452c.158.831.287,1.572.382,2.231A13.466,13.466,0,0,1,1445.937,201.738Zm23.413,2.74a7.429,7.429,0,0,1-.822,3.869c-.7,1.281-1.614,2.447-2.368,3.7a9.011,9.011,0,0,1-3.482,3.474,6.4,6.4,0,0,1-.788.343,5.828,5.828,0,0,1-1.624.333,5.654,5.654,0,0,1-.823-.012,6.084,6.084,0,0,1-1.643-.38,6.841,6.841,0,0,1-.807-.37,9.4,9.4,0,0,1-3.007-2.684c-.4-.536-.771-1.112-1.157-1.666a9.469,9.469,0,0,0-1.276-1.538q-.344-.319-.649-.647a10.907,10.907,0,0,1-2.728-5.02,17.091,17.091,0,0,1-.015-6.813h17.093a5.911,5.911,0,0,1,1.212.851A9.629,9.629,0,0,1,1469.35,204.478Zm14.283,19.725a8.979,8.979,0,0,1-.164,1.069,6.171,6.171,0,0,1-.7,1.829,6.3,6.3,0,0,1-1.279,1.523,9.421,9.421,0,0,1-.883.687,16.967,16.967,0,0,1-2.309,1.3c-1.571.752-3.55,1.512-6.017,2.394q.285-.907.551-1.806t.522-1.786a64.55,64.55,0,0,1,3.5-10.094c.593-1.233,3.959-1.132,6.321-1.707.229,1.544.4,2.883.472,4.059.03.47.046.914.045,1.335S1483.668,223.827,1483.633,224.2Zm-8.515,15.474c2.979,1.479,5.593,2.76,8.073,4.256.684.412.712,2.156.778,3.3.117,2.04.033,4.093.033,6.059-6.3,1.106-6.321,1.113-8.065-3.993-.649-1.9-1.277-3.816-1.963-5.918-.513-1.573-1.057-3.248-1.67-5.115.617.313,1.213.612,1.8.9ZM1451.4,273.256c-.967-.021-1.931-.038-2.889-.039h-.015a9.728,9.728,0,0,1-.6-3.1,7.957,7.957,0,0,1,.7-3.4,11.341,11.341,0,0,1,.794-1.477c1.046-1.662,2.448-3.132,3.563-4.707,1.542-2.176,2.434-4.957,6.214-4.787a9.872,9.872,0,0,1,1,.1c.1.014.2.03.291.048.264.046.525.105.784.172.14.036.278.076.416.118.208.063.415.133.619.208q.254.095.5.2c.1.042.195.088.292.133a11.8,11.8,0,0,1,1.8,1.035c3.324,2.329,5.425,6.348,4.357,10.363-.534,2.007-3.176,4.6-5.128,4.859a60.6,60.6,0,0,1-9.1.349h0C1453.8,273.312,1452.593,273.281,1451.4,273.256Zm3.016-32.552c-.242-.186-.471-.372-.669-.534-1.414-1.155-2.7-2.462-4.1-3.756a3.955,3.955,0,0,1,.28-.716c4.758-5.443,6.421-6.475,12.513-2.991,1.406.8,3.047,1.849,5.017,3.135-.967.516-1.912,1.028-2.845,1.532-2.8,1.514-5.47,2.96-8.223,4.236C1455.971,241.8,1455.137,241.259,1454.412,240.7Zm9.83,11.787c-.165.5-1.155.821-2.087,1.02-.31.067-.614.119-.879.16a11.69,11.69,0,0,1-1.98.1c-.661-.013-1.317-.051-1.949-.051a20.218,20.218,0,0,1-.7-4.2c-.231-5.432,3.055-8.294,11.6-10.92C1466.9,243.423,1465.728,248.009,1464.242,252.491Zm4.093-19.047c-1.482-.748-2.855-1.418-4.15-2.057q-.648-.319-1.27-.631c-.831-.416-1.631-.825-2.409-1.242s-1.535-.841-2.279-1.287a1.313,1.313,0,0,1-.271-.22,5.182,5.182,0,0,1-.981-2.838c-.093-1.131-.107-2.268-.1-3.414s.042-2.3.042-3.462c6.568-.55,6.568-.55,8.268,4.958Zm2.173,37.842,3.034,3.125-3.215,3.559-2.764-3.592Zm-3.64-16.667h0q-.068-.364-.1-.734v-.006q-.033-.363-.035-.731c0-.012,0-.024,0-.035q0-.354.027-.713c0-.027,0-.054.008-.081q.029-.337.082-.68c.007-.049.018-.1.026-.148.036-.208.076-.418.126-.629.019-.082.043-.165.064-.247.047-.183.094-.366.151-.551.041-.133.09-.269.136-.4s.091-.276.143-.416c.1-.28.22-.562.346-.848.254-.576.469-1.169.673-1.774s.394-1.222.6-1.847a19.8,19.8,0,0,1,1.609-3.8c.252.737.526,1.471.8,2.205.095.249.189.5.285.746l.694,1.791,0,.01h0a34.279,34.279,0,0,1,2.318,8.1c.265,2.188-2.37,4.726-3.747,7.2C1468.623,258.945,1467.28,256.845,1466.868,254.619Zm7.486-36.344a9.189,9.189,0,0,1-1.136,4.389c-1.234,2.4-1.737,5.167-3.38,7.817-.791-2.662-1.847-5.305-2.607-7.971-.152-.533-.292-1.067-.416-1.6a21.475,21.475,0,0,1-.51-3.228,3.651,3.651,0,0,1,0-.458,6.138,6.138,0,0,1,.732-2.362c.324-.644.728-1.3,1.153-1.967.318-.5.648-1.006.965-1.518s.62-1.029.886-1.553C1472.5,212.643,1474.308,215.269,1474.354,218.275ZM1446.3,206.933c3.067,3.123,6.236,6.474,8.135,10.341a9.8,9.8,0,0,1,1.024,4.384,10.319,10.319,0,0,1-.065,1.122c-.468,4.127-3.424,8.335-8.282,11.876-1.824-2.006-3.753-4.051-5.581-6.183a5.951,5.951,0,0,1-.6-.856v-21.4C1443.181,206.369,1445.392,206.013,1446.3,206.933Zm-3.05,26.931,1,1.125.9,1.015c-.608.676-1.243,1.385-1.937,2.157-.346.387-.708.789-1.087,1.212l-1.2,1.333v-9.461C1441.776,232.205,1442.546,233.074,1443.246,233.864Zm5.4,48.44c-.045-.108-.092-.214-.132-.323-.074-.2-.141-.4-.2-.6-.036-.125-.066-.251-.1-.376-.047-.2-.1-.393-.129-.594-.039-.237-.063-.48-.083-.723-.019-.221-.027-.446-.031-.672,0-.208-.007-.415,0-.628.006-.157.017-.317.029-.477.019-.243.045-.488.077-.738.018-.135.033-.269.054-.406.062-.392.133-.789.225-1.2,5.353,0,10.7-.2,16.031.073,3.386.175,5.964,5.668,4.84,9.574-1.488,5.169-5.208,8.039-10.517,7.635a7.1,7.1,0,0,1-4.109-2.2c-1.672-1.749-2.77-4.035-4.382-5.855a9.381,9.381,0,0,1-1.3-1.879h0C1448.816,282.716,1448.729,282.51,1448.641,282.3ZM1465.63,300.7c.778,2.941,1.519,5.892,2.267,8.841a4.954,4.954,0,0,1-.249,1.015c-3.256-1.725-6.423-3.28-9.439-5.086a3.784,3.784,0,0,1-1.453-2.605c-.207-2.281-.068-4.594-.068-6.812C1463.122,294.356,1464.093,294.879,1465.63,300.7Zm-8.279,6.994c3.305,1.582,6.48,3.435,10.333,5.533-3.858,1.96-6.973,3.638-10.186,5.1a2.925,2.925,0,0,1-2.523-.361c-1.88-1.514-3.569-3.265-5.609-5.184a64.22,64.22,0,0,1,5.077-4.669A3.4,3.4,0,0,1,1457.351,307.689Zm4.906,10.8a49.22,49.22,0,0,0,6.067-2.978c-1.522,5.06-2.81,9.123-3.957,13.226-.916,3.278-3.582,2-5.515,1.978-.655-.008-1.594-1.9-1.873-3.053C1455.859,323.02,1457.6,319.963,1462.257,318.484Zm4.389-23.382c-.192-2.214,2.153-4.649,3.5-7.275,3.56,3.493,6.089,6.536,3.647,11.419-1.389,2.778-2.092,5.9-3.478,9.964C1468.809,303.786,1467.029,299.505,1466.646,295.1Zm10.422,1.927c.776-1.467,4.156-1.556,6.769-2.41.5,10.786-.732,12.371-11.432,15.608C1473.952,305.581,1474.958,301.013,1477.068,297.029Zm-4.47,18.728c3.666,1.794,6.949,3.294,10.1,5.038.59.326.849,1.619.895,2.485.12,2.3.041,4.607.041,6.872-6.416,1.359-6.627,1.242-8.365-4.476-.885-2.911-1.78-5.819-2.664-8.73A9.068,9.068,0,0,1,1472.6,315.757Zm10.54,2.6c-3.318-1.531-6.539-3.271-10.313-5.2,2.24-1.164,3.885-1.976,5.49-2.861,6.893-3.8,6.889-3.808,12.956,2.71-1.829,1.674-3.615,3.463-5.586,5.017A2.956,2.956,0,0,1,1483.138,318.354Zm-8.184-28.5c-1.42-2.148-2.937-4.594-3.232-7.046-.543-4.519,2.395-7.22,6.924-7.224,4.291,0,8.582.029,12.872.063a2.765,2.765,0,0,1,.771.285c.666,3.319.52,6.39-2.089,9.091a48.059,48.059,0,0,0-3.673,5.044C1483.383,294.326,1477.9,294.319,1474.954,289.856Zm1.524-16.581c-2.745-.116-5.378-4.876-4.979-8.327.544-4.712,6.2-9.447,10.885-9.093.6.045,1.479-.049,1.759.3a94.523,94.523,0,0,1,7.735,10.243c1,1.673.6,4.186.9,6.942C1486.965,273.339,1481.714,273.5,1476.478,273.275Zm8.158-31.726a28.439,28.439,0,0,1-7.413-3.26h0l-.035-.02-1.647-.931c-.249-.141-.495-.278-.748-.419-.713-.4-1.437-.8-2.191-1.183.769-.377,1.5-.739,2.217-1.095,2.463-1.221,4.659-2.321,6.823-3.323q.8-.372,1.606-.729a2.9,2.9,0,0,1,2.488.4c1.886,1.525,3.59,3.276,5.293,4.873-.181.471-.2.759-.355.89C1488.646,238.474,1486.2,241.909,1484.636,241.549Zm-.244-26.24c-1.751,2.151-7.587.535-9.159-1.994-.97-1.56-1.963-3.109-2.871-4.705a7.544,7.544,0,0,1-.979-3.347,8.666,8.666,0,0,1,3.558-7.355,7.834,7.834,0,0,1,1.48-.838h15.841a12.968,12.968,0,0,1,.591,4.4,11.344,11.344,0,0,1-.837,3.743c-.156.387-.331.764-.522,1.134C1489.776,209.674,1486.769,212.388,1484.392,215.309Zm-43.468,67.736c.572.029,1.142.027,1.687.022s1.065-.014,1.54,0a3.041,3.041,0,0,1,2.136.614l.011.012q.63.684,1.251,1.387a46.318,46.318,0,0,1,6.553,9.173c2.8,5.413-.017,11.889-6.641,16.811-2.016-1.877-4.1-3.747-6.084-5.712a2.894,2.894,0,0,1-.453-.619V283.045Zm4.944,29.695-4.944,4.635v-9.226C1442.792,309.884,1444.269,311.254,1445.868,312.74Zm-.353,38.993h-4.591v-6.676h4.591Zm-4.591-9.606V321.859a36.342,36.342,0,0,1,2.644-3.411c1.071-1.487,2.213-2.923,3.2-4.22,7.7,5.194,9.89,9.63,7.727,16.868-.858,2.87-3.725,5.083-5.331,7.8C1447.257,342.123,1444.691,343.092,1440.924,342.127Zm27.7,5.27a12.8,12.8,0,0,1-3.328,4.336H1448.2c-2.1-8.314,3.756-12.782,7.849-17.864,1.644-2.041,7.891-.662,9.312,1.619.971,1.559,2.289,3.047,2.734,4.753C1468.7,342.577,1469.607,345.637,1468.62,347.4Zm1.509-28.755c4.945,7.581,5.074,13.334.307,20.2C1465.046,331.776,1465.03,329.264,1470.129,318.642Zm22.234,33.091h-17.052c-3.169-2.13-4.964-7.657-3.128-11.048.7-1.288,1.557-2.488,2.3-3.753,3.042-5.188,8.432-5.561,12.142-.826.83,1.059,1.635,2.138,2.479,3.185C1493.026,344.164,1493.459,345.436,1492.363,351.733Zm6.825,0h-3.967v-6.65h3.967Zm0-9.73c-4.956.275-10.424-3.758-12.619-10.072a16.644,16.644,0,0,1-.262-10.089c.953-2.83,4.049-4.939,6.826-8.069,2.324,2.574,4.149,4.548,5.91,6.578.047.055.1.118.145.175Zm0-24.7-4.4-4.613,4.4-4.2Zm0-12.584a14.531,14.531,0,0,1-6.423,6.078c-1.792-1.574-3.67-3.127-5.421-4.814a4.53,4.53,0,0,1-1.143-2.173c-1.913-8.5,3.084-14.371,8.045-20.075.779-.9,3.25-.631,4.833-.337a.333.333,0,0,1,.109.068Zm0-24.167c-.836.592-2.212.56-4.215-.071V268.341h4.215Zm0-15.129c-5.129.35-9.313-2.867-12.421-10.444a15.76,15.76,0,0,1-.318-10.038c.873-2.719,3.914-4.74,6.324-7.432,2.4,2.264,4.39,4.05,6.253,5.96.058.059.108.136.162.2Zm0-25-3.586-4.537,3.586-3.958Zm0-12.045a5.374,5.374,0,0,1-.348.488c-1.663,1.937-3.588,3.651-5.255,5.3-5.138-2.064-7.3-5.5-7.778-9.416a15.961,15.961,0,0,1-.047-3.195l0-.043c.039-.479.1-.962.177-1.447.017-.1.032-.21.05-.316.085-.505.183-1.011.3-1.517q.078-.328.185-.65c1.072-3.209,4.289-5.877,6.206-8.961a6.33,6.33,0,0,1,.506-.7c.066-.079.137-.142.205-.215.111-.119.222-.239.338-.341.091-.08.187-.145.281-.215s.195-.146.295-.208a3.84,3.84,0,0,1,.34-.18c.088-.043.175-.086.264-.121a3.861,3.861,0,0,1,.4-.132c.075-.021.151-.042.228-.058a4.4,4.4,0,0,1,.459-.076c.06-.007.12-.011.18-.016a5.183,5.183,0,0,1,.53-.012c.037,0,.074,0,.111.006.2.011.407.029.616.06.187.029.374.056.565.1a2.773,2.773,0,0,1,1.188.76Zm0-24.309-.275.019h0l-3.7.249V197.07h3.974v7Z"/></g></svg>