<svg xmlns="http://www.w3.org/2000/svg" width="217.507" height="275.856" viewBox="0 0 217.507 275.856"><defs><style>.a{opacity:0.15;}.b{fill:#e23728;}.c{opacity:0.3;}.d{fill:#535453;}.e{opacity:0.45;}.f{fill:#502526;}</style></defs><g transform="translate(-23.892 -817.347)"><g class="a"><path class="b" d="M92.591,956.546c-1.1-.75-2.148-1.578-3.336-2.462q-2.722,2.639-5.837,5.654L77.817,954a42.57,42.57,0,0,1-3.7,2.563,2.082,2.082,0,0,0-1.239,1.542,3,3,0,0,0,.971,2.777q4.533,4.529,9.064,9.058a6.369,6.369,0,0,0,.509.417c3.085-3.075,6.147-6.1,9.159-9.165a3.649,3.649,0,0,0,.8-1.609A2.79,2.79,0,0,0,92.591,956.546Z"/><path class="b" d="M74.542,950.7c-2.584-2.473-5.389-4.738-5.179-8.71-3.688-.488-4.436-.863-7.058-3.484-.477-.477-.982-.93-1.419-1.443-.412-.483-.775-.436-1.223-.077a3.784,3.784,0,0,0-1.566,3.055q-.009,6.027,0,12.054a4.685,4.685,0,0,0,.093.645c4.563,0,9.062.024,13.561-.015A3.046,3.046,0,0,0,74.542,950.7Z"/><path class="b" d="M57.072,922.034c-.463-.645-.894-1.21-1.287-1.8s-.741-1.2-1.113-1.793a.827.827,0,0,0-.217-.277c-1.762-1.087-3.349-1.076-4.7.313-2.865,2.951-5.8,5.829-8.711,8.74-.2.2-.374.417-.551.616,3.1,3.122,6.129,6.215,9.215,9.256a3.167,3.167,0,0,0,1.627.754c1.184.2,2.423.21,3.27-.844.892-1.109,1.681-2.3,2.681-3.686l-5.815-5.71Z"/><path class="b" d="M107.751,937.685c-.721-1.01-1.058-.994-1.933-.106-2.16,2.192-4.173,4.609-7.555,4.739-.678,3.149-.816,3.4-3.013,5.638l-1.823,1.855c-1.225,1.247-1.156,1.916.432,2.774a4.673,4.673,0,0,0,2,.533c2.052.066,4.108.02,6.163.019h6.454c0-4.663.026-9.187-.031-13.71A3.352,3.352,0,0,0,107.751,937.685Z"/><path class="b" d="M112.791,876.243H53.525L23.892,927.569,53.525,978.9h59.266l29.633-51.326Zm6.43,63.906c-1.814,1.754-4.155,2.178-6.747,1.83v15.343H97.616a19.339,19.339,0,0,1-.022,2.683,7.078,7.078,0,0,1-2.041,4.067q-5.924,5.875-11.892,11.707a1.828,1.828,0,0,1-.28.181,5.477,5.477,0,0,1-.428-.352q-5.8-5.794-11.6-11.594c-2.16-2.165-2.585-3.344-2.481-6.878H67.65c-4.245,0-8.49-.015-12.734.022-.806.008-1.027-.238-1.021-1.034.034-4.405.013-8.81.011-13.216v-.973c-3.294.546-5.787-.638-7.968-2.893-3.4-3.511-6.9-6.928-10.349-10.386-.245-.245-.477-.5-.756-.8.277-.3.506-.557.751-.8,3.682-3.686,7.4-7.331,11.033-11.068a7.713,7.713,0,0,1,6.991-2.615,4.7,4.7,0,0,0,.508,0V897.961H68.9a7.68,7.68,0,0,1,2.58-6.829c3.712-3.608,7.339-7.3,10.994-10.97a12.545,12.545,0,0,0,.793-.984c.383.355.639.578.878.818q5.292,5.28,10.579,10.566c2.469,2.463,3.181,4.442,2.817,8h15.518V913.32a7.765,7.765,0,0,1,6.709,2.674c3.653,3.758,7.394,7.43,11.1,11.139.221.222.429.457.622.664-.047.126-.053.2-.093.24C127.343,932.083,123.336,936.172,119.221,940.149Z"/><path class="b" d="M114.04,917.311a1.673,1.673,0,0,0-1.332.483c-.962,1.28-1.8,2.653-2.757,4.1l5.894,5.786-5.989,5.948a25.279,25.279,0,0,1,1.945,2.9,1.943,1.943,0,0,0,1.553,1.205,3.53,3.53,0,0,0,3.342-1.006q4.252-4.268,8.517-8.524c.173-.174.319-.375.511-.6-3.305-3.228-6.547-6.434-9.853-9.574A3.389,3.389,0,0,0,114.04,917.311Z"/><path class="b" d="M100.751,918.5a3.728,3.728,0,0,0-3.54-.827c4.475,6.691,4.851,13.454.584,20.528a2.557,2.557,0,0,0,.926-.018,6.437,6.437,0,0,0,1.886-1.061c3.006-2.991,5.954-6.04,8.917-9.074a4.147,4.147,0,0,0,.339-.459C106.8,924.534,103.795,921.5,100.751,918.5Z"/><path class="b" d="M73.587,941.491a3.763,3.763,0,0,0,.834,3.254c3.012,3.069,6.082,6.081,9.21,9.193,3.27-3.271,6.5-6.485,9.711-9.728a2.689,2.689,0,0,0,.794-2.4C87.219,946.2,80.4,945.992,73.587,941.491Z"/><path class="b" d="M66.17,936.734a3.8,3.8,0,0,0,3.661.881c-4.384-6.794-4.662-13.557-.293-20.488a3.285,3.285,0,0,0-3.01,1.062q-4.49,4.5-8.988,9a5.645,5.645,0,0,0-.413.526C60.167,930.749,63.154,933.756,66.17,936.734Z"/><path class="b" d="M93.36,905.673c2.3,2.133,4.424,4.347,4.271,7.78,4.517.627,4.517.627,7.789,3.88l.344.338c1.2,1.184,1.734,1.142,2.674-.31a3.079,3.079,0,0,0,.592-1.5c.046-4.4.027-8.792.027-13.307-4.647,0-9.174-.041-13.7.045a3.558,3.558,0,0,0-2.006.977C92.4,904.411,92.438,904.816,93.36,905.673Z"/><path class="b" d="M93.368,913.832a3.952,3.952,0,0,0-1.3-3.831c-1.953-1.953-3.913-3.9-5.855-5.862-.919-.929-1.8-1.893-2.681-2.82-3.432,3.4-6.733,6.629-9.984,9.909a2.453,2.453,0,0,0-.634,2.475C79.793,909.343,86.558,909.513,93.368,913.832Z"/><path class="b" d="M83.038,914.512A12.249,12.249,0,0,0,70.4,927.185a13.749,13.749,0,0,0,13.756,13.6,12.313,12.313,0,0,0,12.248-12.494A13.7,13.7,0,0,0,83.038,914.512Z"/><path class="b" d="M60.583,918.583c1.054-1.074,2.1-2.121,3.121-3.185a6.911,6.911,0,0,1,4.349-2.247c.522-.054.793-.25.845-.816a6.774,6.774,0,0,1,2.159-4.289c1.215-1.189,2.417-2.392,3.633-3.6a3.726,3.726,0,0,0-3.473-2.283q-6.074-.011-12.146,0a4.134,4.134,0,0,0-.577.083c0,4.581-.039,9.108.026,13.634A2.95,2.95,0,0,0,60.583,918.583Z"/><path class="b" d="M73.376,898.267a9.883,9.883,0,0,1,4.335,3.309l5.881-5.928,5.672,5.844c.563-.459,1.042-.894,1.567-1.265.547-.387,1.142-.7,1.706-1.068a1.653,1.653,0,0,0,.487-.434,3.7,3.7,0,0,0-.362-4.383c-.371-.4-.772-.773-1.157-1.16l-8.086-8.117c-3.339,3.334-6.589,6.535-9.769,9.8a3.435,3.435,0,0,0-.791,1.895C72.8,897.257,73.042,898.135,73.376,898.267Z"/></g><g class="c"><path class="d" d="M152.5,817.347l-29.633,51.326L152.5,920h59.266L241.4,868.673l-29.633-51.326Zm53.541,10.376c-.256,3.053-.528,6.3-.8,9.579l-5.4,1.052c-.534-1.712-1.069-3.429-1.587-5.088Zm-39.717,5.512c-.571,1.612-1.191,3.366-1.806,5.1l-5.333-1.121c-.261-3.236-.526-6.531-.77-9.555Zm-33.041,35.487L143,864.5c1.171,1.36,2.482,2.881,3.747,4.351l-3.826,4.375ZM158.155,910.4c.261-3.122.532-6.373.807-9.682l5.387-1.059,1.663,5.332Zm39.777-5.427c.576-1.626,1.2-3.382,1.836-5.187l5.307,1.105c.265,3.337.528,6.633.769,9.652Zm32.992-35.679-9.71,4.225c-1.172-1.357-2.484-2.876-3.756-4.347l3.822-4.38Zm-11.945-20.28c3.845,7.56-.126,17.458-9.3,20.313,5.778,1.925,9.191,5.827,10.338,11.558a13.19,13.19,0,0,1-1.9,9.878,13.988,13.988,0,0,1-10.349,6.665,14.163,14.163,0,0,1-11.681-3.643c.922,6.187-.91,11.267-6,14.79-4.917,3.405-10.224,3.519-15.5.681a13.363,13.363,0,0,1-5.958-6.521,13.573,13.573,0,0,1-.787-8.911c-4.33,3.386-8.937,4.355-13.978,2.8a13.973,13.973,0,0,1-8.468-7.1c-3.744-7.124-.495-17.314,9.157-20.485-5.386-1.808-8.971-5.235-10.237-10.725a13.65,13.65,0,0,1,1.657-10.292,14.056,14.056,0,0,1,10.227-7.01,13.673,13.673,0,0,1,11.8,3.5c-.957-6.241.924-11.327,6.044-14.858a13.648,13.648,0,0,1,15.245-.7c5.882,3.324,8.113,8.6,7.045,15.4,4.4-3.349,9.145-4.361,14.336-2.617A14.15,14.15,0,0,1,218.979,849.01Z"/><path class="d" d="M188.2,858.465c-4.074,2.842-8.1,3.056-12.05-.031.318,5.024-1.558,8.709-6.387,10.577,4.537,2.053,6.885,5.384,6.178,10.627A9.979,9.979,0,0,1,182.1,877.4a8.751,8.751,0,0,1,6.03,2.326,9.49,9.49,0,0,1,6.4-10.692C189.865,866.971,187.6,863.591,188.2,858.465Z"/><path class="d" d="M203.187,849.209a13.1,13.1,0,0,0-8.95-1.2,12.917,12.917,0,0,0-4.549-6.508,12.255,12.255,0,0,0-7.6-2.5c-6.018.138-9.845,3.341-12.093,8.776-.321-.05-.656-.095-.988-.156a12.1,12.1,0,0,0-7.4,1.031,12.562,12.562,0,0,0-4.939,18.52c1.2,1.733,1.2,1.733-.062,3.459a12.009,12.009,0,0,0-.492,13.177c3.208,4.994,7.856,6.867,13.772,6.053,2.206,5.574,6.173,8.919,12.259,8.929,5.951.01,9.792-3.314,12-8.693.026-.008.058-.029.085-.025.246.037.49.078.735.119a12.585,12.585,0,0,0,12.432-19.7c-1.1-1.579-1.1-1.579.037-3.143A12.451,12.451,0,0,0,203.187,849.209ZM206,875.773a9.046,9.046,0,0,1-1.245,7.113,9.166,9.166,0,0,1-13.744,1.672,9.145,9.145,0,0,1-2.208,7.605,8.858,8.858,0,0,1-7.233,3.162c-5.411-.242-8.662-4.407-8.574-10.964-3.033,2.256-6.271,2.856-9.745,1.379a8.814,8.814,0,0,1-4.749-4.716,9.273,9.273,0,0,1,5.934-12.276,9.121,9.121,0,1,1,8.7-15.493,9.189,9.189,0,0,1,2.94-8.336,8.677,8.677,0,0,1,6.228-2.429,8.965,8.965,0,0,1,6.931,3.437,9.31,9.31,0,0,1,1.831,7.653c3.022-2.412,6.154-3.057,9.564-1.66a9.023,9.023,0,0,1,5,4.843,9.257,9.257,0,0,1-5.928,12.3A9.153,9.153,0,0,1,206,875.773Z"/></g><g class="e"><path class="f" d="M113.462,990.551H54.2l-29.633,51.326L54.2,1093.2h59.266l29.633-51.326Zm-38.556,16.52q4.322-4.4,8.662-8.782c.051-.052.109-.1.167-.148q4.74,4.737,9.373,9.365-4.68,4.68-9.42,9.42a.693.693,0,0,1-.143-.112q-4.323-4.368-8.641-8.74C74.3,1007.463,74.421,1007.565,74.906,1007.071Zm-25.555,44.206-9.289-9.288,9.266-9.416,9.285,9.439Zm34.441,34.335-9.479-9.1c.265-.333.353-.469.465-.582q4.3-4.3,8.592-8.61c.286-.287.482-.287.767,0q4.461,4.425,8.936,8.836a.771.771,0,0,1,.079.1Zm28.389-14.131v.566c-.205.009-.364.022-.522.022q-8.14,0-16.281.007a.9.9,0,0,1-.7-.291q-5.466-5.478-10.943-10.944c-.126-.126-.234-.271-.382-.444-.168.161-.295.277-.418.4q-5.457,5.455-10.906,10.919a1.14,1.14,0,0,1-.9.362q-8.05-.015-16.1-.007h-.6v-.559q0-9.37-.008-18.741a1,1,0,0,1,.329-.777q4.849-4.828,9.684-9.672a3.211,3.211,0,0,0,.478-.508,1.706,1.706,0,0,1-.438-.233q-4.878-4.863-9.737-9.745a1.09,1.09,0,0,1-.3-.686q-.022-9.348-.012-18.7V1012c.184-.009.341-.024.5-.024q8.253,0,16.5.011a1.09,1.09,0,0,1,.688.288q5.209,5.131,10.4,10.287c.273.27.567.52.877.8.258-.23.5-.427.718-.645q5.262-5.207,10.515-10.421a1,1,0,0,1,.776-.331q8.118.017,16.236.008h.538v.528q0,9.3.007,18.607a1,1,0,0,1-.334.776q-4.848,4.83-9.681,9.674c-.114.115-.224.233-.355.37.124.131.231.251.344.365q4.837,4.839,9.682,9.674a1.049,1.049,0,0,1,.346.816Q112.173,1062.133,112.181,1071.481Zm6.042-20.163-9.351-9.35,9.261-9.407c.16.144.316.274.46.417q4.315,4.287,8.63,8.575a3.969,3.969,0,0,0,.373.291v.089Z"/><path class="f" d="M67.4,1039.467,81.057,1025.9c-.088-.1-.123-.152-.165-.194q-5.391-5.391-10.791-10.775a.907.907,0,0,0-.583-.228q-5.1,0-10.195.04c-.311,0-.621.038-.976.061-.026.575-.067,1.08-.068,1.585q-.024,6.887-.026,13.774a.841.841,0,0,0,.219.54q4.057,4.038,8.137,8.052C66.838,1038.985,67.088,1039.191,67.4,1039.467Z"/><path class="f" d="M67.267,1044.435c-.195.186-.348.326-.495.472q-4.1,4.063-8.2,8.123a1.046,1.046,0,0,0-.341.817q.017,7.378.007,14.759v.534c.159.013.261.028.362.028,3.653,0,7.305.006,10.958-.011a.966.966,0,0,0,.6-.289q5.247-5.222,10.475-10.462c.1-.1.2-.211.294-.317l-.154.1Z"/><path class="f" d="M99.577,1039.469q4.3-4.3,8.593-8.609a.914.914,0,0,0,.194-.594q.015-7.534.007-15.07v-.47c-.127-.014-.186-.027-.245-.027-3.637,0-7.275-.007-10.912.011a.977.977,0,0,0-.6.3q-5.277,5.253-10.539,10.521a2.258,2.258,0,0,1-.329.238L99.5,1039.522A.334.334,0,0,0,99.577,1039.469Z"/><path class="f" d="M108.123,1052.952q-2.82-2.84-5.664-5.655c-.973-.962-1.973-1.9-3.036-2.92l-13.681,13.584c.1.113.165.193.237.266q5.342,5.344,10.694,10.679a1.029,1.029,0,0,0,.662.252c3.517.016,7.035.012,10.552.01.146,0,.291-.013.457-.021.011-.125.027-.226.027-.327q0-7.668-.009-15.336A.843.843,0,0,0,108.123,1052.952Z"/><path class="f" d="M83.379,1028.347c-4.513,4.514-9.063,9.064-13.565,13.565l13.607,13.606,13.566-13.565C92.455,1037.423,87.9,1032.865,83.379,1028.347Zm-.062,18.233a4.614,4.614,0,0,1,.1-9.227,4.733,4.733,0,0,1,4.569,4.621A4.817,4.817,0,0,1,83.317,1046.58Z"/></g></g></svg>