<?xml version="1.0" encoding="UTF-8"?>
<svg width="918px" height="904px" viewBox="0 0 918 904" version="1.1" xmlns="http://www.w3.org/2000/svg" xmlns:xlink="http://www.w3.org/1999/xlink">
    <!-- Generator: Sketch 49.3 (51167) - http://www.bohemiancoding.com/sketch -->
    <title>Group 12</title>
    <desc>Created with Sketch.</desc>
    <defs></defs>
    <g id="主視覺" stroke="none" stroke-width="1" fill="none" fill-rule="evenodd">
        <g id="Group-12" fill="#169B64">
            <g id="Group-10" transform="translate(490.074348, 0.224642)">
                <path d="M60,169 C53,193.5 66.5,193.5 46.0358362,235.609227 C32.3930603,263.682045 17.0477816,287.812302 0,308 C30.6666667,296.666667 55.1666667,278.666667 73.5,254 C101,217 89.5,205 89.5,175 C89.5,155 96.1666667,130.666667 109.5,102 C81.1666667,130.333333 64.6666667,152.666667 60,169 Z" id="Path-2" transform="translate(54.750000, 205.000000) scale(1, -1) translate(-54.750000, -205.000000) "></path>
                <path d="M326.023124,183 C316.481977,225.5 318.023124,218.5 315.023124,227 C297.82795,275.719661 277.153575,306.219661 253,318.5 C287.360081,306.518079 314.881504,287.213873 335.564271,260.587381 C366.588422,220.647645 360.749297,209.447464 364.523124,187 C367.740192,167.864253 388.906858,139.53092 428.023124,102 C366.383889,127.666667 332.383889,154.666667 326.023124,183 Z" id="Path-2-Copy" transform="translate(340.511562, 210.250000) scale(-1, -1) translate(-340.511562, -210.250000) "></path>
                <path d="M178.911793,275.62259 C174.919173,293.129107 173.42194,316.637859 147.469909,370.157783 C130.168555,405.837732 114.863511,430.013399 101.554777,442.684783 C138.141738,432.458331 165.591001,413.117797 183.902568,384.663183 C211.369918,341.981261 224.372147,291.451476 227.908819,268.866628 C231.445492,246.281779 242.272005,171.897035 221.695497,110.66531 C194.079092,28.4842093 258.197073,-3.62229773 230.147501,16.8514194 C202.097928,37.3251364 158.496719,53.1839909 178.114701,135.830456 C191.428721,191.919644 181.497058,264.286931 178.911793,275.62259 Z" id="Path-2" transform="translate(169.485820, 226.769266) scale(1, -1) rotate(-19.000000) translate(-169.485820, -226.769266) "></path>
            </g>
            <g id="Group-10-Copy-3" transform="translate(475.932213, 449.944555)">
                <path d="M60,169 C53,193.5 66.5,193.5 46.0358362,235.609227 C32.3930603,263.682045 17.0477816,287.812302 0,308 C30.6666667,296.666667 55.1666667,278.666667 73.5,254 C101,217 89.5,205 89.5,175 C89.5,155 96.1666667,130.666667 109.5,102 C81.1666667,130.333333 64.6666667,152.666667 60,169 Z" id="Path-2" transform="translate(54.750000, 205.000000) scale(1, -1) translate(-54.750000, -205.000000) "></path>
                <path d="M326.023124,183 C316.481977,225.5 318.023124,218.5 315.023124,227 C297.82795,275.719661 277.153575,306.219661 253,318.5 C287.360081,306.518079 314.881504,287.213873 335.564271,260.587381 C366.588422,220.647645 360.749297,209.447464 364.523124,187 C367.740192,167.864253 388.906858,139.53092 428.023124,102 C366.383889,127.666667 332.383889,154.666667 326.023124,183 Z" id="Path-2-Copy" transform="translate(340.511562, 210.250000) scale(-1, -1) translate(-340.511562, -210.250000) "></path>
                <path d="M178.911793,275.62259 C174.919173,293.129107 173.42194,316.637859 147.469909,370.157783 C130.168555,405.837732 114.863511,430.013399 101.554777,442.684783 C138.141738,432.458331 165.591001,413.117797 183.902568,384.663183 C211.369918,341.981261 224.372147,291.451476 227.908819,268.866628 C231.445492,246.281779 242.272005,171.897035 221.695497,110.66531 C194.079092,28.4842093 258.197073,-3.62229773 230.147501,16.8514194 C202.097928,37.3251364 158.496719,53.1839909 178.114701,135.830456 C191.428721,191.919644 181.497058,264.286931 178.911793,275.62259 Z" id="Path-2" transform="translate(169.485820, 226.769266) scale(1, -1) rotate(-19.000000) translate(-169.485820, -226.769266) "></path>
            </g>
            <g id="Group-10-Copy" transform="translate(14.898591, 0.224642)">
                <path d="M60,169 C53,193.5 66.5,193.5 46.0358362,235.609227 C32.3930603,263.682045 17.0477816,287.812302 0,308 C30.6666667,296.666667 55.1666667,278.666667 73.5,254 C101,217 89.5,205 89.5,175 C89.5,155 96.1666667,130.666667 109.5,102 C81.1666667,130.333333 64.6666667,152.666667 60,169 Z" id="Path-2" transform="translate(54.750000, 205.000000) scale(1, -1) translate(-54.750000, -205.000000) "></path>
                <path d="M326.023124,183 C316.481977,225.5 318.023124,218.5 315.023124,227 C297.82795,275.719661 277.153575,306.219661 253,318.5 C287.360081,306.518079 314.881504,287.213873 335.564271,260.587381 C366.588422,220.647645 360.749297,209.447464 364.523124,187 C367.740192,167.864253 388.906858,139.53092 428.023124,102 C366.383889,127.666667 332.383889,154.666667 326.023124,183 Z" id="Path-2-Copy" transform="translate(340.511562, 210.250000) scale(-1, -1) translate(-340.511562, -210.250000) "></path>
                <path d="M178.911793,275.62259 C174.919173,293.129107 173.42194,316.637859 147.469909,370.157783 C130.168555,405.837732 114.863511,430.013399 101.554777,442.684783 C138.141738,432.458331 165.591001,413.117797 183.902568,384.663183 C211.369918,341.981261 224.372147,291.451476 227.908819,268.866628 C231.445492,246.281779 242.272005,171.897035 221.695497,110.66531 C194.079092,28.4842093 258.197073,-3.62229773 230.147501,16.8514194 C202.097928,37.3251364 158.496719,53.1839909 178.114701,135.830456 C191.428721,191.919644 181.497058,264.286931 178.911793,275.62259 Z" id="Path-2" transform="translate(169.485820, 226.769266) scale(1, -1) rotate(-19.000000) translate(-169.485820, -226.769266) "></path>
            </g>
            <g id="Group-10-Copy-2" transform="translate(0.049349, 450.651661)">
                <path d="M60,169 C53,193.5 66.5,193.5 46.0358362,235.609227 C32.3930603,263.682045 17.0477816,287.812302 0,308 C30.6666667,296.666667 55.1666667,278.666667 73.5,254 C101,217 89.5,205 89.5,175 C89.5,155 96.1666667,130.666667 109.5,102 C81.1666667,130.333333 64.6666667,152.666667 60,169 Z" id="Path-2" transform="translate(54.750000, 205.000000) scale(1, -1) translate(-54.750000, -205.000000) "></path>
                <path d="M326.023124,183 C316.481977,225.5 318.023124,218.5 315.023124,227 C297.82795,275.719661 277.153575,306.219661 253,318.5 C287.360081,306.518079 314.881504,287.213873 335.564271,260.587381 C366.588422,220.647645 360.749297,209.447464 364.523124,187 C367.740192,167.864253 388.906858,139.53092 428.023124,102 C366.383889,127.666667 332.383889,154.666667 326.023124,183 Z" id="Path-2-Copy" transform="translate(340.511562, 210.250000) scale(-1, -1) translate(-340.511562, -210.250000) "></path>
                <path d="M178.911793,275.62259 C174.919173,293.129107 173.42194,316.637859 147.469909,370.157783 C130.168555,405.837732 114.863511,430.013399 101.554777,442.684783 C138.141738,432.458331 165.591001,413.117797 183.902568,384.663183 C211.369918,341.981261 224.372147,291.451476 227.908819,268.866628 C231.445492,246.281779 242.272005,171.897035 221.695497,110.66531 C194.079092,28.4842093 258.197073,-3.62229773 230.147501,16.8514194 C202.097928,37.3251364 158.496719,53.1839909 178.114701,135.830456 C191.428721,191.919644 181.497058,264.286931 178.911793,275.62259 Z" id="Path-2" transform="translate(169.485820, 226.769266) scale(1, -1) rotate(-19.000000) translate(-169.485820, -226.769266) "></path>
            </g>
        </g>
    </g>
</svg>