<svg xmlns="http://www.w3.org/2000/svg" xmlns:xlink="http://www.w3.org/1999/xlink" width="50" height="50" viewBox="0 0 50 50"><defs><style>.a{clip-path:url(#b);}.b{fill:#502526;}</style><clipPath id="b"><rect width="50" height="50"/></clipPath></defs><g id="a" class="a"><g transform="translate(-55 -194)"><path class="b" d="M90.474,240.869h-.283q-10.147,0-20.294,0c-.213,0-.3-.038-.333-.279-.375-2.653-.767-5.3-1.153-7.954q-.357-2.448-.711-4.9a.883.883,0,0,1,.887-1.031q11.541,0,23.08-.006a.882.882,0,0,1,.891,1.022c-.528,3.128-1,6.264-1.49,9.4-.18,1.151-.354,2.3-.532,3.454C90.522,240.67,90.5,240.759,90.474,240.869Z"/><path class="b" d="M97.355,220.423a5.451,5.451,0,0,0-1.07-3.474,2.434,2.434,0,0,1-1.878.246,2.378,2.378,0,0,1-1.7-2.514,2.358,2.358,0,0,1,4.672-.128,6.371,6.371,0,0,1-.044.962.55.55,0,0,0,.065.336,6.716,6.716,0,0,1,1.48,3.843c.02.229.041.457.062.686,0,.007.01.014.022.032a1.727,1.727,0,0,1,1.153.44,1.521,1.521,0,0,1,.442,1.109c.01,1.014.006,2.028,0,3.042a.552.552,0,0,1-.1.279Q99,227.495,97.515,229.7a.372.372,0,0,1-.253.161c-1.125.011-2.25.007-3.374.005a.47.47,0,0,1-.1-.03c.069-.416.137-.833.207-1.249.143-.847.291-1.693.431-2.54a.747.747,0,0,0-.6-.871,2.068,2.068,0,0,0-.431-.035q-13.279,0-26.558,0a1.56,1.56,0,0,0-.638.13.677.677,0,0,0-.369.809c.215,1.247.422,2.495.639,3.785H66.2c-1.048,0-2.1,0-3.144,0a.366.366,0,0,1-.35-.19c-.963-1.455-1.934-2.9-2.9-4.361a.774.774,0,0,1-.12-.4c-.011-.928-.008-1.857,0-2.786a2.668,2.668,0,0,1,.047-.558,1.454,1.454,0,0,1,1.462-1.154c.1,0,.2,0,.306,0H97.355Z"/><path class="b" d="M90.194,218.842H70.066c.043-.106.071-.189.11-.267a4.292,4.292,0,0,1,1.377-1.519,10.864,10.864,0,0,1,4.413-1.845,1.869,1.869,0,0,0,1.4-.767,2.114,2.114,0,0,0,.224-.455.686.686,0,0,0-.142-.707,6.824,6.824,0,0,1-1.2-2.234.634.634,0,0,0-.256-.351c-.831-.408-1.277-2.2-1.027-3.05.033-.11.16-.192.253-.3a9.433,9.433,0,0,1-.332-1.283,5.472,5.472,0,0,1,1.847-5.173,3.99,3.99,0,0,1,4.234-.571,1.859,1.859,0,0,1,.985.817.3.3,0,0,0,.219.1,8.4,8.4,0,0,1,.941.034,2.263,2.263,0,0,1,1.609,1.186,5.086,5.086,0,0,1,.611,2.038,7.775,7.775,0,0,1-.145,2.715.26.26,0,0,0,.008.166,2.513,2.513,0,0,1-.038,2.507,7.654,7.654,0,0,1-.778.97,2.055,2.055,0,0,0-.277.386,11.621,11.621,0,0,1-1.27,2.208.908.908,0,0,0,.308,1.431,5.078,5.078,0,0,0,1.145.319,11.347,11.347,0,0,1,4.513,1.934,4.352,4.352,0,0,1,1.217,1.328C90.069,218.57,90.118,218.686,90.194,218.842Z"/></g></g></svg>