<svg xmlns="http://www.w3.org/2000/svg" width="56" height="26" viewBox="0 0 56 26">
    <g fill="#E23728" fill-rule="nonzero">
        <path d="M33.41 18.966c0 .79.64 1.431 1.43 1.431h6.683v1.022a1.909 1.909 0 1 0 .954 0v-1.022h6.682c.79 0 1.432-.64 1.432-1.43V7.036H33.409v11.93zm9.545 4.294a.954.954 0 1 1-1.91 0 .954.954 0 0 1 1.91 0zm8.59-19.085a.954.954 0 1 1 0 1.909h-19.09a.954.954 0 1 1 0-1.909h19.09zM41.378 16.562h-3.435a.43.43 0 0 1-.353-.685l2.822-4.03h-2.31a.427.427 0 0 1-.428-.421c0-.232.193-.422.428-.422h3.176c.235 0 .428.19.428.422a.4.4 0 0 1-.076.24l-2.814 4.037h2.562a.43.43 0 1 1 0 .86zm5.402-5.145v4.732a.483.483 0 0 1-.488.48.483.483 0 0 1-.487-.48v-1.99h-2.402v1.99a.483.483 0 0 1-.487.48.483.483 0 0 1-.488-.48v-4.732c0-.264.219-.479.488-.479.268 0 .487.215.487.48v1.866h2.402v-1.867c0-.264.219-.479.487-.479.27 0 .488.215.488.48zM13.537 3.975c5.494 0 9.963 4.486 9.963 10s-4.47 10-9.963 10a9.857 9.857 0 0 1-5.696-1.798L3.89 23.95a.275.275 0 0 1-.304-.052.28.28 0 0 1-.069-.302l1.614-4.256a9.982 9.982 0 0 1-1.557-5.366c0-5.514 4.469-10 9.962-10zm-.746 13.694a.435.435 0 0 0 .436-.438.435.435 0 0 0-.436-.439h-2.562l2.814-4.123a.431.431 0 0 0-.353-.675H9.515a.431.431 0 0 0 0 .86h2.31L9.002 16.97a.461.461 0 0 0-.084.262c0 .244.193.438.437.438h3.436zm5.4-5.253a.488.488 0 0 0-.486-.489.488.488 0 0 0-.488.49v1.905h-2.402v-1.906a.488.488 0 0 0-.487-.489.488.488 0 0 0-.487.49v4.83c0 .27.218.49.487.49s.487-.22.487-.49v-2.031h2.402v2.032a.488.488 0 0 0 .974 0v-4.832z"/>
    </g>
</svg>
