<svg xmlns="http://www.w3.org/2000/svg" width="128.613" height="128.613" viewBox="0 0 128.613 128.613"><g transform="translate(-79.852 -956.357)" opacity="0.15"><path d="M144.159,956.357a64.306,64.306,0,1,0,64.306,64.306A64.307,64.307,0,0,0,144.159,956.357Zm-25.89,36.851a.492.492,0,0,1,.615.1l.2.205a2.591,2.591,0,0,0,2.154,1.23c2.871-.1,9.126-3.589,10.869-4.409V989c0-.308.1-.411.41-.411a3.379,3.379,0,0,0,1.948-.614,5.376,5.376,0,0,1-1.333-4.1,1.212,1.212,0,0,1,1.128-1.128,1.134,1.134,0,0,1,1.128,1.128c0,1.743,1.846,1.948,2.461,1.948a24.2,24.2,0,0,0,5.127-6.768v-2.871a.376.376,0,0,1,.411-.41h1.435c.308,0,.41.1.41.41v2.871a33.114,33.114,0,0,0,5.128,6.768c.82,0,2.46-.1,2.46-1.948a1.135,1.135,0,0,1,1.128-1.128,1.211,1.211,0,0,1,1.128,1.128,6.229,6.229,0,0,1-1.23,4.1,3.161,3.161,0,0,0,1.948.614.376.376,0,0,1,.41.411v1.333c1.744.82,7.9,4.307,10.767,4.409a2.588,2.588,0,0,0,2.153-1.23l.308-.205c.1-.206.308-.206.616-.1a.694.694,0,0,1,.409.615c0,1.436-1.333,4.512-5.434,4.512H123.293c-4,0-5.434-3.076-5.434-4.512A.562.562,0,0,1,118.269,993.208Zm22.764,9.741v6.666H126.985l-.205-9.229h34.659l-.1,9.229H147.186v-6.666Zm33.736,54.86h-7.691v-7.383c0-1.333-1.435-2.564-3.281-2.564s-3.281,1.231-3.281,2.564v7.383h-4.409v-7.383c0-1.333-1.436-2.564-3.282-2.564s-3.281,1.231-3.281,2.564v7.383h-7.588v-7.383c0-1.333-1.435-2.564-3.281-2.564s-3.282,1.231-3.282,2.564v7.383h-5.537v-7.383c0-1.333-1.435-2.564-3.281-2.564s-3.282,1.231-3.282,2.564v7.383h-9.844v-13.433h61.32Zm0-15.484h-61.32v-4.409h61.32Zm-58.243-6.46v-13.33h2.563v13.33Zm6.358,0v-13.33h42.657v13.33Zm46.245,0v-13.33h2.564v13.33Zm3.487-15.381H115.6c-3.486-.1-5.435-2.461-5.435-4.615a.683.683,0,0,1,.513-.717c.205-.1.512.1.615.308a2.268,2.268,0,0,0,2.359,1.537l11.279-5.332H163.49s8.408,5.128,11.176,5.332a2.236,2.236,0,0,0,2.256-1.537.626.626,0,0,1,.719-.308.683.683,0,0,1,.512.717C178.153,1018.023,176.205,1020.381,172.616,1020.484Z" fill="#262727"/><path d="M144.109,1027.662c-1.537.82-3.281,1.333-4.921,0v4.819c1.64,1.436,3.384.718,4.921.1,1.744-.718,3.384-1.436,5.025,0v-4.922C147.493,1026.329,145.853,1027.047,144.109,1027.662Z" fill="#262727"/><path d="M144.109,982.852a46.137,46.137,0,0,1-4.716,6.049h9.536A44.518,44.518,0,0,1,144.109,982.852Z" fill="#262727"/></g></svg>