<svg xmlns="http://www.w3.org/2000/svg" width="219.013" height="220.947" viewBox="0 0 219.013 220.947"><defs><style>.a{opacity:0.45;}.b{fill:#e23728;}.c{fill:#535453;opacity:0.3;}.d{opacity:0.15;}.e{fill:#502526;}</style></defs><g transform="translate(-598.274 -364.882)"><g class="a"><path class="b" d="M762.209,520.71a13.891,13.891,0,0,0-.161-13.615,4.581,4.581,0,0,0-7.886-.28,13.49,13.49,0,0,0-1.972,6.441c-.272,5.468,2.357,9.7,6,13.922C759.628,524.893,761.114,522.9,762.209,520.71Z"/><path class="b" d="M787.654,483.177H728.388L698.755,534.5l29.633,51.326h59.266L817.287,534.5Zm-5.756,9.271c-.244,3.03-.507,6.306-.773,9.612l-5.262,1.048c-.623-1.716-1.257-3.458-1.851-5.093C776.706,496.112,779.412,494.2,781.9,492.448Zm-9.546,21.431a24.077,24.077,0,0,1,18.787-6.074c2.343.209,4.65.821,6.972,1.253.814.151,1.1.483.913,1.436-1.372,6.882-4.389,12.789-9.991,17.187a25.629,25.629,0,0,1-12.155,5.035,45.024,45.024,0,0,1-14.946-.486c-.059-.011-.109-.071-.261-.176C763.853,525.156,766.835,518.757,772.352,513.879Zm35.366,20.416-9.875,4.407-3.81-4.426,3.776-4.4Zm-53.886-43.62c.784-.954,1.653-1.841,2.517-2.725.489-.5,1.048-.931,1.68-1.485,5.088,4.363,8.686,9.537,10.007,16.1,1.344,6.674-.143,12.912-3.467,18.683-1.741,3.021-4,5.745-6.026,8.6-.133.188-.273.37-.524.709-1.286-1.634-2.5-3.087-3.616-4.615a35.044,35.044,0,0,1-6.188-12.912C746.316,504.644,748.439,497.236,753.832,490.675Zm-12.054,7.406-1.812,5.235-5.478-1.048c-.267-3.4-.53-6.74-.776-9.863ZM717.716,509.2c10.878-3.476,22.491-1.248,30.131,9.083a45.788,45.788,0,0,1,6.761,14.109c-6.526,1.145-12.885,1.464-19.188-.44-8.525-2.575-13.97-8.327-16.895-16.59-.6-1.688-.889-3.484-1.353-5.221C717.026,509.6,717.2,509.37,717.716,509.2Zm.481,21.112,3.8,4.429-3.773,4.4-9.9-4.426Zm15.921,46.373c.254-3.1.524-6.394.8-9.727l5.162-1.034,1.875,5.175Zm-8.943-15.446A72.07,72.07,0,0,1,718,559.993c-.933-.166-1.175-.588-.971-1.585,1.4-6.836,4.41-12.709,9.984-17.082a25.567,25.567,0,0,1,11.961-5,44.707,44.707,0,0,1,14.946.427,3.236,3.236,0,0,1,.458.166c-2.073,6.56-4.854,12.613-9.829,17.417A24.18,24.18,0,0,1,725.175,561.242Zm38.788,14.782a28.88,28.88,0,0,1-5.977,6.517c-5.382-4.646-9.129-10.178-10.186-17.261-1.082-7.252,1.13-13.743,4.964-19.759,1.535-2.409,3.351-4.638,5.185-7.148,1.352,1.719,2.575,3.168,3.681,4.7a33.922,33.922,0,0,1,6.634,15.371A24.592,24.592,0,0,1,763.963,576.024Zm10.293-5.082,1.812-5.243,5.487,1.056c.258,3.342.516,6.685.761,9.855Zm23.98-11.093c-7.349,2.226-14.542,2.187-21.459-1.515a27.837,27.837,0,0,1-10.728-10.825,50.065,50.065,0,0,1-4.53-10.544,1.364,1.364,0,0,1,0-.338,46.162,46.162,0,0,1,12.051-.836,28.432,28.432,0,0,1,12.491,3.574c6.633,3.855,10.407,9.785,12.3,17.063.2.772.271,1.58.49,2.346C799.024,559.4,798.857,559.662,798.236,559.849Z"/><path class="b" d="M739.815,530.082c3.791,1.407,7.663,1.254,11.965.508-1.053-2.264-1.879-4.5-3.073-6.513a13.793,13.793,0,0,0-11.927-7.287,4.63,4.63,0,0,0-4.275,6.91A13.383,13.383,0,0,0,739.815,530.082Z"/><path class="b" d="M773.086,530.9a13.679,13.679,0,0,0,10.5-7.323,4.584,4.584,0,0,0-4.152-6.766,14.7,14.7,0,0,0-4.4.772c-6.109,2.176-8.725,7.245-10.561,13.034A24.406,24.406,0,0,0,773.086,530.9Z"/><path class="b" d="M743,538.115a13.664,13.664,0,0,0-10.533,7.3,4.594,4.594,0,0,0,4.211,6.8,14.138,14.138,0,0,0,3.74-.588c6.473-2.034,9.231-7.227,11.145-13.222A24.276,24.276,0,0,0,743,538.115Z"/><path class="b" d="M754.735,546.565c-2.854,4.8-3.59,9.772-.975,14.951a4.664,4.664,0,0,0,8.528-.033c3.37-6.726,1.073-13.757-4.414-19.438C756.808,543.567,755.665,545,754.735,546.565Z"/><path class="b" d="M775.694,538.748c-3.65-1.2-7.356-1.036-11.459-.317,1.087,2.308,1.936,4.566,3.152,6.6a13.835,13.835,0,0,0,11.757,7.2,4.68,4.68,0,0,0,4.355-6.985A13.5,13.5,0,0,0,775.694,538.748Z"/></g><path class="c" d="M787.654,467.534l29.633-51.326-29.633-51.326H728.388l-29.633,51.326,29.633,51.326Zm-10.043-25.127c-.325,7.612-2.672,14.669-6.014,21.441-.1.2-.218.38-.422.731-1.469-.974-2.932-1.876-4.323-2.879a48.72,48.72,0,0,1-12.46-12.673c-1.474-2.238-1.506-2.227.407-4.106a26.721,26.721,0,0,0,8.191-20.6c-.051-2.009-.27-4.014-.422-6.168a25.284,25.284,0,0,1,11.106,8.907A24.841,24.841,0,0,1,777.611,442.407Zm28.327-13.173a2.107,2.107,0,0,1,.143.4,67.38,67.38,0,0,1-10.711,4.441,46.8,46.8,0,0,1-12.622,2.182c-.934.03-1.238-.2-1.423-1.2a26.366,26.366,0,0,0-9.788-16.338,34.221,34.221,0,0,0-8.746-4.932c-.262-.105-.526-.206-1-.391a27.2,27.2,0,0,1,10.117-4.619c6.549-1.38,12.514.243,18.037,3.72C796.665,416.723,801.725,422.585,805.938,429.234Zm-37.843-41.912a43.556,43.556,0,0,1,16.257-6.041c2.606-.463,5.247-.733,8.072-1.117-.159,9.3-1.748,17.933-6.522,25.806-10.755-3.915-20.142-1.145-28.843,5.783-.093-1.165-.223-2.172-.246-3.181C756.6,399.383,760.382,392.3,768.095,387.322Zm-26.829-11.888c.924-2.507,2.08-4.929,3.219-7.6,1.617,1.069,3.058,1.95,4.422,2.937a47.422,47.422,0,0,1,13.5,14.292.981.981,0,0,1-.249,1.5,26.845,26.845,0,0,0-8.96,16.22,34.844,34.844,0,0,0-.013,10.151c.059.439.116.878.2,1.506-8.176-3.781-13.5-9.572-14.9-18.508C737.366,388.825,738.829,382.052,741.266,375.434ZM710.1,403.286a1.925,1.925,0,0,1-.136-.4,61.255,61.255,0,0,1,10.933-4.408,48.793,48.793,0,0,1,12.369-2c.894-.031,1.265.135,1.453,1.184a25.57,25.57,0,0,0,12.309,17.947c2.218,1.362,4.621,2.421,6.978,3.639a4.1,4.1,0,0,1-.4.329c-4.845,3.239-10.087,5.084-16.005,4.573a25.352,25.352,0,0,1-11.3-3.935C719.457,415.961,714.34,410.035,710.1,403.286Zm19.864,23.23a25.337,25.337,0,0,0,15.116,1.228,31.955,31.955,0,0,0,13.55-6.891l.271.086c.023,1.871.163,3.749.051,5.612-.586,9.713-5.942,16.149-14.29,20.429a48.265,48.265,0,0,1-15.642,4.679c-1.8.246-3.615.411-5.6.632C723.549,443.1,725.155,434.454,729.961,426.516Z"/><g class="d"><path class="e" d="M687.172,526.241,716.8,474.915,687.172,423.59H627.906l-29.632,51.325,29.632,51.326Zm-40.327-12.315a4.277,4.277,0,0,1-5.937,2.338,4.357,4.357,0,0,1-2.079-6.252,9.961,9.961,0,0,1,3.908-3.917c2.013-1.092,3.522-.524,4.231,1.657a24.446,24.446,0,0,1,.584,3.055A20.453,20.453,0,0,1,646.845,513.926Zm27.51,2.338a4.327,4.327,0,0,1-5.043-2.5,28.235,28.235,0,0,1-.834-3.67,29.05,29.05,0,0,1,.995-3.561,2.074,2.074,0,0,1,2.533-1.3c2.138.3,6.061,3.974,5.823,6.865A4.491,4.491,0,0,1,674.355,516.264Zm22.715-22.709a4.018,4.018,0,0,1-4.6.052,10.243,10.243,0,0,1-3.88-3.946c-1.022-1.926-.452-3.442,1.618-4.123a24.251,24.251,0,0,1,3.033-.6,21.034,21.034,0,0,1,2.982.591,4.18,4.18,0,0,1,3.008,3.81A4.47,4.47,0,0,1,697.07,493.555Zm-4.1-38.65a4.46,4.46,0,1,1,2.83,8.459,28.531,28.531,0,0,1-3.295.59,25.051,25.051,0,0,1-3.364-.908,2.177,2.177,0,0,1-1.235-3.083A8.665,8.665,0,0,1,692.975,454.9ZM668.16,436.034a4.314,4.314,0,0,1,6.088-2.3,4.267,4.267,0,0,1,1.941,6.2,10.107,10.107,0,0,1-3.982,3.961c-1.922,1.03-3.4.448-4.145-1.6a6.6,6.6,0,0,1-.343-1.282c-.086-.585-.1-1.18-.145-1.77l-.122-.031A20.942,20.942,0,0,1,668.16,436.034Zm-28.3-2.114a4.413,4.413,0,0,1,5.961,2.561,27.338,27.338,0,0,1,.675,3.411,24.347,24.347,0,0,1-.909,3.419,2.143,2.143,0,0,1-3.152,1.186,9.726,9.726,0,0,1-4.855-4.631A4.415,4.415,0,0,1,639.864,433.92Zm-23.6,24.353a4.356,4.356,0,0,1,6.224-1.969,10.1,10.1,0,0,1,3.952,4c1,1.884.452,3.4-1.565,4.08a25.476,25.476,0,0,1-3.2.655,20.378,20.378,0,0,1-3.221-.771A4.266,4.266,0,0,1,616.26,458.273Zm6.214,36.59a4.463,4.463,0,1,1-3.2-8.3,30.955,30.955,0,0,1,3.184-.557,23.136,23.136,0,0,1,3.245.794A2.232,2.232,0,0,1,627,490.129,9.824,9.824,0,0,1,622.474,494.863Zm13.806-11.131c-1.969,0-3.89.143-5.783-.031a25.22,25.22,0,0,1-9.377-3.11,42.42,42.42,0,0,1-8.31-5.664c6.939-5.412,14.13-9.78,23.478-8.725-7.245-5.843-9.306-13.987-10.41-22.848,8.841,1.072,16.957,3.143,22.859,10.409-1.084-9.294,3.295-16.493,8.756-23.554,5.48,7,9.831,14.2,8.786,23.542,5.828-7.235,13.961-9.3,22.836-10.4-1.053,8.835-3.131,16.961-10.389,22.856,9.308-1.071,16.508,3.292,23.543,8.768-7.028,5.477-14.232,9.83-23.679,8.755,4.358,3.228,6.794,7.569,8.409,12.424a40.823,40.823,0,0,1,2.041,10.364,41.729,41.729,0,0,1-12.472-2.833,22.8,22.8,0,0,1-10.326-7.667c1.059,8.734-2.649,15.6-7.468,22.078-.3.4-.635.782-.959,1.168-.074.088-.168.159-.387.362-5.4-6.9-9.749-14.108-8.689-23.452-5.832,7.267-13.973,9.323-22.843,10.425C626.952,497.746,629.043,489.621,636.28,483.732Z"/><path class="e" d="M650.4,481.05c.53.073.975.207,1.006.864.087,1.8.214,3.6.262,5.4a23.091,23.091,0,0,1-.2,2.457,23.644,23.644,0,0,1,6.265-5.81l5.774,5.421c-.072-1.034-.232-2.243-.22-3.449.012-1.24.2-2.478.294-3.717.051-.64.216-1.138,1-1.164,1.861-.06,3.72-.169,5.58-.213a21.122,21.122,0,0,1,2.17.182,23.367,23.367,0,0,1-5.742-6.141c.871-1.069,1.676-2.174,2.6-3.164.907-.969,1.938-1.821,2.986-2.791-1.031.1-1.941.231-2.854.256a19.355,19.355,0,0,1-2.839-.1c-3.316-.4-2.745.248-3.063-3.078-.178-1.863-.032-3.757-.032-5.33l-5.879,5.5-6.017-5.63c.07.759.2,1.69.23,2.624a18.821,18.821,0,0,1-.1,2.839c-.417,3.35.281,2.722-3.078,3.055a51.9,51.9,0,0,1-5.329.033l5.5,5.877-5.65,6.039c-.048,0,.066.024.172,0A22.2,22.2,0,0,1,650.4,481.05Z"/></g></g></svg>