<svg xmlns="http://www.w3.org/2000/svg" width="185.973" height="303.581" viewBox="0 0 185.973 303.581"><defs><style>.a{opacity:0.45;}.b{fill:none;}.c{fill:#262727;}</style></defs><g class="a" transform="translate(-656.311 -167.776)"><path class="b" d="M735.788,342.343c-4.89-4.371-9-8.348-13.486-11.838a4.275,4.275,0,0,0-2.168-.641l-13.959,15.619,14.9,13.319Z"/><path class="b" d="M733.913,402.151a32.943,32.943,0,0,1-5.557-4.966l-6.139-5.486c-2.722,3.9-5.543,7.163-7.347,10.913a5.637,5.637,0,0,0,.235,3.908L728.4,418.4l10.522-11.774Z"/><path class="b" d="M702.9,349.147l-20.885,23.37,37.193-.338C719.255,364.638,708.927,350.406,702.9,349.147Z"/><path class="b" d="M762.3,402.856a29.659,29.659,0,0,0,21.256-25.368,12.322,12.322,0,0,0-.237-1.767l-27.661.221c.88,8.465,1.673,16.218,2.507,23.966.119,1.107.435,2.192.646,3.223A14.843,14.843,0,0,0,762.3,402.856Z"/><path class="b" d="M718.756,376.108l-36.915.253-.138.307,13.317,11.9c1.275,1.016,2.566,2.014,3.828,3.046a11.1,11.1,0,0,1,1.757,1.945l4.267,3.814c1.453.658,3.126,1.071,4.18.614C719.586,393.415,722.2,387.287,718.756,376.108Z"/><path class="b" d="M755.389,408.58c-.129-.036-.245-.048-.372-.081a34.528,34.528,0,0,1-6.769-.444c-8.086,1.238-12.439,9.007-16.266,13.548l24.452,21.853C760.055,431.8,754.9,419.477,755.389,408.58Z"/><path class="b" d="M788.062,376.987c.564,12.173,10.961,15.1,17.187,21.861L826.2,375.406l-38.042.487C788.14,376.259,788.092,376.622,788.062,376.987Z"/><path class="b" d="M818.017,335.338c-1.15-.042-2.3-.138-3.443-.294a17.97,17.97,0,0,0-2.5.4,13.815,13.815,0,0,0-6.394,3.239c-4.1,4.019-7.425,8.861-11.692,12.666-5.136,4.58-7.536,9.689-6.434,16.389.087.456.2.908.267,1.368a27.463,27.463,0,0,0,.777,2.755l38.461-.129c-1.629-9.85-3.759-19.022-4.486-28.3C822.207,338.72,820.693,336.2,818.017,335.338Z"/><path class="b" d="M784.218,390.707c-.173.165-.334.344-.506.511a33.536,33.536,0,0,1-10.225,11.159c-.55.626-1.1,1.255-1.651,1.875,5.806,5.19,10.881,9.724,15.891,14.2L802.522,401.9c-4.569-4.106-8.4-7.859-12.636-11.049C788.6,389.884,785.222,389.746,784.218,390.707Z"/><path class="b" d="M763.04,407.28a34.483,34.483,0,0,1-3.994.875l4.258,37.628,21.567-24.132C777.325,416.9,773.214,407.436,763.04,407.28Z"/><path class="b" d="M783.458,371.885c-.016-1.009-.092-2-.2-2.975a29.777,29.777,0,0,0-31-24.523l2.951,27.659Z"/><path class="b" d="M813.256,266.853c.855.031,1.661.057,2.44.08a34.558,34.558,0,0,1,6.746-.046c7.874-.547,11.332-3.569,19.842-15.051V232.709L807.56,233Z"/><path class="b" d="M837.244,270.923l5.04,4.505V258.462l-8.43,9.432Z"/><path class="b" d="M839.2,278.748c-.342-.306-.691-.6-1.044-.886-.146-.119-.295-.234-.443-.35q-.291-.228-.586-.448c-.206-.153-.414-.3-.623-.453-.1-.073-.209-.144-.314-.215a30,30,0,0,0-13.275-5.012l-.187-.021c-.468-.054-.937-.1-1.406-.128-.133-.009-.265-.018-.4-.025-.418-.023-.835-.035-1.253-.04-.141,0-.283-.007-.425-.007-.541,0-1.082.012-1.623.042-1.152.088-2.319.227-3.5.435q.786,4.663,1.577,9.352c1.064,6.306,2.132,12.64,3.222,19.1,5.124.334,9.9.725,14.675.936,2.9.128,5.793.2,8.689.258v-19.32A29.383,29.383,0,0,0,839.2,278.748Z"/><path class="b" d="M731.594,354.3a29.71,29.71,0,0,0-7.5,17.981l27.183-.242c-.556-5.509-.984-10.082-1.488-14.648-.465-4.2-.995-8.391-1.492-12.492A29.7,29.7,0,0,0,731.594,354.3Z"/><path class="b" d="M810.855,275.94a9.456,9.456,0,0,0-1.1-3.206A29.678,29.678,0,0,0,797,281.117c-.352.393-.686.795-1.012,1.2-.078.1-.154.2-.23.293-.28.358-.552.719-.812,1.087-.035.049-.071.1-.106.147a29.668,29.668,0,0,0-4.211,8.864,30.976,30.976,0,0,0-.946,4.535c0,.034-.009.068-.014.1q-.094.752-.151,1.507l25.452,1.182c-.184-1.089-.364-2.157-.542-3.216l0-.013c-.83-4.938-1.6-9.576-2.375-14.108C811.657,280.43,811.264,278.179,810.855,275.94Z"/><path class="b" d="M831.941,207.3a4.2,4.2,0,0,0-1.664-.678l-20.16,22.558,32.167-.282v-12.77A129.547,129.547,0,0,0,831.941,207.3Z"/><path class="b" d="M724.351,378.761a29.735,29.735,0,0,0,24.155,24.817,18.891,18.891,0,0,0,6.081-.753c-.944-8.8-1.9-17.658-2.88-26.833l-27.253.12A21.222,21.222,0,0,0,724.351,378.761Z"/><path class="b" d="M799.366,323.322a29.713,29.713,0,0,0,17.976,7.5,19.978,19.978,0,0,0,2.769-.409c-1.426-8.562-2.857-17.149-4.416-26.515l-26.231-1.1A29.788,29.788,0,0,0,799.366,323.322Z"/><path class="b" d="M798.127,273.1l.083-.074c.25-.22.5-.434.755-.646.094-.079.188-.16.283-.239.219-.18.439-.355.659-.529.131-.1.262-.208.394-.309.2-.154.4-.3.6-.451.154-.114.308-.227.462-.337q.282-.2.564-.394c.169-.116.337-.229.506-.341s.358-.233.537-.346.361-.225.541-.334.342-.205.513-.3c.19-.11.38-.215.57-.319.164-.089.327-.179.49-.264.2-.1.4-.2.6-.3.155-.075.31-.152.465-.224.212-.1.423-.187.635-.277.142-.061.285-.125.427-.181.235-.1.47-.179.7-.263.118-.042.236-.089.354-.129.352-.119.7-.227,1.051-.321-1.685-9.9-3.379-19.865-5.208-30.622L749.388,297.13l34.582,1.338C784.187,290.21,790.485,279.864,798.127,273.1Z"/><path class="b" d="M776.767,348.608c.435.389.82.811,1.23,1.217,1.382,1.179,2.776,2.325,4.225,3.387,1.186.871,4.81.089,6.114-1.173a133.121,133.121,0,0,0,12.9-14.432c1.023-1.329,1.056-4.947,0-6.077-4.024-4.315-8.676-8.045-13.361-12.231l-19.518,21.839c2.265,2.024,4.395,4.02,6.512,5.938C775.509,347.572,776.154,348.06,776.767,348.608Z"/><path class="b" d="M842.284,210.507V193.186l-8.606,9.629Z"/><path class="b" d="M825.039,335.856c1.884,11.014,3.783,22.11,5.866,34.285l11.379-12.732v-30.9c-.662.591-1.337,1.159-2.031,1.7A34.635,34.635,0,0,1,825.039,335.856Z"/><path class="b" d="M762.116,460.485l-94.885-84.8,38.842-43.462L842.284,179.813v-5.351L662.6,375.515l100.2,89.551,79.48-88.933v-5.351Z"/><path class="b" d="M726.6,322.634l-3.283,3.673c8.2,4.563,11.544,15.7,24.477,13.489-1.257-11.916-2.5-23.71-3.858-36.561Z"/><path class="b" d="M761.548,301.486l-13.977-.624,4.152,38.187c9.449,2.333,15.384-1.948,20.331-8.691,2.172-2.962,4.423-6.071,7.28-8.285,6.786-5.258,6.869-11.775,4.613-19.587l-13-.58Z"/><path class="b" d="M821.972,317.864c.735,4.238,1.454,8.479,2.149,12.542.2.011.406-.023.606-.023a29.7,29.7,0,0,0,16.843-9.43c.25-.28.477-.572.714-.859V305.127l-22.721-1.01C820.469,309.282,821.228,313.571,821.972,317.864Z"/><path class="c" d="M842.284,174.462l-144.423,161.6L662.6,375.515,842.284,174.462Z"/><path class="c" d="M842.284,167.776h0L656.311,375.868l31.288-35.01Z"/><path class="c" d="M789.666,297.347c.005-.034.01-.068.014-.1Z"/><path class="c" d="M794.837,283.846c.035-.05.071-.1.106-.147C794.908,283.748,794.871,283.8,794.837,283.846Z"/><path class="c" d="M838.157,277.862c.353.287.7.58,1.044.886C838.859,278.442,838.51,278.149,838.157,277.862Z"/><path class="c" d="M822.729,271.363l.187.021C822.854,271.377,822.791,271.371,822.729,271.363Z"/><path class="c" d="M836.191,276.4c.105.071.21.142.314.215C836.4,276.538,836.3,276.467,836.191,276.4Z"/><path class="c" d="M820.926,271.21c.132.007.264.016.4.025C821.19,271.226,821.058,271.217,820.926,271.21Z"/><path class="c" d="M814.423,296.807l0,.013Z"/><path class="c" d="M819.248,271.163c.142,0,.284.005.425.007C819.532,271.168,819.39,271.163,819.248,271.163Z"/><path class="c" d="M795.755,282.612c.076-.1.152-.2.23-.293C795.907,282.416,795.831,282.514,795.755,282.612Z"/><path class="c" d="M799.907,271.612c-.22.174-.44.349-.659.529C799.467,271.961,799.687,271.786,799.907,271.612Z"/><path class="c" d="M802.97,269.434q-.268.17-.537.346Q802.7,269.6,802.97,269.434Z"/><path class="c" d="M801.927,270.121q-.282.193-.564.394Q801.645,270.314,801.927,270.121Z"/><path class="c" d="M804.024,268.8c-.171.1-.342.2-.513.3C803.682,269,803.853,268.895,804.024,268.8Z"/><path class="c" d="M805.084,268.214c-.163.085-.326.175-.49.264C804.758,268.389,804.921,268.3,805.084,268.214Z"/><path class="c" d="M798.965,272.38c-.253.212-.505.426-.755.646C798.46,272.8,798.712,272.592,798.965,272.38Z"/><path class="c" d="M800.9,270.852c-.2.148-.4.3-.6.451C800.5,271.149,800.7,271,800.9,270.852Z"/><path class="c" d="M798.127,273.1c-7.642,6.764-13.94,17.11-14.157,25.368a19.572,19.572,0,0,1,.307-2.791C785.606,287.979,791.332,279.12,798.127,273.1Z"/><path class="c" d="M748.809,312.252c1.01,9.284,1.974,18.156,2.914,26.8l-4.152-38.187C747.993,304.744,748.4,308.523,748.809,312.252Z"/><path class="c" d="M806.148,267.692c-.155.072-.31.149-.465.224C805.838,267.841,805.993,267.764,806.148,267.692Z"/><path class="c" d="M747.571,300.862l13.977.624Z"/><path class="c" d="M747.79,339.8c-.9-8.512-1.791-16.977-2.722-25.795-.372-3.526-.748-7.1-1.136-10.766C745.288,316.086,746.533,327.88,747.79,339.8Z"/><path class="c" d="M778.737,298.266l5.233.2-34.582-1.338Z"/><path class="c" d="M808.268,266.842c-.118.04-.236.087-.354.129C808.032,266.929,808.15,266.882,808.268,266.842Z"/><path class="c" d="M807.21,267.234c-.142.056-.285.12-.427.181C806.925,267.354,807.068,267.29,807.21,267.234Z"/><path class="c" d="M837.128,277.064q.3.221.586.448C837.52,277.361,837.325,277.21,837.128,277.064Z"/><path class="c" d="M762.8,465.066,662.6,375.515l35.258-39.452-10.261,4.8-31.288,35.01,106.846,95.489,79.126-88.538v-6.686Z"/><path class="c" d="M842.284,167.776,687.6,340.858l10.261-4.8,144.423-161.6Z"/><path class="c" d="M789.515,298.854q.055-.754.151-1.507C789.6,297.848,789.552,298.351,789.515,298.854Z"/><path class="c" d="M726.6,322.634l-3.283,3.673,3.283-3.673Z"/><path class="c" d="M783.947,302.486l-13-.58h0Z"/><path class="c" d="M814.423,296.807c-.83-4.94-1.594-9.576-2.374-14.109h0C812.827,287.231,813.593,291.869,814.423,296.807Z"/><path class="c" d="M790.6,292.721a30.19,30.19,0,0,0-.923,4.524,30.976,30.976,0,0,1,.946-4.535Z"/><path class="c" d="M837.244,270.923h0l5.04,4.505h0Z"/><path class="c" d="M814.425,296.82c.178,1.059.358,2.127.542,3.216Q814.691,298.406,814.425,296.82Z"/><path class="c" d="M706.073,332.225l-38.842,43.462,38.842-43.462Z"/><path class="c" d="M815.7,280.992c1.063,6.3,2.132,12.643,3.222,19.1-1.09-6.463-2.158-12.8-3.222-19.1Z"/><path class="c" d="M836.191,276.4a29.643,29.643,0,0,0-4.859-2.71l-.012.006A29.941,29.941,0,0,1,836.191,276.4Z"/><path class="c" d="M837.714,277.512c.148.116.3.231.443.35C838.011,277.743,837.862,277.628,837.714,277.512Z"/><path class="c" d="M836.505,276.611c.209.148.417.3.623.453Q836.819,276.833,836.505,276.611Z"/><path class="c" d="M830.905,370.141c-2.083-12.175-3.982-23.271-5.866-34.285a34.635,34.635,0,0,0,15.214-7.648c.694-.536,1.369-1.1,2.031-1.7v-6.419c-.237.287-.464.579-.714.859a29.7,29.7,0,0,1-16.843,9.43c-.2,0-.409.034-.606.023-.695-4.063-1.414-8.3-2.149-12.542-.744-4.293-1.5-8.582-2.409-13.747l22.721,1.01v-3.838c-2.9-.06-5.794-.13-8.689-.258-4.779-.211-9.551-.6-14.675-.936-1.09-6.46-2.159-12.8-3.222-19.1l-3.649,1.706c.78,4.533,1.544,9.169,2.374,14.109l0,.013q.266,1.587.542,3.216l-25.452-1.182c.037-.5.09-1.006.151-1.507l.014-.1a30.19,30.19,0,0,1,.923-4.524l-6.326,2.956a19.572,19.572,0,0,0-.307,2.791l-5.233-.2-7.789,3.64,13,.58c2.256,7.812,2.173,14.329-4.613,19.587-2.857,2.214-5.108,5.323-7.28,8.285-4.947,6.743-10.882,11.024-20.331,8.691-.94-8.641-1.9-17.513-2.914-26.8L745.068,314c.931,8.818,1.824,17.283,2.722,25.795-12.933,2.208-16.273-8.926-24.477-13.489l3.283-3.673-20.523,9.591-38.842,43.461,94.885,84.8,80.168-89.7V357.409ZM815.7,303.9c1.559,9.366,2.99,17.953,4.416,26.515a19.978,19.978,0,0,1-2.769.409,29.775,29.775,0,0,1-27.878-28.02Zm-27.821,15.4c4.685,4.186,9.337,7.916,13.361,12.231,1.054,1.13,1.021,4.748,0,6.077a133.121,133.121,0,0,1-12.9,14.432c-1.3,1.262-4.928,2.044-6.114,1.173-1.449-1.062-2.843-2.208-4.225-3.387-.41-.406-.795-.828-1.23-1.217-.613-.548-1.258-1.036-1.9-1.532-2.117-1.918-4.247-3.914-6.512-5.938ZM773.8,351.93a29.71,29.71,0,0,1,9.458,16.98c.11.977.186,1.966.2,2.975l-28.253.161-2.951-27.659A29.794,29.794,0,0,1,773.8,351.93Zm-19.211,50.9a18.891,18.891,0,0,1-6.081.753,29.735,29.735,0,0,1-24.155-24.817,21.222,21.222,0,0,1,.1-2.649l27.253-.12C752.691,385.167,753.643,394.027,754.587,402.825ZM748.294,344.9c.5,4.1,1.027,8.289,1.492,12.492.5,4.566.932,9.139,1.488,14.648l-27.183.242a29.7,29.7,0,0,1,24.2-27.382Zm-28.16-15.034a4.275,4.275,0,0,1,2.168.641c4.487,3.49,8.6,7.467,13.486,11.838L721.079,358.8l-14.9-13.319ZM702.9,349.147c6.027,1.259,16.355,15.491,16.308,23.032l-37.193.338Zm1.972,48.228-4.267-3.814a11.1,11.1,0,0,0-1.757-1.945c-1.262-1.032-2.553-2.03-3.828-3.046l-13.317-11.9.138-.307,36.915-.253c3.439,11.179.83,17.307-9.7,21.881C708,398.446,706.325,398.033,704.872,397.375ZM715.1,406.52a5.637,5.637,0,0,1-.235-3.908c1.8-3.75,4.625-7.012,7.347-10.913l6.139,5.486a32.943,32.943,0,0,0,5.557,4.966l5.012,4.48L728.4,418.4Zm41.329,36.936L731.982,421.6c3.827-4.541,8.18-12.31,16.266-13.548a34.528,34.528,0,0,0,6.769.444c.127.033.243.045.372.081C754.9,419.477,760.055,431.8,756.434,443.456Zm1.728-43.548c-.834-7.748-1.627-15.5-2.507-23.966l27.661-.221a12.322,12.322,0,0,1,.237,1.767A29.659,29.659,0,0,1,762.3,402.856a14.843,14.843,0,0,1-3.489.275C758.6,402.1,758.281,401.015,758.162,399.908Zm5.142,45.875-4.258-37.628a34.483,34.483,0,0,0,3.994-.875c10.174.156,14.285,9.616,21.831,14.371Zm24.423-27.329c-5.01-4.478-10.085-9.012-15.891-14.2.555-.62,1.1-1.249,1.651-1.875a33.536,33.536,0,0,0,10.225-11.159c.172-.167.333-.346.506-.511,1-.961,4.386-.823,5.668.144,4.235,3.19,8.067,6.943,12.636,11.049Zm17.522-19.606c-6.226-6.766-16.623-9.688-17.187-21.861.03-.365.078-.728.1-1.094l38.042-.487ZM788.6,371.858a27.463,27.463,0,0,1-.777-2.755c-.069-.46-.18-.912-.267-1.368-1.1-6.7,1.3-11.809,6.434-16.389,4.267-3.805,7.594-8.647,11.692-12.666a13.815,13.815,0,0,1,6.394-3.239,17.97,17.97,0,0,1,2.5-.4c1.143.156,2.293.252,3.443.294,2.676.86,4.19,3.382,4.559,8.086.727,9.283,2.857,18.455,4.486,28.3Z"/><path class="c" d="M831.332,273.686a29.643,29.643,0,0,1,4.859,2.71c.105.071.21.142.314.215q.313.222.623.453c.2.146.392.3.586.448.148.116.3.231.443.35.353.287.7.58,1.044.886a29.383,29.383,0,0,1,3.083,3.221v-6.541l-5.04-4.505Z"/><path class="c" d="M804.594,268.478c-.19.1-.38.209-.57.319C804.214,268.687,804.4,268.582,804.594,268.478Z"/><path class="c" d="M803.511,269.1c-.18.109-.361.22-.541.334C803.15,269.32,803.331,269.209,803.511,269.1Z"/><path class="c" d="M802.433,269.78c-.169.112-.337.225-.506.341C802.1,270.006,802.264,269.892,802.433,269.78Z"/><path class="c" d="M800.3,271.3c-.132.1-.263.206-.394.309C800.038,271.509,800.169,271.4,800.3,271.3Z"/><path class="c" d="M805.683,267.916c-.2.1-.4.2-.6.3C805.284,268.111,805.484,268.013,805.683,267.916Z"/><path class="c" d="M801.363,270.515c-.154.11-.308.223-.462.337C801.055,270.738,801.209,270.625,801.363,270.515Z"/><path class="c" d="M706.073,332.225,842.284,179.813h0L706.073,332.225Z"/><path class="c" d="M770.948,301.906h0l-9.4-.42Z"/><path class="c" d="M743.932,303.235l-17.337,19.4h0Z"/><path class="c" d="M806.783,267.415c-.212.09-.423.179-.635.277C806.36,267.594,806.571,267.505,806.783,267.415Z"/><path class="c" d="M807.914,266.971c-.234.084-.469.168-.7.263C807.445,267.139,807.68,267.055,807.914,266.971Z"/><path class="c" d="M814.121,271.64q.788,4.668,1.577,9.352h0Q814.909,276.312,814.121,271.64Z"/><path class="c" d="M809.319,266.521c-.349.094-.7.2-1.051.321C808.62,266.723,808.97,266.615,809.319,266.521Z"/><path class="c" d="M812.048,282.7h0c-.391-2.27-.785-4.517-1.194-6.758C811.264,278.179,811.657,280.43,812.048,282.7Z"/><path class="c" d="M817.625,271.2c.541-.03,1.082-.042,1.623-.042C818.707,271.164,818.165,271.175,817.625,271.2Z"/><path class="c" d="M794.837,283.846a29.516,29.516,0,0,0-4.234,8.875l.023-.011A29.668,29.668,0,0,1,794.837,283.846Z"/><path class="c" d="M795.985,282.319c.326-.407.66-.809,1.012-1.2C796.645,281.51,796.311,281.912,795.985,282.319Z"/><path class="c" d="M833.854,267.894l3.39,3.029h0Z"/><path class="c" d="M831.332,273.686a29.775,29.775,0,0,0-8.416-2.3,29.972,29.972,0,0,1,8.4,2.308Z"/><path class="c" d="M794.943,283.7c.26-.368.532-.729.812-1.087Q795.335,283.147,794.943,283.7Z"/><path class="c" d="M821.323,271.235c.469.033.938.074,1.406.128Q822.027,271.283,821.323,271.235Z"/><path class="c" d="M819.673,271.17c.418,0,.835.017,1.253.04Q820.3,271.177,819.673,271.17Z"/><path class="c" d="M798.21,273.026l-.083.074Z"/><path class="c" d="M799.248,272.141c-.095.079-.189.16-.283.239C799.059,272.3,799.153,272.22,799.248,272.141Z"/><path class="c" d="M743.932,303.235c.388,3.67.764,7.24,1.136,10.766l3.741-1.749c-.405-3.729-.816-7.508-1.238-11.39l13.977.624,9.4.42,7.789-3.64-29.349-1.136L804.111,235.9c1.829,10.757,3.523,20.719,5.208,30.622-.349.094-.7.2-1.051.321-.118.04-.236.087-.354.129-.234.084-.469.168-.7.263-.142.056-.285.12-.427.181-.212.09-.423.179-.635.277-.155.072-.31.149-.465.224-.2.1-.4.2-.6.3-.163.085-.326.175-.49.264-.19.1-.38.209-.57.319-.171.1-.342.2-.513.3s-.361.22-.541.334-.358.228-.537.346-.337.226-.506.341q-.282.193-.564.394c-.154.11-.308.223-.462.337-.2.148-.4.3-.6.451-.132.1-.263.206-.394.309-.22.174-.44.349-.659.529-.095.079-.189.16-.283.239-.253.212-.505.425-.755.646l-.083.074c-6.8,6.02-12.521,14.879-13.85,22.577l6.326-2.956a29.516,29.516,0,0,1,4.234-8.875c.034-.05.071-.1.106-.147q.391-.551.812-1.087c.076-.1.152-.2.23-.293.326-.407.66-.809,1.012-1.2a29.678,29.678,0,0,1,12.758-8.383,9.456,9.456,0,0,1,1.1,3.206c.409,2.241.8,4.488,1.194,6.758l3.649-1.706q-.79-4.685-1.577-9.352c1.185-.208,2.352-.347,3.5-.435.54-.03,1.082-.041,1.623-.042.142,0,.284.005.425.007q.627.007,1.253.04c.132.007.264.016.4.025q.7.048,1.406.128c.062.008.125.014.187.021a29.775,29.775,0,0,1,8.416,2.3l5.912-2.763-3.39-3.029,8.43-9.432v-6.626c-8.51,11.482-11.968,14.5-19.842,15.051a34.558,34.558,0,0,0-6.746.046c-.779-.023-1.585-.049-2.44-.08L807.56,233l34.724-.287V228.9l-32.167.282,20.16-22.558a4.2,4.2,0,0,1,1.664.678,129.547,129.547,0,0,1,10.343,8.828v-5.619l-8.606-7.692,8.606-9.629V179.813L706.073,332.225l20.523-9.591Z"/></g></svg>