<svg xmlns="http://www.w3.org/2000/svg" width="325.382" height="703.54" viewBox="0 0 325.382 703.54"><defs><style>.a{opacity:0.15;}.b{fill:none;}.c{fill:#262727;}.d{opacity:0.3;}.e{fill:#e23728;}</style></defs><g transform="translate(0.394 -599.17)"><g class="a"><path class="b" d="M185.932,824.9c8.556,7.647,15.746,14.6,23.6,20.712a7.479,7.479,0,0,0,3.793,1.121L237.744,819.4l-26.075-23.3Z"/><path class="b" d="M189.214,720.253a57.727,57.727,0,0,1,9.722,8.689l10.741,9.6c4.763-6.826,9.7-12.532,12.855-19.093.787-1.635.473-4.4-.412-6.839l-23.266-20.793-18.41,20.6Z"/><path class="b" d="M243.474,812.99,280.016,772.1l-65.074.592C214.86,785.888,232.93,810.788,243.474,812.99Z"/><path class="b" d="M139.552,719.021a51.892,51.892,0,0,0-37.19,44.384,21.683,21.683,0,0,0,.416,3.09l48.4-.385c-1.54-14.811-2.928-28.375-4.386-41.932-.208-1.936-.761-3.835-1.131-5.639A25.927,25.927,0,0,0,139.552,719.021Z"/><path class="b" d="M215.733,765.819l64.586-.443.243-.538-23.3-20.823c-2.232-1.777-4.489-3.523-6.7-5.328a19.442,19.442,0,0,1-3.074-3.405l-7.466-6.673c-2.542-1.15-5.47-1.874-7.313-1.073C214.281,735.538,209.716,746.26,215.733,765.819Z"/><path class="b" d="M151.639,709.006c.226.063.429.083.652.141a60.443,60.443,0,0,1,11.841.777c14.148-2.166,21.765-15.758,28.46-23.7l-42.781-38.234C143.476,668.382,152.491,689.939,151.639,709.006Z"/><path class="b" d="M94.473,764.281c-.986-21.3-19.177-26.41-30.071-38.249L27.746,767.048l66.561-.853C94.337,765.555,94.422,764.919,94.473,764.281Z"/><path class="b" d="M42.063,837.152a60.32,60.32,0,0,1,6.026.514,31.683,31.683,0,0,0,4.368-.7A24.18,24.18,0,0,0,63.644,831.3c7.17-7.033,12.991-15.5,20.456-22.16,8.987-8.014,13.185-16.952,11.257-28.675-.152-.8-.347-1.589-.467-2.393a47.607,47.607,0,0,0-1.36-4.82l-67.291.224c2.849,17.234,6.576,33.282,7.849,49.524C34.733,831.234,37.382,835.646,42.063,837.152Z"/><path class="b" d="M101.2,740.277c.3-.29.584-.6.884-.894a58.669,58.669,0,0,1,17.891-19.525c.961-1.095,1.917-2.195,2.888-3.281l-27.8-24.848L69.175,720.692c7.993,7.185,14.7,13.752,22.107,19.333C93.526,741.715,99.442,741.958,101.2,740.277Z"/><path class="b" d="M138.252,711.28a60.4,60.4,0,0,1,6.989-1.531c-2.429-21.461-4.838-42.751-7.449-65.835l-37.735,42.223C113.259,694.455,120.452,711.008,138.252,711.28Z"/><path class="b" d="M102.529,773.208c.028,1.765.161,3.5.353,5.205a52.1,52.1,0,0,0,54.242,42.906c-1.672-15.679-3.356-31.451-5.164-48.393Z"/><path class="b" d="M50.393,956.974c-1.5-.054-2.906-.1-4.268-.14a60.54,60.54,0,0,1-11.8.08c-13.775.958-19.827,6.245-34.715,26.333v33.466l60.754-.5C56.825,995.2,53.59,975.972,50.393,956.974Z"/><path class="b" d="M8.425,949.852l-8.819-7.881v29.683l14.749-16.5Z"/><path class="b" d="M5,936.161c.6.536,1.21,1.049,1.826,1.551.256.208.516.409.775.612q.51.4,1.025.784c.362.268.725.534,1.091.792.182.128.366.252.549.378a52.471,52.471,0,0,0,23.226,8.768c.109.013.219.024.328.036.819.1,1.639.168,2.46.224.232.016.463.032.695.044.73.041,1.461.061,2.191.071.248,0,.5.012.744.012.947,0,1.894-.022,2.84-.075,2.014-.153,4.057-.4,6.131-.76q-1.375-8.16-2.76-16.363c-1.861-11.032-3.73-22.114-5.637-33.422-8.966-.585-17.314-1.269-25.676-1.638-5.065-.224-10.135-.346-15.2-.452v33.8A51.336,51.336,0,0,0,5,936.161Z"/><path class="b" d="M193.271,803.976a51.984,51.984,0,0,0,13.127-31.46l-47.56.424c.974,9.639,1.722,17.64,2.6,25.628.813,7.354,1.742,14.681,2.611,21.857A51.965,51.965,0,0,0,193.271,803.976Z"/><path class="b" d="M54.594,941.075a16.535,16.535,0,0,0,1.925,5.608,51.9,51.9,0,0,0,22.322-14.667c.615-.687,1.2-1.391,1.771-2.1.136-.17.268-.342.4-.513.49-.627.966-1.26,1.421-1.9.062-.086.125-.171.185-.257a51.928,51.928,0,0,0,7.368-15.509,54.283,54.283,0,0,0,1.655-7.935c.007-.06.016-.119.023-.178.111-.877.2-1.756.265-2.637L47.4,898.915c.323,1.906.638,3.775.949,5.628l0,.023c1.451,8.638,2.791,16.754,4.155,24.684Q53.533,935.2,54.594,941.075Z"/><path class="b" d="M17.7,1061.172a7.33,7.33,0,0,0,2.91,1.186l35.273-39.468-56.28.493v22.343C5.177,1051.3,11.545,1056.2,17.7,1061.172Z"/><path class="b" d="M205.943,761.177a52.026,52.026,0,0,0-42.261-43.42,33.072,33.072,0,0,0-10.64,1.317c1.652,15.393,3.317,30.9,5.04,46.947l47.682-.208A36.99,36.99,0,0,0,205.943,761.177Z"/><path class="b" d="M74.7,858.175a51.989,51.989,0,0,0-31.452-13.126,34.667,34.667,0,0,0-4.844.715l7.726,46.391,45.894,1.919A52.123,52.123,0,0,0,74.7,858.175Z"/><path class="b" d="M76.863,946.043c-.049.043-.1.088-.145.131-.437.385-.878.758-1.32,1.129-.165.139-.33.281-.5.418-.382.316-.767.621-1.152.925-.23.182-.459.365-.69.543-.349.268-.7.529-1.05.788-.269.2-.538.4-.808.59q-.492.351-.987.689c-.295.2-.589.4-.885.6q-.47.309-.94.607c-.315.2-.63.392-.946.583-.3.18-.6.359-.9.531-.333.192-.666.375-1,.557-.286.156-.572.313-.858.461-.35.182-.7.352-1.048.522-.271.132-.542.267-.812.392-.371.171-.741.328-1.112.485-.249.106-.5.218-.747.318-.411.164-.822.311-1.232.459-.206.074-.414.156-.619.226-.615.207-1.228.4-1.838.561l9.112,53.577L162.138,904l-60.506-2.34C101.253,916.108,90.235,934.209,76.863,946.043Z"/><path class="b" d="M114.235,813.934c-.761-.68-1.434-1.42-2.152-2.129-2.417-2.063-4.857-4.068-7.391-5.927-2.076-1.523-8.417-.155-10.7,2.052a232.924,232.924,0,0,0-22.565,25.251c-1.79,2.326-1.847,8.655,0,10.632,7.041,7.55,15.181,14.075,23.377,21.4L128.951,827c-3.963-3.541-7.688-7.033-11.392-10.389C116.437,815.746,115.308,814.893,114.235,813.934Z"/><path class="b" d="M-.394,1055.558v30.305l15.058-16.848Z"/><path class="b" d="M29.778,836.245c-3.3-19.27-6.618-38.685-10.263-59.986L-.394,798.535v54.056c1.158-1.034,2.34-2.028,3.554-2.966A60.607,60.607,0,0,1,29.778,836.245Z"/><path class="b" d="M139.87,618.192,305.882,766.557,237.923,842.6-.394,1109.26v9.362L313.98,766.857,138.665,610.177-.394,765.776v9.362Z"/><path class="b" d="M202.016,859.379l5.744-6.427c-14.355-7.984-20.2-27.464-42.826-23.6,2.2,20.848,4.377,41.484,6.75,63.968Z"/><path class="b" d="M140.863,896.379l24.454,1.091-7.264-66.812c-16.532-4.082-26.916,3.408-35.571,15.206-3.8,5.182-7.739,10.622-12.738,14.5-11.872,9.2-12.017,20.6-8.07,34.269l22.743,1.015Z"/><path class="b" d="M35.144,867.724c-1.285-7.415-2.543-14.835-3.76-21.944-.344-.019-.709.04-1.059.04a51.97,51.97,0,0,0-29.47,16.5c-.438.49-.834,1-1.249,1.5v26.186l39.752,1.768C37.773,882.739,36.445,875.234,35.144,867.724Z"/><path class="c" d="M-.394,1118.622,252.291,835.883l61.689-69.026L-.394,1118.622Z"/><path class="c" d="M-.394,1130.321h0L324.987,766.239l-54.742,61.253Z"/><path class="c" d="M91.666,903.621c-.007.059-.016.118-.023.178C91.651,903.739,91.659,903.68,91.666,903.621Z"/><path class="c" d="M82.62,927.243c-.06.086-.123.171-.185.257C82.5,927.414,82.56,927.329,82.62,927.243Z"/><path class="c" d="M6.826,937.712C6.21,937.21,5.6,936.7,5,936.161,5.6,936.7,6.209,937.21,6.826,937.712Z"/><path class="c" d="M33.82,949.082c-.109-.012-.219-.023-.328-.036C33.6,949.059,33.711,949.069,33.82,949.082Z"/><path class="c" d="M10.266,940.278c-.183-.126-.367-.25-.549-.378C9.9,940.028,10.083,940.152,10.266,940.278Z"/><path class="c" d="M36.975,949.35c-.232-.012-.463-.028-.695-.044C36.512,949.322,36.743,949.337,36.975,949.35Z"/><path class="c" d="M48.353,904.566l0-.023Z"/><path class="c" d="M39.91,949.433c-.248,0-.5-.009-.744-.012C39.414,949.424,39.662,949.433,39.91,949.433Z"/><path class="c" d="M81.014,929.4c-.134.171-.266.343-.4.513C80.748,929.745,80.881,929.573,81.014,929.4Z"/><path class="c" d="M73.75,948.646c.385-.3.77-.609,1.152-.925C74.52,948.037,74.135,948.342,73.75,948.646Z"/><path class="c" d="M68.39,952.459q.471-.3.94-.607Q68.86,952.161,68.39,952.459Z"/><path class="c" d="M70.215,951.256q.5-.339.987-.689Q70.71,950.918,70.215,951.256Z"/><path class="c" d="M66.547,953.573c.3-.172.6-.351.9-.531C67.145,953.222,66.846,953.4,66.547,953.573Z"/><path class="c" d="M64.691,954.591c.286-.148.572-.3.858-.461C65.263,954.286,64.977,954.443,64.691,954.591Z"/><path class="c" d="M75.4,947.3c.442-.371.883-.744,1.32-1.129C76.281,946.559,75.84,946.932,75.4,947.3Z"/><path class="c" d="M72.01,949.977c.351-.259.7-.52,1.05-.788C72.711,949.457,72.361,949.718,72.01,949.977Z"/><path class="c" d="M76.863,946.043c13.372-11.834,24.39-29.935,24.769-44.384a34.064,34.064,0,0,1-.535,4.883C98.771,920.011,88.753,935.51,76.863,946.043Z"/><path class="c" d="M163.151,877.542c-1.766-16.243-3.454-31.766-5.1-46.884l7.264,66.812C164.579,890.678,163.86,884.066,163.151,877.542Z"/><path class="c" d="M62.831,955.505c.27-.125.541-.26.812-.392C63.372,955.245,63.1,955.38,62.831,955.505Z"/><path class="c" d="M165.317,897.47l-24.454-1.091Z"/><path class="c" d="M164.934,829.351c1.571,14.893,3.134,29.7,4.762,45.132.651,6.169,1.31,12.414,1.988,18.836C169.311,870.835,167.133,850.2,164.934,829.351Z"/><path class="c" d="M110.788,902.013l-9.156-.354L162.138,904Z"/><path class="c" d="M59.121,956.993c.205-.07.413-.152.619-.226C59.534,956.841,59.326,956.923,59.121,956.993Z"/><path class="c" d="M60.972,956.308c.249-.1.5-.212.747-.318C61.47,956.1,61.221,956.208,60.972,956.308Z"/><path class="c" d="M8.626,939.108q-.516-.385-1.025-.784C7.941,938.589,8.282,938.852,8.626,939.108Z"/><path class="c" d="M138.665,610.177,313.98,766.857l-61.689,69.026,17.954-8.391,54.742-61.253L138.047,599.17-.394,754.077v11.7Z"/><path class="c" d="M-.394,1130.321,270.245,827.493l-17.954,8.391L-.394,1118.622Z"/><path class="c" d="M91.931,900.984c-.064.881-.154,1.76-.265,2.637C91.774,902.743,91.867,901.864,91.931,900.984Z"/><path class="c" d="M202.016,859.379l5.744-6.427-5.744,6.427Z"/><path class="c" d="M101.674,894.629l22.742,1.015h0Z"/><path class="c" d="M48.353,904.566c1.451,8.643,2.789,16.754,4.153,24.685h0C51.144,921.32,49.8,913.2,48.353,904.566Z"/><path class="c" d="M90.028,911.715a52.715,52.715,0,0,0,1.615-7.916,54.283,54.283,0,0,1-1.655,7.935Z"/><path class="c" d="M8.425,949.852h0l-8.819-7.881h0Z"/><path class="c" d="M48.349,904.543c-.311-1.853-.626-3.722-.949-5.628Q47.883,901.77,48.349,904.543Z"/><path class="c" d="M237.923,842.6l67.958-76.041L237.923,842.6Z"/><path class="c" d="M46.121,932.235c-1.86-11.027-3.731-22.119-5.637-33.422,1.907,11.308,3.776,22.39,5.637,33.422Z"/><path class="c" d="M10.266,940.278a51.887,51.887,0,0,0,8.5,4.74l.021-.009A52.586,52.586,0,0,1,10.266,940.278Z"/><path class="c" d="M7.6,938.324c-.259-.2-.519-.4-.775-.612C7.082,937.921,7.342,938.121,7.6,938.324Z"/><path class="c" d="M9.717,939.9c-.366-.258-.729-.524-1.091-.792Q9.168,939.512,9.717,939.9Z"/><path class="c" d="M19.515,776.259c3.645,21.3,6.967,40.716,10.263,59.986A60.607,60.607,0,0,0,3.16,849.625c-1.214.938-2.4,1.932-3.554,2.966v11.231c.415-.5.811-1.013,1.249-1.5a51.97,51.97,0,0,1,29.47-16.5c.35,0,.715-.059,1.059-.04,1.217,7.109,2.475,14.529,3.76,21.944,1.3,7.51,2.629,15.015,4.214,24.052L-.394,890.008v6.715c5.067.106,10.137.228,15.2.452,8.362.369,16.71,1.053,25.676,1.638,1.906,11.3,3.777,22.4,5.637,33.422l6.385-2.984c-1.364-7.931-2.7-16.042-4.153-24.685l0-.023q-.467-2.777-.949-5.628l44.531,2.069c-.064.88-.157,1.759-.265,2.637-.007.059-.015.118-.023.178a52.715,52.715,0,0,1-1.615,7.916l11.069-5.173a34.064,34.064,0,0,0,.535-4.883l9.156.354,13.628-6.369-22.742-1.015c-3.947-13.667-3.8-25.07,8.07-34.269,5-3.874,8.937-9.314,12.738-14.5,8.655-11.8,19.039-19.288,35.571-15.206,1.644,15.118,3.332,30.641,5.1,46.884l6.545-3.059c-1.628-15.428-3.191-30.239-4.762-45.132,22.628-3.863,28.471,15.617,42.826,23.6l-5.744,6.427L237.923,842.6l67.958-76.041L139.87,618.192-.394,775.138v23.4Zm26.612,115.9L38.4,845.764a34.667,34.667,0,0,1,4.844-.715,52.095,52.095,0,0,1,48.776,49.025ZM94.8,865.213c-8.2-7.325-16.336-13.85-23.377-21.4-1.843-1.977-1.786-8.306,0-10.632A232.924,232.924,0,0,1,93.994,807.93c2.281-2.207,8.622-3.575,10.7-2.052,2.534,1.859,4.974,3.864,7.391,5.927.718.709,1.391,1.449,2.152,2.129,1.073.959,2.2,1.812,3.324,2.68,3.7,3.356,7.429,6.848,11.392,10.389Zm24.628-57.092a51.985,51.985,0,0,1-16.548-29.708c-.192-1.709-.325-3.44-.353-5.205l49.431-.282c1.808,16.942,3.492,32.714,5.164,48.393A52.128,52.128,0,0,1,119.43,808.121Zm33.612-89.047a33.072,33.072,0,0,1,10.64-1.317,52.026,52.026,0,0,1,42.261,43.42,36.99,36.99,0,0,1-.179,4.636l-47.682.208C156.359,749.969,154.694,734.467,153.042,719.074Zm11.011,101.351c-.869-7.176-1.8-14.5-2.611-21.857-.882-7.988-1.63-15.989-2.6-25.628l47.56-.424a51.96,51.96,0,0,1-42.345,47.909Zm49.269,26.3a7.479,7.479,0,0,1-3.793-1.121c-7.851-6.107-15.041-13.065-23.6-20.712l25.737-28.8,26.075,23.3Zm30.152-33.738c-10.544-2.2-28.614-27.1-28.532-40.3l65.074-.592Zm-3.45-84.381,7.466,6.673a19.442,19.442,0,0,0,3.074,3.405c2.209,1.8,4.466,3.551,6.7,5.328l23.3,20.823-.243.538-64.586.443c-6.017-19.559-1.452-30.281,16.978-38.283C234.554,726.735,237.482,727.459,240.024,728.609Zm-17.9-16c.885,2.44,1.2,5.2.412,6.839-3.157,6.561-8.092,12.267-12.855,19.093l-10.741-9.6a57.727,57.727,0,0,0-9.722-8.689l-8.77-7.837,18.41-20.6Zm-72.309-64.623,42.781,38.234c-6.695,7.946-14.312,21.538-28.46,23.7a60.443,60.443,0,0,0-11.841-.777c-.223-.058-.426-.078-.652-.141C152.491,689.939,143.476,668.382,149.811,647.986Zm-3.023,76.192c1.458,13.557,2.846,27.121,4.386,41.932l-48.4.385a21.683,21.683,0,0,1-.416-3.09,51.892,51.892,0,0,1,37.19-44.384,25.927,25.927,0,0,1,6.1-.482C146.027,720.343,146.58,722.242,146.788,724.178Zm-9-80.264c2.611,23.084,5.02,44.374,7.449,65.835a60.4,60.4,0,0,0-6.989,1.531c-17.8-.272-24.993-16.825-38.195-25.143ZM95.059,691.729l27.8,24.848c-.971,1.086-1.927,2.186-2.888,3.281a58.669,58.669,0,0,0-17.891,19.525c-.3.292-.582.6-.884.894-1.758,1.681-7.674,1.438-9.918-.252-7.409-5.581-14.114-12.148-22.107-19.333ZM64.4,726.032c10.894,11.839,29.085,16.951,30.071,38.249-.051.638-.136,1.274-.166,1.914l-66.561.853ZM93.53,773.256a47.607,47.607,0,0,1,1.36,4.82c.12.8.315,1.594.467,2.393,1.928,11.723-2.27,20.661-11.257,28.675-7.465,6.657-13.286,15.127-20.456,22.16a24.18,24.18,0,0,1-11.187,5.667,31.683,31.683,0,0,1-4.368.7,60.32,60.32,0,0,0-6.026-.514c-4.681-1.506-7.33-5.918-7.975-14.148-1.273-16.242-5-32.29-7.849-49.524Z"/><path class="c" d="M18.767,945.018a51.887,51.887,0,0,1-8.5-4.74c-.183-.126-.367-.25-.549-.378q-.549-.389-1.091-.792c-.344-.256-.685-.519-1.025-.784-.259-.2-.519-.4-.775-.612C6.209,937.21,5.6,936.7,5,936.161a51.336,51.336,0,0,1-5.394-5.635v11.445l8.819,7.881Z"/><path class="c" d="M65.549,954.13c.332-.182.665-.365,1-.557C66.214,953.765,65.881,953.948,65.549,954.13Z"/><path class="c" d="M67.444,953.042c.316-.191.631-.384.946-.583C68.075,952.658,67.76,952.851,67.444,953.042Z"/><path class="c" d="M69.33,951.852c.3-.2.59-.394.885-.6C69.92,951.458,69.626,951.657,69.33,951.852Z"/><path class="c" d="M73.06,949.189c.231-.178.46-.361.69-.543C73.52,948.828,73.291,949.011,73.06,949.189Z"/><path class="c" d="M63.643,955.113c.349-.17.7-.34,1.048-.522C64.342,954.773,63.992,954.943,63.643,955.113Z"/><path class="c" d="M71.2,950.567c.27-.193.539-.391.808-.59C71.741,950.175,71.472,950.374,71.2,950.567Z"/><path class="c" d="M237.923,842.6-.394,1109.26h0L237.923,842.6Z"/><path class="c" d="M124.417,895.644h0l16.447.735Z"/><path class="c" d="M171.684,893.319l30.332-33.94h0Z"/><path class="c" d="M61.719,955.99c.371-.157.741-.314,1.112-.485C62.46,955.676,62.09,955.833,61.719,955.99Z"/><path class="c" d="M59.74,956.767c.41-.148.821-.3,1.232-.459C60.561,956.472,60.15,956.619,59.74,956.767Z"/><path class="c" d="M48.881,948.6q-1.377-8.168-2.76-16.363h0Q47.5,940.423,48.881,948.6Z"/><path class="c" d="M57.283,957.554c.61-.165,1.223-.354,1.838-.561C58.506,957.2,57.893,957.389,57.283,957.554Z"/><path class="c" d="M52.508,929.25h0c.683,3.972,1.373,7.9,2.088,11.824Q53.523,935.2,52.508,929.25Z"/><path class="c" d="M42.75,949.358c-.946.053-1.893.074-2.84.075C40.857,949.431,41.8,949.411,42.75,949.358Z"/><path class="c" d="M82.62,927.243a51.663,51.663,0,0,0,7.408-15.528l-.04.019A51.928,51.928,0,0,1,82.62,927.243Z"/><path class="c" d="M80.612,929.915c-.57.71-1.156,1.414-1.771,2.1C79.456,931.329,80.041,930.625,80.612,929.915Z"/><path class="c" d="M14.355,955.152l-5.93-5.3h0Z"/><path class="c" d="M18.767,945.018a52.137,52.137,0,0,0,14.725,4.028,52.481,52.481,0,0,1-14.7-4.037Z"/><path class="c" d="M82.435,927.5c-.455.642-.931,1.275-1.421,1.9Q81.75,928.463,82.435,927.5Z"/><path class="c" d="M36.28,949.306c-.821-.056-1.641-.129-2.46-.224Q35.049,949.223,36.28,949.306Z"/><path class="c" d="M39.166,949.421c-.73-.01-1.461-.03-2.191-.071C37.705,949.39,38.436,949.412,39.166,949.421Z"/><path class="c" d="M76.718,946.174c.049-.043.1-.088.145-.131C76.814,946.086,76.767,946.131,76.718,946.174Z"/><path class="c" d="M74.9,947.721c.166-.137.331-.279.5-.418C75.233,947.442,75.068,947.584,74.9,947.721Z"/><path class="c" d="M171.684,893.319c-.678-6.422-1.337-12.667-1.988-18.836l-6.545,3.059c.709,6.524,1.428,13.136,2.166,19.928l-24.454-1.091-16.447-.735-13.628,6.369L162.138,904,66.395,1011.131l-9.112-53.577c.61-.165,1.223-.354,1.838-.561.205-.07.413-.152.619-.226.41-.148.821-.3,1.232-.459.249-.1.5-.212.747-.318.371-.157.741-.314,1.112-.485.27-.125.541-.26.812-.392.349-.17.7-.34,1.048-.522.286-.148.572-.3.858-.461.332-.182.665-.365,1-.557.3-.172.6-.351.9-.531.316-.191.631-.384.946-.583s.627-.4.94-.607c.3-.2.59-.394.885-.6q.5-.339.987-.689c.27-.193.539-.392.808-.59.351-.259.7-.52,1.05-.788.231-.178.46-.361.69-.543.385-.3.77-.609,1.152-.925.166-.137.331-.279.5-.418.442-.371.883-.744,1.32-1.129.049-.043.1-.088.145-.131,11.89-10.533,21.908-26.032,24.234-39.5l-11.069,5.173a51.663,51.663,0,0,1-7.408,15.528c-.06.086-.124.171-.185.257q-.684.963-1.421,1.9c-.133.171-.266.343-.4.513-.571.71-1.156,1.414-1.771,2.1a51.9,51.9,0,0,1-22.322,14.667,16.535,16.535,0,0,1-1.925-5.608c-.715-3.921-1.405-7.852-2.088-11.824l-6.385,2.984q1.383,8.2,2.76,16.363c-2.074.363-4.117.607-6.131.76-.946.053-1.893.073-2.84.075-.248,0-.5-.009-.744-.012-.73-.009-1.461-.031-2.191-.071-.232-.013-.463-.028-.695-.044q-1.231-.083-2.46-.224c-.109-.013-.219-.023-.328-.036a52.137,52.137,0,0,1-14.725-4.028L8.425,949.852l5.93,5.3-14.749,16.5v11.593c14.888-20.088,20.94-25.375,34.715-26.333a60.54,60.54,0,0,0,11.8-.08c1.362.04,2.772.086,4.268.14,3.2,19,6.432,38.227,9.967,59.235l-60.754.5v6.67l56.28-.493-35.273,39.468a7.33,7.33,0,0,1-2.91-1.186c-6.158-4.975-12.526-9.877-18.1-15.446v9.832l15.058,13.457L-.394,1085.863v23.4L237.923,842.6l-35.907,16.781Z"/></g><g class="d"><path class="b" d="M151.341,1014.667a21.486,21.486,0,0,0-21.6,5.285,19,19,0,0,0-5.172,9.452c-.965,4.485-1.694,9.022-2.484,13.542-1.281,7.329,6.9,20.052,13.741,18.96,14.335-2.288,30.647-1.178,40.828-14.009a31.572,31.572,0,0,0,1.872-2.641c.486-.763.961-1.552,1.41-2.4q.468-.879.906-1.822Z"/><path class="b" d="M.394,1144.852v8.392A16.453,16.453,0,0,0,.394,1144.852Z"/><path class="b" d="M15.361,1204.7c5.093-1.061,10.107-2.9,15.238-3.281,9.356-.688,14.739-6.166,19.024-13.454a6.965,6.965,0,0,0-.961-1.816q-11.9-10.806-23.87-21.544c-8.223-7.335-17.884-7.367-24.4,1.249v35.979C4.252,1204.724,9.525,1205.921,15.361,1204.7Z"/><path class="b" d="M87.324,972.051c.258-.289.522-.605.791-.939s.566-.721.859-1.119c.16-.216.322-.441.487-.673.65-.916,1.337-1.95,2.07-3.1q.437-.688.9-1.433c.354-.574.715-1.165,1.092-1.791l-8.292-7.411L73.943,968.206C79.909,975.317,82.9,977,87.324,972.051Z"/><path class="b" d="M14.557,1253.068l35.377-39.584a.855.855,0,0,0-.091-.31c-2.459-3.183-6.621-7.789-9.563-7.417-14.44,1.824-29.084,3.806-39.886,13.324v35.868A31.7,31.7,0,0,0,14.557,1253.068Z"/><path class="b" d="M115.1,1056.825a100.542,100.542,0,0,0-11.486,5.757q-1.281.735-2.559,1.5c-4.105,2.444-8.208,5.075-12.451,7.7l-1.046.647q-1.857,1.143-3.755,2.276c16.456,6.688,24.72,9.07,31.591,5.536a17.478,17.478,0,0,0,2.869-1.885,25.647,25.647,0,0,0,2.389-2.163,82.319,82.319,0,0,0,9.063-12.027C124.357,1061.306,118.256,1055.516,115.1,1056.825Z"/><path class="b" d="M111.842,1112.294c.5.012,1.023-.49,2.143-1.066-.513-5.81-.771-11.907-1.747-17.887a7.255,7.255,0,0,0-3.975-4.879c-1.4-.456-2.82-.894-4.243-1.327-6.112-1.861-12.469-3.571-19.686-5.565l-.6-.167c-1.19-.329-2.4-.665-3.64-1.012l-.226-.063.008.022c.365.953.713,1.9,1.053,2.839.1.265.19.527.284.791q.432,1.213.847,2.415c.043.124.087.248.129.372.31.9.611,1.793.91,2.68q.568,1.681,1.125,3.329h0c2.326,6.841,4.646,13.126,8.382,18.41C94.921,1114.463,105.192,1112.134,111.842,1112.294Z"/><path class="b" d="M34.94,1124.891c6.69-2.322,15.822-2.664,18.97-7.178,3.969-5.691,6.644-12.284,9.175-18.978q.579-1.53,1.152-3.064.528-1.408,1.061-2.814c.014-.039.029-.077.044-.116q.474-1.243.962-2.48.133-.337.268-.674c.352-.885.709-1.766,1.078-2.638-6.962,2.3-12,6.43-17.726,9.03q-1.063.483-2.054,1c-.331.173-.641.358-.959.538s-.628.345-.926.525c-.415.251-.809.515-1.2.779-.174.116-.356.229-.526.348-.445.312-.868.636-1.283.966-.1.077-.2.151-.295.229-.448.366-.875.744-1.286,1.132-.049.046-.1.09-.148.136q-.649.623-1.236,1.282l-.06.066q-.608.688-1.15,1.419l-.01.014q-.552.745-1.033,1.537h0C34.817,1110.785,33.823,1116.934,34.94,1124.891Z"/><path class="b" d="M121.556,1112.339c5.859-.307,12.295-.294,18.617-1.136a12.9,12.9,0,0,0,1.461-.327l35.126-39.3a6.955,6.955,0,0,0-.949-3.391c-.281-.4-.573-.77-.872-1.131l-.015,0a11.529,11.529,0,0,0-6.065-4.1l-.038-.01c-.233-.057-.47-.1-.711-.144-.059-.01-.119-.021-.179-.03-.211-.032-.425-.056-.641-.075-.1-.009-.195-.015-.293-.021-.193-.012-.387-.019-.585-.021-.13,0-.262,0-.4.007-.177.005-.355.01-.536.023-.164.012-.332.032-.5.051s-.317.032-.479.056c-.212.032-.43.075-.647.117-.127.025-.251.044-.38.073-.352.078-.71.169-1.077.276-9.283,2.723-20.536,2.1-27.9,7.262l0,0c-.535.375-1.06.758-1.58,1.146-.1.075-.2.152-.3.228a45.016,45.016,0,0,0-9.872,9.955l-.04.011C117.077,1089.946,115.427,1099.954,121.556,1112.339Z"/><path class="b" d="M71.873,1132.006c3.272-3.663,6.846-7.345,10.025-11.341,1.784-2.244,4.635-5.537,4.047-7.445-1.922-6.24-4.342-12.345-7.064-19.144q-1-2.508-2.06-5.154-.132-.335-.265-.67c-.467-1.175-.938-2.369-1.419-3.6l-.041-.1c-.044.1-.085.2-.13.3q-.56,1.282-1.1,2.514l-.4.917-.9,2.047c-1.006,2.29-1.969,4.478-2.893,6.58h0c-2.216,5.042-4.223,9.631-6.174,14.242C58.247,1123.557,58.3,1123.578,71.873,1132.006Z"/><path class="b" d="M130.542,996.08,98.706,967.627A55.488,55.488,0,0,0,92.25,973.6c-.648.714-1.254,1.443-1.833,2.181q-.775.99-1.462,2.013a27.689,27.689,0,0,0-4.7,18.721c.3,3.288-.521,6.676-.8,10.02-1.275,15.178,9.223,23.493,23.846,18.952,3.5-1.085,7.131-1.741,10.575-2.956a17.669,17.669,0,0,0,6.594-4.314c.026-.027.051-.055.077-.081.385-.393.755-.8,1.114-1.228q.232-.276.457-.559a24.681,24.681,0,0,0,1.657-2.363c.312-.506.609-1.022.885-1.549.015-.028.032-.056.047-.085C131.437,1007.093,132.363,1000.905,130.542,996.08Z"/><path class="b" d="M2.778,1208.7c-.794-.349-1.59-.74-2.384-1.155v4.041C1.165,1210.666,1.954,1209.714,2.778,1208.7Z"/><path class="b" d="M90.333,1120.522c-6.88,4.037-13.454,11.706-16.115,19.227-6.825,19.286-4.387,32.242,5.75,40.129l36.2-40.512c.01-.216.045-.443.036-.65-.291-6.658-1.025-13.3-1.725-21.508C105.515,1118.211,96.485,1116.913,90.333,1120.522Z"/><path class="b" d="M56.792,1190.009l-9.74,10.9c2.679,4.511,5.19,6.859,7.732,7.15l20.329-22.747c-2.566-2.292-4.981-4.451-7.851-7.017Z"/><path class="b" d="M64.732,1169.52c2.01-10.44,2.071-21.268,2.642-31.952.06-1.113-1.728-2.4-2.777-3.486-8.131-8.452-26.553-9.052-35.411-1.182-6.487,5.764-9.506,19.012-4.586,23.8,9.383,9.128,19.426,17.576,30.247,27.247C58.874,1178.31,63.811,1174.3,64.732,1169.52Z"/><path class="b" d="M6.16,1143.913c-.276,3.752-.512,6.96-.831,11.29l11.912-1.278c-.154-3.714-.293-7.069-.45-10.87Z"/><path class="b" d="M.394,1088.14c1.55-.292,3.105-.556,4.651-.817a29.907,29.907,0,0,0,7.9-2.551,35.463,35.463,0,0,0,8.343-5.616c.136-.122.274-.241.408-.365,9.14-8.479,14.244-22.034,7.06-36.237-5.1.075-10.318-.152-15.465.333a34.673,34.673,0,0,0-7.072,1.1L.394,1050.5Z"/><path class="b" d="M79.69,1021.733q-.789.884-1.587,1.753-1.339,1.464-2.679,2.908l-.256.279q-1.308,1.421-2.585,2.851l-.376.428c-1.341,1.524-2.64,3.072-3.857,4.683a18.561,18.561,0,0,0-1.761,2.841c-.866,1.735-1.413,3.6-1,4.938,2.571,8.273,6.1,16.249,10.143,26.542,4.353-9.5,7.728-16.861,11.1-24.225C92.84,1031.641,92.84,1031.641,79.69,1021.733Z"/><path class="b" d="M121.585,1133.311l14.141-15.824-13.269,1.4C122.2,1123.065,121.944,1127.375,121.585,1133.311Z"/><path class="b" d="M83.465,1065.939c7.472-2.2,13.023-6.526,19.308-8.933a23,23,0,0,0,9.356-6.214c4.974-5.68,5.984-13.609,6.1-23-6.828,2.664-15.195,3.487-19.273,7.564a8.563,8.563,0,0,0-.757.86C91.586,1044.819,88.2,1055.9,83.465,1065.939Z"/><path class="b" d="M8.28,1260.092l-7.886.261v8.562Z"/><path class="b" d="M32.036,1074.868c-.511.36-1.014.745-1.506,1.164-.436.37-.867.755-1.29,1.172a43.464,43.464,0,0,0-7.719,11.224c2.354,2.1,4.633,4.649,7.4,6.451,2.242,1.462,5.973,3.608,7.487,2.739,1.061-.609,2.115-1.23,3.167-1.854q2.516-1.49,5.012-3.029c7.378-4.548,14.7-9.4,22.407-14.326C50.293,1070.726,39.97,1069.285,32.036,1074.868Z"/><path class="b" d="M37.688,1042.5a9.773,9.773,0,0,0-1.713.867c.447,4.736.674,9.318,1.385,13.824.4,2.518,1.073,6.637,2.522,7.078,9.669,2.94,19.58,5.083,30.217,7.681C61.949,1041.684,59.747,1039.774,37.688,1042.5Z"/><path class="b" d="M1.993,1093.8c-.528.122-1.062.232-1.6.339v40.24c.547.391,1.08.8,1.635,1.177,4.064,2.769,13.306,2.335,17.64-.515,8.672-5.7,11.473-16.687,9.16-26.56l-.024.007a28.121,28.121,0,0,0-4.7-10.3c-.05-.068-.1-.134-.154-.2-.3-.4-.611-.779-.932-1.156-.094-.11-.187-.221-.283-.329-.384-.435-.779-.86-1.195-1.267l-.006-.006C14.777,1088.62,8.488,1092.316,1.993,1093.8Z"/><path class="b" d="M215.1,1053.579l1.541-1.724L83.371,932.754l-70.618,79.017L.394,1025.6v7.117L56.3,970.163l27.987-31.316h0l126.194,112.78h0L.394,1286.7v7.117L212.6,1056.371h0Z"/><path class="b" d="M28.341,1019.233l-1.874,2.1-13.875,15.526,15.687-1.734C28.3,1030.838,28.316,1025.645,28.341,1019.233Z"/><path class="b" d="M34.182,1035.88c15.621,1.559,28.583-1.7,36.218-9.3a24.65,24.65,0,0,0,3.1-3.772c.207-.31.408-.623.6-.943a24.875,24.875,0,0,0,2.658-6.171c2.9-10.364,2.577-21.879,2.06-32.8-.152-3.218-4.861-6.233-8.821-10.265l-4.236,4.74-31.378,35.11a14.855,14.855,0,0,0-.3,2.6C33.934,1022.087,34.122,1029.108,34.182,1035.88Z"/><path class="b" d="M193.747,1052.566l-7.4-6.615-3.152,3.527-2.45,2.742-.629.7-3.914,4.38-1.946,2.178,7.3,5.694h0l.544.424Z"/><path class="e" d="M215.1,1053.579l1.541-1.724L83.372,932.754h0l133.266,119.1Z"/><path class="e" d="M212.6,1056.371.394,1293.818v8.893l222.852-249.358Z"/><path class="e" d="M.394,1025.6h0l12.359-13.829Z"/><path class="e" d="M23.951,1097.987c.051.067.1.133.154.2C24.055,1098.12,24,1098.054,23.951,1097.987Z"/><path class="e" d="M22.736,1096.5c.1.108.189.219.283.329C22.925,1096.721,22.832,1096.61,22.736,1096.5Z"/><path class="e" d="M21.286,1079.156a35.463,35.463,0,0,1-8.343,5.616A35.463,35.463,0,0,0,21.286,1079.156Z"/><path class="e" d="M38.789,1104.416l.01-.014Z"/><path class="e" d="M132.614,1071.9c.1-.076.2-.153.3-.228C132.815,1071.745,132.715,1071.822,132.614,1071.9Z"/><path class="e" d="M163.855,1062.911c.217-.042.435-.085.647-.117C164.29,1062.826,164.072,1062.869,163.855,1062.911Z"/><path class="e" d="M166.017,1062.664c.133,0,.265-.008.4-.007C166.282,1062.656,166.15,1062.661,166.017,1062.664Z"/><path class="e" d="M37.688,1042.5a9.773,9.773,0,0,0-1.713.867h0a9.773,9.773,0,0,1,1.713-.867c22.059-2.73,24.261-.82,32.411,29.45h0C61.949,1041.684,59.747,1039.774,37.688,1042.5Z"/><path class="e" d="M32.036,1074.868c7.934-5.583,18.257-4.142,34.955,3.541h0C50.293,1070.726,39.97,1069.285,32.036,1074.868Z"/><path class="e" d="M182.791,1064.824l10.956-12.258-7.4-6.615h0l7.4,6.615L182.1,1065.6l-.544-.424-6.616,1.876c.3.361.591.734.872,1.131a6.955,6.955,0,0,1,.949,3.391l-35.126,39.3a12.9,12.9,0,0,1-1.461.327c-6.322.842-12.758.829-18.617,1.136-6.129-12.385-4.479-22.393,1.146-30.475l-18.635,5.285-.047-.014c1.423.433,2.838.871,4.243,1.327a7.255,7.255,0,0,1,3.975,4.879c.976,5.98,1.234,12.077,1.747,17.887-1.12.576-1.638,1.078-2.143,1.066-6.65-.16-16.921,2.169-19.237-1.108-3.736-5.284-6.056-11.569-8.382-18.41l-5.265,1.493-.077-.193c2.722,6.8,5.142,12.9,7.064,19.144.588,1.908-2.263,5.2-4.047,7.445-3.179,4-6.753,7.678-10.025,11.341-13.576-8.428-13.626-8.449-8.374-20.862,1.951-4.611,3.958-9.2,6.174-14.242l-6.6,1.872.014-.039c-2.531,6.694-5.206,13.287-9.175,18.978-3.148,4.514-12.28,4.856-18.97,7.178-1.117-7.957-.123-14.106,2.816-18.938l-8.927,2.531c2.313,9.873-.488,20.859-9.16,26.56-4.334,2.85-13.576,3.284-17.64.515-.555-.378-1.088-.786-1.635-1.177v10.47a16.453,16.453,0,0,1,0,8.392v12.615c6.514-8.616,16.175-8.584,24.4-1.249q12,10.7,23.87,21.544a6.965,6.965,0,0,1,.961,1.816c-4.285,7.288-9.668,12.766-19.024,13.454-5.131.378-10.145,2.22-15.238,3.281-5.836,1.216-11.109.019-14.967-2.867v5.708c.794.415,1.59.806,2.384,1.155-.824,1.013-1.613,1.965-2.384,2.886v7.494c10.8-9.518,25.446-11.5,39.886-13.324,2.942-.372,7.1,4.234,9.563,7.417a.855.855,0,0,1,.091.31l-35.377,39.584a31.7,31.7,0,0,1-14.163,1.881v5.4l7.886-.261-7.886,8.823V1286.7l210.087-235.075h0l-6.4,7.161ZM5.329,1155.2c.319-4.33.555-7.538.831-11.29l10.631-.858c.157,3.8.3,7.156.45,10.87ZM24.6,1156.7c-4.92-4.786-1.9-18.034,4.586-23.8,8.858-7.87,27.28-7.27,35.411,1.182,1.049,1.09,2.837,2.373,2.777,3.486-.571,10.684-.632,21.512-2.642,31.952-.921,4.782-5.858,8.79-9.885,14.425C44.026,1174.274,33.983,1165.826,24.6,1156.7Zm30.184,51.359c-2.542-.291-5.053-2.639-7.732-7.15l9.74-10.9,10.47-11.716c2.87,2.566,5.285,4.725,7.851,7.017Zm61.389-68.691-36.2,40.512c-10.137-7.887-12.575-20.843-5.75-40.129,2.661-7.521,9.235-15.19,16.115-19.227,6.152-3.609,15.182-2.311,24.151-3.314.7,8.211,1.434,14.85,1.725,21.508C116.218,1138.923,116.183,1139.15,116.173,1139.366Zm5.412-6.055c.359-5.936.619-10.246.872-14.42l13.269-1.4Z"/><path class="e" d="M72.583,1029.524q1.273-1.434,2.585-2.851Q73.86,1028.094,72.583,1029.524Z"/><path class="e" d="M164.981,1062.738c.168-.019.336-.039.5-.051C165.317,1062.7,165.149,1062.719,164.981,1062.738Z"/><path class="e" d="M34.379,1012.476h0l31.378-35.11Z"/><path class="e" d="M29.24,1077.2c.423-.417.854-.8,1.29-1.172C30.094,1076.4,29.663,1076.787,29.24,1077.2Z"/><path class="e" d="M73.866,1087.358q.542-1.234,1.1-2.514C74.592,1085.7,74.227,1086.535,73.866,1087.358Z"/><path class="e" d="M75.424,1026.394q1.335-1.448,2.679-2.908Q76.764,1024.95,75.424,1026.394Z"/><path class="e" d="M75.1,1084.547h0l.041.1Z"/><path class="e" d="M72.566,1090.322l.9-2.047C73.16,1088.969,72.862,1089.649,72.566,1090.322Z"/><path class="e" d="M83.1,1089.447c-.3-.887-.6-1.779-.91-2.68C82.5,1087.668,82.8,1088.56,83.1,1089.447Z"/><path class="e" d="M1.993,1093.8c6.495-1.487,12.784-5.183,19.542,1.426l.006.006-.006-.006c-6.757-6.609-13.047-2.913-19.542-1.426-.528.121-1.062.232-1.6.338h0C.931,1094.035,1.465,1093.925,1.993,1093.8Z"/><path class="e" d="M28.754,1042.554c7.184,14.2,2.08,27.758-7.06,36.237,9.14-8.479,14.244-22.034,7.06-36.237-5.1.075-10.318-.152-15.464.333a34.672,34.672,0,0,0-7.073,1.1h0a34.673,34.673,0,0,1,7.072-1.1C18.436,1042.4,23.649,1042.629,28.754,1042.554Z"/><path class="e" d="M76.556,1088.252q.133.336.265.67Z"/><path class="e" d="M82.059,1086.4q-.414-1.2-.847-2.415Q81.644,1085.193,82.059,1086.4Z"/><path class="e" d="M168.821,1062.948l.038.01Z"/><path class="e" d="M83.733,1081.4l.6.167Z"/><path class="e" d="M39.949,1102.983l.06-.066Z"/><path class="e" d="M42.679,1100.367c.1-.078.2-.152.295-.229C42.877,1100.215,42.774,1100.289,42.679,1100.367Z"/><path class="e" d="M44.257,1099.172c.17-.119.352-.232.526-.348C44.609,1098.94,44.427,1099.053,44.257,1099.172Z"/><path class="e" d="M41.245,1101.635c.048-.046.1-.09.148-.136C41.344,1101.545,41.293,1101.589,41.245,1101.635Z"/><path class="e" d="M79.867,1080.328h0l.226.063Z"/><path class="e" d="M66.3,1090.261q-.486,1.236-.962,2.48Q65.816,1091.5,66.3,1090.261Z"/><path class="e" d="M80.928,1083.189c-.34-.941-.688-1.886-1.053-2.839C80.24,1081.3,80.588,1082.248,80.928,1083.189Z"/><path class="e" d="M45.985,1098.045c.3-.18.616-.351.926-.525C46.6,1097.694,46.283,1097.864,45.985,1098.045Z"/><path class="e" d="M65.3,1092.857q-.535,1.4-1.061,2.814Q64.765,1094.263,65.3,1092.857Z"/><path class="e" d="M44.584,1092.735q-2.5,1.539-5.012,3.029Q42.088,1094.274,44.584,1092.735Z"/><path class="e" d="M180.743,1052.22l2.45-2.742Z"/><path class="e" d="M93.519,962.992l-8.292-7.411h0l8.292,7.411Z"/><path class="e" d="M92.427,964.783q-.46.746-.9,1.433Q91.967,965.528,92.427,964.783Z"/><path class="e" d="M88.6,1071.782c4.243-2.628,8.346-5.259,12.451-7.7C96.949,1066.523,92.846,1069.154,88.6,1071.782Z"/><path class="e" d="M89.461,969.32c-.165.232-.327.457-.487.673C89.134,969.777,89.3,969.552,89.461,969.32Z"/><path class="e" d="M83.8,1074.7h0q1.9-1.131,3.755-2.276Q85.7,1073.572,83.8,1074.7Z"/><path class="e" d="M126.112,1016.35q-.225.284-.457.559Q125.887,1016.633,126.112,1016.35Z"/><path class="e" d="M98.706,967.627l31.836,28.453c1.821,4.825.895,11.013-1.841,16.273,2.736-5.26,3.662-11.448,1.842-16.273L98.706,967.627A55.488,55.488,0,0,0,92.25,973.6,55.488,55.488,0,0,1,98.706,967.627Z"/><path class="e" d="M73.5,1022.808a24.65,24.65,0,0,1-3.1,3.772A24.65,24.65,0,0,0,73.5,1022.808Z"/><path class="e" d="M178.529,1045.256a31.572,31.572,0,0,1-1.872,2.641A31.572,31.572,0,0,0,178.529,1045.256Z"/><path class="e" d="M115.1,1056.825a100.542,100.542,0,0,0-11.486,5.757,100.542,100.542,0,0,1,11.486-5.757c3.157-1.309,9.258,4.481,14.615,7.341a82.319,82.319,0,0,1-9.063,12.027,82.319,82.319,0,0,0,9.063-12.027C124.357,1061.306,118.256,1055.516,115.1,1056.825Z"/><path class="e" d="M12.592,1036.854h0l13.875-15.526Z"/><path class="e" d="M128.654,1012.438c-.276.527-.573,1.043-.885,1.549C128.081,1013.481,128.378,1012.965,128.654,1012.438Z"/><path class="e" d="M129.744,1019.952a21.486,21.486,0,0,1,21.6-5.285l29.5,26.369q-.438.942-.906,1.822.468-.879.906-1.823l-29.5-26.368A21.486,21.486,0,0,0,129.744,1019.952Z"/><path class="e" d="M28.279,1035.12c.017-4.282.037-9.475.062-15.887h0c-.025,6.412-.045,11.605-.062,15.887Z"/><path class="e" d="M84.287,938.846,56.3,970.163l27.987-31.316Z"/><path class="e" d="M79.691,1021.733h0c13.15,9.908,13.15,9.908,7.149,23-3.376,7.364-6.751,14.729-11.1,24.225h0c4.353-9.5,7.728-16.861,11.1-24.225C92.84,1031.641,92.84,1031.641,79.691,1021.733Z"/><path class="e" d="M78.814,982.891c.517,10.924.839,22.439-2.06,32.8a24.875,24.875,0,0,1-2.658,6.171,24.875,24.875,0,0,0,2.658-6.171c2.9-10.364,2.577-21.879,2.061-32.8-.153-3.218-4.862-6.234-8.822-10.265h0C73.953,976.658,78.662,979.673,78.814,982.891Z"/><path class="e" d="M112.129,1050.792c4.974-5.68,5.985-13.609,6.1-23-6.828,2.663-15.195,3.487-19.273,7.564,4.078-4.077,12.445-4.9,19.273-7.564C118.113,1037.183,117.1,1045.112,112.129,1050.792Z"/><path class="e" d="M88.955,977.795q.688-1.023,1.462-2.013Q89.642,976.772,88.955,977.795Z"/><path class="e" d="M118.262,1078.356a17.478,17.478,0,0,1-2.869,1.885A17.478,17.478,0,0,0,118.262,1078.356Z"/><path class="e" d="M72.207,1029.952c-1.341,1.524-2.64,3.072-3.857,4.683a18.639,18.639,0,0,0-1.761,2.841,18.561,18.561,0,0,1,1.761-2.841C69.567,1033.024,70.866,1031.476,72.207,1029.952Z"/><path class="e" d="M162.4,1063.26c.367-.107.725-.2,1.077-.276-.352.078-.71.169-1.076.276-9.284,2.723-20.537,2.1-27.9,7.262l0,0,0,0C141.862,1065.363,153.115,1065.983,162.4,1063.26Z"/><path class="e" d="M67.65,1086.949c-.369.872-.726,1.753-1.078,2.638.352-.885.709-1.766,1.078-2.638-6.962,2.3-12,6.43-17.726,9.03q-1.063.483-2.054,1,.993-.519,2.054-1C55.652,1093.379,60.688,1089.253,67.65,1086.949Z"/><path class="e" d="M167.931,1062.774c.06.009.12.02.179.03C168.051,1062.793,167.991,1062.783,167.931,1062.774Z"/><path class="e" d="M167,1062.678c.1.006.2.012.293.021C167.193,1062.69,167.1,1062.684,167,1062.678Z"/><path class="e" d="M176.2,1057.3l3.914-4.38Z"/><path class="e" d="M88.115,971.112c-.269.334-.533.65-.791.939C87.582,971.762,87.846,971.446,88.115,971.112Z"/><path class="e" d="M124.541,1018.137c-.026.026-.051.054-.077.081C124.49,1018.191,124.515,1018.163,124.541,1018.137Z"/><path class="e" d="M83.371,932.754l-70.618,79.017,70.618-79.017Z"/><path class="e" d="M82.9,924.387l142.1,127-1.758,1.967h0l1.758-1.967-142.1-127L.394,1016.708h0Z"/><path class="e" d="M212.6,1056.371h0l2.5-2.792Z"/><path class="e" d="M82.9,924.387.394,1016.708v8.893l12.359-13.829,70.618-79.017h0l133.266,119.1-1.541,1.724-2.5,2.792,10.645-3.019,1.758-1.967Z"/><path class="e" d="M174.924,1067.055l.015,0a11.484,11.484,0,0,0-6.08-4.093A11.529,11.529,0,0,1,174.924,1067.055Z"/><path class="e" d="M132.614,1071.9a44.919,44.919,0,0,0-9.912,9.966l.04-.011A45.016,45.016,0,0,1,132.614,1071.9Z"/><path class="e" d="M83.1,1089.447q.568,1.683,1.125,3.329h0Q83.665,1091.132,83.1,1089.447Z"/><path class="e" d="M28.829,1108.484a27.986,27.986,0,0,0-4.724-10.3,28.121,28.121,0,0,1,4.7,10.3Z"/><path class="e" d="M81.212,1083.98c-.094-.264-.188-.526-.284-.791Q81.071,1083.585,81.212,1083.98Z"/><path class="e" d="M82.188,1086.767c-.042-.124-.086-.248-.129-.372C82.1,1086.518,82.146,1086.644,82.188,1086.767Z"/><path class="e" d="M164.5,1062.794c.162-.024.32-.039.479-.056C164.822,1062.755,164.664,1062.77,164.5,1062.794Z"/><path class="e" d="M180.114,1052.923l.629-.7Z"/><path class="e" d="M163.475,1062.984c.129-.029.253-.048.38-.073C163.728,1062.936,163.6,1062.955,163.475,1062.984Z"/><path class="e" d="M72.566,1090.322c-1.009,2.3-1.969,4.477-2.893,6.58h0C70.6,1094.8,71.56,1092.612,72.566,1090.322Z"/><path class="e" d="M186.345,1045.951l-3.152,3.527,3.152-3.527Z"/><path class="e" d="M165.481,1062.687c.181-.013.359-.018.536-.023C165.84,1062.669,165.663,1062.674,165.481,1062.687Z"/><path class="e" d="M166.412,1062.657c.2,0,.392.009.585.021C166.8,1062.667,166.61,1062.658,166.412,1062.657Z"/><path class="e" d="M167.29,1062.7c.216.019.43.043.641.075C167.72,1062.743,167.507,1062.718,167.29,1062.7Z"/><path class="e" d="M168.11,1062.8c.241.041.478.087.711.144Q168.471,1062.864,168.11,1062.8Z"/><path class="e" d="M80.093,1080.391c1.24.347,2.45.683,3.64,1.012Q81.951,1080.911,80.093,1080.391Z"/><path class="e" d="M132.916,1071.67c.52-.388,1.045-.771,1.58-1.146C133.961,1070.9,133.436,1071.282,132.916,1071.67Z"/><path class="e" d="M38.789,1104.416q-.552.745-1.033,1.537h0Q38.237,1105.161,38.789,1104.416Z"/><path class="e" d="M79.867,1080.328l.008.022-.008-.022Z"/><path class="e" d="M84.334,1081.57c7.217,1.994,13.574,3.7,19.686,5.565C97.906,1085.273,91.555,1083.564,84.334,1081.57Z"/><path class="e" d="M174.254,1059.481l1.946-2.178c-.636.711-1.28,1.433-1.947,2.178l7.3,5.694h0Z"/><path class="e" d="M6.217,1043.987h0L.394,1050.5h0Z"/><path class="e" d="M127.769,1013.987a24.681,24.681,0,0,1-1.657,2.363A24.681,24.681,0,0,0,127.769,1013.987Z"/><path class="e" d="M128.7,1012.353c-.015.029-.032.057-.047.085C128.669,1012.41,128.686,1012.382,128.7,1012.353Z"/><path class="e" d="M135.829,1061.906c-6.843,1.092-15.022-11.631-13.741-18.96.79-4.52,1.519-9.057,2.484-13.542a19,19,0,0,1,5.172-9.452,19,19,0,0,0-5.172,9.452c-.965,4.485-1.694,9.022-2.484,13.543-1.281,7.328,6.9,20.051,13.741,18.959,14.335-2.288,30.647-1.178,40.828-14.009C166.476,1060.728,150.164,1059.618,135.829,1061.906Z"/><path class="e" d="M107.295,1025.488c-14.623,4.541-25.121-3.774-23.846-18.952.281-3.344,1.1-6.732.8-10.02a27.689,27.689,0,0,1,4.7-18.721,27.7,27.7,0,0,0-4.705,18.721c.3,3.288-.521,6.676-.8,10.02-1.275,15.178,9.223,23.494,23.846,18.952,3.5-1.085,7.131-1.741,10.575-2.956a17.669,17.669,0,0,0,6.594-4.314,17.669,17.669,0,0,1-6.594,4.314C114.426,1023.747,110.79,1024.4,107.295,1025.488Z"/><path class="e" d="M125.655,1016.909c-.359.424-.729.835-1.114,1.228C124.926,1017.744,125.3,1017.333,125.655,1016.909Z"/><path class="e" d="M179.939,1042.858c-.449.846-.924,1.635-1.41,2.4C179.015,1044.493,179.49,1043.7,179.939,1042.858Z"/><path class="e" d="M76.821,1088.922q1.055,2.649,2.06,5.154C78.211,1092.4,77.527,1090.695,76.821,1088.922Z"/><path class="e" d="M120.651,1076.193a25.647,25.647,0,0,1-2.389,2.163A25.647,25.647,0,0,0,120.651,1076.193Z"/><path class="e" d="M112.129,1050.792a23,23,0,0,1-9.356,6.214c-6.285,2.407-11.836,6.731-19.308,8.933,4.734-10.042,8.121-21.12,14.729-29.723a8.563,8.563,0,0,1,.757-.86,8.672,8.672,0,0,0-.757.86c-6.608,8.6-10,19.681-14.729,29.723,7.472-2.2,13.023-6.526,19.308-8.933A23,23,0,0,0,112.129,1050.792Z"/><path class="e" d="M66.589,1037.476c-.866,1.735-1.413,3.6-1,4.938,2.571,8.274,6.1,16.249,10.143,26.542h0c-4.04-10.293-7.572-18.269-10.143-26.542C65.176,1041.076,65.723,1039.211,66.589,1037.476Z"/><path class="e" d="M101.054,1064.079q1.278-.762,2.559-1.5Q102.332,1063.317,101.054,1064.079Z"/><path class="e" d="M83.8,1074.7h0c16.456,6.688,24.72,9.07,31.591,5.536C108.522,1083.775,100.258,1081.393,83.8,1074.7Z"/><path class="e" d="M87.557,1072.429l1.046-.647Z"/><path class="e" d="M28.279,1035.12h0l-15.687,1.734h0Z"/><path class="e" d="M28.341,1019.233l-1.873,2.1,1.873-2.1Z"/><path class="e" d="M56.3,970.163.394,1032.718h0Z"/><path class="e" d="M210.481,1051.626,84.287,938.846h0l126.194,112.78Z"/><path class="e" d="M70.4,1026.58c-7.635,7.6-20.6,10.859-36.218,9.3-.06-6.772-.248-13.793-.1-20.806a14.855,14.855,0,0,1,.3-2.6h0a14.956,14.956,0,0,0-.3,2.6c-.143,7.013.045,14.034.1,20.806C49.8,1037.439,62.765,1034.179,70.4,1026.58Z"/><path class="e" d="M91.531,966.216c-.733,1.154-1.42,2.188-2.07,3.1C90.111,968.4,90.8,967.37,91.531,966.216Z"/><path class="e" d="M88.974,969.993q-.439.6-.859,1.119Q88.535,970.59,88.974,969.993Z"/><path class="e" d="M74.1,1021.865c-.193.32-.394.633-.6.943C73.7,1022.5,73.9,1022.185,74.1,1021.865Z"/><path class="e" d="M93.519,962.992h0c-.377.626-.738,1.217-1.092,1.791C92.781,964.209,93.142,963.618,93.519,962.992Z"/><path class="e" d="M87.324,972.051c-4.422,4.945-7.415,3.266-13.381-3.845l11.284-12.625h0L73.943,968.206C79.909,975.317,82.9,977,87.324,972.051Z"/><path class="e" d="M69.993,972.626l-4.236,4.74,4.236-4.74Z"/><path class="e" d="M90.417,975.782c.579-.738,1.185-1.467,1.833-2.181C91.6,974.315,91,975.044,90.417,975.782Z"/><path class="e" d="M41.393,1101.5c.411-.388.838-.766,1.286-1.132C42.23,1100.733,41.805,1101.112,41.393,1101.5Z"/><path class="e" d="M66.572,1089.587q-.135.336-.268.674Q66.437,1089.924,66.572,1089.587Z"/><path class="e" d="M42.974,1100.138c.415-.33.838-.654,1.283-.966C43.812,1099.484,43.39,1099.809,42.974,1100.138Z"/><path class="e" d="M44.783,1098.824c.393-.264.787-.528,1.2-.779C45.569,1098.3,45.177,1098.56,44.783,1098.824Z"/><path class="e" d="M65.342,1092.741c-.015.039-.03.077-.044.116C65.312,1092.818,65.327,1092.78,65.342,1092.741Z"/><path class="e" d="M46.911,1097.52c.318-.18.628-.365.959-.538C47.539,1097.155,47.23,1097.34,46.911,1097.52Z"/><path class="e" d="M.394,1088.14h0c1.55-.292,3.105-.556,4.651-.817a29.907,29.907,0,0,0,7.9-2.551,29.907,29.907,0,0,1-7.9,2.551C3.5,1087.584,1.944,1087.848.394,1088.14Z"/><path class="e" d="M64.237,1095.671q-.574,1.533-1.152,3.064Q63.664,1097.2,64.237,1095.671Z"/><path class="e" d="M75.137,1084.651c.481,1.232.952,2.426,1.419,3.6C76.089,1087.076,75.617,1085.88,75.137,1084.651Z"/><path class="e" d="M75.1,1084.547l-.13.3c.045-.1.086-.195.13-.3Z"/><path class="e" d="M73.464,1088.275l.4-.917C73.732,1087.664,73.6,1087.974,73.464,1088.275Z"/><path class="e" d="M66.991,1078.409h0c-7.709,4.93-15.029,9.778-22.407,14.326C51.962,1088.187,59.282,1083.339,66.991,1078.409Z"/><path class="e" d="M28.918,1094.879c-2.764-1.8-5.043-4.348-7.4-6.451A43.464,43.464,0,0,1,29.24,1077.2a43.464,43.464,0,0,0-7.719,11.224c2.354,2.1,4.633,4.649,7.4,6.451,2.242,1.462,5.973,3.608,7.487,2.739,1.061-.609,2.114-1.23,3.167-1.854-1.052.624-2.106,1.245-3.167,1.854C34.891,1098.487,31.16,1096.341,28.918,1094.879Z"/><path class="e" d="M37.36,1057.195c-.711-4.506-.938-9.088-1.385-13.824h0c.447,4.735.674,9.317,1.385,13.823.4,2.518,1.073,6.637,2.522,7.078,9.669,2.94,19.58,5.083,30.217,7.681h0c-10.637-2.6-20.548-4.741-30.217-7.681C38.433,1063.832,37.758,1059.713,37.36,1057.195Z"/><path class="e" d="M30.53,1076.032c.492-.419.995-.8,1.506-1.164C31.525,1075.228,31.022,1075.613,30.53,1076.032Z"/><path class="e" d="M72.207,1029.952l.376-.428Z"/><path class="e" d="M75.168,1026.673l.256-.279Z"/><path class="e" d="M21.541,1095.235c.416.407.811.832,1.195,1.267C22.352,1096.068,21.956,1095.642,21.541,1095.235Z"/><path class="e" d="M23.019,1096.831c.321.377.634.761.932,1.156Q23.5,1097.4,23.019,1096.831Z"/><path class="e" d="M38.8,1104.4q.542-.732,1.15-1.419Q39.34,1103.67,38.8,1104.4Z"/><path class="e" d="M79.69,1021.733q-.789.884-1.587,1.753.8-.87,1.587-1.753Z"/><path class="e" d="M21.694,1078.791c-.134.124-.272.243-.408.365C21.422,1079.034,21.56,1078.915,21.694,1078.791Z"/><path class="e" d="M40.009,1102.917q.587-.66,1.236-1.282C40.811,1102.049,40.4,1102.478,40.009,1102.917Z"/><path class="e" d="M.394,1050.5l5.823-6.516h0a34.672,34.672,0,0,1,7.073-1.1c5.146-.485,10.359-.258,15.464-.333,7.184,14.2,2.08,27.758-7.06,36.237-.134.124-.272.243-.408.365a35.463,35.463,0,0,1-8.343,5.616,29.907,29.907,0,0,1-7.9,2.551c-1.546.261-3.1.525-4.651.817v6c.537-.106,1.071-.217,1.6-.338,6.495-1.487,12.785-5.183,19.542,1.426l.006.006c.415.407.811.833,1.195,1.267.1.108.189.219.283.329q.483.565.932,1.156c.051.067.1.133.154.2a27.986,27.986,0,0,1,4.724,10.3l8.927-2.531q.481-.792,1.033-1.537l.01-.014q.543-.73,1.15-1.419l.06-.066c.392-.439.8-.868,1.236-1.282.048-.046.1-.09.148-.136.412-.387.837-.766,1.286-1.132.095-.078.2-.152.295-.229.416-.329.838-.654,1.283-.966.17-.119.352-.232.526-.348.394-.264.786-.528,1.2-.779.3-.181.616-.351.926-.525s.628-.365.959-.538q.991-.519,2.054-1c5.728-2.6,10.764-6.726,17.726-9.03-.369.872-.726,1.753-1.078,2.638q-.135.336-.268.674-.486,1.236-.962,2.48c-.015.039-.03.077-.044.116q-.535,1.4-1.061,2.814-.574,1.533-1.152,3.064l-.014.039,6.6-1.872c.924-2.1,1.884-4.284,2.893-6.58.3-.673.594-1.353.9-2.047.133-.3.268-.611.4-.917.361-.823.726-1.658,1.1-2.514l.13-.3h0l.04.1c.48,1.229.952,2.425,1.419,3.6l.265.67c.706,1.773,1.39,3.48,2.06,5.154l.077.193,5.265-1.493q-.558-1.644-1.125-3.329c-.3-.887-.6-1.779-.91-2.68-.042-.123-.086-.249-.129-.372q-.414-1.2-.847-2.415-.141-.394-.284-.791c-.34-.941-.688-1.886-1.053-2.839l-.008-.022h0l.226.063q1.857.519,3.64,1.012l.6.167c7.221,1.994,13.572,3.7,19.686,5.565l.047.014,18.635-5.285a44.919,44.919,0,0,1,9.912-9.966c.1-.076.2-.153.3-.228.52-.388,1.045-.771,1.58-1.146l0,0c7.364-5.159,18.617-4.539,27.9-7.262.366-.107.724-.2,1.076-.276.129-.029.253-.048.38-.073.217-.042.435-.085.647-.117.162-.024.32-.039.479-.056s.336-.039.5-.051c.182-.013.359-.018.536-.023.133,0,.265-.008.4-.007.2,0,.392.01.585.021.1.006.2.012.293.021.217.019.43.044.641.075.06.009.12.019.179.03q.361.06.711.144l.038.01a11.484,11.484,0,0,1,6.08,4.093l6.616-1.876-7.3-5.694c.667-.745,1.311-1.467,1.947-2.178l3.914-4.38.629-.7,2.45-2.742,3.152-3.527h0l7.4,6.615-10.956,12.258,21.291-6.037,6.4-7.161L84.287,938.846,56.3,970.163.394,1032.718Zm66.6,27.906c-7.709,4.93-15.029,9.778-22.407,14.326q-2.5,1.539-5.012,3.029c-1.053.624-2.106,1.245-3.167,1.854-1.514.869-5.245-1.277-7.487-2.739-2.764-1.8-5.043-4.347-7.4-6.451A43.464,43.464,0,0,1,29.24,1077.2c.423-.417.854-.8,1.29-1.172.492-.419.995-.8,1.506-1.164,7.934-5.583,18.257-4.142,34.955,3.541Zm3.108-6.455c-10.637-2.6-20.548-4.741-30.217-7.681-1.449-.441-2.124-4.56-2.522-7.078-.711-4.506-.938-9.088-1.385-13.823h0a9.773,9.773,0,0,1,1.713-.867c22.059-2.73,24.261-.82,32.411,29.45Zm5.636-3h0c-4.04-10.293-7.572-18.268-10.143-26.542-.416-1.338.131-3.2,1-4.938a18.639,18.639,0,0,1,1.761-2.841c1.217-1.611,2.516-3.159,3.857-4.683l.376-.428q1.273-1.434,2.585-2.851l.256-.279q1.335-1.448,2.679-2.908.8-.87,1.587-1.753h0c13.149,9.908,13.149,9.908,7.148,23C83.463,1052.095,80.088,1059.46,75.735,1068.956Zm22.459-32.74a8.672,8.672,0,0,1,.757-.86c4.078-4.077,12.445-4.9,19.273-7.564-.11,9.391-1.121,17.32-6.1,23a23,23,0,0,1-9.356,6.214c-6.285,2.407-11.836,6.731-19.308,8.933C88.2,1055.9,91.586,1044.819,98.194,1036.216Zm22.457,39.977a25.647,25.647,0,0,1-2.389,2.163,17.478,17.478,0,0,1-2.869,1.885c-6.871,3.534-15.135,1.152-31.591-5.536h0q1.9-1.131,3.755-2.276l1.046-.647c4.243-2.628,8.346-5.259,12.451-7.7q1.278-.762,2.559-1.5a100.542,100.542,0,0,1,11.486-5.757c3.157-1.309,9.258,4.481,14.615,7.341A82.319,82.319,0,0,1,120.651,1076.193Zm30.69-61.526,29.5,26.368q-.438.943-.906,1.823c-.449.846-.924,1.635-1.41,2.4a31.572,31.572,0,0,1-1.872,2.641c-10.181,12.831-26.493,11.721-40.828,14.009-6.843,1.092-15.022-11.631-13.741-18.959.79-4.521,1.519-9.058,2.484-13.543a19,19,0,0,1,5.172-9.452A21.486,21.486,0,0,1,151.341,1014.667Zm-52.635-47.04,31.837,28.453c1.82,4.825.894,11.013-1.842,16.273-.015.029-.032.057-.047.085-.276.527-.573,1.043-.885,1.549a24.681,24.681,0,0,1-1.657,2.363q-.225.284-.457.559c-.359.424-.729.835-1.114,1.228-.026.026-.051.054-.077.081a17.669,17.669,0,0,1-6.594,4.314c-3.444,1.215-7.08,1.871-10.575,2.956-14.623,4.542-25.121-3.774-23.846-18.952.28-3.344,1.1-6.732.8-10.02a27.7,27.7,0,0,1,4.705-18.721q.688-1.023,1.462-2.013c.579-.738,1.185-1.467,1.833-2.181A55.488,55.488,0,0,1,98.706,967.627ZM85.227,955.581h0l8.292,7.411h0c-.377.626-.738,1.217-1.092,1.791q-.46.746-.9,1.433c-.733,1.154-1.42,2.188-2.07,3.1-.165.232-.327.457-.487.673q-.439.6-.859,1.119c-.269.334-.533.65-.791.939-4.422,4.945-7.415,3.266-13.381-3.845Zm-51.15,59.493a14.956,14.956,0,0,1,.3-2.6h0l31.378-35.11,4.236-4.74h0c3.96,4.031,8.669,7.047,8.822,10.265.516,10.924.838,22.439-2.061,32.8a24.875,24.875,0,0,1-2.658,6.171c-.193.32-.394.633-.6.943a24.65,24.65,0,0,1-3.1,3.772c-7.635,7.6-20.6,10.859-36.218,9.3C34.122,1029.108,33.934,1022.087,34.077,1015.074Zm-21.485,21.78,13.875-15.526,1.874-2.1h0c-.025,6.412-.045,11.605-.062,15.887h0l-15.687,1.734Z"/></g></g></svg>