<svg xmlns="http://www.w3.org/2000/svg" width="221.766" height="221.767" viewBox="0 0 221.766 221.767"><g transform="translate(-558.898 -1134.086)" opacity="0.15"><rect width="37.688" height="11.464" transform="translate(643.489 1229.83)" fill="#502526"/><path d="M669.781,1134.086A110.883,110.883,0,1,0,780.664,1244.97,110.883,110.883,0,0,0,669.781,1134.086Zm-67.849,139.881h12.181v14.044H601.932Zm34.679,32.1h-44.28v-15.19H627.01v-4.013a4.8,4.8,0,0,1,9.6,0Zm.287-24.075a6.816,6.816,0,0,0-5.016-2.723,7.771,7.771,0,0,0-7.738,7.595v1.147h-7.166v-65.059H706.4v66.635h-7.165v-2.723a6.393,6.393,0,0,0-6.3-6.448,6.534,6.534,0,0,0-5.016,2.436v-10.318a25.508,25.508,0,0,0-51.015,0Zm48.149,16.766h-4.012v-24.934a18.63,18.63,0,1,0-37.259,0v24.934h-4.012v-25.794a22.646,22.646,0,1,1,45.283,0Zm52.878,7.309H687.913v-19.2a5.027,5.027,0,0,1,5.016-4.728,4.678,4.678,0,0,1,4.728,4.728v5.446h40.268Zm-28.66-16.48v-15.62H721.3v15.62Zm37.975-49.725a16.024,16.024,0,0,1-16.05,16.05c-2.723,5.3-3.726,9.027-3.726,16.622,0,4.442.717,11.464,1,17.053h-4.3V1271.1h-9.315c-.429-5.015-1.576-12.9-3.725-15.189a13.1,13.1,0,0,0-1.863-1v-34.822H697.227c1.72-2.723,5.016-6.019,9.6-6.019.573,0,1,.144,1.577.144a14.563,14.563,0,0,1,25.364-1.434,9.86,9.86,0,0,1,9.028,9.888v.717a9.461,9.461,0,0,1,4.443,8.312,10.626,10.626,0,0,1-.717,3.582A16.146,16.146,0,0,1,747.24,1239.862Z" fill="#502526"/></g></svg>