<svg xmlns="http://www.w3.org/2000/svg" width="24" height="24" viewBox="0 0 24 24">
    <g fill="none" fill-rule="evenodd">
        <rect width="24" height="24" fill="#009F5F" rx="4"/>
        <path fill="#FFF" fill-rule="nonzero" d="M6.872 8.788v3.808h1.722c1.61 0 2.492-.644 2.492-1.974 0-1.358-.882-1.834-2.492-1.834H6.872zM12.682 18h-1.47L8.72 13.646H6.872V18H5.57V7.738h3.22c2.086 0 3.584.742 3.584 2.884 0 1.596-.924 2.548-2.324 2.884L12.682 18zm.994 0v-.756c3.22-2.814 4.704-4.858 4.704-6.622 0-1.176-.616-2.03-1.89-2.03-.84 0-1.568.518-2.128 1.19l-.742-.728c.84-.91 1.722-1.512 3.024-1.512 1.834 0 2.982 1.204 2.982 3.038 0 2.044-1.61 4.13-4.018 6.412.532-.042 1.162-.098 1.68-.098h2.842V18h-6.454z"/>
    </g>
</svg>
