<svg xmlns="http://www.w3.org/2000/svg" xmlns:xlink="http://www.w3.org/1999/xlink" width="50" height="50" viewBox="0 0 50 50"><defs><style>.a{clip-path:url(#b);}.b{fill:#502526;}</style><clipPath id="b"><rect width="50" height="50"/></clipPath></defs><g id="a" class="a"><g transform="translate(-40)"><path class="b" d="M65.827,41.416a.982.982,0,0,0-.369-.042,9.647,9.647,0,0,1-1.044-.15,5.373,5.373,0,0,1-.783-.215,6.08,6.08,0,0,1-1.481-.785,2.946,2.946,0,0,1-.837-.924,3.71,3.71,0,0,1-.332-.815,7.8,7.8,0,0,1-.229-1.144c-.032-.242-.049-.488-.076-.731a13.883,13.883,0,0,1-.066-1.868,8.441,8.441,0,0,1,.111-1.038c.056-.37.128-.736.213-1.1.121-.519.267-1.033.4-1.549.119-.458.239-.915.344-1.377.089-.39.18-.779.26-1.171q.1-.514.189-1.034c.056-.346.1-.694.149-1.041.055-.38.114-.76.164-1.141.029-.217.044-.435.068-.652.038-.33.078-.66.116-.99.01-.092.011-.184.018-.276a6.7,6.7,0,0,0,.031-1,.589.589,0,0,0-.066-.259l.4.051c.208.029.415.062.623.086.289.032.579.053.868.086.133.015.266.015.4.029.252.027.509.009.762.027.489.036.979.03,1.468.024.431-.005.862-.017,1.292-.05.218-.016.437-.013.654-.042.319-.042.641-.051.959-.1.279-.039.561-.053.837-.114.124-.027.159.015.144.139-.028.244-.044.489-.066.733-.041.446-.042.891-.042,1.337,0,.463-.011.926.02,1.388.023.332.05.665.1.994a8.725,8.725,0,0,0,.292,1.374c.116.384.217.772.338,1.153.109.341.2.686.313,1.027.1.309.158.63.244.943.091.335.158.676.219,1.017.049.274.1.55.126.829.035.331.063.662.093.993.043.479.016.956.02,1.434a8.181,8.181,0,0,1-.047.884,13.056,13.056,0,0,1-.231,1.561,4.8,4.8,0,0,1-.644,1.651,2.517,2.517,0,0,1-.758.745,13.113,13.113,0,0,1-1.205.656,3.254,3.254,0,0,1-.764.229c-.354.077-.714.117-1.072.165-.141.019-.284.015-.426.025-.039,0-.086-.021-.116.025Z"/><path class="b" d="M71.164,8.849c-.021.042.012.04.037.047a2.47,2.47,0,0,1,.976.539,6.978,6.978,0,0,1,.838.864c.259.314.5.643.726.981.32.473.617.961.9,1.459.214.383.426.767.614,1.162a17.4,17.4,0,0,1,.814,1.925,5.021,5.021,0,0,1,.2.864,3.123,3.123,0,0,1,.015.772,2.762,2.762,0,0,1-.336,1.074,4.313,4.313,0,0,1-.485.691,4.874,4.874,0,0,1-.357.375c-.24.227-.5.431-.759.636a3.938,3.938,0,0,1-.68.452,5.078,5.078,0,0,1-1.038.372c-.364.092-.733.153-1.1.218-.308.055-.621.078-.932.117s-.612.085-.92.116c-.179.018-.359.037-.538.047-.429.025-.859.052-1.289.075-.722.039-1.443.017-2.165.015a7.191,7.191,0,0,1-.746-.043c-.356-.039-.713-.071-1.067-.129-.334-.055-.671-.093-1-.149a9.386,9.386,0,0,1-1.061-.235,7.114,7.114,0,0,1-1.361-.553,10.438,10.438,0,0,1-1.036-.655,5.184,5.184,0,0,1-.847-.732,2.968,2.968,0,0,1-.644-1.029,3.551,3.551,0,0,1-.189-1.179,7.593,7.593,0,0,1,.053-.978,7.116,7.116,0,0,1,.233-1.118,12.536,12.536,0,0,1,.974-2.292,11.356,11.356,0,0,1,.764-1.253,10.161,10.161,0,0,1,1.081-1.326,4.818,4.818,0,0,1,.92-.749,1.681,1.681,0,0,1,.708-.212,2.9,2.9,0,0,1,.447-.03,4.777,4.777,0,0,1,.973.154c.427.113.852.238,1.282.342a7.2,7.2,0,0,0,.983.161,8.018,8.018,0,0,0,.955.038,5.525,5.525,0,0,0,.878-.1,8.7,8.7,0,0,0,1.179-.331c.22-.074.435-.162.656-.232a2.313,2.313,0,0,1,.6-.149c.012,0,.023-.017.035-.025h.626c0,.006.008.018.013.019s.015-.008.01-.019Zm-1.371,4.872a1.616,1.616,0,0,0,.28.977.832.832,0,0,0,.5.36.72.72,0,0,0,.666-.208,1.342,1.342,0,0,0,.381-.743,1.59,1.59,0,0,0-.259-1.286.745.745,0,0,0-1.245-.034A1.515,1.515,0,0,0,69.793,13.721Zm-6.587.162a1.671,1.671,0,0,0-.281-1.048.751.751,0,0,0-1.253-.053,1.413,1.413,0,0,0-.293.654,1.626,1.626,0,0,0,.264,1.286.8.8,0,0,0,.477.335.705.705,0,0,0,.623-.166A1.368,1.368,0,0,0,63.206,13.883Z"/><path class="b" d="M49.894,30.58c.061-.064.03-.147.038-.22.037-.311.094-.619.154-.926.071-.358.162-.713.258-1.066s.213-.716.345-1.064c.115-.3.252-.6.4-.885a9.5,9.5,0,0,1,.594-1.045,7.9,7.9,0,0,1,.821-1.033,6.357,6.357,0,0,1,1.17-.977,3.369,3.369,0,0,1,1.158-.5,1.267,1.267,0,0,1,.289-.006c.07,0,.086.056.086.115a1.3,1.3,0,0,1-.13.46c-.175.459-.377.906-.57,1.357-.227.533-.419,1.078-.6,1.628a8.764,8.764,0,0,0-.3,1.218q-.07.411-.1.829a4.434,4.434,0,0,0-.016.6,4.272,4.272,0,0,0,.279,1.322,3.533,3.533,0,0,0,.969,1.292,9.239,9.239,0,0,0,1.269.993,6.632,6.632,0,0,0,1.042.563,6.2,6.2,0,0,0,1.312.394,6.547,6.547,0,0,0,1.226.088c.069,0,.138-.012.206-.018s.093.023.078.081a4.6,4.6,0,0,0-.039.654c-.02.175,0,.355-.007.533-.009.417,0,.834.022,1.25a7.345,7.345,0,0,0,.269,1.774,4.485,4.485,0,0,0,.33.868c.044.081.018.1-.055.111-.132.013-.265.033-.4.035-.386,0-.774.019-1.159,0-.353-.02-.706-.052-1.057-.107-.366-.058-.729-.125-1.088-.213a11.134,11.134,0,0,1-1.113-.337c-.363-.131-.721-.275-1.071-.436-.3-.141-.6-.3-.895-.462a8.271,8.271,0,0,1-.812-.492c-.194-.141-.38-.292-.563-.447a5.318,5.318,0,0,1-.606-.632,6.97,6.97,0,0,1-.8-1.176,7.783,7.783,0,0,1-.475-1.059,7.1,7.1,0,0,1-.333-1.213,4.431,4.431,0,0,1-.1-.716c0-.024,0-.047-.028-.059Z"/><path class="b" d="M79.177,36.358c-.04-.009-.043.017-.047.046a4.155,4.155,0,0,1-.831,1.975,4.845,4.845,0,0,1-1.007.958,6.628,6.628,0,0,1-1.017.623,5.562,5.562,0,0,1-1.294.444,4.607,4.607,0,0,1-1.271.078,4.864,4.864,0,0,1-1.434-.325c-.046-.017-.064-.044-.018-.091a2.354,2.354,0,0,0,.366-.413,4.593,4.593,0,0,0,.343-.7,5.794,5.794,0,0,0,.264-.909c.06-.306.119-.613.152-.925s.063-.639.091-.96c.036-.4.028-.807.048-1.21a4.6,4.6,0,0,0,.019-.55,13.43,13.43,0,0,0-.131-1.369c-.068-.406-.142-.81-.233-1.211s-.189-.784-.3-1.172c-.08-.274-.15-.551-.237-.823-.026-.081-.048-.162-.075-.242-.042-.12-.02-.151.1-.132.267.042.534.087.8.129.454.071.9.179,1.343.292a7.771,7.771,0,0,1,1.12.38,6.381,6.381,0,0,1,1.552.9,4.272,4.272,0,0,1,.57.571,4.131,4.131,0,0,1,.574.915,5.374,5.374,0,0,1,.385,1.171,6.324,6.324,0,0,1,.143,1.042c0,.019,0,.039.026.046v1.253a.122.122,0,0,0,0,.163Z"/></g></g></svg>