<svg xmlns="http://www.w3.org/2000/svg" xmlns:xlink="http://www.w3.org/1999/xlink" width="50" height="50" viewBox="0 0 50 50"><defs><style>.a{clip-path:url(#b);}.b{fill:#502526;}</style><clipPath id="b"><rect width="50" height="50"/></clipPath></defs><g id="a" class="a"><g transform="translate(-607 -9)"><path class="b" d="M650.039,49.143H635.364l-.853-7.891h-3.84L629.6,49.143H614.632l1.493-8.318h2.43V27.472h5.931V40.825h3.157v-.853h.853V34.6h18.13v5.375h.853v.853H648.8ZM626.661,20.817H616.38l5.162-5.8Zm-9.725.853h1.748s.427,1.919.6,2.56c.127.64.511.64.98.64h2.39c.511,0,.852,0,1.023-.64l.555-2.56h1.876l-1.237,4.948h-6.7Zm5.374,7.508h-1.577v1.833h1.577Zm0,4.223h-1.577v1.834h1.577Zm0,4.65h-1.577v2.773h1.577Zm25.213-4.309H627.643v-.768l2.389-1.876h14.931l2.56,1.876Zm-14.462,3.285c0-.6-.725-1.066-1.578-1.066s-1.535.469-1.535,1.066v2.944h3.114Zm11.177-7.636v.853H630.671v-.853Zm-7.082,7.636c0-.6-.682-1.066-1.535-1.066s-1.536.469-1.536,1.066v2.944h3.072Zm4.138,0c0-.6-.682-1.066-1.535-1.066s-1.536.469-1.536,1.066v2.944h3.072Zm3.967,0c0-.6-.682-1.066-1.535-1.066s-1.536.469-1.536,1.066v2.944h3.072Z" transform="translate(0)"/></g></g></svg>