<svg xmlns="http://www.w3.org/2000/svg" xmlns:xlink="http://www.w3.org/1999/xlink" width="50" height="50" viewBox="0 0 50 50">
  <defs>
    <style>
      .cls-1 {
        clip-path: url(#clip-icon-volunteering);
      }

      .cls-2 {
        fill: #502526;
      }
    </style>
    <clipPath id="clip-icon-volunteering">
      <rect width="50" height="50"/>
    </clipPath>
  </defs>
  <g id="icon-volunteering" class="cls-1">
    <g id="Group_13" data-name="Group 13" transform="translate(-103 -195)">
      <path id="Path_25" data-name="Path 25" class="cls-2" d="M127.6,214.121a7.025,7.025,0,0,1,0-14.049,7,7,0,0,1,7.071,7.118A6.916,6.916,0,0,1,127.6,214.121Z"/>
      <path id="Path_26" data-name="Path 26" class="cls-2" d="M127.448,223.173l.071.123a.126.126,0,0,0,.238,0l.011-.02a.5.5,0,0,0-.3-.107C127.462,223.169,127.455,223.173,127.448,223.173Z"/>
      <path id="Path_27" data-name="Path 27" class="cls-2" d="M127.269,222.921a.715.715,0,0,1,.779.139l4.28-7.413q-4.7,0-9.389.018l4.218,7.305Z"/>
      <path id="Path_28" data-name="Path 28" class="cls-2" d="M127.469,224.387a.517.517,0,1,0-.518-.517A.517.517,0,0,0,127.469,224.387Z"/>
      <path id="Path_29" data-name="Path 29" class="cls-2" d="M141.263,221.525c-.163-3.684-2.672-5.879-6.348-5.883-.477,0-.954,0-1.432,0l-4.871,8.437c-.01.018-.025.031-.036.048l2.118,4.847a.716.716,0,0,1-.368.939l-4.133,1.806a.715.715,0,0,1-.939-.368l-2.486-5.687a.716.716,0,0,1,.368-.939l3.1-1.354-4.449-7.705-1.419,0c-3.675.01-6.143,2.051-6.333,5.706-.216,4.132-.129,8.282-.057,12.423a2.574,2.574,0,0,0,3.3,2.414c1.486-.36,1.912-1.508,1.935-2.875.051-3.08.071-6.16.141-9.239a7.383,7.383,0,0,1,.331-1.465l.4.035c.06.628.17,1.255.172,1.883.015,4.7,0,9.4.013,14.1,0,1.787.339,2.111,2.149,2.116q5.228.015,10.457,0c1.768,0,2.114-.351,2.116-2.154.005-4.7-.016-9.4-.007-14.094,0-.625.122-1.249.187-1.874l.554-.029c.1,1.059.277,2.117.3,3.177.049,2.626-.019,5.255.052,7.88a2.441,2.441,0,0,0,2.53,2.623,2.577,2.577,0,0,0,2.717-2.646C141.372,229.6,141.441,225.558,141.263,221.525Z"/>
      <path id="Path_30" data-name="Path 30" class="cls-2" d="M133.485,215.641h-1.154l0,.006c.385,0,.77,0,1.155,0Z"/>
      <path id="Path_31" data-name="Path 31" class="cls-2" d="M122.925,215.641h-1.154l.015.027,1.153,0Z"/>
    </g>
  </g>
</svg>
