<svg xmlns="http://www.w3.org/2000/svg" width="59.25" height="37.992" viewBox="0 0 59.25 37.992"><g transform="translate(-389.8 -1355.595)"><rect width="5.181" height="23.944" rx="2.59" transform="translate(425.105 1379.54) rotate(-90)" fill="#fbd9ca"/><rect width="5.181" height="19.149" rx="2.59" transform="translate(434.487 1374.437)" fill="#fbd9ca"/><rect width="5.181" height="23.944" rx="2.59" transform="translate(443.869 1355.595)" fill="#fbd9ca"/><rect width="5.181" height="23.944" rx="2.59" transform="translate(425.105 1355.595)" fill="#fbd9ca"/><path d="M389.8,1359.982l2.754-1.882-2.754-1.878v-.5l3.085,2.108h2.351v.913h-2.264l-3.172,2.172Z" fill="#fbd9ca"/><rect width="5.181" height="23.944" rx="2.59" transform="translate(413.573 1355.595)" fill="#fbd9ca"/><rect width="5.181" height="26.728" rx="2.59" transform="translate(394.809 1366.859)" fill="#fbd9ca"/><rect width="5.181" height="23.944" rx="2.59" transform="translate(394.809 1379.54) rotate(-90)" fill="#fbd9ca"/><path d="M416.163,1355.595H397.4a2.591,2.591,0,0,0,0,5.181h18.764a2.591,2.591,0,0,0,0-5.181Zm-16.8,4.312h-2.1v-1.2h2.1Zm0-2.073h-2.1v-1.2h2.1Z" fill="#fbd9ca"/></g></svg>