<svg xmlns="http://www.w3.org/2000/svg" width="24" height="28" viewBox="0 0 24 28">
    <g fill="none" fill-rule="evenodd">
        <path fill="#169B64" d="M9.816 22.09c-1.392-.787-.808-1.37-3.565-2.358-1.838-.658-3.574-1.068-5.209-1.229 1.83-.821 3.69-1.08 5.579-.776 2.833.456 2.87 1.487 4.204 2.82.889.89 2.259 1.684 4.11 2.382-2.485-.035-4.19-.315-5.119-.84zM22.413 9.18c.985 1.535.716 4.205-.808 8.011.023-3.36-.322-5.534-1.034-6.524-.835-1.161-1.585-1.407-2.02-4.524-.29-2.078.042-4.126.995-6.144-.498 1.59-.036 3.84 1.387 6.75.248.507.003.13 1.48 2.431zm-9.32 4.522c-.699-.885-1.426-2.176-4.316-4.509C6.85 7.639 5.347 6.681 4.27 6.322c2.286-.406 4.32-.05 6.105 1.069 2.677 1.678 4.775 4.19 5.589 5.375.813 1.184 3.447 5.106 3.998 9.13.74 5.398 5.136 5.49 3.037 5.086-2.1-.404-4.925-.128-6.116-5.339-.809-3.536-3.338-7.368-3.79-7.94z"/>
        <path fill="#F4D45F" d="M8.774 22.329c-1.392-.787-.808-1.37-3.565-2.358C3.37 19.313 1.635 18.903 0 18.742c1.83-.821 3.69-1.08 5.578-.776 2.834.456 2.87 1.487 4.204 2.82.89.89 2.26 1.684 4.11 2.382-2.484-.035-4.19-.315-5.118-.84zM21.37 9.42c.985 1.535.716 4.205-.808 8.011.022-3.36-.322-5.534-1.034-6.524-.835-1.161-1.585-1.407-2.02-4.524-.29-2.078.042-4.126.994-6.144-.498 1.59-.035 3.84 1.387 6.75.249.507.004.13 1.481 2.431zm-9.32 4.522c-.699-.885-1.426-2.176-4.316-4.51-1.928-1.554-3.43-2.512-4.507-2.871 2.286-.406 4.322-.05 6.106 1.069 2.676 1.678 4.775 4.19 5.588 5.375.814 1.184 3.447 5.106 3.999 9.13.74 5.398 5.135 5.49 3.036 5.086-2.099-.404-4.924-.129-6.115-5.339-.809-3.536-3.338-7.368-3.791-7.94z"/>
    </g>
</svg>
