<svg xmlns="http://www.w3.org/2000/svg" width="56" height="26" viewBox="0 0 56 26">
    <g fill="#E23728" fill-rule="nonzero">
        <path d="M33.41 18.316c0 .79.64 1.431 1.43 1.431h6.683v1.022a1.909 1.909 0 1 0 .954 0v-1.022h6.682c.79 0 1.432-.64 1.432-1.43V6.386H33.409v11.93zm9.545 4.294a.954.954 0 1 1-1.91 0 .954.954 0 0 1 1.91 0zm8.59-19.085a.954.954 0 1 1 0 1.909h-19.09a.954.954 0 1 1 0-1.909h19.09zm-12.687 7.688v1.478h1.588c.235 0 .428.19.428.422a.427.427 0 0 1-.428.42h-1.588v1.52h2.226a.43.43 0 1 1 0 .86h-2.713a.483.483 0 0 1-.487-.48v-4.6c0-.264.218-.479.487-.479h2.621a.43.43 0 1 1 0 .86h-2.134zm7.208-.925a.48.48 0 0 1 .478.471v4.748a.48.48 0 0 1-.873.265l-2.478-3.518v3.253a.48.48 0 0 1-.958 0V10.76a.48.48 0 0 1 .479-.47.45.45 0 0 1 .386.198l2.487 3.542v-3.27a.48.48 0 0 1 .479-.47zM13.537 3.325c5.494 0 9.963 4.486 9.963 10s-4.47 10-9.963 10a9.857 9.857 0 0 1-5.696-1.798L3.89 23.3a.275.275 0 0 1-.304-.052.28.28 0 0 1-.069-.302l1.614-4.256a9.982 9.982 0 0 1-1.557-5.366c0-5.514 4.469-10 9.962-10zm-3.763 8.877h2.134a.435.435 0 0 0 .437-.439.435.435 0 0 0-.437-.438h-2.62a.488.488 0 0 0-.488.489v4.696c0 .27.218.49.487.49H12a.435.435 0 0 0 .437-.44.435.435 0 0 0-.437-.438H9.774v-1.55h1.588a.431.431 0 0 0 0-.86H9.774v-1.51zm7.856-.877c-.26 0-.478.22-.478.48v3.34l-2.487-3.618a.448.448 0 0 0-.386-.202c-.26 0-.479.22-.479.48v4.849c0 .261.218.48.479.48.26 0 .479-.219.479-.48v-3.322l2.478 3.591c.084.127.235.211.394.211.26 0 .48-.219.48-.48v-4.848a.485.485 0 0 0-.48-.481z"/>
    </g>
</svg>
